<svg width="172" height="172" viewBox="0 0 172 172" fill="none" xmlns="http://www.w3.org/2000/svg">
<g clip-path="url(#clip0_94_3564)">
<path d="M59.3308 55.1715C59.7564 55.1789 60.128 55.5022 60.3062 55.8888C60.4844 56.2754 60.5024 56.7154 60.4885 57.1409C60.483 57.3075 60.4716 57.4796 60.3953 57.6278C60.1925 58.0211 59.5162 58.0136 59.3222 57.6158C59.1283 57.2179 59.5389 56.6805 59.9737 56.7631" fill="black"/>
<path d="M59.2295 54.809C59.8307 54.7064 60.4445 54.9797 60.7599 55.5059C61.0693 56.0218 61.1327 56.6672 61.1027 57.2567C61.085 57.6051 60.9969 57.9665 60.733 58.214C60.5003 58.4323 60.2079 58.5388 59.8927 58.5584C59.6398 58.574 59.3566 58.4979 59.1457 58.3579C58.8281 58.1469 58.6516 57.828 58.6169 57.451C58.5838 57.092 58.7502 56.7411 58.9828 56.4786C59.2152 56.2163 59.6182 56.0288 59.9724 56.0748C60.1644 56.0997 60.3152 56.1443 60.4591 56.2764C60.619 56.4232 60.6763 56.6469 60.6484 56.8546C60.6233 57.0414 60.5386 57.1883 60.3894 57.3036C60.2071 57.4444 60.0123 57.4687 59.7894 57.4268L59.7607 57.4214L59.9434 57.4459C59.8952 57.4399 59.8493 57.4395 59.8011 57.4447L59.9828 57.4203C59.9547 57.4249 59.9278 57.4327 59.9001 57.4385C59.7905 57.4616 60.0482 57.3572 59.9576 57.4136C59.934 57.4284 59.9094 57.4464 59.8846 57.4591C59.9815 57.3813 60.0047 57.3644 59.954 57.4086C59.9432 57.4185 59.9329 57.4287 59.923 57.4394C59.8274 57.5247 59.9809 57.3411 59.9545 57.3943C59.9426 57.4183 59.9257 57.4477 59.9098 57.469C59.8745 57.5162 59.961 57.2924 59.9328 57.4167C59.9255 57.4492 59.9162 57.4805 59.9108 57.5136C59.9187 57.4551 59.9265 57.3967 59.9344 57.3382C59.9293 57.3858 59.9293 57.4315 59.9346 57.479L59.9111 57.3044C59.9137 57.3233 59.9174 57.3419 59.9222 57.3603C59.9417 57.4231 59.9295 57.3982 59.8855 57.2857C59.8927 57.3013 59.9008 57.3165 59.9096 57.3312C59.9447 57.3849 59.9254 57.3614 59.8515 57.2609C59.9071 57.3119 59.9703 57.3376 59.8109 57.2443C59.8397 57.2612 59.8672 57.2798 59.8964 57.2963C59.9829 57.345 59.7335 57.2436 59.8359 57.2687C59.8689 57.2768 59.9024 57.2837 59.9353 57.2918C59.7315 57.2413 59.8211 57.279 59.8926 57.2774C60.0435 57.274 59.7501 57.3121 59.8499 57.2859C59.8781 57.2784 59.9071 57.2682 59.9354 57.262C59.9798 57.2524 59.7702 57.3467 59.8862 57.279C60.0097 57.2069 59.7936 57.3749 59.8576 57.3034C59.9537 57.1962 59.7967 57.4232 59.8382 57.3329C59.9056 57.1865 59.8191 57.4338 59.8444 57.3187C59.8522 57.2837 59.8581 57.2405 59.8689 57.2065C59.8563 57.3083 59.8535 57.325 59.8606 57.2567C59.8629 57.231 59.8647 57.2052 59.8662 57.1794C59.8696 57.1253 59.872 57.0711 59.8739 57.017C59.8777 56.9065 59.8787 56.7959 59.8744 56.6855C59.8728 56.6442 59.8702 56.603 59.8673 56.5618C59.8651 56.5305 59.8731 56.4212 59.8523 56.3983C59.865 56.4901 59.8661 56.5027 59.8554 56.4362C59.8507 56.4092 59.8454 56.3824 59.8396 56.3557C59.8279 56.3025 59.8142 56.2496 59.798 56.1976C59.7941 56.1847 59.7732 56.0871 59.7576 56.0819C59.7927 56.1624 59.798 56.1756 59.7733 56.1216C59.7635 56.1013 59.7533 56.0811 59.7425 56.0613C59.6996 55.982 59.649 55.9072 59.6041 55.829C59.5988 55.8196 59.5316 55.7201 59.5329 55.7185C59.5779 55.7751 59.588 55.7883 59.5632 55.7582C59.5527 55.7453 59.5418 55.7326 59.5305 55.7203C59.5012 55.6878 59.4689 55.6593 59.4377 55.6288C59.3998 55.5972 59.4054 55.6011 59.4546 55.6403C59.4368 55.6276 59.4187 55.6155 59.4002 55.604C59.3818 55.5926 59.258 55.5352 59.3546 55.5729C59.3136 55.5569 59.272 55.5446 59.2294 55.534C59.0757 55.4958 58.9462 55.3323 58.9534 55.1715C58.9603 55.0175 59.0638 54.8373 59.2295 54.809Z" fill="black"/>
<path d="M60.3464 50.6527C60.3209 50.6283 60.2937 50.606 60.2677 50.5822C60.2341 50.5514 60.3182 50.6178 60.2812 50.5921C60.2653 50.581 60.2499 50.5694 60.2339 50.5586C60.179 50.5217 60.1213 50.4889 60.0617 50.4603C59.9914 50.4266 60.0735 50.4584 60.0736 50.4636C60.0734 50.4559 59.9822 50.4243 59.9655 50.4166C59.9516 50.4102 59.9361 50.4048 59.9229 50.3971C59.999 50.4413 59.9592 50.4125 59.9338 50.403C59.8679 50.3784 59.8002 50.3585 59.7314 50.3435C59.7008 50.3368 59.67 50.3319 59.6392 50.3264C59.5934 50.3181 59.7215 50.3341 59.654 50.329C59.6384 50.3279 59.6228 50.3263 59.6072 50.3252C59.5371 50.3206 59.4666 50.321 59.3966 50.3266C59.3817 50.3278 59.3649 50.332 59.35 50.3311C59.3821 50.3331 59.4224 50.3199 59.3648 50.3299C59.3341 50.3353 59.3036 50.3416 59.2733 50.3491C59.2015 50.3667 59.1315 50.3916 59.0615 50.4153C58.8948 50.4717 58.7093 50.3637 58.6448 50.2107C58.5792 50.0553 58.6333 49.8526 58.7893 49.7695C59.13 49.5883 59.5399 49.5672 59.9127 49.6418C60.2654 49.7124 60.5881 49.9046 60.8126 50.1864C60.9199 50.3211 60.9539 50.523 60.8126 50.6527C60.6787 50.7756 60.4795 50.7803 60.3464 50.6527Z" fill="black"/>
<path d="M43.6589 55.1715C44.0845 55.1789 44.4562 55.5022 44.6343 55.8888C44.8125 56.2754 44.8306 56.7154 44.8166 57.1409C44.8111 57.3075 44.7997 57.4796 44.7234 57.6278C44.5206 58.0211 43.8443 58.0136 43.6503 57.6158C43.4564 57.2179 43.867 56.6805 44.3018 56.7631" fill="black"/>
<path d="M43.5576 54.809C44.1588 54.7064 44.7726 54.9797 45.0881 55.5059C45.3975 56.0218 45.4608 56.6672 45.4308 57.2567C45.4131 57.6051 45.3251 57.9665 45.0612 58.214C44.8285 58.4323 44.536 58.5388 44.2208 58.5584C43.9679 58.574 43.6847 58.4979 43.4738 58.3579C43.1563 58.1469 42.9797 57.828 42.945 57.451C42.9119 57.092 43.0783 56.7411 43.3109 56.4786C43.5434 56.2163 43.9464 56.0288 44.3005 56.0748C44.4925 56.0997 44.6433 56.1443 44.7872 56.2764C44.9472 56.4232 45.0044 56.6469 44.9765 56.8546C44.9514 57.0414 44.8668 57.1883 44.7175 57.3036C44.5352 57.4444 44.3404 57.4687 44.1175 57.4268L44.0888 57.4214L44.2715 57.4459C44.2233 57.4399 44.1774 57.4395 44.1292 57.4447C44.1898 57.4366 44.2503 57.4284 44.3109 57.4203C44.2828 57.4249 44.2559 57.4327 44.2282 57.4385C44.1186 57.4616 44.3763 57.3572 44.2858 57.4136C44.2621 57.4284 44.2375 57.4464 44.2128 57.4591C44.3097 57.3813 44.3328 57.3644 44.2821 57.4086C44.2713 57.4185 44.261 57.4287 44.2511 57.4394C44.1556 57.5247 44.309 57.3411 44.2826 57.3943C44.2707 57.4183 44.2538 57.4477 44.2379 57.469C44.2026 57.5162 44.2891 57.2924 44.2609 57.4167C44.2536 57.4492 44.2443 57.4805 44.2389 57.5136C44.2468 57.4551 44.2546 57.3967 44.2625 57.3382C44.2574 57.3858 44.2574 57.4315 44.2627 57.479L44.2392 57.3044C44.2418 57.3233 44.2455 57.3419 44.2503 57.3603C44.2699 57.4231 44.2576 57.3982 44.2136 57.2857C44.2208 57.3013 44.2289 57.3165 44.2377 57.3312C44.2729 57.3849 44.2535 57.3614 44.1796 57.2609C44.2352 57.3119 44.2984 57.3376 44.139 57.2443C44.1678 57.2612 44.1953 57.2798 44.2245 57.2963C44.3111 57.345 44.0616 57.2436 44.164 57.2687C44.197 57.2768 44.2305 57.2837 44.2634 57.2918C44.0597 57.2413 44.1493 57.279 44.2207 57.2774C44.3716 57.274 44.0782 57.3121 44.178 57.2859C44.2063 57.2784 44.2352 57.2682 44.2636 57.262C44.3079 57.2524 44.0983 57.3467 44.2143 57.279C44.3378 57.2069 44.1217 57.3749 44.1858 57.3034C44.2818 57.1962 44.1248 57.4232 44.1664 57.3329C44.2337 57.1865 44.1472 57.4338 44.1726 57.3187C44.1803 57.2837 44.1863 57.2405 44.1971 57.2065C44.1844 57.3083 44.1816 57.325 44.1888 57.2567C44.191 57.231 44.1929 57.2052 44.1944 57.1794C44.1977 57.1253 44.2001 57.0711 44.202 57.017C44.2058 56.9065 44.2068 56.7959 44.2025 56.6855C44.2009 56.6442 44.1983 56.603 44.1954 56.5618C44.1932 56.5305 44.2012 56.4212 44.1804 56.3983C44.1931 56.4901 44.1942 56.5027 44.1836 56.4362C44.1788 56.4092 44.1735 56.3824 44.1677 56.3557C44.156 56.3025 44.1423 56.2496 44.1262 56.1976C44.1222 56.1847 44.1013 56.0871 44.0857 56.0819C44.1209 56.1624 44.1261 56.1756 44.1014 56.1216C44.0917 56.1013 44.0814 56.0811 44.0706 56.0613C44.0277 55.982 43.9771 55.9072 43.9323 55.829C43.9269 55.8196 43.8597 55.7201 43.8611 55.7185C43.906 55.7751 43.9162 55.7883 43.8914 55.7582C43.8808 55.7453 43.8699 55.7326 43.8587 55.7203C43.8294 55.6878 43.797 55.6593 43.7658 55.6288C43.7279 55.5972 43.7335 55.6011 43.7827 55.6403C43.7649 55.6276 43.7468 55.6155 43.7283 55.604C43.7099 55.5926 43.5861 55.5352 43.6827 55.5729C43.6418 55.5569 43.6002 55.5446 43.5575 55.534C43.4038 55.4958 43.2743 55.3323 43.2815 55.1715C43.2884 55.0175 43.3919 54.8373 43.5576 54.809Z" fill="black"/>
<path d="M44.6784 50.6527C44.6529 50.6283 44.6257 50.606 44.5997 50.5822C44.5662 50.5514 44.6502 50.6178 44.6132 50.5921C44.5974 50.581 44.582 50.5694 44.5659 50.5586C44.511 50.5217 44.4534 50.4889 44.3938 50.4603C44.3235 50.4266 44.4055 50.4584 44.4056 50.4636C44.4054 50.4559 44.3143 50.4243 44.2975 50.4166C44.2837 50.4102 44.2682 50.4048 44.255 50.3971C44.3311 50.4413 44.2913 50.4125 44.2659 50.403C44.1999 50.3784 44.1322 50.3585 44.0635 50.3435C44.0329 50.3368 44.0021 50.3319 43.9712 50.3264C43.9255 50.3181 44.0536 50.3341 43.986 50.329C43.9704 50.3279 43.9548 50.3263 43.9392 50.3252C43.8692 50.3206 43.7986 50.321 43.7286 50.3266C43.7138 50.3278 43.6969 50.332 43.6821 50.3311C43.7142 50.3331 43.7544 50.3199 43.6968 50.3299C43.6661 50.3353 43.6356 50.3416 43.6053 50.3491C43.5335 50.3667 43.4636 50.3916 43.3936 50.4153C43.2268 50.4717 43.0414 50.3637 42.9768 50.2107C42.9112 50.0553 42.9653 49.8526 43.1214 49.7695C43.462 49.5883 43.872 49.5672 44.2448 49.6418C44.5974 49.7124 44.9201 49.9046 45.1447 50.1864C45.2519 50.3211 45.2859 50.523 45.1447 50.6527C45.0107 50.7756 44.8115 50.7803 44.6784 50.6527Z" fill="black"/>
<path d="M77.2036 54.581C77.3387 54.1526 77.5365 53.737 77.7812 53.3604C77.8356 53.2766 77.893 53.1946 77.9532 53.1148C78.0019 53.0502 78.0513 52.986 78.1016 52.9226C78.1193 52.9003 78.1372 52.878 78.1552 52.856C78.2583 52.7302 78.0448 53.0036 78.1846 52.8227C78.3468 52.6127 78.5811 52.4453 78.7899 52.2848C79.5615 51.6917 80.4736 51.3662 81.4378 51.2718C83.5185 51.068 85.5348 52.2072 86.7017 53.8883C87.3088 54.7631 87.6433 55.7835 87.7669 56.8343C87.8901 57.8827 87.7044 58.9529 87.3223 59.9314C86.6374 61.6856 85.5304 63.2654 84.1113 64.5054C82.7241 65.7175 81.0764 66.6331 79.293 67.1099C79.0863 67.1651 78.8781 67.2142 78.6685 67.2573C78.4588 67.3004 78.247 67.288 78.0579 67.1774C77.8935 67.0812 77.7368 66.8927 77.6937 66.7038C77.6036 66.308 77.813 65.8183 78.2472 65.729C78.9384 65.5869 79.6128 65.3751 80.2632 65.1014C80.2 65.1281 80.1368 65.1548 80.0735 65.1815C80.9684 64.8017 81.8106 64.307 82.5811 63.7144C82.5273 63.756 82.4735 63.7975 82.4197 63.8391C83.1885 63.2441 83.8808 62.555 84.4764 61.7865C84.4347 61.8405 84.3929 61.8946 84.3512 61.9486C84.9188 61.2115 85.393 60.4067 85.7554 59.5496C85.7284 59.6137 85.7014 59.6777 85.6743 59.7418C85.9074 59.1836 86.0896 58.6044 86.1721 58.0039C86.1625 58.0753 86.1529 58.1468 86.1433 58.2182C86.2064 57.7335 86.2043 57.2444 86.1413 56.7598C86.1509 56.8314 86.1605 56.9031 86.1702 56.9747C86.1004 56.4649 85.9633 55.9698 85.7658 55.4949C85.793 55.5594 85.8202 55.6238 85.8474 55.6882C85.6616 55.2498 85.4239 54.837 85.1347 54.4585C85.1767 54.5128 85.2186 54.5671 85.2605 54.6213C84.9827 54.2629 84.662 53.9429 84.3042 53.6644L84.4661 53.7894C84.0985 53.5073 83.6985 53.2726 83.2726 53.0901C83.3359 53.1168 83.3992 53.1435 83.4625 53.1702C82.9961 52.9741 82.498 52.8336 81.9966 52.764L82.2002 52.7913C81.7874 52.7372 81.3712 52.7343 80.9584 52.7893L81.1504 52.7635C80.7875 52.8147 80.4376 52.9113 80.0933 53.0353C80.0507 53.0507 80.0083 53.0667 79.9662 53.0832C79.8021 53.1478 80.0747 53.0334 79.9677 53.0814C79.8841 53.1188 79.801 53.1568 79.7193 53.1981C79.5569 53.2801 79.3992 53.3714 79.2473 53.4715C79.1719 53.5213 79.0985 53.5738 79.0256 53.6272C78.9764 53.6642 78.9896 53.6543 79.065 53.5973C79.02 53.6402 78.9706 53.6766 78.9168 53.7065C78.8801 53.7316 78.8436 53.7571 78.8076 53.7832C78.7897 53.7962 78.7718 53.8094 78.7541 53.8227C78.7084 53.8573 78.7187 53.8492 78.7849 53.7984C78.765 53.8299 78.7077 53.8602 78.6786 53.8844C78.6091 53.9424 78.5413 54.0025 78.4755 54.0647C78.4428 54.0956 78.4106 54.127 78.3789 54.1588C78.3614 54.1764 78.2883 54.2318 78.2857 54.2556C78.3349 54.1865 78.3206 54.2037 78.2429 54.3073C78.2264 54.3223 78.2114 54.3388 78.1978 54.3566C78.1857 54.3706 78.0969 54.4856 78.1594 54.4028C78.0498 54.5481 77.9496 54.6994 77.8591 54.8573C77.6601 55.2045 77.0795 54.9747 77.2036 54.581Z" fill="black"/>
<path d="M53.5753 104.167C53.6785 102.989 53.704 101.808 53.6488 100.627C53.6352 100.335 53.6172 100.044 53.5946 99.7523C53.5836 99.6098 53.5654 99.4685 53.5468 99.3267C53.5584 99.415 53.5484 99.3382 53.546 99.3213C53.5399 99.2773 53.5339 99.2333 53.5276 99.1894C53.5172 99.1161 53.5065 99.0428 53.4955 98.9696C53.4083 98.3898 53.3029 97.8129 53.1796 97.2397C53.0398 96.5902 52.9202 95.9368 52.7678 95.2899C52.6868 94.946 52.875 94.5407 53.2404 94.4575C53.5781 94.3806 53.9971 94.5592 54.0729 94.9301C54.201 95.5567 54.3273 96.1923 54.3848 96.8298C54.4383 97.4222 54.473 98.0163 54.4888 98.6109C54.5044 99.1927 54.5083 99.7757 54.5113 100.358C54.5145 100.956 54.4987 101.555 54.4641 102.153C54.4251 102.826 54.3726 103.497 54.2925 104.167C54.2703 104.353 54.1435 104.535 53.9339 104.526C53.7536 104.518 53.5577 104.367 53.5753 104.167Z" fill="black"/>
<path d="M82.8337 57.8092C82.1138 57.6011 81.4263 58.0927 80.9275 58.5606C80.6682 58.8039 80.4578 59.0758 80.2727 59.3794C80.0931 59.674 79.9367 59.9526 79.8593 60.2898C79.8482 60.3382 79.8393 60.3871 79.8301 60.4359C79.8293 60.4399 79.8203 60.5011 79.8259 60.4573C79.8228 60.4819 79.8199 60.5069 79.8185 60.5316C79.818 60.5418 79.821 60.5621 79.8175 60.5713C79.8075 60.5981 79.7993 60.5191 79.8167 60.5754C79.8202 60.5869 79.8269 60.6038 79.8279 60.6157C79.8303 60.6473 79.7928 60.5663 79.8306 60.6163C79.7666 60.5317 79.6236 60.4873 79.5288 60.5542C79.4427 60.6148 79.4204 60.6784 79.4119 60.7727C79.4071 60.8254 79.4164 60.7833 79.4045 60.7616C79.3933 60.731 79.401 60.744 79.4279 60.8006C79.4628 60.8519 79.4687 60.8661 79.4457 60.8431C79.4396 60.842 79.4199 60.8218 79.415 60.8172C79.395 60.7979 79.2757 60.6498 79.3633 60.7578C79.2283 60.5912 79.1882 60.3378 79.3633 60.1771C79.54 60.0149 79.7668 60.0304 79.9441 60.1771C80.1258 60.3273 80.2008 60.6773 80.1329 60.8999C80.0294 61.2396 79.5917 61.3605 79.3297 61.1206C78.9433 60.7669 79.1929 60.138 79.393 59.7547C79.6127 59.334 79.9324 58.9874 80.2909 58.6814C80.6561 58.3695 80.9878 58.0281 81.4063 57.7834C81.861 57.5175 82.3933 57.3686 82.9106 57.5304C83.0874 57.5857 83.0135 57.8612 82.8337 57.8092Z" fill="black"/>
<path d="M55.3041 95.3935C50.9887 94.9245 46.9452 92.4929 43.9696 89.4067C41.088 86.418 39.1438 82.6753 37.9594 78.7208C37.3244 76.6003 36.8249 74.4557 36.5033 72.2646C36.1405 69.7938 35.9583 67.3026 35.8963 64.8067C35.7706 59.7511 36.0958 54.7001 36.2321 49.6484C36.3712 44.4972 36.5351 39.3488 36.7333 34.1996C36.7583 33.5489 36.7882 32.9075 36.8643 32.2606C36.9023 31.938 37.1136 31.6591 37.4658 31.6591C37.8037 31.6591 38.0528 31.9348 38.0674 32.2606C38.1242 33.5305 38.0361 34.8059 37.9924 36.0759C37.9486 37.3477 37.9048 38.6195 37.861 39.8913C37.7741 42.4149 37.648 44.9369 37.5321 47.4593C37.3031 52.4454 37.0538 57.445 37.0471 62.4372C37.0407 67.1542 37.3337 71.9143 38.5528 76.4896C39.0681 78.4234 39.8106 80.2988 40.7045 82.0883C41.5842 83.8496 42.5503 85.5643 43.7638 87.1206C46.3625 90.4531 49.7375 93.1133 53.8206 94.3577C54.341 94.5163 54.8533 94.6956 55.3794 94.8368C55.6778 94.9169 55.63 95.429 55.3041 95.3935Z" fill="black"/>
<path d="M40.2897 38.8677C40.7004 38.4529 41.1178 38.0309 41.5686 37.6598C41.8135 37.4582 42.0681 37.2671 42.3368 37.0982C42.6094 36.9268 42.9353 36.8085 43.2426 36.713C44.416 36.3482 45.6558 36.5494 46.6936 37.1914C47.709 37.8196 48.4571 38.7538 48.9222 39.8459C49.1831 40.4584 49.3673 41.0835 49.4799 41.7397C49.5911 42.3883 49.6579 43.0465 49.7129 43.7021C49.8254 45.0414 49.8818 46.3882 49.9307 47.7312C49.9803 49.0958 49.9715 50.4584 49.948 51.8233C49.9007 54.5769 49.67 57.3247 49.2699 60.0492C49.17 60.7295 49.0589 61.4081 48.9368 62.0847C48.8773 62.4144 48.8132 62.7432 48.7519 63.0725C48.7208 63.2396 48.6892 63.4066 48.6619 63.5743C48.6497 63.6488 48.6381 63.7233 48.6278 63.7981C48.6388 63.7179 48.6264 63.8116 48.6251 63.823C48.6189 63.8789 48.6124 63.9348 48.607 63.9909C48.5758 64.3173 48.5786 64.6383 48.6049 64.9646C48.6132 65.0665 48.5802 64.8429 48.6123 65.0142C48.6192 65.0507 48.6252 65.0873 48.6325 65.1237C48.6465 65.1925 48.6626 65.261 48.6816 65.3286C48.6971 65.3841 48.7147 65.439 48.7342 65.4932C48.7348 65.4949 48.7866 65.6276 48.7547 65.5502C48.7257 65.4799 48.7746 65.5919 48.781 65.6052C48.8382 65.7235 48.9043 65.8375 48.9788 65.9457C48.9954 65.9697 49.0128 65.9931 49.0297 66.0169C49.0184 66.001 48.961 65.9344 49.0257 66.0105C49.0726 66.0657 49.1202 66.12 49.1711 66.1716C49.2114 66.2124 49.2533 66.2518 49.2966 66.2894C49.3182 66.3081 49.3402 66.3262 49.3622 66.3443C49.2713 66.2695 49.3463 66.3308 49.3714 66.3483C49.4175 66.3803 49.4645 66.4111 49.5128 66.4397C49.5428 66.4574 49.5732 66.4744 49.6041 66.4904C49.6181 66.4976 49.724 66.5507 49.6523 66.5161C49.5757 66.4791 49.6975 66.5323 49.7033 66.5343C49.7293 66.5433 49.7555 66.5517 49.7819 66.5593C49.8349 66.5748 49.8884 66.5862 49.9424 66.597C50.0574 66.62 49.9228 66.5924 49.9231 66.5946C49.9234 66.5971 49.9957 66.5997 50.0063 66.6001C50.077 66.6028 50.1471 66.5994 50.2175 66.5929C50.4955 66.5674 50.7617 66.8559 50.7496 67.125C50.7355 67.44 50.5149 67.6238 50.2175 67.6572C49.0135 67.7923 48.0032 66.7712 47.6674 65.6976C47.2562 64.3828 47.6911 62.9622 47.9447 61.6611C48.4656 58.9877 48.7983 56.3771 48.9681 53.6505C49.1361 50.9534 49.1315 48.2193 48.8618 45.5288C48.8279 45.191 48.7913 44.8535 48.752 44.5163C48.7337 44.3587 48.7147 44.2011 48.695 44.0436C48.6863 43.9736 48.6773 43.9035 48.6681 43.8335C48.6651 43.8106 48.6497 43.697 48.6626 43.791C48.6566 43.7474 48.6505 43.7039 48.6444 43.6604C48.558 43.0509 48.437 42.4477 48.2671 41.8557C48.1826 41.5615 48.0862 41.2699 47.9797 40.983C47.9554 40.9174 47.9303 40.8522 47.9043 40.7873C47.9033 40.7849 47.8365 40.6264 47.8772 40.7201C47.9117 40.7996 47.8666 40.6973 47.8582 40.6783C47.7944 40.5351 47.726 40.394 47.6528 40.2554C47.5236 40.0111 47.3792 39.7751 47.2161 39.5519C47.2125 39.547 47.1741 39.4838 47.1621 39.4792C47.2068 39.4963 47.2435 39.5808 47.187 39.5118C47.1441 39.4593 47.1016 39.4067 47.0575 39.3552C46.9689 39.2522 46.8802 39.1492 46.7869 39.0505C46.699 38.9573 46.6077 38.8674 46.5131 38.781C46.4687 38.7405 46.4236 38.7008 46.3778 38.6619C46.3549 38.6425 46.3319 38.6233 46.3087 38.6044C46.2855 38.5854 46.2622 38.5667 46.2386 38.5482C46.2617 38.566 46.2849 38.5839 46.308 38.6018C46.0843 38.4679 45.8836 38.3065 45.6493 38.1868C45.5903 38.1567 45.5304 38.1288 45.4703 38.1008C45.3808 38.059 45.4867 38.1306 45.5132 38.1178C45.5076 38.1205 45.4297 38.0846 45.4315 38.0853C45.3086 38.038 45.1832 37.997 45.056 37.9632C44.9358 37.9312 44.814 37.9068 44.6916 37.8853C44.6628 37.8802 44.6338 37.876 44.605 37.8711C44.5071 37.8543 44.7828 37.8866 44.6318 37.8758C44.5652 37.871 44.4991 37.8641 44.4325 37.8613C44.2978 37.8555 44.1628 37.858 44.0284 37.8683C43.9962 37.8707 43.9642 37.8744 43.932 37.877C43.8089 37.8869 43.9465 37.88 43.9615 37.8716C43.9028 37.9043 43.7899 37.9001 43.7236 37.9141C43.59 37.9424 43.4579 37.9778 43.3277 38.0194C43.2587 38.0414 43.1903 38.0651 43.1224 38.0905C43.0922 38.1017 43.0623 38.1137 43.0322 38.1253C42.9091 38.1723 43.1339 38.0811 43.0014 38.1388C42.9077 38.1796 42.8124 38.2119 42.7173 38.2486C42.6873 38.2602 42.6577 38.2728 42.6277 38.2842C42.7369 38.2426 42.6546 38.2725 42.6318 38.2826C42.4957 38.3431 42.3612 38.4067 42.2289 38.4754C41.9643 38.6128 41.7082 38.7661 41.4588 38.9294C41.2436 39.0702 41.0458 39.2406 40.8378 39.4157C40.6777 39.5503 40.4467 39.5726 40.2897 39.4157C40.1406 39.2666 40.142 39.0169 40.2897 38.8677Z" fill="black"/>
<path d="M67.3277 41.056C67.3102 41.057 67.2927 41.0579 67.2752 41.0588C67.3349 41.0427 67.3946 41.0265 67.4544 41.0104L67.4474 41.0147C67.2931 41.1114 67.0992 41.0676 66.9708 40.9533C66.8346 40.832 66.6893 40.7198 66.5473 40.6053C66.4001 40.4865 66.2647 40.3531 66.1242 40.2264C65.8473 39.9767 65.5654 39.7325 65.2759 39.4974C65.2099 39.4438 65.1435 39.3906 65.0767 39.338C65.0562 39.3218 65.0355 39.3058 65.015 39.2896C64.9629 39.2482 65.0606 39.3258 65.0603 39.3244C65.0565 39.3 64.9612 39.2487 64.9376 39.2308C64.8331 39.152 64.7296 39.0722 64.6268 38.9912C64.6076 38.976 64.4846 38.8799 64.5679 38.9448C64.6466 39.0061 64.5296 38.9161 64.5085 38.9002C64.2156 38.6801 63.913 38.4726 63.5996 38.2827C63.2423 38.0662 62.8712 37.8738 62.4871 37.7097C62.5422 37.733 62.5973 37.7562 62.6524 37.7795C62.0731 37.5353 61.4658 37.3556 60.8421 37.2714L61.0321 37.2969C60.5092 37.2291 59.9803 37.2255 59.4572 37.293L59.6484 37.2673C59.2002 37.3277 58.7612 37.4402 58.343 37.6134C58.4006 37.5891 58.4582 37.5647 58.5159 37.5404C58.1745 37.6845 57.8524 37.8676 57.5579 38.093C57.607 38.0551 57.656 38.0172 57.7051 37.9793C57.4113 38.2079 57.1691 38.5237 56.8373 38.6965C56.6024 38.8188 56.331 38.8105 56.1178 38.6458C55.9109 38.486 55.8211 38.2204 55.8857 37.9649C56.0171 37.4448 56.4852 37.0819 56.9002 36.7808C57.2478 36.5286 57.6333 36.3442 58.0322 36.1881C58.798 35.8886 59.6543 35.7771 60.4732 35.8155C60.9146 35.8363 61.3588 35.8975 61.789 35.9984C62.238 36.1036 62.6636 36.2705 63.0815 36.4647C63.9541 36.8702 64.744 37.4387 65.4701 38.0658C65.8625 38.4047 66.2158 38.7944 66.5604 39.181C66.7346 39.3763 66.9053 39.5746 67.0737 39.7749C67.2611 39.9978 67.4138 40.2445 67.5885 40.4767C67.6648 40.5781 67.6617 40.7719 67.5885 40.8737L67.5818 40.883L67.6302 40.7038C67.6277 40.7229 67.6252 40.742 67.6227 40.7611C67.6009 40.9262 67.5049 41.0466 67.3277 41.056Z" fill="black"/>
<path d="M55.222 47.7334C56.1025 47.4625 56.995 47.2463 57.9055 47.1053C58.8391 46.9607 59.7805 46.8679 60.7247 46.8347C61.4772 46.8082 62.2318 46.8217 62.9844 46.8421C63.6839 46.861 64.3823 46.9086 65.0733 47.0233C65.7475 47.1353 66.4156 47.3305 67.0179 47.6592C67.6735 48.0168 68.2052 48.5504 68.574 49.1985C69.3665 50.5914 69.4879 52.2995 69.3035 53.8623C69.1215 55.4049 68.6642 56.9555 67.7278 58.2168C67.2348 58.8808 66.6479 59.4501 65.9437 59.8891C65.2588 60.3162 64.484 60.6088 63.7004 60.7948C62.894 60.9861 62.0644 61.0762 61.2378 61.1179C60.4418 61.1581 59.6392 61.1709 58.8425 61.1462C57.9554 61.1187 57.0681 61.0008 56.2602 60.6148C55.5062 60.2546 54.9082 59.6262 54.5369 58.8838C54.4958 58.8017 54.4567 58.7187 54.4194 58.6348C54.3989 58.5886 54.3811 58.539 54.3595 58.4943C54.3618 58.4991 54.3902 58.5624 54.3677 58.5164C54.3433 58.4667 54.3226 58.4148 54.301 58.364C54.2175 58.1677 54.1386 57.9699 54.0681 57.7686C53.9331 57.3832 53.7917 56.9971 53.6454 56.6157C53.324 55.7782 53.0433 54.9124 52.8842 54.0285C52.7197 53.1152 52.6186 52.1889 52.5901 51.2613C52.5769 50.8327 52.5699 50.3994 52.5988 49.9713C52.6254 49.5768 52.6967 49.1939 52.8693 48.836C52.958 48.6521 53.0846 48.4853 53.2555 48.3716C53.3382 48.3166 53.4289 48.277 53.5217 48.2418C53.556 48.2287 53.5905 48.2171 53.6263 48.2085C53.6734 48.1971 53.8844 48.1437 53.7415 48.1894C53.9462 48.1239 54.1988 48.266 54.2467 48.4762C54.2978 48.7006 54.179 48.9113 53.9599 48.9813L53.9316 48.9904C53.992 48.9552 54.0524 48.92 54.1128 48.8848C54.0932 48.9032 53.9926 49.0048 53.9722 48.9931L53.9605 49.0014C54.0084 48.9635 54.0201 48.9551 53.9955 48.9764C53.9888 48.9864 53.9742 48.9957 53.9655 49.0043C53.9525 49.0172 53.9408 49.0313 53.9278 49.0442C53.8906 49.0813 53.9357 49.0746 53.9514 49.0115C53.9444 49.0398 53.908 49.0784 53.8913 49.102C53.8612 49.1447 53.8252 49.1832 53.7948 49.2256C53.7929 49.2283 53.8551 49.1339 53.831 49.1803C53.8158 49.2095 53.7936 49.2364 53.777 49.2651C53.7573 49.299 53.7408 49.3342 53.7228 49.369C53.7156 49.3829 53.695 49.4331 53.7241 49.3637C53.7568 49.2854 53.7225 49.3703 53.7161 49.388C53.6627 49.535 53.6315 49.6868 53.6048 49.8405C53.5893 49.9301 53.617 49.7332 53.6043 49.8479C53.6003 49.8839 53.5968 49.9199 53.5939 49.956C53.5862 50.0499 53.5826 50.144 53.5791 50.2382C53.5472 51.101 53.5783 51.9661 53.671 52.8245C53.6827 52.9327 53.6953 53.0407 53.709 53.1487C53.7117 53.1703 53.7146 53.1918 53.7173 53.2134C53.7266 53.2897 53.7067 53.1391 53.7174 53.2153C53.7256 53.2729 53.7335 53.3304 53.742 53.3879C53.7737 53.6034 53.8093 53.8183 53.8488 54.0325C53.928 54.462 53.9954 54.8928 54.0884 55.3198C54.1806 55.7427 54.2771 56.1734 54.4187 56.5829C54.4836 56.7707 54.5514 56.9575 54.6232 57.1428C54.6408 57.1883 54.6587 57.2338 54.6769 57.2791C54.6837 57.296 54.6898 57.3137 54.6976 57.3302C54.7238 57.3856 54.6767 57.288 54.7068 57.3411C54.7519 57.4205 54.791 57.5038 54.8348 57.584C54.9229 57.7456 55.0236 57.899 55.1146 58.0585C55.1546 58.1286 55.1159 58.0743 55.1065 58.0595C55.133 58.1014 55.1684 58.1397 55.1976 58.18C55.2228 58.2148 55.2476 58.2498 55.2731 58.2843C55.284 58.2991 55.2951 58.3138 55.3061 58.3285C55.3584 58.3989 55.3069 58.3315 55.2983 58.3189C55.3251 58.358 55.3579 58.394 55.3882 58.4306C55.615 58.7045 55.8596 58.9766 56.1334 59.2043C56.153 59.2206 56.2548 59.3031 56.1893 59.2502C56.1194 59.1937 56.2305 59.2796 56.2479 59.2923C56.3258 59.3491 56.4058 59.4029 56.4882 59.4529C56.5662 59.5001 56.6462 59.544 56.7278 59.5847C56.7742 59.6078 56.8213 59.6293 56.8684 59.6507C56.8824 59.6571 56.9444 59.6851 56.8718 59.6525C56.7895 59.6156 56.8936 59.6601 56.9116 59.667C57.0926 59.736 57.2789 59.7907 57.4677 59.834C57.5565 59.8544 57.6459 59.8722 57.7357 59.8878C57.7808 59.8956 57.8259 59.9028 57.8712 59.9096C57.8935 59.9129 57.9807 59.9256 57.8916 59.9128C57.7924 59.8986 57.9217 59.9159 57.9318 59.917C58.7033 60.0051 59.4876 59.9723 60.2619 59.9467C60.645 59.934 61.028 59.9158 61.4101 59.8864C61.6014 59.8718 61.7923 59.8543 61.983 59.8334C62.0717 59.8236 62.1604 59.813 62.2489 59.8017C62.2931 59.7961 62.3372 59.7899 62.3814 59.7847C62.1796 59.8083 62.3808 59.7843 62.4242 59.7779C62.7913 59.7236 63.1562 59.653 63.5155 59.5598C63.6961 59.5129 63.8752 59.4603 64.0522 59.4013C64.1403 59.3719 64.2279 59.3409 64.3148 59.3082C64.3553 59.293 64.3956 59.2774 64.4358 59.2615C64.4588 59.2524 64.4817 59.243 64.5046 59.2338C64.5829 59.2023 64.4801 59.2432 64.458 59.2537C64.7951 59.0929 65.1251 58.9345 65.437 58.7266C65.5099 58.6781 65.5816 58.6278 65.6521 58.5759C65.6696 58.5631 65.6924 58.5412 65.7125 58.5308C65.7052 58.5346 65.59 58.6276 65.6699 58.5638C65.7067 58.5343 65.7436 58.5048 65.7799 58.4746C65.9152 58.3621 66.045 58.2429 66.1689 58.118C66.2924 57.9937 66.4101 57.8637 66.5218 57.7287C66.5479 57.6972 66.5736 57.6655 66.599 57.6335C66.6836 57.527 66.533 57.7233 66.5969 57.6364C66.6524 57.5611 66.7078 57.4859 66.7607 57.4088C66.9604 57.1181 67.1361 56.8113 67.2897 56.4939C67.3258 56.4194 67.3607 56.3442 67.3943 56.2685C67.4062 56.2418 67.4611 56.1134 67.419 56.2136C67.3767 56.3142 67.4361 56.1712 67.4482 56.1411C67.5147 55.9751 67.5758 55.807 67.6318 55.6373C67.7443 55.2961 67.8385 54.9484 67.9142 54.5973C67.9521 54.4216 67.9853 54.2449 68.0141 54.0675C68.0275 53.9849 68.0395 53.9021 68.0514 53.8192C68.063 53.7381 68.0332 53.9615 68.0431 53.8801C68.0452 53.8623 68.0476 53.8445 68.0498 53.8268C68.0564 53.7735 68.0626 53.7203 68.0684 53.6669C68.1073 53.3098 68.1292 52.9507 68.1299 52.5914C68.1306 52.2273 68.1035 51.8671 68.063 51.5055C68.0855 51.7062 68.0656 51.5302 68.0587 51.4865C68.052 51.4438 68.0449 51.4012 68.0374 51.3586C68.0214 51.2676 68.0035 51.1769 67.9836 51.0866C67.9441 50.9069 67.8967 50.7288 67.8406 50.5536C67.8145 50.4723 67.7866 50.3916 67.7567 50.3117C67.7396 50.2661 67.7216 50.2209 67.7035 50.1757C67.6964 50.158 67.6711 50.0964 67.7062 50.1816C67.7457 50.2772 67.7028 50.1754 67.6933 50.1545C67.6185 49.9889 67.5341 49.8276 67.4397 49.6724C67.3957 49.6 67.3495 49.5288 67.301 49.4593C67.2733 49.4196 67.2455 49.3798 67.2171 49.3405C67.207 49.3266 67.1965 49.3129 67.1863 49.299C67.1439 49.2404 67.2789 49.4128 67.2148 49.3365C67.1172 49.2203 67.0163 49.1087 66.9048 49.0056C66.8534 48.9581 66.8006 48.9123 66.7463 48.8683C66.7309 48.8558 66.7142 48.844 66.6995 48.8309C66.6928 48.8249 66.8098 48.9122 66.7588 48.8772C66.7217 48.8517 66.6861 48.8238 66.649 48.7981C66.5246 48.7121 66.395 48.6339 66.2615 48.5628C66.1987 48.5293 66.1351 48.4974 66.0707 48.467C66.0384 48.4518 66.0058 48.4369 65.9732 48.4223C65.9544 48.414 65.9355 48.4062 65.9168 48.3977C65.8562 48.3702 66.057 48.4544 65.9525 48.4132C65.8116 48.3577 65.6697 48.3058 65.5253 48.2603C65.2207 48.1642 64.9091 48.0912 64.5951 48.0334C64.4364 48.0043 64.2769 47.98 64.1172 47.957C64.0576 47.9484 64.1828 47.9656 64.1777 47.9651C64.1562 47.9627 64.1348 47.9595 64.1134 47.9568C64.0759 47.952 64.0384 47.9475 64.0009 47.943C63.9154 47.9329 63.8298 47.9236 63.7441 47.9149C63.1401 47.8538 62.5334 47.8269 61.9273 47.7942C61.0374 47.7462 60.1452 47.7476 59.2557 47.8018C58.8115 47.8288 58.3681 47.8688 57.9263 47.9219C57.5072 47.9723 57.1068 48.0312 56.6629 48.103C56.2367 48.1719 55.8127 48.2536 55.3912 48.3469C55.2236 48.384 55.047 48.2963 54.9999 48.1247C54.9531 47.9544 55.0572 47.7841 55.222 47.7334Z" fill="black"/>
<path d="M36.8305 47.7333C37.6711 47.4529 38.5255 47.2312 39.4003 47.0894C40.2947 46.9444 41.1983 46.8557 42.1041 46.8317C42.785 46.8137 43.4697 46.8279 44.1503 46.8541C44.8083 46.8794 45.4706 46.9361 46.1153 47.0745C46.7406 47.2088 47.3718 47.4351 47.8989 47.8034C48.5063 48.2278 48.9757 48.8074 49.2737 49.4861C49.8988 50.9096 49.9823 52.5157 49.794 54.0434C49.6078 55.5541 49.1789 57.0784 48.283 58.3308C47.8189 58.9796 47.2611 59.5361 46.5873 59.9676C45.9389 60.3828 45.1991 60.665 44.4513 60.8401C43.6879 61.0188 42.9025 61.0981 42.1203 61.1317C41.3724 61.1638 40.6141 61.1824 39.8666 61.135C39.0385 61.0825 38.1863 60.9201 37.4844 60.452C37.1452 60.2258 36.8521 59.9539 36.6034 59.632C36.4825 59.4755 36.3686 59.3153 36.2664 59.1459C36.1585 58.9672 36.0804 58.7721 36.0021 58.579C35.8633 58.2367 35.7481 57.882 35.6464 57.5269C35.5346 57.1368 35.4131 56.748 35.2867 56.3618C35.0182 55.5414 34.7611 54.7119 34.6271 53.8573C34.4881 52.9714 34.4016 52.0774 34.3795 51.1808C34.3603 50.4052 34.3147 49.5556 34.6435 48.8329C34.7283 48.6465 34.8448 48.4921 35.0129 48.3723C35.0811 48.3237 35.1536 48.2907 35.2307 48.2582C35.2733 48.2402 35.3151 48.2223 35.3598 48.2101C35.3774 48.2053 35.3954 48.2011 35.4133 48.1978L35.4694 48.1903C35.5443 48.1805 35.5443 48.1802 35.4694 48.1894C35.6724 48.1186 35.9276 48.27 35.9745 48.4762C36.0267 48.7054 35.9051 48.9055 35.6877 48.9814L35.6609 48.9908L35.8421 48.8852C35.8091 48.9195 35.7838 48.9324 35.7387 48.9698C35.7394 48.9693 35.7997 48.9104 35.7719 48.9439C35.7529 48.9668 35.7265 48.9881 35.7049 49.0088C35.6505 49.061 35.7582 48.9191 35.7053 49.0094C35.687 49.0405 35.6696 49.073 35.6501 49.1032C35.6163 49.1555 35.5791 49.2045 35.5494 49.2596C35.5407 49.2758 35.4926 49.3861 35.5231 49.3071C35.5536 49.2282 35.5061 49.3541 35.4987 49.3757C35.4749 49.4455 35.4552 49.5168 35.4386 49.5886C35.4301 49.6252 35.4223 49.662 35.4154 49.699C35.4096 49.7299 35.4123 49.8048 35.3941 49.8268C35.3937 49.8273 35.4068 49.7194 35.4012 49.7747C35.399 49.7962 35.3962 49.8176 35.3939 49.839C35.39 49.8762 35.3866 49.9135 35.3838 49.9508C35.3775 50.0322 35.3742 50.1137 35.3712 50.1952C35.3402 51.034 35.364 51.8748 35.4414 52.7106C35.4602 52.9138 35.4822 53.1167 35.5073 53.3193C35.5136 53.3699 35.5201 53.4205 35.5268 53.471C35.5145 53.3774 35.5324 53.5105 35.5365 53.5391C35.5519 53.6473 35.5683 53.7555 35.5855 53.8635C35.6059 53.9914 35.6232 54.1196 35.6398 54.2481C35.6405 54.2531 35.6501 54.3243 35.6431 54.2727C35.636 54.2209 35.646 54.2928 35.6467 54.2977C35.6549 54.3557 35.6631 54.4136 35.6717 54.4714C35.7029 54.6808 35.7375 54.8897 35.7754 55.098C35.8494 55.5036 35.9261 55.9155 36.045 56.3106C36.1055 56.5117 36.1694 56.7117 36.2366 56.9106C36.2514 56.9545 36.265 56.9994 36.2818 57.0426C36.2623 56.9924 36.2981 57.0751 36.3043 57.089C36.3423 57.1735 36.3812 57.2576 36.4212 57.3412C36.5741 57.6609 36.7464 57.9673 36.9477 58.2592C37.0484 58.4053 37.1517 58.5501 37.2562 58.6934C37.2669 58.7081 37.2778 58.7226 37.2885 58.7373C37.3441 58.8134 37.2783 58.7228 37.2693 58.7133C37.2977 58.7431 37.3217 58.7791 37.348 58.8107C37.4049 58.8791 37.464 58.9458 37.5255 59.0102C37.6393 59.1295 37.757 59.2451 37.8845 59.3499C37.9025 59.3647 37.9223 59.3785 37.9395 59.394C37.9411 59.3955 37.8444 59.3242 37.895 59.3589C37.929 59.3821 37.9616 59.4071 37.9957 59.4301C38.0751 59.4838 38.1571 59.5336 38.2413 59.5794C38.3144 59.6192 38.3892 59.655 38.4647 59.6896C38.5563 59.7316 38.4458 59.6788 38.4331 59.6764C38.4503 59.6796 38.4697 59.6909 38.4861 59.6972C38.5334 59.7153 38.581 59.7323 38.629 59.7483C38.8033 59.8066 38.982 59.8514 39.1626 59.8854C39.2064 59.8936 39.2504 59.9012 39.2944 59.9083C39.3362 59.915 39.4802 59.9249 39.3102 59.912C39.3995 59.9188 39.4884 59.9325 39.5777 59.94C39.7639 59.9554 39.9507 59.9632 40.1374 59.9664C40.4992 59.9725 40.8612 59.9627 41.2228 59.9521C41.5785 59.9417 41.9341 59.9269 42.2891 59.902C42.4704 59.8893 42.6514 59.874 42.8322 59.8553C42.9193 59.8462 43.0063 59.8363 43.0933 59.8257C43.1305 59.8211 43.1677 59.8165 43.2049 59.8118C43.2294 59.8087 43.2545 59.8043 43.2792 59.8022C43.2555 59.8043 43.1398 59.8217 43.2257 59.8092C43.5813 59.7575 43.9345 59.6921 44.2823 59.6015C44.4487 59.5582 44.6137 59.5095 44.7767 59.4547C44.858 59.4274 44.9388 59.3985 45.0189 59.368C45.059 59.3528 45.0989 59.3372 45.1386 59.3212C45.1556 59.3143 45.1724 59.3065 45.1897 59.3004C45.1429 59.3171 45.0687 59.3524 45.1589 59.3129C45.4806 59.172 45.7902 59.0028 46.0797 58.8036C46.1522 58.7538 46.2212 58.6995 46.293 58.6489C46.2963 58.6466 46.1884 58.7324 46.2408 58.6887C46.2554 58.6765 46.2706 58.6649 46.2853 58.6529C46.3222 58.6229 46.3587 58.5924 46.3948 58.5614C46.5223 58.4517 46.6443 58.3356 46.7605 58.214C46.8773 58.092 46.9858 57.9636 47.0929 57.833C47.1607 57.7503 47.0014 57.9546 47.0908 57.836C47.1154 57.8033 47.1397 57.7704 47.1637 57.7373C47.2117 57.6707 47.2584 57.6032 47.3037 57.5348C47.4941 57.2478 47.661 56.9456 47.8069 56.6337C47.84 56.5629 47.8713 56.4913 47.903 56.4198C47.9358 56.3459 47.8509 56.5461 47.8815 56.4712C47.8884 56.4544 47.8954 56.4377 47.9023 56.4209C47.9206 56.3761 47.9385 56.3311 47.956 56.2859C48.02 56.1213 48.0787 55.9547 48.1326 55.7865C48.2397 55.4528 48.3302 55.1133 48.4039 54.7706C48.4403 54.6015 48.4727 54.4315 48.5012 54.2608C48.5154 54.1755 48.5286 54.0901 48.541 54.0045C48.5445 53.9803 48.549 53.9556 48.5513 53.9312C48.552 53.9236 48.5324 54.0774 48.541 54.0066C48.547 53.9577 48.5534 53.9087 48.5591 53.8597C48.5995 53.5141 48.6255 53.1668 48.6341 52.8189C48.6429 52.4641 48.6336 52.1087 48.6022 51.7552C48.5945 51.6678 48.5854 51.5805 48.5748 51.4935C48.5578 51.3527 48.5912 51.6004 48.5748 51.4897C48.5674 51.4402 48.5601 51.3906 48.552 51.3412C48.5238 51.1691 48.4895 50.9979 48.4483 50.8284C48.406 50.6547 48.3563 50.4828 48.2984 50.3137C48.2707 50.2329 48.2411 50.1527 48.2095 50.0733C48.1581 49.9442 48.2504 50.1628 48.2078 50.0673C48.188 50.0231 48.1683 49.9788 48.1475 49.935C48.0754 49.7827 47.997 49.6328 47.91 49.4886C47.8674 49.4181 47.8227 49.3486 47.7756 49.281C47.7546 49.2509 47.7326 49.2217 47.7111 49.192C47.6745 49.1411 47.7618 49.2558 47.7561 49.2501C47.7381 49.2319 47.7233 49.2094 47.7069 49.1898C47.6153 49.0802 47.5159 48.9773 47.4099 48.8816C47.3575 48.8343 47.3018 48.7913 47.2483 48.7453C47.2026 48.7059 47.3119 48.7933 47.3053 48.7894C47.2887 48.7796 47.2725 48.7649 47.2566 48.7534C47.224 48.7298 47.191 48.7067 47.1575 48.6842C47.0404 48.6054 46.9184 48.5336 46.7931 48.4685C46.7302 48.4357 46.6663 48.4046 46.6018 48.3751C46.5784 48.3644 46.4673 48.3168 46.5564 48.3539C46.6461 48.3913 46.5213 48.34 46.4948 48.3296C46.2188 48.2215 45.9336 48.1383 45.6448 48.0722C45.4962 48.0382 45.3465 48.0089 45.1963 47.9831C45.1289 47.9716 45.0613 47.9608 44.9937 47.9507C44.9573 47.9452 44.9209 47.9402 44.8844 47.9349C44.8159 47.9249 44.9977 47.9495 44.9288 47.9408C44.9079 47.9382 44.887 47.9354 44.8661 47.9328C44.2903 47.8606 43.7106 47.8303 43.1316 47.7974C42.315 47.751 41.4991 47.7411 40.6823 47.7899C40.2608 47.8151 39.8402 47.8541 39.4214 47.907C39.0594 47.9527 38.6248 48.0215 38.226 48.091C37.8145 48.1627 37.4056 48.2485 36.9997 48.3469C36.5996 48.4439 36.4433 47.8625 36.8305 47.7333Z" fill="black"/>
<path d="M52.5184 53.7348C52.3154 53.6607 52.0963 53.5819 51.8793 53.5684C51.6529 53.5544 51.4276 53.5629 51.2018 53.583C51.148 53.5878 51.0942 53.5913 51.0405 53.5966C51.0135 53.5993 50.9866 53.6023 50.9597 53.6053C50.9295 53.6087 50.9046 53.6135 50.9493 53.6064C50.8361 53.6242 50.7319 53.6495 50.6238 53.6873C50.567 53.7071 50.511 53.7288 50.4549 53.7504C50.3873 53.7764 50.4494 53.7616 50.4756 53.7409C50.469 53.7461 50.4127 53.7745 50.4059 53.7719C50.4245 53.779 50.4949 53.6782 50.4447 53.7471C50.4015 53.8063 50.3355 53.851 50.2734 53.8871C50.2232 53.9163 50.1679 53.9377 50.1149 53.9626C49.8907 54.0679 49.6303 54.1056 49.4084 53.9626C49.255 53.8637 49.1362 53.7237 49.0868 53.5443C49.0386 53.3692 49.0657 53.1618 49.1574 53.005C49.2919 52.7752 49.5088 52.6847 49.7617 52.6584C49.8809 52.646 49.9724 52.637 50.0971 52.6678C50.1927 52.6915 50.2816 52.7366 50.3719 52.7763L50.0759 52.6962C50.1824 52.7055 50.2888 52.7123 50.395 52.7254C50.4777 52.7356 50.5603 52.7466 50.6426 52.7594C50.6677 52.7634 50.6929 52.7674 50.718 52.772C50.76 52.7798 50.7589 52.7787 50.7172 52.7738C50.9592 52.8025 51.1993 52.8309 51.4333 52.9011C51.6469 52.9651 51.8517 53.0496 52.0552 53.14C52.2564 53.2293 52.4612 53.3041 52.6566 53.4071C52.8332 53.5002 52.7115 53.8052 52.5184 53.7348Z" fill="black"/>
<path d="M50.6398 75.8243C50.6627 75.9571 50.6947 76.0877 50.7374 76.2155C50.7476 76.2462 50.7585 76.2766 50.7699 76.3069C50.7755 76.3221 50.7815 76.3372 50.7873 76.3523C50.7879 76.354 50.8084 76.4032 50.7951 76.3719C50.7818 76.3409 50.8029 76.3889 50.8037 76.3907C50.8105 76.4051 50.817 76.4197 50.8239 76.4341C50.8398 76.4678 50.8565 76.5012 50.8738 76.5342C50.9362 76.6531 51.0073 76.7674 51.0856 76.8765C51.0943 76.8886 51.149 76.9606 51.1232 76.9279C51.0995 76.898 51.1601 76.9725 51.1735 76.9883C51.2186 77.0415 51.2656 77.0932 51.3142 77.1432C51.3394 77.1691 51.6174 77.4116 51.6153 77.4159C51.6157 77.4151 51.5476 77.3653 51.5887 77.3955C51.6017 77.4051 51.6144 77.4149 51.6274 77.4244C51.6534 77.4434 51.6797 77.4621 51.7063 77.4803C51.764 77.52 51.8233 77.5574 51.8833 77.5937C51.9992 77.6639 52.1291 77.7108 52.2443 77.7801C52.2459 77.7812 52.1451 77.7403 52.1972 77.7603C52.2122 77.7661 52.227 77.7723 52.2419 77.7782C52.2718 77.7898 52.302 77.801 52.3322 77.8117C52.398 77.8349 52.4646 77.8558 52.5318 77.8744C52.594 77.8916 52.6567 77.9068 52.72 77.9198C52.7516 77.9264 52.7834 77.9324 52.8153 77.9379C52.8313 77.9406 52.8473 77.9431 52.8633 77.9457C52.9418 77.9589 52.8272 77.9395 52.8089 77.9387C52.9426 77.9443 53.0745 77.9638 53.2088 77.9635C53.279 77.9634 53.3491 77.9605 53.419 77.9547C53.4285 77.9539 53.5147 77.9506 53.5162 77.9447C53.5172 77.941 53.377 77.9662 53.4365 77.9551C53.4577 77.9511 53.479 77.9482 53.5002 77.9444C53.6323 77.9204 53.7609 77.8847 53.8881 77.842C53.9489 77.8215 54.0091 77.8001 54.0691 77.7774C54.1695 77.7395 53.9401 77.8363 54.0372 77.7909C54.071 77.7751 54.1048 77.7596 54.1382 77.7429C54.2577 77.6833 54.3729 77.6152 54.483 77.5397C54.5096 77.5215 54.5355 77.5025 54.5617 77.484C54.6493 77.4218 54.4522 77.573 54.5352 77.505C54.5892 77.4609 54.6425 77.4161 54.6939 77.369C54.793 77.2781 54.8864 77.1809 54.9732 77.0783C54.9914 77.0568 55.0745 76.9516 55.0043 77.0429C54.9341 77.1343 55.0152 77.0275 55.0315 77.0047C55.0786 76.9392 55.1231 76.8718 55.1651 76.8029C55.2043 76.7386 55.2412 76.673 55.2757 76.6061C55.2929 76.5726 55.3096 76.5389 55.3257 76.5049C55.3381 76.4786 55.3919 76.3544 55.3452 76.465C55.2986 76.5755 55.3498 76.4507 55.36 76.4235C55.3731 76.3884 55.3855 76.3531 55.3972 76.3176C55.4208 76.2466 55.4417 76.1747 55.4597 76.1021C55.4968 75.953 55.5254 75.7996 55.547 75.6475L55.5238 75.82C55.546 75.6494 55.552 75.479 55.5436 75.3072C55.5285 74.9969 55.7929 74.7329 56.0853 74.6937C56.3633 74.6563 56.7226 74.8337 56.7706 75.1411C56.8336 75.5444 56.8457 75.9418 56.7538 76.3426C56.6748 76.6872 56.5342 77.0262 56.358 77.332C56.0078 77.94 55.4728 78.4752 54.8451 78.794C54.1713 79.1362 53.3947 79.2481 52.6581 79.0528C51.9995 78.8781 51.3829 78.4944 50.9314 77.9849C50.419 77.4068 50.0895 76.6797 50.0717 75.9012C50.0685 75.7587 50.1841 75.6336 50.3225 75.6172C50.4531 75.6016 50.6151 75.6807 50.6398 75.8243Z" fill="black"/>
<path d="M56.846 75.6309C56.7139 75.5824 56.5757 75.5596 56.4445 75.5103C56.3079 75.459 56.1659 75.4243 56.0215 75.4038L56.1593 75.4223C56.0773 75.4115 55.995 75.4058 55.9123 75.4046C55.8706 75.404 55.8291 75.4058 55.7875 75.4065C55.7026 75.4079 55.6311 75.3924 55.5551 75.3603C55.4327 75.3087 55.3641 75.2335 55.2863 75.1271C55.1861 74.9902 55.184 74.7266 55.2863 74.59C55.3154 74.5511 55.3456 74.5062 55.3784 74.4705C55.4594 74.3823 55.5784 74.335 55.6937 74.3195C55.7497 74.3119 55.7864 74.3106 55.8395 74.317C55.9423 74.3293 56.0456 74.3416 56.1467 74.3642C56.3023 74.399 56.4477 74.4566 56.594 74.5192C56.732 74.5783 56.8692 74.6478 56.9833 74.7466C57.0926 74.8412 57.1821 74.9703 57.2626 75.089C57.345 75.2104 57.3183 75.3893 57.2338 75.4987C57.1498 75.6075 56.9837 75.6814 56.846 75.6309Z" fill="black"/>
<path d="M78.4671 67.0256C77.0862 75.273 75.2345 83.4291 73.5324 91.6138C71.9431 99.2559 70.4751 106.942 69.7572 114.722C69.3531 119.102 69.1827 123.502 69.3181 127.898C69.0797 127.717 68.8413 127.535 68.6029 127.354C70.6129 126.882 72.6098 126.347 74.5951 125.782C77.9126 124.837 81.2996 123.852 84.3939 122.302C84.9805 122.009 85.5637 121.693 86.1005 121.314C86.5921 120.967 87.1436 120.437 87.687 120.038C88.5598 119.398 89.4669 118.805 90.3453 118.173C91.1589 117.586 92.0396 116.963 92.6576 116.16C92.6964 116.11 92.7255 116.037 92.7727 115.996C93.0629 115.745 92.5183 116.047 92.808 116.12C92.8057 116.12 92.8088 116.07 92.8083 116.067C92.792 115.975 92.8096 115.864 92.8103 115.771C92.8139 115.323 92.8192 114.876 92.8254 114.429C92.8472 112.876 92.8885 111.323 92.9448 109.771C93.091 105.739 93.1589 101.556 94.1007 97.6127C94.2146 97.1356 94.9989 97.1073 95.0944 97.6127C95.6501 100.553 96.1933 103.484 96.5894 106.452C96.9172 108.908 97.2125 111.367 97.2112 113.849C96.9327 113.733 96.6541 113.618 96.3756 113.503C98.5346 111.668 100.688 109.829 102.823 107.967C103.294 107.556 103.793 107.162 104.223 106.708C104.699 106.206 104.71 105.657 104.689 104.997C104.671 104.448 104.649 103.898 104.624 103.349C104.505 100.736 104.326 98.1234 104.12 95.5155C103.61 89.0591 103.126 82.5964 102.234 76.1782C101.234 68.9711 99.9254 61.8146 98.1127 54.7651C96.4197 48.1808 94.3849 41.6207 91.5396 35.4348C89.2494 30.4556 86.402 25.4707 82.2516 21.8011C81.8262 21.4249 81.3875 21.0619 80.9297 20.7257C80.4428 20.368 80.9154 19.5445 81.4084 19.9066C85.831 23.1548 88.9359 27.9099 91.3762 32.75C94.4556 38.8578 96.6481 45.404 98.4136 51.9992C100.317 59.1093 101.777 66.3542 102.98 73.6139C103.559 77.109 104.089 80.6127 104.548 84.1257C104.967 87.3245 105.389 90.5311 105.614 93.7501C105.805 96.4986 105.949 99.2484 106.005 102.003C106.017 102.611 106.026 103.218 106.031 103.826C106.037 104.544 106.096 105.301 105.976 106.009C105.756 107.294 104.558 108.004 103.623 108.766C102.523 109.663 101.419 110.554 100.33 111.465C99.2427 112.375 98.1553 113.285 97.0679 114.195C96.7565 114.455 96.2286 114.301 96.2322 113.849C96.2518 111.447 96.0527 109.017 95.7513 106.636C95.3801 103.704 94.8695 100.742 94.1007 97.8867H95.0944C94.8363 99.5038 94.7287 101.151 94.6368 102.785C94.5246 104.779 94.4024 106.772 94.3267 108.768C94.2624 110.463 94.2189 112.159 94.1786 113.854C94.1609 114.596 94.2213 115.38 94.1352 116.117C94.0412 116.921 93.1015 117.654 92.5199 118.139C91.6468 118.867 90.704 119.507 89.765 120.145C88.9722 120.684 88.1677 121.209 87.4447 121.841C86.9954 122.234 86.5089 122.568 85.9906 122.863C84.5921 123.659 83.0576 124.226 81.5484 124.771C79.7992 125.403 78.0293 125.971 76.2453 126.496C73.8174 127.21 71.3688 127.871 68.9032 128.443C68.5395 128.528 68.1989 128.275 68.188 127.898C67.9635 120.093 68.7434 112.317 70.0278 104.624C71.3513 96.6979 73.1704 88.865 74.8707 81.0137C75.8919 76.2986 76.8712 71.573 77.7643 66.8318C77.8515 66.3686 78.5436 66.5685 78.4671 67.0256Z" fill="black"/>
<path d="M78.0103 67.1569C78.1654 66.6153 78.3205 66.0737 78.4756 65.5321C78.4935 65.4693 78.5115 65.4021 78.4918 65.3398C78.4527 65.2159 78.2963 65.1822 78.1669 65.1702C77.1887 65.0798 76.2049 65.0501 75.2231 65.0813C75.1053 65.0851 74.9789 65.0927 74.886 65.1652C74.7733 65.2533 74.7438 65.409 74.7243 65.5507C74.6858 65.8291 74.6547 66.1085 74.6309 66.3885C74.5242 67.6455 75.5374 68.7206 76.7953 68.6252C77.7664 68.5515 78.7416 68.5312 79.7149 68.5645C79.9026 68.5709 80.1272 68.5608 80.2249 68.4004C80.2722 68.3226 80.2762 68.2269 80.2788 68.1359C80.2952 67.5633 80.3117 66.9907 80.3281 66.4181C79.5969 66.7617 78.8108 66.9881 78.0089 67.0861" fill="black"/>
<path d="M77.5862 67.1569C77.6162 66.8192 77.6673 66.4889 77.7255 66.155C77.7517 66.0043 77.778 65.8536 77.8042 65.7029C77.8173 65.6276 77.8305 65.5522 77.8436 65.4769C77.8447 65.4702 77.8616 65.3637 77.8633 65.3639C77.8481 65.3625 77.8611 65.5393 77.8494 65.3777C77.8572 65.4352 77.8649 65.4926 77.8726 65.55C77.8985 65.6694 78.0498 65.8231 78.1739 65.8361C78.1343 65.8319 78.0925 65.8143 78.0523 65.8081C78.1102 65.8159 78.1681 65.8237 78.2261 65.8314C77.7058 65.7699 77.1718 65.7643 76.6484 65.7577C76.3875 65.7545 76.1266 65.7567 75.8657 65.758C75.6055 65.7593 75.3372 65.7497 75.0784 65.7803L75.2615 65.7557C75.2142 65.7637 75.171 65.7749 75.1266 65.7932L75.2912 65.7237C75.2457 65.7502 75.2498 65.7446 75.3036 65.7069C75.3511 65.6765 75.3877 65.6355 75.4133 65.5837C75.405 65.6121 75.3806 65.6422 75.3689 65.67C75.392 65.6152 75.4152 65.5603 75.4383 65.5055C75.407 65.5941 75.3934 65.6851 75.3807 65.7778C75.3889 65.7168 75.3971 65.6557 75.4053 65.5947C75.3509 66.0022 75.2782 66.4264 75.3277 66.8377L75.3031 66.6544C75.3282 66.8393 75.3759 67.0181 75.4463 67.1909C75.4231 67.136 75.4 67.0811 75.3768 67.0261C75.4282 67.1471 75.489 67.2634 75.5614 67.3731C75.578 67.3982 75.5959 67.4224 75.6128 67.4473C75.681 67.5475 75.499 67.3111 75.5782 67.4028C75.6207 67.452 75.6625 67.5011 75.7083 67.5475C75.7539 67.5936 75.8016 67.6375 75.8514 67.6791C75.8955 67.7159 75.9864 67.7602 75.8057 67.6451C75.8309 67.6612 75.8543 67.6803 75.8791 67.697C75.9876 67.77 76.1027 67.831 76.2229 67.8823C76.1679 67.8591 76.1129 67.8359 76.0579 67.8127C76.22 67.879 76.3876 67.924 76.561 67.9482L76.3774 67.9235C76.6383 67.9556 76.8966 67.9254 77.1577 67.9091C77.4766 67.8892 77.7959 67.875 78.1154 67.8666C78.4273 67.8583 78.7392 67.8556 79.0512 67.8584C79.3432 67.861 79.6487 67.8993 79.939 67.8645C79.8777 67.8727 79.8164 67.881 79.755 67.8892C79.8074 67.8807 79.8561 67.8684 79.905 67.8482C79.8499 67.8714 79.7948 67.8947 79.7396 67.9179C79.7676 67.9037 79.8443 67.8497 79.7439 67.9239C79.7087 67.9432 79.681 67.9702 79.6608 68.005C79.6202 68.0631 79.6143 68.0669 79.6429 68.0166C79.6196 68.0717 79.5964 68.1268 79.5731 68.182C79.587 68.1439 79.5953 68.1097 79.6018 68.0697C79.5936 68.131 79.5853 68.1924 79.5771 68.2537C79.6064 67.9543 79.5982 67.6474 79.6068 67.3467C79.6155 67.0371 79.6243 66.7276 79.633 66.4181C79.9807 66.6176 80.3283 66.8171 80.676 67.0166C80.2495 67.2158 79.8099 67.3896 79.357 67.5189C79.1526 67.5773 78.9457 67.6271 78.7371 67.6683C78.6398 67.6874 78.5421 67.7048 78.4441 67.7201C78.2721 67.747 78.1632 67.7616 77.9922 67.7286C77.9409 67.7187 77.8901 67.706 77.8393 67.694C77.3229 67.5727 77.2108 66.7902 77.6887 66.5417C77.8063 66.4806 77.9222 66.4098 78.054 66.3849C78.1445 66.3677 78.2359 66.3553 78.3264 66.3381C78.5005 66.3048 78.6734 66.2656 78.8447 66.2205C79.1944 66.1283 79.5365 66.0106 79.87 65.8709C79.8148 65.8942 79.7596 65.9174 79.7044 65.9407C79.7958 65.9019 79.8864 65.8615 79.9763 65.8196C80.2068 65.7122 80.4468 65.6855 80.676 65.8196C80.8821 65.9402 81.0263 66.176 81.0193 66.4181C81.0098 66.7431 81.0003 67.0681 80.9909 67.3931C80.9864 67.5478 80.9818 67.7026 80.9773 67.8573C80.9714 68.0605 80.9809 68.2781 80.9308 68.4763C80.803 68.9816 80.3612 69.2223 79.8744 69.2553C79.5802 69.2752 79.2777 69.2434 78.9827 69.2413C78.3512 69.2368 77.7195 69.2548 77.0893 69.2953C76.7811 69.3151 76.5008 69.3239 76.1938 69.28C75.9293 69.2422 75.6843 69.1519 75.4431 69.0376C74.4883 68.585 73.8776 67.5009 73.935 66.4539C73.9524 66.136 73.9972 65.8183 74.0396 65.503C74.0665 65.3026 74.0979 65.1466 74.1855 64.9595C74.2997 64.7158 74.5156 64.5589 74.7604 64.4648C74.9189 64.4038 75.0984 64.3963 75.2672 64.3912C75.4359 64.3861 75.6048 64.3831 75.7736 64.3817C76.0961 64.3791 76.4183 64.3887 76.7404 64.4041C77.1011 64.4214 77.4613 64.4469 77.8208 64.4806C78.2707 64.5227 78.7884 64.5377 79.0393 64.9851C79.286 65.4248 79.0096 65.8839 78.8421 66.2969C78.6949 66.66 78.5503 67.0203 78.3729 67.3699C78.2922 67.5291 78.065 67.6186 77.8961 67.5639C77.7298 67.5101 77.5694 67.3452 77.5862 67.1569Z" fill="black"/>
<path d="M77.9372 54.6945C77.7784 54.5149 77.6155 54.3396 77.473 54.1471C77.3405 53.9679 77.203 53.7922 77.0713 53.6124C76.82 53.2697 76.6109 52.8871 76.3863 52.5263C75.9298 51.793 75.4954 51.0479 75.0697 50.2962C74.2204 48.7967 73.4085 47.2749 72.6754 45.7148C71.924 44.1157 71.2475 42.4782 70.7131 40.7932C70.1784 39.1072 69.7863 37.3839 69.5516 35.6307C69.4383 34.7842 69.365 33.9326 69.3411 33.0788C69.3292 32.6556 69.3313 32.2338 69.3529 31.8109C69.3771 31.3366 69.4006 30.8537 69.4948 30.3876C69.5153 30.2862 69.5303 30.18 69.5605 30.0809C69.6003 29.95 69.672 29.8259 69.7348 29.7046C69.95 29.2891 70.6183 29.3919 70.7285 29.8345C70.7668 29.988 70.8055 30.1351 70.8117 30.2952C70.8164 30.4156 70.8148 30.5364 70.818 30.6568C70.8239 30.8826 70.8028 31.1096 70.7961 31.3355C70.7821 31.8106 70.7853 32.2867 70.7925 32.7619C70.8068 33.7065 70.8819 34.6494 71.0069 35.5857C70.9982 35.5209 70.9895 35.4562 70.9808 35.3914C71.2891 37.6694 71.9031 39.8854 72.6933 42.0406C72.9186 42.655 73.1604 43.2632 73.4147 43.8662C73.3904 43.8086 73.366 43.7509 73.3417 43.6933C73.9359 45.0983 74.6002 46.4726 75.3071 47.8242C76.0188 49.1851 76.7857 50.5151 77.524 51.8614C77.7285 52.2343 77.9613 52.6019 78.1406 52.9874C78.2312 53.1823 78.3176 53.3793 78.4062 53.5751C78.5082 53.8006 78.5877 54.0338 78.672 54.2668C78.8206 54.6775 78.2217 55.0163 77.9372 54.6945Z" fill="black"/>
<path d="M71.4165 25.2441C71.1591 25.4082 70.9013 25.5743 70.6661 25.7692C70.4353 25.9606 70.2103 26.1592 69.9916 26.3643C69.5455 26.7827 69.1375 27.2324 68.7353 27.6924C68.54 27.9158 68.3512 28.1449 68.169 28.3792C68.2228 28.31 68.1485 28.4061 68.1434 28.4128C68.1211 28.442 68.099 28.4714 68.0769 28.5007C68.0328 28.5595 67.9892 28.6187 67.9459 28.6781C67.8521 28.807 67.7604 28.9374 67.6708 29.0693C67.3322 29.5672 67.0054 30.0767 66.712 30.6027C66.5498 30.8934 66.3973 31.1896 66.255 31.4905C66.094 31.8309 65.9537 32.3721 65.5407 32.4698C65.3595 32.5126 65.1747 32.4406 65.0769 32.2811C64.8501 31.9111 65.1344 31.4459 65.3035 31.1051C65.4404 30.8294 65.586 30.558 65.7398 30.2913C66.0619 29.7327 66.417 29.1948 66.8198 28.6911C67.6039 27.7106 68.5037 26.8499 69.5168 26.1086C69.7933 25.9063 70.0768 25.7136 70.3667 25.5311C70.6635 25.3442 70.9544 25.1484 71.253 24.9644C71.4313 24.8546 71.5917 25.1324 71.4165 25.2441Z" fill="black"/>
<path d="M66.9538 24.0284C65.7543 24.7836 64.6515 25.6755 63.6354 26.6629C63.1248 27.1591 62.6413 27.6833 62.188 28.2324C61.7729 28.7352 61.3848 29.313 61.0245 29.9021C60.8177 30.2402 60.6199 30.5845 60.4289 30.9317C60.3331 31.1058 60.24 31.2814 60.1498 31.4584C60.1046 31.5471 60.0601 31.636 60.0163 31.7253C59.9981 31.7625 59.9799 31.7998 59.9619 31.8372C59.9465 31.8692 59.8596 32.0738 59.9265 31.9041C59.8123 32.1938 59.6005 32.3825 59.2801 32.3962C59.233 32.3982 59.1814 32.4065 59.1344 32.4026L59.1052 32.4039C59.2506 32.3772 59.2117 32.3808 58.9886 32.4147C58.8636 32.4147 58.7133 32.3753 58.5868 32.3556C58.3915 32.3252 58.1961 32.2958 58.0004 32.2673C57.8146 32.2403 57.6286 32.2143 57.4425 32.1888C57.4046 32.1836 57.2934 32.1664 57.4687 32.1923C57.4201 32.1851 57.3711 32.1794 57.3223 32.1731C57.2149 32.1591 57.1074 32.1453 56.9999 32.1319C56.2462 32.0379 55.4927 31.9428 54.7369 31.8667C53.2151 31.7135 51.6875 31.6185 50.1584 31.5816C47.1223 31.5083 44.0761 31.6637 41.0614 32.0295C40.846 32.0556 40.6309 32.0832 40.4158 32.1114C40.2745 32.1299 40.4149 32.1112 40.4393 32.1081C40.3805 32.1156 40.3219 32.1241 40.2632 32.1322C40.1458 32.1485 40.0285 32.165 39.9112 32.182C39.455 32.2479 39.0002 32.3216 38.5436 32.3846C38.7132 32.3612 38.5752 32.3804 38.5327 32.3863C38.464 32.3957 38.3953 32.4052 38.3266 32.4149C38.2285 32.4287 38.1304 32.4428 38.0324 32.4571C37.8168 32.4885 37.6013 32.5211 37.3861 32.5549C37.1353 32.5942 36.8784 32.6389 36.6236 32.6374C36.4108 32.6362 36.1996 32.6232 35.9863 32.6254C35.7838 32.6274 35.5695 32.4756 35.5234 32.2729C35.4799 32.0819 35.5466 31.8175 35.744 31.7308C36.1243 31.5637 36.4552 31.373 36.9072 31.2619C37.2703 31.1727 37.6364 31.094 38.0018 31.0152C38.7534 30.8533 39.5138 30.7368 40.2746 30.6272C41.8459 30.4008 43.4251 30.2236 45.0099 30.1267C48.073 29.9394 51.1504 29.9853 54.2065 30.2656C55.1098 30.3484 56.0148 30.4434 56.9121 30.5774C57.3408 30.6414 57.7688 30.7097 58.1961 30.7828C58.4097 30.8194 58.6232 30.8571 58.8365 30.8961C58.9333 30.9137 59.031 30.9291 59.1272 30.9499C59.1818 30.9617 59.4593 31.0874 59.3279 31.023C59.2384 30.9792 59.4387 31.0712 59.4583 31.0794C59.2059 31.1821 58.9536 31.2848 58.7012 31.3875C58.9024 31.0847 59.0778 30.7642 59.2775 30.4599C59.478 30.1543 59.6879 29.8562 59.9101 29.566C60.3708 28.9644 60.8685 28.4022 61.3763 27.8407C62.3548 26.7585 63.4528 25.7823 64.6577 24.9588C65.3331 24.4972 66.0382 24.0802 66.767 23.7087C66.9788 23.6007 67.1565 23.9007 66.9538 24.0284Z" fill="black"/>
<path d="M77.7597 18.5824C74.7132 16.4681 71.2609 15.01 67.6464 14.199C64.0355 13.3889 60.2864 13.2245 56.5947 13.6969C56.4613 13.714 56.6865 13.6841 56.5533 13.7023C56.5 13.7096 56.4466 13.7171 56.3933 13.7247C56.2734 13.7419 56.1535 13.7597 56.0338 13.7783C55.8078 13.8134 55.5821 13.8511 55.3569 13.8913C54.907 13.9717 54.4588 14.0622 54.0129 14.1627C53.1103 14.3662 52.2169 14.6107 51.3365 14.8951C49.5819 15.462 48.0902 16.0962 46.4598 16.9769C45.6716 17.4026 44.903 17.8647 44.1578 18.3618C43.7873 18.6089 43.4227 18.8649 43.0644 19.1295C42.9803 19.1916 42.8966 19.2542 42.8132 19.3172C42.7715 19.3487 42.73 19.3804 42.6885 19.4121C42.6752 19.4222 42.5715 19.503 42.6619 19.4325C42.477 19.5767 42.2938 19.7231 42.1127 19.8719C40.6728 21.0543 39.3703 22.3959 38.1514 23.8027C35.6793 26.656 33.5467 29.7885 31.015 32.5916C30.6973 32.9434 30.3734 33.2897 30.0474 33.6338L30.2195 32.9827C30.5996 34.1757 31.1648 35.2823 31.9249 36.3465C32.639 37.3465 33.6003 38.2837 34.592 39.1032C35.1557 39.5691 35.7807 39.9916 36.4282 40.3658C36.685 40.5142 36.7746 40.8624 36.6254 41.1176C36.4664 41.3894 36.141 41.4459 35.8736 41.3148C33.3226 40.0639 31.2072 38.0295 29.8615 35.5233C29.4869 34.8256 29.1746 34.0912 28.9289 33.3385C28.8538 33.1086 28.9425 32.857 29.101 32.6873C31.7362 29.8663 33.788 26.6513 36.2332 23.6445C37.4505 22.1476 38.7437 20.7129 40.1931 19.4359C41.5771 18.2166 43.0829 17.13 44.6744 16.198C47.882 14.3197 51.4515 13.0301 55.1164 12.4143C58.9367 11.7723 62.8605 11.8688 66.6388 12.7327C70.3169 13.5738 73.857 15.0884 76.9824 17.2056C77.361 17.462 77.7327 17.7284 78.0984 18.003C78.436 18.2565 78.12 18.8324 77.7597 18.5824Z" fill="black"/>
<path d="M71.7155 97.2335C71.5476 97.5376 71.3934 97.8504 71.1921 98.134C70.9841 98.4271 70.768 98.7157 70.5416 98.9948C70.1005 99.5384 69.6037 100.043 69.1138 100.542C68.1528 101.522 67.1721 102.483 66.1894 103.441C65.2127 104.393 64.1796 105.295 63.1401 106.177C62.0724 107.084 60.9672 107.944 59.8188 108.747C59.2004 109.179 58.5694 109.593 57.9248 109.985C57.5965 110.185 57.2647 110.379 56.9292 110.566C56.5584 110.773 56.1896 110.981 55.7916 111.131C55.5116 111.237 55.1888 111.036 55.0819 110.783C54.9623 110.5 55.075 110.198 55.328 110.032C55.615 109.843 55.9268 109.695 56.2274 109.529C56.5276 109.363 56.8251 109.191 57.1197 109.015C57.6967 108.671 58.2628 108.308 58.8188 107.931C59.3754 107.553 59.922 107.16 60.4597 106.756C60.5916 106.657 60.7229 106.557 60.8538 106.456C60.8804 106.436 60.997 106.35 60.8591 106.452C60.8923 106.428 60.9245 106.402 60.957 106.376C61.0222 106.326 61.0871 106.274 61.1522 106.224C61.2155 106.174 61.2792 106.126 61.3428 106.077C61.4577 105.989 61.2342 106.161 61.3487 106.072C61.4141 106.021 61.4794 105.971 61.5446 105.92C61.6859 105.809 61.8266 105.698 61.9669 105.586C63.0258 104.742 64.056 103.863 65.0726 102.968C66.0932 102.07 67.1449 101.206 68.1708 100.314C68.7536 99.8068 69.3298 99.2914 69.8789 98.7477C70.1569 98.4725 70.4401 98.2028 70.7104 97.9199C70.9787 97.6391 71.2669 97.3769 71.5247 97.0863C71.6184 96.9806 71.7805 97.1157 71.7155 97.2335Z" fill="black"/>
<path d="M53.2458 100.75C53.3254 101.066 53.405 101.384 53.5041 101.695C53.5995 101.993 53.7166 102.287 53.8313 102.579C53.8915 102.732 53.9532 102.884 54.0165 103.036C54.0271 103.061 54.0376 103.086 54.0483 103.112C54.0188 103.042 54.0705 103.163 54.0708 103.164C54.117 103.273 54.1603 103.382 54.2048 103.492C54.2306 103.555 54.2569 103.618 54.2831 103.681C54.335 103.807 54.2485 103.601 54.3012 103.725C54.3171 103.762 54.333 103.799 54.349 103.836C54.4131 103.985 54.4788 104.133 54.5459 104.281C54.8099 104.86 55.1032 105.425 55.3905 105.993C55.6791 106.564 55.9905 107.123 56.3237 107.668C56.5082 107.971 56.694 108.272 56.8872 108.569C56.9839 108.717 57.0822 108.864 57.1821 109.01C57.3376 109.238 57.5311 109.446 57.5273 109.739C57.5223 110.122 57.1295 110.476 56.7378 110.341C56.6155 110.298 56.5155 110.257 56.4221 110.164C56.3673 110.109 56.3199 110.032 56.2745 109.966C56.2282 109.898 56.1823 109.831 56.1368 109.763C56.0456 109.627 55.9559 109.491 55.8676 109.354C55.6911 109.079 55.5172 108.802 55.3554 108.518C55.038 107.962 54.7467 107.391 54.4767 106.81C53.9205 105.614 53.4876 104.336 53.215 103.045C53.1388 102.684 53.0709 102.322 53.0113 101.958C52.9518 101.594 52.8714 101.234 52.8108 100.87C52.7908 100.75 52.8423 100.627 52.9683 100.593C53.0841 100.561 53.2159 100.632 53.2458 100.75Z" fill="black"/>
<path d="M66.8408 65.2085C66.7967 65.2011 66.7527 65.1937 66.7087 65.1862L66.623 65.1501C66.5812 65.1275 66.5477 65.0968 66.5224 65.0577C66.5002 65.0353 66.4848 65.009 66.4763 64.9786C66.4538 64.9359 66.4435 64.8898 66.4454 64.8404C66.4496 64.8087 66.4539 64.7769 66.4582 64.7451C66.4702 64.7166 66.4823 64.688 66.4943 64.6594C66.5169 64.6177 66.5477 64.5841 66.5867 64.5588C66.6213 64.5271 66.662 64.5057 66.7087 64.4946C66.7527 64.4872 66.7967 64.4798 66.8408 64.4723C66.9084 64.4541 66.9761 64.4541 67.0437 64.4723C67.1084 64.4905 67.1646 64.5232 67.2122 64.5705L67.2719 64.6477C67.3064 64.7073 67.3238 64.7715 67.324 64.8404C67.326 64.893 67.315 64.942 67.2911 64.9875C67.2757 65.0348 67.2494 65.0758 67.2122 65.1103C67.1645 65.1576 67.1084 65.1904 67.0437 65.2085C66.9761 65.2267 66.9084 65.2267 66.8408 65.2085Z" fill="black"/>
<path d="M64.8705 64.1681C64.6436 64.1681 64.4262 63.9686 64.4367 63.7343C64.4473 63.4993 64.6273 63.3005 64.8705 63.3005C65.0974 63.3005 65.3148 63.5001 65.3043 63.7343C65.2938 63.9694 65.1137 64.1681 64.8705 64.1681Z" fill="black"/>
<path d="M64.8677 66.9734C64.6864 66.9734 64.5322 66.8193 64.5322 66.638C64.5322 66.456 64.6857 66.3025 64.8677 66.3025C65.0489 66.3025 65.2031 66.4567 65.2031 66.638C65.2031 66.8199 65.0496 66.9734 64.8677 66.9734Z" fill="black"/>
<path d="M62.518 65.4699C62.3334 65.4699 62.1566 65.3076 62.1652 65.117C62.1737 64.9259 62.3202 64.7642 62.518 64.7642C62.7025 64.7642 62.8793 64.9265 62.8708 65.117C62.8622 65.3082 62.7158 65.4699 62.518 65.4699Z" fill="black"/>
<path d="M40.2548 65.7574C39.9645 65.7574 39.964 65.3063 40.2548 65.3063C40.5451 65.3063 40.5455 65.7574 40.2548 65.7574Z" fill="black"/>
<path d="M38.0459 64.2716C37.8371 64.2716 37.6372 64.0881 37.6468 63.8725C37.6565 63.6563 37.8222 63.4734 38.0459 63.4734C38.2547 63.4734 38.4546 63.657 38.445 63.8725C38.4353 64.0888 38.2696 64.2716 38.0459 64.2716Z" fill="black"/>
<path d="M38.4595 66.8983C38.1246 66.8983 38.124 66.3777 38.4595 66.3777C38.7945 66.3777 38.795 66.8983 38.4595 66.8983Z" fill="black"/>
<path d="M41.361 67.7805C41.125 67.7805 40.8989 67.573 40.9098 67.3294C40.9208 67.085 41.1081 66.8782 41.361 66.8782C41.597 66.8782 41.823 67.0857 41.8121 67.3294C41.8012 67.5738 41.6139 67.7805 41.361 67.7805Z" fill="black"/>
<path d="M68.7201 113.142C68.6334 113.258 68.5429 113.372 68.4613 113.492C68.3801 113.611 68.3171 113.742 68.245 113.867C68.175 113.988 68.0754 114.095 67.9871 114.204C67.8938 114.319 67.7999 114.434 67.7052 114.548C67.3371 114.991 66.9562 115.424 66.5511 115.834C65.7489 116.646 64.7885 117.363 63.7406 117.824C63.2006 118.061 62.653 118.241 62.0687 118.33C61.4928 118.417 60.915 118.45 60.3357 118.376C59.7228 118.297 59.1448 118.136 58.5901 117.859C58.0936 117.61 57.637 117.265 57.2457 116.873C56.3836 116.009 55.778 114.928 55.2007 113.864C55.5716 113.816 55.9425 113.767 56.3133 113.719C55.9091 114.733 55.3192 115.66 54.5387 116.428C53.7533 117.2 52.7452 117.902 51.6342 118.071C51.09 118.153 50.5293 118.131 50.009 117.937C49.5481 117.766 49.1397 117.511 48.7777 117.178C48.0811 116.536 47.6221 115.681 47.268 114.815C47.0855 114.369 46.9474 113.906 46.8188 113.442C46.6643 112.884 46.531 112.321 46.4189 111.754C46.3628 111.47 46.312 111.185 46.2665 110.899C46.2438 110.756 46.2223 110.613 46.2022 110.469C46.1882 110.369 46.1746 110.268 46.1613 110.168C46.1575 110.139 46.1538 110.11 46.1501 110.082C46.1643 110.191 46.1473 110.063 46.1441 110.039C46.0598 109.43 45.9937 108.819 45.9541 108.206C45.8793 107.045 45.8909 105.878 45.9901 104.719C46.082 103.644 46.2331 102.567 46.495 101.519C46.7289 100.584 47.0573 99.6631 47.5154 98.813C47.9721 97.9654 48.5786 97.1559 49.36 96.5836C49.5446 96.4483 49.7387 96.331 49.9322 96.2094C50.1426 96.0771 50.4641 96.1581 50.5811 96.3795C50.7045 96.613 50.6355 96.8873 50.411 97.0285C50.3623 97.059 50.3157 97.094 50.2692 97.1277C50.2505 97.1412 50.232 97.1548 50.2135 97.1685C50.2079 97.1727 50.1169 97.2413 50.1805 97.1928C50.2439 97.1446 50.1549 97.2135 50.1493 97.218C50.1251 97.2369 50.0501 97.3164 50.023 97.3159C50.0712 97.3168 50.0928 97.2639 50.0324 97.3165C50.0068 97.3387 49.9814 97.3612 49.9562 97.3839C49.7929 97.5311 49.63 97.6809 49.476 97.8378C49.3257 97.991 49.1835 98.1519 49.0493 98.3194C49.0316 98.3415 49.0143 98.3638 48.9967 98.386C48.9503 98.4445 49.0728 98.2846 49.0044 98.3767C48.974 98.4177 48.9434 98.4586 48.9136 98.5C48.8472 98.5923 48.7829 98.6863 48.7208 98.7816C48.4789 99.1529 48.2696 99.5449 48.0877 99.9488C48.0638 100.002 48.0407 100.055 48.0174 100.108C48.0058 100.135 47.9728 100.189 48.0277 100.084C48.0145 100.109 48.0053 100.138 47.9944 100.165C47.9502 100.273 47.9079 100.382 47.8673 100.492C47.7877 100.706 47.7146 100.923 47.6474 101.142C47.5146 101.574 47.4045 102.013 47.3126 102.455C47.266 102.68 47.2243 102.905 47.1866 103.132C47.1652 103.26 47.1449 103.388 47.1258 103.517C47.1151 103.589 47.1048 103.66 47.0948 103.732C47.0908 103.76 47.0868 103.789 47.083 103.817C47.0986 103.698 47.0799 103.843 47.0782 103.857C46.9369 104.961 46.876 106.075 46.8945 107.188C46.9038 107.751 46.9336 108.315 46.9836 108.876C47.0079 109.15 47.0371 109.423 47.0711 109.695C47.0764 109.738 47.0821 109.781 47.0875 109.824C47.0899 109.843 47.1005 109.92 47.0873 109.824C47.0962 109.888 47.1061 109.952 47.1165 110.016C47.1407 110.166 47.1663 110.315 47.1934 110.464C47.3925 111.559 47.6693 112.64 48.0248 113.694C48.0908 113.889 48.1618 114.083 48.2389 114.274C48.2595 114.325 48.2807 114.376 48.3018 114.427C48.3157 114.461 48.3501 114.512 48.2846 114.386C48.2972 114.41 48.3065 114.437 48.3175 114.462C48.3621 114.564 48.4084 114.664 48.4568 114.764C48.6416 115.144 48.8566 115.508 49.1093 115.848C49.1776 115.939 49.0403 115.761 49.0889 115.821C49.1057 115.842 49.1221 115.863 49.139 115.884C49.1692 115.921 49.2 115.957 49.2313 115.993C49.3002 116.072 49.3718 116.149 49.4464 116.223C49.5163 116.292 49.5887 116.359 49.6638 116.422C49.6949 116.449 49.7295 116.472 49.759 116.5C49.6375 116.385 49.7024 116.457 49.7392 116.484C49.7637 116.502 49.7886 116.52 49.8136 116.537C49.8885 116.589 49.9657 116.638 50.045 116.682C50.089 116.707 50.1336 116.731 50.1788 116.753C50.2259 116.777 50.3857 116.835 50.2054 116.77C50.3956 116.838 50.5811 116.902 50.7815 116.935C50.8341 116.944 50.8917 116.929 50.7358 116.93C50.7583 116.93 50.7857 116.936 50.8072 116.938C50.8732 116.944 50.9394 116.948 51.0056 116.949C51.0406 116.949 51.3994 116.945 51.3997 116.927C51.3997 116.923 51.2464 116.952 51.3605 116.93C51.3864 116.925 51.4124 116.921 51.4383 116.916C51.5031 116.904 51.5675 116.889 51.6314 116.872C51.76 116.839 51.8866 116.798 52.0108 116.75C52.0206 116.747 52.075 116.732 52.0854 116.721L52.0183 116.75C52.0429 116.739 52.0675 116.728 52.0919 116.717C52.1408 116.695 52.1894 116.672 52.2375 116.648C52.3582 116.588 52.4762 116.523 52.5915 116.453C52.7066 116.383 52.8191 116.309 52.9288 116.232C52.9725 116.201 53.0157 116.169 53.0585 116.137C53.071 116.128 53.1731 116.063 53.0878 116.115C53.0021 116.167 53.1292 116.082 53.1452 116.069C53.515 115.769 53.854 115.431 54.1568 115.064C54.1967 115.015 54.2343 114.965 54.2745 114.917C54.1593 115.055 54.2798 114.909 54.3051 114.875C54.383 114.769 54.4581 114.661 54.5301 114.551C54.6604 114.351 54.7808 114.146 54.8905 113.934C54.9425 113.834 54.9921 113.733 55.0392 113.631C55.0645 113.575 55.0846 113.511 55.1154 113.459C55.045 113.578 55.0814 113.541 55.0975 113.5C55.1114 113.465 55.1256 113.43 55.1393 113.395C55.2304 113.163 55.3857 112.994 55.6454 112.959C55.8792 112.928 56.1345 113.036 56.252 113.25C56.4999 113.701 56.7504 114.151 57.0247 114.587C57.1584 114.8 57.2977 115.009 57.445 115.212C57.4807 115.261 57.5169 115.31 57.5536 115.359C57.5786 115.392 57.6404 115.465 57.535 115.335C57.5503 115.354 57.5649 115.374 57.5799 115.393C57.6625 115.497 57.7476 115.599 57.8356 115.698C58.0025 115.887 58.1802 116.064 58.3684 116.232C58.4573 116.31 58.5555 116.381 58.6422 116.462C58.5046 116.334 58.6482 116.465 58.6903 116.495C58.7491 116.536 58.8087 116.577 58.8693 116.616C58.967 116.679 59.0671 116.738 59.1694 116.793C59.2248 116.823 59.2808 116.851 59.3375 116.878C59.3657 116.892 59.394 116.905 59.4225 116.918C59.4453 116.928 59.4681 116.939 59.491 116.949L59.416 116.917C59.4719 116.924 59.5365 116.965 59.5904 116.985C59.6489 117.006 59.7079 117.026 59.7672 117.045C59.8975 117.087 60.0297 117.122 60.1631 117.152C60.2797 117.178 60.419 117.178 60.53 117.219C60.4038 117.173 60.4442 117.208 60.5028 117.215C60.5338 117.218 60.5648 117.222 60.5959 117.225C60.6707 117.232 60.7456 117.238 60.8206 117.242C61.0783 117.257 61.337 117.253 61.5943 117.233C61.6574 117.228 61.7204 117.222 61.7834 117.215C61.8013 117.213 61.8647 117.195 61.8779 117.204C61.8507 117.186 61.7566 117.222 61.8383 117.209C61.9772 117.188 62.1155 117.164 62.253 117.135C62.5155 117.08 62.7776 117.013 63.0342 116.935C63.1565 116.898 63.2777 116.858 63.3978 116.814C63.4577 116.792 63.5173 116.77 63.5765 116.746C63.6002 116.737 63.6238 116.728 63.6474 116.718C63.6709 116.709 63.6944 116.699 63.7178 116.689C63.6581 116.715 63.6459 116.72 63.6815 116.704C63.9251 116.595 64.1642 116.479 64.3976 116.349C64.6409 116.214 64.878 116.067 65.1091 115.911C65.2188 115.838 65.3271 115.762 65.4341 115.684C65.4876 115.645 65.5408 115.606 65.5937 115.566C65.6148 115.55 65.6358 115.534 65.6569 115.518C65.6961 115.488 65.6989 115.486 65.6653 115.512C65.6865 115.496 65.7074 115.479 65.728 115.462C65.9775 115.267 66.1808 115.116 66.4523 114.886C66.6881 114.687 66.9189 114.482 67.1462 114.274C67.3734 114.065 67.5916 113.846 67.8185 113.637C67.9373 113.528 68.085 113.452 68.2118 113.352C68.3371 113.252 68.4495 113.133 68.5656 113.023C68.6429 112.95 68.7896 113.049 68.7201 113.142Z" fill="black"/>
<path d="M27.3663 125.72C28.6988 123.426 30.1375 121.192 31.726 119.067C35.7682 113.662 40.7883 108.994 46.4606 105.337C46.2863 108.204 46.6254 111.102 47.5009 113.838C48.0309 115.493 49.0416 117.321 50.7681 117.519C51.6954 117.625 52.611 117.209 53.3601 116.652C54.4163 115.867 55.2463 114.782 55.7271 113.557C56.5058 114.984 57.3571 116.486 58.78 117.272C60.4743 118.209 62.6397 117.89 64.3333 116.951C66.0265 116.012 67.3482 114.539 68.6358 113.093C69.4561 112.992 68.3369 113.424 69.1401 113.254C68.441 118.857 68.5773 122.111 68.7555 127.898C68.7555 127.898 83.7796 124.397 87.0006 121.395C88.4729 120.022 92.5148 117.891 93.4739 116.122C93.4739 116.122 93.5234 110.184 93.8589 104.732C94.622 105.267 94.917 105.473 95.6772 106.011C96.0611 108.909 96.7375 111.89 96.7241 113.849C98.2308 112.579 99.7372 111.308 101.244 110.038C109.588 116.244 117.396 123.032 123.333 131.775C131.118 143.24 135.813 156.576 138.375 171.228L15.6242 171.434C15.4452 154.77 19.5489 139.179 27.3663 125.72ZM68.5252 113.872L68.4142 114.654C68.5039 114.645 68.5144 114.258 68.5252 113.872ZM55.0692 157.47C55.494 158.944 57.1836 159.993 58.6459 159.53C60.1081 159.068 60.8499 157.013 59.8807 155.824C59.4509 155.297 58.6632 154.997 58.0707 155.331L56.2036 154.837C55.1777 155.12 54.7746 156.448 55.0692 157.47ZM54.3611 144.868C54.7858 146.342 56.4754 147.391 57.9377 146.928C59.3999 146.466 60.1417 144.41 59.1722 143.221C58.7428 142.695 57.9547 142.395 57.3626 142.728L55.4954 142.235C54.4695 142.517 54.0664 143.845 54.3611 144.868ZM53.6529 132.266C54.0776 133.739 55.7673 134.788 57.2295 134.326C58.6918 133.863 59.4332 131.808 58.4641 130.619C58.0346 130.093 57.2465 129.793 56.6544 130.126L54.7873 129.633C53.7614 129.915 53.3579 131.243 53.6529 132.266Z" fill="black"/>
<path d="M26.8837 125.44C30.6504 118.975 35.3525 113.166 41.1939 108.462C42.7918 107.175 44.455 105.973 46.1772 104.858C46.5209 104.635 47.0358 104.924 47.0127 105.337C46.9114 107.148 46.9915 108.967 47.308 110.755C47.5756 112.266 47.929 113.88 48.6908 115.229C49.3866 116.461 50.5194 117.342 51.9802 116.798C53.4488 116.252 54.6101 114.824 55.1886 113.409C55.3566 112.999 55.9526 112.818 56.2035 113.277C56.9212 114.589 57.6959 116.046 59.0571 116.793C60.5776 117.626 62.4921 117.306 63.9615 116.519C65.451 115.721 66.6351 114.484 67.7549 113.242C68.1257 112.831 68.5931 112.25 69.2159 112.616C69.4244 112.739 69.5292 112.965 69.4948 113.201C69.478 113.317 69.4326 113.398 69.3693 113.491C69.195 113.747 69.384 113.468 69.3865 113.283C69.2507 113.104 69.1148 112.926 68.9789 112.748C68.8823 112.742 68.8858 112.732 68.9894 112.718C69.3012 112.658 69.74 112.867 69.6923 113.254C69.0892 118.14 69.156 122.988 69.3076 127.898C69.0734 127.72 68.8391 127.541 68.6048 127.363C72.5261 126.448 76.4323 125.364 80.2348 124.039C81.4681 123.61 82.6956 123.152 83.8839 122.609C84.7651 122.206 85.6927 121.77 86.4427 121.145C87.5595 120.215 88.7426 119.407 89.9347 118.576C90.6192 118.098 91.3017 117.612 91.9259 117.056C92.1876 116.823 92.447 116.579 92.6707 116.309C92.73 116.237 92.8282 116.022 92.907 115.984C93.0347 115.924 92.9081 116.215 92.916 116.069C92.9853 114.784 92.9556 113.487 92.9891 112.201C93.054 109.71 93.1494 107.219 93.3005 104.732C93.3239 104.347 93.7669 103.994 94.136 104.253C94.4838 104.496 94.8317 104.74 95.1789 104.984C95.4781 105.194 95.9636 105.419 96.1535 105.731C96.3524 106.057 96.3163 106.631 96.374 107.009C96.4551 107.539 96.5421 108.069 96.6298 108.599C96.9163 110.329 97.2722 112.088 97.2763 113.849C96.9603 113.718 96.6443 113.587 96.3284 113.456C97.8351 112.186 99.3415 110.915 100.848 109.645C101.02 109.5 101.316 109.405 101.521 109.558C109.234 115.302 116.588 121.632 122.329 129.406C127.967 137.04 132.068 145.789 134.955 154.805C136.659 160.128 137.941 165.578 138.907 171.08C138.969 171.431 138.76 171.783 138.372 171.783C137.271 171.785 136.171 171.787 135.071 171.789C132.102 171.794 129.134 171.799 126.166 171.804C121.748 171.811 117.33 171.819 112.912 171.826C107.559 171.835 102.206 171.844 96.8524 171.853C90.9492 171.863 85.046 171.873 79.1428 171.883C73.2244 171.893 67.306 171.903 61.3876 171.912C55.8314 171.922 50.2753 171.931 44.7192 171.94C40.0554 171.948 35.3916 171.956 30.7278 171.964C27.351 171.97 23.9743 171.975 20.5975 171.981C19.0093 171.984 17.4176 172.017 15.8295 171.989C15.7601 171.988 15.6905 171.989 15.6211 171.989C15.3188 171.99 15.0687 171.734 15.0658 171.434C14.9451 158.854 17.2759 146.297 22.2286 134.717C23.5902 131.533 25.1482 128.436 26.8837 125.44C27.2418 124.822 28.2019 125.38 27.8427 126C21.6928 136.618 17.9168 148.51 16.6629 160.71C16.2968 164.273 16.142 167.854 16.1763 171.434L15.6211 170.879C16.7215 170.877 17.822 170.875 18.9225 170.873C21.8907 170.868 24.8589 170.863 27.827 170.858C32.245 170.851 36.663 170.843 41.081 170.836C46.4342 170.827 51.7874 170.818 57.1406 170.809C63.0438 170.799 68.947 170.789 74.8502 170.779C80.7686 170.769 86.687 170.76 92.6054 170.75C98.1616 170.74 103.718 170.731 109.274 170.722C113.938 170.714 118.601 170.706 123.265 170.698C126.642 170.692 130.019 170.687 133.395 170.681C134.968 170.678 136.594 170.556 138.163 170.673C138.232 170.678 138.303 170.673 138.372 170.673C138.193 170.907 138.015 171.141 137.836 171.376C136.172 161.902 133.563 152.549 129.497 143.812C127.535 139.598 125.246 135.53 122.609 131.702C119.903 127.774 116.746 124.174 113.324 120.856C109.462 117.111 105.271 113.727 100.961 110.517L101.633 110.43C100.127 111.7 98.6203 112.971 97.1137 114.241C96.7579 114.541 96.1669 114.359 96.1658 113.849C96.1599 111.271 95.4822 108.703 95.1387 106.158C95.2238 106.269 95.3088 106.38 95.3939 106.49C94.7891 106.062 94.1826 105.637 93.5756 105.212C93.8541 105.052 94.1326 104.892 94.4111 104.732C94.1872 108.418 94.0733 112.112 94.0295 115.804C94.0166 116.895 92.8958 117.72 92.1071 118.346C90.7676 119.409 89.2916 120.282 87.9393 121.326C87.1283 121.953 86.4046 122.576 85.4885 123.058C84.3649 123.649 83.1822 124.131 81.9957 124.579C79.3275 125.587 76.5872 126.406 73.8385 127.163C72.2003 127.615 70.5551 128.048 68.9001 128.434C68.542 128.517 68.2086 128.268 68.1972 127.898C68.0456 122.988 67.9787 118.14 68.5818 113.254C68.8161 113.432 69.0504 113.611 69.2847 113.789C69.1047 113.824 68.8637 113.893 68.6838 113.818C68.4563 113.724 68.2725 113.548 68.2761 113.283C68.278 113.149 68.3167 113.078 68.3694 112.961C68.576 112.504 68.396 113.163 68.3932 113.104C68.4849 113.264 68.5766 113.424 68.6682 113.583C68.8178 113.634 68.806 113.656 68.6328 113.648C68.7637 113.594 68.8946 113.539 69.0254 113.485C67.0318 115.723 64.8082 118.051 61.6537 118.361C60.2594 118.498 58.8647 118.133 57.7664 117.254C56.6458 116.357 55.9227 115.077 55.2447 113.837C55.583 113.793 55.9213 113.749 56.2596 113.705C55.5891 115.344 54.403 116.872 52.7781 117.657C51.2083 118.415 49.5201 118.092 48.3961 116.748C47.253 115.381 46.7602 113.557 46.3941 111.849C45.9357 109.711 45.7802 107.519 45.9023 105.337C46.1808 105.497 46.4593 105.657 46.7378 105.816C40.7349 109.703 35.4712 114.707 31.3327 120.542C30.0828 122.305 28.9303 124.134 27.8427 126C27.483 126.617 26.5228 126.059 26.8837 125.44Z" fill="black"/>
<path d="M69.0581 114.019C69.0257 114.248 68.9934 114.476 68.961 114.704C68.9564 114.737 68.9518 114.769 68.9472 114.802C68.7195 114.574 68.4918 114.346 68.2641 114.118C68.2678 114.118 68.2708 114.117 68.2742 114.116C68.23 114.134 68.1858 114.153 68.1416 114.172C68.1438 114.171 68.146 114.169 68.148 114.168C68.1105 114.197 68.0731 114.226 68.0356 114.255C68.0401 114.251 68.0438 114.248 68.0474 114.243L67.9606 114.356C67.967 114.347 67.9718 114.338 67.9763 114.328C67.9576 114.372 67.9389 114.417 67.9203 114.461C67.9407 114.412 67.9486 114.358 67.9556 114.306L67.9358 114.453C67.9603 114.261 67.962 114.065 67.9674 113.872C67.9715 113.727 68.0266 113.583 68.1301 113.479C68.1803 113.425 68.2399 113.387 68.3088 113.364C68.3749 113.329 68.4462 113.314 68.5227 113.316C68.6663 113.323 68.8152 113.37 68.9153 113.479C69.0134 113.586 69.0821 113.723 69.0779 113.872C69.0727 114.058 69.0708 114.246 69.0489 114.432C69.0371 114.532 69.0306 114.647 68.9958 114.744C68.9548 114.859 68.9174 114.942 68.8312 115.03C68.7945 115.068 68.7519 115.104 68.7069 115.128C68.6739 115.146 68.6053 115.175 68.5694 115.187C68.566 115.188 68.5629 115.189 68.5593 115.189C68.4609 115.216 68.3625 115.216 68.2641 115.189C68.17 115.163 68.0884 115.115 68.0191 115.047C67.9503 114.977 67.9027 114.896 67.8763 114.802C67.8498 114.703 67.8498 114.605 67.8763 114.506C67.9087 114.278 67.9411 114.05 67.9735 113.821C67.9781 113.789 67.9827 113.756 67.9873 113.724C68.0044 113.652 68.0376 113.589 68.0866 113.535C68.1258 113.475 68.1777 113.427 68.2424 113.392C68.3062 113.352 68.375 113.33 68.4489 113.326C68.5227 113.31 68.5965 113.313 68.6703 113.336C68.8047 113.38 68.9343 113.463 69.0021 113.591C69.0208 113.636 69.0395 113.68 69.0581 113.724C69.0846 113.822 69.0846 113.921 69.0581 114.019Z" fill="black"/>
<path d="M55.6024 157.323C55.6204 157.384 55.6397 157.444 55.6616 157.503C55.6721 157.532 55.6881 157.562 55.6958 157.592C55.658 157.446 55.6699 157.531 55.6901 157.575C55.7431 157.69 55.8038 157.802 55.8713 157.909C55.8995 157.953 55.9289 157.997 55.9593 158.04C55.9771 158.066 56.0004 158.091 56.0154 158.117C55.9427 157.988 55.9774 158.068 56.0071 158.105C56.0877 158.203 56.1743 158.296 56.266 158.384C56.3119 158.428 56.3591 158.471 56.4075 158.512C56.4277 158.529 56.4481 158.546 56.4686 158.563C56.5049 158.592 56.5627 158.611 56.4438 158.544C56.553 158.606 56.651 158.691 56.7602 158.755C56.8697 158.819 56.9865 158.866 57.0976 158.926C56.9411 158.841 57.0972 158.923 57.1401 158.939C57.2087 158.964 57.2782 158.986 57.3485 159.005C57.4589 159.036 57.5725 159.049 57.6829 159.076C57.5229 159.036 57.611 159.067 57.6584 159.072C57.6892 159.075 57.7201 159.078 57.751 159.08C57.8127 159.084 57.8747 159.086 57.9366 159.085C57.9986 159.085 58.0606 159.082 58.1224 159.077C58.1525 159.075 58.1849 159.067 58.2151 159.068C58.2083 159.068 58.0694 159.091 58.16 159.074C58.2876 159.051 58.4131 159.023 58.5362 158.982C58.5868 158.964 58.7381 158.882 58.5734 158.971C58.6222 158.945 58.6745 158.924 58.7236 158.898C58.8223 158.845 58.9104 158.778 59.0041 158.718C58.8508 158.817 58.9832 158.733 59.0214 158.7C59.0635 158.663 59.1043 158.625 59.1437 158.586C59.1832 158.546 59.2214 158.505 59.2582 158.463C59.2937 158.423 59.3953 158.267 59.2948 158.423C59.3504 158.337 59.4134 158.256 59.4656 158.166C59.494 158.118 59.5208 158.068 59.5462 158.018C59.5589 157.993 59.5712 157.968 59.5831 157.942C59.5918 157.924 59.6435 157.807 59.6005 157.906C59.558 158.004 59.6235 157.842 59.6329 157.815C59.6513 157.762 59.6682 157.709 59.6833 157.655C59.7136 157.547 59.7303 157.438 59.7534 157.328C59.7119 157.525 59.7496 157.35 59.7537 157.297C59.7575 157.247 59.7599 157.197 59.7606 157.146C59.7614 157.092 59.7603 157.037 59.7573 156.982C59.7544 156.931 59.7208 156.736 59.7585 156.94C59.7404 156.842 59.7241 156.745 59.6961 156.648C59.681 156.596 59.6638 156.545 59.6445 156.494C59.6273 156.449 59.5788 156.384 59.6589 156.526C59.6413 156.495 59.6282 156.46 59.6116 156.428C59.5646 156.337 59.5031 156.258 59.4509 156.171C59.5442 156.327 59.458 156.182 59.4211 156.142C59.3683 156.084 59.3104 156.033 59.2524 155.981C59.1633 155.901 59.3585 156.052 59.2588 155.986C59.2355 155.97 59.213 155.954 59.1895 155.939C59.138 155.905 59.0849 155.875 59.0303 155.847C59.0043 155.833 58.9623 155.822 58.9401 155.804L59.0115 155.834C58.991 155.826 58.9703 155.818 58.9495 155.811C58.8877 155.789 58.8245 155.771 58.7604 155.757C58.7072 155.746 58.6301 155.759 58.7803 155.756C58.7491 155.756 58.7157 155.749 58.6843 155.747C58.6309 155.745 58.5783 155.748 58.525 155.75C58.4087 155.752 58.66 155.719 58.5469 155.746C58.5159 155.754 58.4848 155.759 58.4541 155.768C58.4303 155.775 58.3869 155.799 58.363 155.798C58.4457 155.761 58.4603 155.756 58.4067 155.78C58.3871 155.79 58.3678 155.8 58.3488 155.81C58.2007 155.881 58.0599 155.899 57.899 155.861C57.8634 155.852 57.8282 155.842 57.7928 155.833C57.2132 155.679 56.6335 155.526 56.0538 155.373H56.349C56.3164 155.382 56.2846 155.393 56.2522 155.403C56.1298 155.44 56.3571 155.35 56.2658 155.395C56.2155 155.42 56.1654 155.445 56.1173 155.474C56.0936 155.489 56.0702 155.504 56.0474 155.52C56.0321 155.531 56.0171 155.542 56.0023 155.553C56.074 155.496 56.0933 155.482 56.0603 155.509C56.0174 155.551 55.9699 155.588 55.928 155.632C55.9087 155.652 55.8898 155.673 55.8716 155.694C55.8593 155.708 55.8473 155.722 55.8356 155.737C55.853 155.714 55.8703 155.691 55.8877 155.668C55.8526 155.724 55.8109 155.776 55.7766 155.833C55.747 155.882 55.7196 155.932 55.6943 155.984C55.6816 156.009 55.6718 156.038 55.6575 156.062C55.7401 155.919 55.6815 156.005 55.6641 156.051C55.6209 156.167 55.5872 156.286 55.5622 156.406C55.5561 156.436 55.5506 156.465 55.5455 156.495C55.5422 156.514 55.5391 156.534 55.5362 156.554C55.5482 156.46 55.5515 156.436 55.5462 156.48C55.5418 156.545 55.5334 156.61 55.5306 156.675C55.5251 156.805 55.5319 156.934 55.5431 157.064C55.5519 157.166 55.5198 156.927 55.5389 157.035C55.5441 157.064 55.5486 157.093 55.5543 157.122C55.5674 157.19 55.5838 157.256 55.6024 157.323C55.681 157.602 55.5059 157.939 55.2146 158.006C54.9199 158.073 54.6157 157.917 54.5316 157.618C54.2308 156.548 54.5229 155.271 55.4418 154.594C55.6853 154.414 56.0428 154.232 56.3494 154.302C56.4144 154.317 56.4787 154.336 56.5432 154.353C56.86 154.437 57.1769 154.521 57.4938 154.605C57.7346 154.668 57.9754 154.732 58.2161 154.796L57.7883 154.852C58.7582 154.325 59.9318 154.847 60.4884 155.725C60.926 156.415 60.9703 157.321 60.7128 158.084C60.4534 158.853 59.9111 159.575 59.1594 159.919C58.2858 160.318 57.3261 160.25 56.4653 159.852C55.5478 159.428 54.8173 158.587 54.5316 157.618C54.4495 157.339 54.6306 157.001 54.9194 156.935C55.2172 156.867 55.5145 157.024 55.6024 157.323Z" fill="black"/>
<path d="M54.8956 144.721C54.9135 144.781 54.9328 144.842 54.9547 144.901C54.9653 144.93 54.9812 144.96 54.9889 144.99C54.9511 144.844 54.963 144.929 54.9833 144.973C55.0363 145.088 55.0969 145.2 55.1644 145.307C55.1926 145.351 55.222 145.395 55.2524 145.438C55.2702 145.464 55.2935 145.488 55.3085 145.515C55.2359 145.386 55.2705 145.466 55.3002 145.503C55.3808 145.601 55.4674 145.694 55.5591 145.782C55.605 145.826 55.6522 145.869 55.7006 145.91C55.7208 145.927 55.7412 145.944 55.7618 145.96C55.798 145.99 55.8559 146.009 55.7369 145.942C55.8461 146.004 55.9442 146.089 56.0533 146.153C56.1628 146.217 56.2796 146.264 56.3908 146.323C56.2342 146.239 56.3903 146.321 56.4332 146.337C56.5018 146.361 56.5713 146.384 56.6416 146.403C56.752 146.434 56.8656 146.446 56.9761 146.474C56.8161 146.434 56.9041 146.465 56.9515 146.47C56.9823 146.473 57.0132 146.476 57.0441 146.478C57.1059 146.482 57.1678 146.484 57.2297 146.483C57.2917 146.483 57.3537 146.48 57.4155 146.475C57.4457 146.472 57.478 146.465 57.5082 146.465C57.5014 146.465 57.3626 146.489 57.4531 146.472C57.5807 146.448 57.7062 146.421 57.8293 146.379C57.88 146.362 58.0312 146.28 57.8665 146.369C57.9153 146.343 57.9677 146.322 58.0167 146.296C58.1154 146.243 58.2035 146.176 58.2973 146.116C58.144 146.215 58.2763 146.131 58.3146 146.098C58.3566 146.061 58.3974 146.023 58.4368 145.983C58.4764 145.944 58.5145 145.903 58.5513 145.861C58.5869 145.821 58.6884 145.664 58.588 145.821C58.6435 145.735 58.7065 145.653 58.7587 145.564C58.7871 145.516 58.8139 145.466 58.8393 145.416C58.852 145.391 58.8643 145.366 58.8762 145.34C58.8849 145.322 58.9366 145.204 58.8935 145.304C58.851 145.402 58.9166 145.24 58.926 145.213C58.9444 145.16 58.9612 145.106 58.9763 145.053C59.0066 144.945 59.0234 144.835 59.0464 144.726C59.005 144.923 59.0426 144.748 59.0467 144.695C59.0505 144.645 59.0529 144.594 59.0536 144.544C59.0544 144.489 59.0533 144.434 59.0502 144.38C59.0474 144.328 59.0137 144.134 59.0514 144.338C59.0332 144.239 59.017 144.142 58.989 144.046C58.9739 143.994 58.9567 143.942 58.9373 143.892C58.9201 143.847 58.8716 143.782 58.9517 143.924C58.9341 143.893 58.921 143.858 58.9044 143.826C58.8574 143.735 58.7959 143.655 58.7436 143.568C58.8371 143.724 58.7506 143.58 58.7138 143.539C58.661 143.482 58.6032 143.431 58.5452 143.379C58.4561 143.299 58.6513 143.45 58.5516 143.384C58.5284 143.368 58.5058 143.352 58.4823 143.336C58.4309 143.303 58.3778 143.272 58.3232 143.244C58.2971 143.231 58.2552 143.22 58.2329 143.201L58.3044 143.232C58.2839 143.223 58.2632 143.216 58.2424 143.208C58.1805 143.187 58.1173 143.169 58.0533 143.155C58.0002 143.144 57.9227 143.156 58.0732 143.153C58.0419 143.154 58.0086 143.147 57.9772 143.145C57.9238 143.143 57.8712 143.146 57.8179 143.147C57.7016 143.15 57.9529 143.117 57.8398 143.144C57.8088 143.151 57.7777 143.157 57.747 143.166C57.7233 143.172 57.6798 143.196 57.656 143.195C57.7387 143.159 57.7533 143.153 57.6998 143.178C57.6802 143.187 57.6609 143.197 57.6419 143.208C57.4938 143.278 57.353 143.297 57.1921 143.258C57.1565 143.25 57.1213 143.239 57.0859 143.23C56.5062 143.077 55.9266 142.924 55.3469 142.771H55.6421C55.6095 142.78 55.5776 142.791 55.5452 142.801C55.4229 142.838 55.6502 142.748 55.5589 142.793C55.5086 142.818 55.4585 142.843 55.4104 142.872C55.3867 142.887 55.3633 142.902 55.3404 142.918C55.3252 142.928 55.3102 142.939 55.2954 142.95C55.3671 142.894 55.3864 142.879 55.3533 142.907C55.3105 142.949 55.2629 142.986 55.2211 143.029C55.2018 143.05 55.1829 143.07 55.1647 143.091C55.1524 143.105 55.1404 143.12 55.1287 143.134C55.146 143.111 55.1634 143.089 55.1808 143.066C55.1457 143.122 55.1039 143.173 55.0697 143.23C55.0401 143.279 55.0127 143.33 54.9873 143.381C54.9747 143.407 54.9649 143.435 54.9506 143.46C55.0332 143.317 54.9746 143.402 54.9572 143.449C54.914 143.564 54.8802 143.683 54.8552 143.804C54.8492 143.833 54.8436 143.863 54.8386 143.892C54.8353 143.912 54.8321 143.931 54.8292 143.951C54.8412 143.858 54.8446 143.834 54.8393 143.878C54.835 143.943 54.8265 144.007 54.8237 144.073C54.8182 144.203 54.825 144.332 54.8362 144.462C54.845 144.564 54.8129 144.325 54.832 144.432C54.8372 144.462 54.8417 144.491 54.8474 144.52C54.8605 144.588 54.8769 144.654 54.8956 144.721C54.9741 145 54.799 145.337 54.5077 145.404C54.213 145.471 53.9088 145.315 53.8247 145.016C53.524 143.946 53.8158 142.669 54.7349 141.991C54.9784 141.812 55.3359 141.63 55.6425 141.7C55.7075 141.715 55.7718 141.734 55.8363 141.751C56.1531 141.835 56.47 141.918 56.7869 142.002C57.0276 142.066 57.2684 142.129 57.5092 142.193L57.0814 142.249C58.0512 141.723 59.2246 142.244 59.7812 143.122C60.219 143.813 60.2633 144.718 60.0058 145.481C59.7465 146.25 59.2042 146.973 58.4524 147.317C57.5789 147.716 56.6191 147.648 55.7584 147.25C54.8408 146.826 54.1104 145.985 53.8247 145.016C53.7426 144.737 53.9237 144.399 54.2125 144.333C54.5103 144.265 54.8076 144.422 54.8956 144.721Z" fill="black"/>
<path d="M54.1886 132.118C54.2065 132.179 54.2259 132.239 54.2477 132.299C54.2583 132.328 54.2743 132.358 54.282 132.388C54.2441 132.242 54.2561 132.327 54.2763 132.371C54.3293 132.486 54.39 132.597 54.4575 132.704C54.4857 132.749 54.515 132.793 54.5455 132.836C54.5633 132.861 54.5866 132.886 54.6016 132.913C54.5289 132.784 54.5635 132.864 54.5933 132.9C54.6738 132.999 54.7604 133.092 54.8522 133.18C54.8981 133.224 54.9453 133.266 54.9937 133.308C55.0138 133.325 55.0342 133.342 55.0548 133.358C55.0911 133.388 55.1489 133.407 55.03 133.34C55.1392 133.401 55.2372 133.487 55.3464 133.551C55.4559 133.614 55.5727 133.661 55.6838 133.721C55.5273 133.637 55.6834 133.719 55.7262 133.734C55.7949 133.759 55.8644 133.781 55.9347 133.801C56.045 133.831 56.1587 133.844 56.2691 133.872C56.1091 133.832 56.1972 133.863 56.2445 133.868C56.2754 133.871 56.3062 133.873 56.3371 133.875C56.3989 133.88 56.4609 133.881 56.5228 133.881C56.5848 133.881 56.6468 133.878 56.7086 133.873C56.7387 133.87 56.7711 133.863 56.8013 133.863C56.7945 133.863 56.6556 133.887 56.7462 133.87C56.8738 133.846 56.9992 133.819 57.1224 133.777C57.1731 133.76 57.3241 133.677 57.1596 133.767C57.2084 133.74 57.2607 133.72 57.3098 133.693C57.4085 133.64 57.4965 133.574 57.5903 133.513C57.437 133.613 57.5694 133.528 57.6076 133.495C57.6496 133.459 57.6904 133.42 57.7298 133.381C57.7694 133.342 57.8075 133.301 57.8443 133.259C57.8799 133.218 57.9813 133.062 57.8809 133.219C57.9364 133.132 57.9995 133.051 58.0516 132.962C58.08 132.913 58.1069 132.864 58.1323 132.814C58.1449 132.788 58.1572 132.763 58.1691 132.738C58.1778 132.719 58.2295 132.602 58.1865 132.701C58.1439 132.799 58.2095 132.637 58.2189 132.61C58.2373 132.558 58.2542 132.504 58.2693 132.45C58.2996 132.342 58.3163 132.233 58.3393 132.124C58.2979 132.32 58.3356 132.145 58.3396 132.093C58.3434 132.043 58.3458 131.992 58.3465 131.942C58.3473 131.887 58.3462 131.832 58.3432 131.777C58.3403 131.726 58.3067 131.531 58.3444 131.735C58.3262 131.637 58.3099 131.54 58.282 131.444C58.2669 131.392 58.2496 131.34 58.2303 131.29C58.2131 131.244 58.1647 131.179 58.2448 131.322C58.2271 131.29 58.214 131.256 58.1974 131.224C58.1504 131.133 58.0889 131.053 58.0367 130.966C58.13 131.122 58.0438 130.977 58.007 130.937C57.9542 130.88 57.8963 130.829 57.8383 130.777C57.7492 130.697 57.9444 130.848 57.8447 130.781C57.8215 130.766 57.7989 130.749 57.7755 130.734C57.724 130.701 57.6709 130.67 57.6163 130.642C57.5902 130.629 57.5483 130.617 57.526 130.599L57.5975 130.629C57.577 130.621 57.5563 130.614 57.5355 130.606C57.4737 130.585 57.4105 130.567 57.3464 130.553C57.2933 130.542 57.2158 130.554 57.3663 130.551C57.335 130.552 57.3017 130.545 57.2703 130.543C57.2169 130.54 57.1643 130.544 57.1111 130.545C56.9947 130.548 57.246 130.515 57.1329 130.542C57.102 130.549 57.0709 130.555 57.0401 130.563C57.0164 130.57 56.9729 130.594 56.9491 130.593C57.0318 130.557 57.0464 130.551 56.9929 130.575C56.9733 130.585 56.954 130.595 56.935 130.606C56.7869 130.676 56.6462 130.695 56.4852 130.656C56.4496 130.647 56.4144 130.637 56.379 130.628C55.7994 130.475 55.2197 130.321 54.64 130.168H54.9352C54.9026 130.178 54.8708 130.189 54.8384 130.199C54.716 130.235 54.9433 130.145 54.8521 130.191C54.8017 130.216 54.7516 130.241 54.7035 130.27C54.6798 130.284 54.6564 130.3 54.6336 130.316C54.6183 130.326 54.6033 130.337 54.5885 130.348C54.6601 130.292 54.6795 130.277 54.6464 130.304C54.6036 130.347 54.556 130.384 54.5141 130.427C54.4948 130.447 54.476 130.468 54.4577 130.489C54.4455 130.503 54.4335 130.517 54.4217 130.532C54.4391 130.509 54.4565 130.487 54.4738 130.464C54.4387 130.52 54.397 130.571 54.3627 130.628C54.3331 130.677 54.3057 130.728 54.2803 130.779C54.2677 130.805 54.2579 130.833 54.2436 130.858C54.3262 130.715 54.2676 130.8 54.2501 130.847C54.207 130.962 54.1732 131.081 54.1482 131.202C54.1421 131.231 54.1366 131.26 54.1316 131.29C54.1282 131.31 54.1251 131.329 54.1222 131.349C54.1342 131.256 54.1375 131.231 54.1323 131.276C54.1279 131.341 54.1195 131.405 54.1167 131.47C54.1111 131.601 54.118 131.73 54.1292 131.86C54.138 131.962 54.1059 131.723 54.125 131.83C54.1302 131.859 54.1347 131.889 54.1404 131.918C54.1536 131.985 54.17 132.052 54.1886 132.118C54.2672 132.398 54.0921 132.735 53.8008 132.801C53.506 132.869 53.202 132.713 53.1178 132.414C52.8167 131.344 53.1089 130.067 54.028 129.389C54.2715 129.21 54.6291 129.027 54.9356 129.097C55.0006 129.112 55.0649 129.132 55.1294 129.149C55.4462 129.232 55.7631 129.316 56.08 129.4C56.3208 129.464 56.5615 129.527 56.8023 129.591C56.6597 129.609 56.5171 129.628 56.3745 129.647C57.3442 129.12 58.5177 129.642 59.0743 130.52C59.5119 131.21 59.5562 132.116 59.2989 132.879C59.0395 133.648 58.4973 134.371 57.7456 134.714C56.8721 135.114 55.9122 135.046 55.0515 134.648C54.134 134.224 53.4035 133.383 53.1178 132.414C53.0357 132.135 53.2168 131.796 53.5056 131.731C53.8034 131.663 54.1007 131.82 54.1886 132.118Z" fill="black"/>
<path d="M87.5421 69.5813C86.6364 75.1173 85.769 80.6594 84.8676 86.1961C84.4171 88.9639 83.9665 91.7317 83.5159 94.4996C83.0649 97.2703 82.6668 100.05 82.2484 102.826C82.0162 104.367 81.754 105.903 81.5046 107.441C81.3777 108.224 81.2508 109.007 81.1239 109.79C80.9977 110.569 80.9109 111.367 80.6497 112.113C80.5585 112.373 80.1575 112.342 80.1555 112.046C80.1506 111.339 80.2958 110.641 80.415 109.945C80.5344 109.248 80.6539 108.55 80.7733 107.853C81.0122 106.458 81.2511 105.063 81.4899 103.669C81.9624 100.91 82.5076 98.1636 82.9924 95.4069C83.9629 89.8877 84.8516 84.3542 85.8244 78.8354C86.3697 75.7422 86.9076 72.648 87.4333 69.5513C87.4455 69.4797 87.5537 69.5103 87.5421 69.5813Z" fill="black"/>
<path d="M95.2583 85.8301C95.265 86.4905 95.2517 87.1505 95.2608 87.8108C95.2654 88.1405 95.2657 88.4702 95.2654 88.7999C95.265 89.1297 95.2933 89.4579 95.2885 89.7882C95.279 90.4465 95.2655 91.1046 95.2581 91.763C95.2544 92.0922 95.2557 92.4215 95.2273 92.7496C95.1988 93.0785 95.1692 93.4073 95.1389 93.736C95.0175 95.0525 94.8511 96.3651 94.7129 97.68C94.6403 98.3708 94.5878 99.065 94.4939 99.7532C94.4734 99.9034 94.5095 99.6359 94.4893 99.7872C94.4853 99.8171 94.4814 99.847 94.4774 99.8769C94.4655 99.9665 94.4538 100.056 94.4422 100.146C94.4209 100.31 94.4001 100.475 94.3799 100.639C94.3561 100.832 94.328 101.024 94.2988 101.216C94.2876 101.29 94.2758 101.363 94.2657 101.437C94.2467 101.574 94.2628 101.386 94.2631 101.47C94.2632 101.521 94.2543 101.575 94.2501 101.627C94.1905 102.359 94.1435 103.093 94.1135 103.828C94.0829 104.579 94.0048 105.327 93.9538 106.078C93.9431 106.234 93.8278 106.368 93.6631 106.368C93.4915 106.368 93.39 106.235 93.3725 106.078C93.2995 105.423 93.222 104.757 93.233 104.098C93.2439 103.438 93.2692 102.779 93.3053 102.121C93.3234 101.791 93.3477 101.463 93.3504 101.133C93.3531 100.803 93.3694 100.475 93.3877 100.146C93.4246 99.4846 93.4943 98.8306 93.5733 98.1731C93.7315 96.8573 93.9073 95.5437 94.0747 94.229C94.1203 93.8716 94.1737 93.5151 94.223 93.1582C94.2456 92.9949 94.2678 92.8315 94.29 92.6681C94.2922 92.6525 94.3026 92.5753 94.2912 92.6599C94.2972 92.6151 94.3032 92.5703 94.3092 92.5254C94.3247 92.4095 94.3466 92.2964 94.3695 92.1819C94.4979 91.5402 94.6232 90.8986 94.7207 90.2514C94.8298 89.5277 94.9571 88.8083 95.0364 88.0806C95.0772 87.7062 95.1176 87.3323 95.1325 86.9559C95.1474 86.5808 95.1575 86.2054 95.1628 85.83C95.1637 85.7686 95.2576 85.7685 95.2583 85.8301Z" fill="black"/>
<path d="M90.9286 42.0077C91.4668 43.9352 91.9294 45.8836 92.3132 47.8477C92.4197 48.3923 92.5401 48.9406 92.6123 49.4909C92.6268 49.6011 92.4691 49.6499 92.4004 49.5787C92.0453 49.2108 91.6641 48.8679 91.2944 48.5145C90.9351 48.1711 90.5778 47.8256 90.2225 47.478C89.5017 46.7727 88.7871 46.0607 88.0867 45.3352C86.6862 43.8843 85.3201 42.4001 83.9904 40.8841C83.6147 40.4558 83.2418 40.0249 82.8719 39.5915C82.6917 39.3804 82.5122 39.1687 82.3334 38.9564C82.1458 38.7337 81.915 38.5485 81.7313 38.3238C81.8956 38.2804 82.0599 38.237 82.2242 38.1937C82.0842 38.8448 81.7041 39.4042 81.1788 39.8059C81.0431 39.9097 80.8633 39.814 80.7781 39.7009C79.7154 38.2891 78.7889 36.776 78.0176 35.1861C77.7938 34.7248 77.6058 34.2441 77.4226 33.7654C77.3251 33.5105 77.751 33.3285 77.8666 33.5782C78.6051 35.173 79.4315 36.7327 80.4151 38.1907C80.6935 38.6034 80.9835 39.0082 81.2838 39.4052L80.8831 39.3002C81.2838 38.9923 81.5504 38.5309 81.6554 38.0369C81.6991 37.8313 82.0095 37.7376 82.1484 37.9067C82.3126 38.1066 82.4294 38.3423 82.5932 38.5421C82.7555 38.7401 82.9181 38.9378 83.0814 39.1349C83.3987 39.5177 83.7182 39.8987 84.04 40.2778C84.693 41.0471 85.355 41.8087 86.0261 42.5622C87.3679 44.0686 88.7452 45.5445 90.1505 46.9919C90.5476 47.4009 90.9475 47.8072 91.35 48.2109C91.7521 48.614 92.1483 49.0272 92.576 49.4031C92.5068 49.4434 92.4377 49.4837 92.3685 49.5239C92.2679 49.0344 92.2011 48.5362 92.1112 48.0445C92.0225 47.5595 91.929 47.0754 91.8308 46.5923C91.6329 45.6188 91.4158 44.6491 91.1796 43.6842C91.0463 43.1392 90.9066 42.5957 90.7613 42.0538C90.7323 41.9458 90.8985 41.9001 90.9286 42.0077Z" fill="black"/>
<path d="M92.7419 63.1038C92.2795 62.6444 91.8171 62.185 91.3547 61.7256C91.2396 61.6113 91.4175 61.4334 91.5326 61.5477C91.995 62.0071 92.4574 62.4665 92.9198 62.9259C93.0349 63.0402 92.8569 63.2181 92.7419 63.1038Z" fill="black"/>
</g>
<defs>
<clipPath id="clip0_94_3564">
<rect width="172" height="172" fill="white"/>
</clipPath>
</defs>
</svg>
