<svg width="560" height="560" viewBox="0 0 560 560" fill="none" xmlns="http://www.w3.org/2000/svg">
<g clip-path="url(#clip0_460_16549)">
<path d="M197.708 177.23C179.828 177.328 161.949 177.427 144.169 177.427C138.835 177.427 133.501 177.427 128.266 177.328C128.76 153.621 141.996 159.153 169.951 158.165C195.93 157.276 197.708 171.006 197.708 177.23Z" fill="#8590C8"/>
<path d="M265.964 178.217C248.085 178.316 230.206 178.415 212.426 178.415C207.092 178.415 201.758 178.415 196.522 178.316C197.016 154.609 210.253 160.141 238.207 159.153C264.186 158.165 265.866 171.895 265.964 178.217Z" fill="#8590C8"/>
<path d="M41.6361 338.141C30.8691 338.141 23.4607 336.758 18.818 332.412C15.3608 329.152 13.7803 324.411 13.7803 317.793C13.9779 305.939 21.979 300.704 29.7826 295.666C37.5861 290.628 44.9946 285.788 45.1921 274.033C45.3897 256.451 37.191 252.499 -1.33296 252.005C-2.81465 252.005 -4 250.82 -4 249.338C-4 247.857 -2.71587 246.671 -1.33296 246.671C34.1289 247.165 50.8226 250.03 50.4274 274.132C50.2299 288.751 40.8458 294.777 32.6472 300.111C25.4363 304.754 19.2132 308.804 19.1144 317.793C19.0156 322.83 20.1022 326.189 22.4729 328.461C28.3996 334.091 43.7105 333.103 66.8248 331.523C76.604 330.831 87.7661 330.041 100.509 329.646C101.99 329.547 103.176 330.733 103.274 332.214C103.274 333.696 102.188 334.881 100.706 334.98C88.0624 335.375 76.9991 336.166 67.2199 336.857C57.1444 337.548 48.6494 338.141 41.6361 338.141Z" fill="#31302E"/>
<path d="M110.782 300.803C91.4208 301.593 95.4708 303.667 93.8903 329.547C92.6062 352.168 100.212 354.341 111.078 354.835C110.288 336.758 109.596 318.78 110.782 300.803Z" fill="#31302E"/>
<path d="M376.202 428.327C365.139 428.327 352.693 428.129 338.567 427.932C319.404 427.635 272.286 427.24 272.286 427.24C253.518 427.24 236.923 427.536 222.304 427.734C166.395 428.623 138.341 429.018 123.525 414.399C108.411 399.483 108.411 369.751 108.51 310.582C108.51 301.395 108.51 291.418 108.51 280.75C108.411 267.02 108.115 254.08 107.819 241.634C106.436 183.453 105.448 141.373 134.291 128.531C157.505 118.159 218.847 117.962 283.745 117.764C296.586 117.764 309.427 117.665 321.874 117.567H325.232C439.026 116.381 453.645 116.184 458.387 180.193C459.671 197.677 463.622 250.919 463.82 285.59C463.82 291.912 463.918 297.839 463.918 303.667C464.412 366.293 464.709 397.705 448.509 413.806C435.964 425.857 414.331 428.327 376.202 428.327ZM275.151 421.906C299.352 421.906 320.194 422.301 338.765 422.597C399.712 423.585 430.235 424.079 444.854 409.756C459.375 395.334 459.177 364.614 458.683 303.47C458.683 297.74 458.584 291.715 458.584 285.393C458.387 250.919 454.436 197.874 453.151 180.39C448.805 121.419 439.52 121.518 325.43 122.703H322.071C309.526 122.802 296.685 122.901 283.844 122.901C222.304 123.098 158.69 123.296 136.465 133.273C110.782 144.731 111.77 185.231 113.153 241.436C113.449 253.981 113.745 266.921 113.844 280.652C113.844 291.418 113.844 301.296 113.844 310.582C113.745 368.269 113.745 397.31 127.278 410.645C140.515 423.684 167.778 423.289 222.205 422.4C236.825 422.202 253.518 421.906 272.286 421.906C273.175 421.906 274.163 421.906 275.151 421.906Z" fill="#31302E"/>
<path d="M142.589 180.094C137.946 180.094 133.303 180.094 128.661 179.995H128.266C122.536 179.995 116.807 179.897 111.177 179.798C110.387 179.798 109.695 179.501 109.201 178.909C108.707 178.316 108.51 177.625 108.51 176.834C111.276 150.065 119.178 135.051 134.291 128.334C157.504 117.962 218.945 117.764 283.942 117.567C296.685 117.567 309.526 117.468 321.873 117.369H325.034C435.568 116.184 452.558 116.085 457.893 173.97C457.991 174.661 457.695 175.451 457.201 176.044C456.707 176.637 456.016 176.933 455.226 176.933L414.43 177.526C343.407 178.612 270.014 179.699 197.806 179.995C179.927 180.094 162.048 180.193 144.169 180.193C143.576 180.094 143.083 180.094 142.589 180.094ZM114.14 174.562C118.882 174.661 123.524 174.661 128.266 174.76H128.661C133.797 174.76 139.033 174.859 144.169 174.859C162.048 174.859 179.828 174.76 197.708 174.661C269.915 174.266 343.308 173.18 414.331 172.192L452.262 171.599C447.126 121.518 431.815 121.617 325.133 122.802H321.972C309.526 122.901 296.783 123 283.942 123C222.402 123.197 158.69 123.493 136.464 133.371C123.821 138.903 116.906 151.646 114.14 174.562Z" fill="#31302E"/>
<path d="M447.323 253.882C445.842 218.816 447.323 217.235 438.433 217.136C429.543 217.037 425.098 216.544 425.493 223.261C425.888 229.978 426.58 265.637 427.271 272.65C427.962 279.664 430.136 280.158 437.84 279.17C448.015 277.787 448.509 280.75 447.323 253.882Z" fill="#8590C8"/>
<path d="M150.689 198.072C135.97 196.393 133.007 219.211 150.392 219.507C166.394 219.705 164.024 199.554 150.689 198.072Z" fill="#8590C8"/>
<path d="M546.399 354.934C532.175 337.055 530.397 328.658 511.332 338.438C503.924 328.066 500.96 323.226 489.008 332.214C477.253 341.105 473.796 341.105 482.39 356.514C478.044 359.478 473.203 362.737 467.968 366.293C461.054 356.613 457.893 352.365 446.335 361.058C434.581 369.948 430.333 370.442 438.828 385.95C433.889 389.21 429.444 392.272 425.197 395.038C418.282 385.358 415.121 381.11 403.564 389.803C391.513 398.989 387.463 398.298 396.847 414.992C380.252 428.228 381.832 433.76 390.624 448.28C405.836 473.469 412.454 486.804 428.555 475.346C444.557 463.887 532.372 407.386 548.671 394.742C564.969 382.197 566.352 380.024 546.399 354.934Z" fill="white"/>
<path d="M418.183 482.26C417.294 482.26 416.405 482.162 415.516 481.964C406.725 480.186 400.502 469.715 391.019 454.009L388.45 449.663C379.462 434.846 377.486 427.734 393.587 414.399C386.277 401.064 388.154 397.804 397.834 390.889C399.119 390 400.502 388.914 402.082 387.728C407.515 383.58 411.565 381.999 415.22 382.592C419.566 383.283 422.529 386.741 425.888 391.482L435.371 385.16C428.555 371.825 431.716 368.466 441.297 361.552C442.384 360.762 443.569 359.873 444.755 358.984C450.188 354.835 454.336 353.254 457.892 353.847C462.239 354.539 465.202 357.996 468.561 362.737C472.215 360.268 475.673 357.897 478.834 355.724C471.82 342.488 474.487 339.623 483.97 332.708C485.057 331.918 486.143 331.128 487.427 330.14C492.86 325.991 496.91 324.411 500.565 325.004C505.208 325.695 508.27 329.646 512.221 335.079C528.816 327.275 533.755 333.696 543.04 346.142C544.719 348.315 546.497 350.686 548.572 353.353C559.931 367.676 564.574 374.69 563.883 381.209C563.191 386.938 558.351 390.988 550.547 397.014C540.67 404.62 505.8 427.635 474.882 447.984C454.336 461.517 436.655 473.173 430.333 477.717C425.789 480.68 421.838 482.26 418.183 482.26ZM413.837 387.827C411.861 387.827 408.997 389.21 405.342 391.976C403.761 393.161 402.28 394.248 400.897 395.236C392.797 400.965 392.303 401.36 399.316 413.707C400.008 414.893 399.711 416.276 398.625 417.165C383.314 429.413 384.796 433.463 392.994 446.996L395.563 451.342C403.959 465.369 410.083 475.445 416.504 476.828C419.467 477.42 422.826 476.334 426.974 473.37C433.395 468.728 451.175 457.072 471.721 443.539C502.442 423.289 537.311 400.273 546.991 392.766C553.708 387.531 557.857 384.172 558.351 380.518C558.845 375.974 554.005 368.96 544.226 356.613C542.151 353.946 540.274 351.476 538.595 349.303C529.014 336.561 526.742 333.499 512.419 340.808C511.233 341.401 509.752 341.105 509.06 340.018L508.566 339.327C505.01 334.289 502.442 330.634 499.676 330.239C497.602 329.943 494.638 331.325 490.49 334.388C489.205 335.375 488.02 336.166 487.032 336.956C478.537 343.179 478.043 343.475 484.563 355.23C485.254 356.415 484.859 357.996 483.773 358.786C479.426 361.75 474.586 365.009 469.351 368.565C468.165 369.356 466.486 369.059 465.696 367.874C462.041 362.638 459.572 359.478 457.003 359.082C454.929 358.786 451.966 360.169 447.817 363.231C446.533 364.219 445.347 365.108 444.261 365.898C435.469 372.319 434.58 372.912 441.1 384.765C441.791 385.95 441.396 387.531 440.211 388.222L426.579 397.31C425.394 398.1 423.715 397.804 422.924 396.619C419.27 391.482 416.8 388.222 414.232 387.827C414.232 387.827 414.034 387.827 413.837 387.827Z" fill="#31302E"/>
<path d="M427.468 446.404C423.517 446.404 421.541 444.626 420.554 443.144C413.738 432.574 417.491 429.907 463.819 396.619L472.018 390.692C496.712 372.912 506.788 367.182 513.209 367.182C519.135 367.182 521.111 372.121 521.802 373.702C525.655 383.086 512.418 392.865 493.947 406.398C489.304 409.756 484.563 413.312 479.624 417.165C465.498 428.031 439.815 446.404 427.468 446.404Z" fill="white"/>
<path d="M513.209 369.751C516.271 369.751 518.049 371.529 519.333 374.591C523.186 383.975 501.355 396.718 478.043 414.794C459.078 429.414 437.445 443.539 427.468 443.539C425.295 443.539 423.715 442.848 422.826 441.465C417.097 432.574 421.147 430.401 473.598 392.668C496.021 376.665 507.183 369.751 513.209 369.751ZM513.209 364.417C505.998 364.417 496.021 370.047 470.438 388.42L462.239 394.347C439.124 410.942 427.567 419.239 421.542 425.265C414.627 432.081 413.738 437.513 418.282 444.527C419.369 446.206 422.036 449.071 427.468 449.071C440.013 449.071 463.622 432.871 481.303 419.239C486.143 415.486 490.984 411.93 495.626 408.571C514.987 394.347 529.014 384.074 524.371 372.714C521.506 365.898 516.666 364.417 513.209 364.417Z" fill="#31302E"/>
<path d="M467.276 397.31C420.85 430.698 417.293 433.068 422.825 441.563C428.06 449.663 455.027 432.673 478.043 414.893C482.883 411.139 487.526 407.682 492.069 404.422C483.673 402.249 475.475 399.977 467.276 397.31Z" fill="#8590C8"/>
<path d="M479.821 388.321C477.846 389.704 475.771 391.186 473.598 392.766C473.104 393.161 472.511 393.557 472.018 393.853C480.216 396.421 488.514 398.594 496.811 400.866C499.577 398.891 502.145 396.915 504.516 395.038C496.317 392.766 488.02 390.692 479.821 388.321Z" fill="#8590C8"/>
<path d="M473.5 486.014C472.512 453.12 469.549 458.85 398.724 456.677C344.296 454.997 350.322 456.183 348.445 494.114C346.963 522.859 348.248 530.959 362.472 532.836C365.04 533.132 369.584 533.428 375.412 533.626C374.72 552.295 373.733 556.938 386.475 556.641C400.601 556.246 401.292 559.111 402.082 534.021C408.305 534.021 414.627 534.12 420.85 534.12C420.159 552.888 419.171 557.53 431.914 557.234C446.138 556.839 446.731 559.802 447.521 534.218C454.238 534.317 459.473 534.416 462.338 534.515C475.772 535.404 474.488 518.908 473.5 486.014Z" fill="white"/>
<path d="M430.531 560C426.777 560 423.122 559.506 420.653 557.037C417.294 553.579 417.492 547.85 417.887 537.379V536.886C413.442 536.886 408.898 536.886 404.453 536.787C403.761 556.641 402.774 559.308 390.229 559.308C389.043 559.308 387.759 559.308 386.376 559.308C382.227 559.407 377.881 559.111 375.214 556.345C371.856 552.888 372.053 547.159 372.448 536.688V536.194C367.608 535.997 364.151 535.799 361.978 535.503C345.185 533.329 344.197 522.365 345.679 494.015C345.877 490.262 345.975 486.804 346.074 483.742C347.062 453.614 349.038 452.528 398.724 454.01C409.293 454.306 418.282 454.504 426.184 454.602C470.536 455.294 475.179 455.393 476.167 485.915L476.364 491.546C477.056 514.463 477.55 528.292 471.425 534.218C469.153 536.49 465.992 537.478 462.14 537.182C459.967 537.083 456.114 536.984 450.089 536.886C449.397 557.135 448.41 559.802 435.865 559.802C434.679 559.802 433.395 559.802 432.012 559.802C431.42 560 431.025 560 430.531 560ZM401.983 531.354C408.206 531.354 414.528 531.453 420.751 531.453C421.443 531.453 422.134 531.749 422.628 532.243C423.122 532.737 423.419 533.428 423.419 534.218L423.32 537.577C423.023 545.973 422.727 551.505 424.505 553.283C425.493 554.271 427.864 554.765 431.716 554.666C433.198 554.666 434.482 554.666 435.667 554.666C440.804 554.666 442.088 554.468 442.779 553.184C444.063 550.715 444.36 544.096 444.656 534.317C444.656 532.836 445.841 531.749 447.323 531.749C454.929 531.848 459.671 531.947 462.239 532.045C465.4 532.243 466.684 531.255 467.474 530.564C471.919 526.316 471.425 511.894 470.833 491.842L470.635 486.212C469.845 460.825 469.845 460.825 425.987 460.134C418.084 460.035 409.096 459.838 398.427 459.541C375.708 458.85 362.472 458.553 356.841 461.813C352.1 464.48 351.705 470.209 351.31 484.137C351.211 487.199 351.112 490.657 350.914 494.509C349.433 523.945 351.013 528.983 362.57 530.465C364.941 530.761 369.189 531.058 375.214 531.156C375.906 531.156 376.597 531.453 377.091 532.045C377.585 532.539 377.881 533.231 377.782 533.922L377.684 537.083C377.387 545.479 377.091 551.011 378.869 552.789C379.857 553.777 382.129 554.271 386.08 554.172C387.562 554.172 388.846 554.172 390.13 554.172C395.266 554.172 396.551 554.073 397.242 552.69C398.526 550.32 398.822 543.8 399.119 534.12C399.316 532.539 400.502 531.354 401.983 531.354Z" fill="#31302E"/>
<path d="M396.946 511.993C400.699 520.982 412.355 523.748 420.159 518.908C423.122 517.13 420.258 512.586 417.294 514.364C412.553 517.327 405.441 516.241 402.379 511.104C398.23 503.992 405.144 496.287 412.355 496.287C413.837 496.287 414.924 494.904 414.924 493.521C415.022 490.36 415.418 488.681 415.516 485.52C415.615 482.063 410.281 482.261 410.182 485.718C410.083 487.99 409.787 488.879 409.688 491.151C400.403 492.731 393.093 502.609 396.946 511.993Z" fill="#31302E"/>
<path d="M415.616 477.914L415.813 475.247C416.109 471.79 410.775 471.395 410.479 474.852L410.281 477.519C409.985 480.878 415.319 481.371 415.616 477.914Z" fill="#31302E"/>
<path d="M77.5919 398.002C82.3333 385.062 82.926 381.407 72.0603 378.246C59.9104 374.69 58.8238 371.924 52.6007 388.618C28.301 379.431 30.3753 382.79 21.0901 406.991C13.5828 426.648 12.3975 432.574 19.9047 436.526C27.412 440.477 64.1579 456.281 75.2212 456.775C83.2223 457.171 85.6918 448.28 92.9027 425.265C98.5332 406.991 97.8417 405.41 77.5919 398.002Z" fill="#8590C8"/>
<path d="M71.369 406.595C61.5899 408.867 51.9095 411.04 42.1303 413.312C39.9572 413.806 39.7596 416.276 40.8462 417.757L58.824 440.872C60.8984 443.638 64.7508 439.785 62.6764 437.118C57.6387 430.599 52.5021 424.079 47.4644 417.56C55.8607 415.683 64.2569 413.707 72.6531 411.831C76.1104 411.04 74.7275 405.904 71.369 406.595Z" fill="white"/>
<path d="M421.542 0.0194314C352.89 2.68648 270.607 18.4912 216.278 81.1173C161.949 143.743 234.849 177.822 255.098 181.477C276.435 185.33 294.314 182.86 297.178 167.747C297.178 167.747 318.12 169.821 321.083 150.263C321.083 150.263 351.902 146.213 334.418 118.357C334.418 118.357 395.266 104.923 420.159 104.33C445.15 103.738 438.433 74.3016 438.828 41.3092C439.223 8.3169 432.407 -0.474466 421.542 0.0194314Z" fill="#8590C8"/>
<path d="M279.299 141.175C278.212 117.369 281.867 112.43 254.999 111.443C255.296 97.3172 254.802 93.5636 242.652 94.0575C228.823 94.5514 227.045 92.1806 226.551 111.146C218.056 111.146 210.647 111.048 204.227 110.949C204.523 96.6257 204.128 92.8721 191.879 93.366C177.852 93.8599 176.173 91.4892 175.778 111.245C161.258 112.529 159.973 117.172 159.084 131.89C157.702 157.178 156.121 169.821 169.16 169.525C182.199 169.229 251.542 171.698 265.272 170.612C278.904 169.525 280.287 163.302 279.299 141.175Z" fill="white"/>
<path d="M253.123 173.575C240.578 173.575 221.81 173.18 204.721 172.785C188.422 172.39 174.395 172.093 169.259 172.192C165.11 172.291 161.949 171.204 159.677 168.932C154.541 163.697 155.232 153.325 156.22 136.137L156.516 131.791C157.405 116.974 159.085 110.751 173.21 108.874C173.704 93.0696 175.778 90.9953 187.731 90.7977C189.015 90.7977 190.398 90.7977 191.879 90.6989C196.423 90.5014 200.967 90.7977 203.832 93.5635C206.795 96.4281 207.091 101.17 206.993 108.282C212.129 108.38 217.76 108.38 223.983 108.479C224.575 93.8599 226.748 91.6867 238.404 91.4892C239.689 91.4892 240.973 91.4892 242.553 91.3904C247.097 91.1928 251.641 91.4892 254.505 94.255C257.469 97.1196 257.765 101.762 257.765 108.874C280.287 110.06 281.374 115.295 281.769 133.174C281.867 135.545 281.867 138.113 281.966 141.076C282.954 163.005 281.67 171.994 265.47 173.279C262.902 173.476 258.654 173.575 253.123 173.575ZM172.222 166.759C178.84 166.759 191.089 167.055 204.819 167.352C228.033 167.846 256.975 168.537 264.976 167.846C275.447 167.055 277.62 164.685 276.533 141.175C276.435 138.212 276.336 135.545 276.336 133.174C275.941 116.48 275.941 114.801 254.901 113.912C253.419 113.813 252.332 112.628 252.332 111.146C252.53 104.232 252.431 99.4903 250.752 97.8111C249.665 96.7245 247.196 96.3294 242.751 96.4282C241.17 96.5269 239.787 96.5269 238.503 96.5269C229.613 96.6257 229.613 96.6257 229.218 110.949C229.218 112.43 228.033 113.517 226.551 113.517C218.056 113.517 210.647 113.418 204.128 113.319C203.437 113.319 202.745 113.023 202.251 112.529C201.757 112.035 201.461 111.344 201.461 110.652C201.659 103.54 201.56 98.7989 199.88 97.1196C198.794 96.033 196.324 95.6379 191.879 95.7367C190.299 95.8355 188.916 95.8355 187.632 95.8355C178.742 95.9342 178.742 95.9342 178.347 111.047C178.347 112.43 177.26 113.517 175.877 113.616C163.628 114.702 162.443 117.369 161.653 131.692L161.357 136.039C160.468 150.658 159.875 161.227 163.332 164.783C164.024 165.574 165.505 166.562 168.963 166.463C169.95 166.759 171.037 166.759 172.222 166.759Z" fill="#31302E"/>
<path d="M194.645 148.584C189.805 143.151 184.964 137.718 180.124 132.384C177.852 129.816 174 133.569 176.272 136.137C181.112 141.57 185.952 147.003 190.792 152.337C193.163 154.905 197.015 151.152 194.645 148.584Z" fill="#31302E"/>
<path d="M191.781 130.211C186.743 137.224 181.804 144.336 176.766 151.349C174.791 154.214 179.335 156.881 181.31 154.115C186.348 147.102 191.287 139.99 196.325 132.976C198.399 130.112 193.855 127.445 191.781 130.211Z" fill="#31302E"/>
<path d="M219.636 138.804L206.301 138.607C202.844 138.607 202.745 143.941 206.202 143.941L219.538 144.139C223.094 144.139 223.094 138.804 219.636 138.804Z" fill="#31302E"/>
<path d="M297.968 165.574C296.19 158.165 290.264 152.238 282.855 150.559C279.497 149.769 278.015 154.905 281.373 155.696C287.103 156.98 291.449 161.227 292.832 166.957C293.622 170.315 298.857 168.932 297.968 165.574Z" fill="#31302E"/>
<path d="M288.881 82.8953C232.083 130.309 222.896 147.991 237.121 157.079C251.246 166.166 298.067 131.989 339.555 99.5891C381.042 67.1894 288.881 82.8953 288.881 82.8953Z" fill="#8590C8"/>
<path d="M282.164 78.3515C272.582 89.316 263.1 100.379 253.518 111.344C251.246 113.912 255 117.764 257.272 115.196C266.853 104.232 276.336 93.1684 285.918 82.2038C288.091 79.5368 284.436 75.6844 282.164 78.3515Z" fill="#31302E"/>
<path d="M340.246 100.379C320.49 113.122 300.636 125.963 280.88 138.706C278.015 140.582 280.583 145.225 283.547 143.348C303.303 130.606 323.157 117.764 342.913 105.022C345.778 103.145 343.21 98.5024 340.246 100.379Z" fill="#31302E"/>
<path d="M256.482 130.112C254.803 127.148 250.16 129.717 251.839 132.779C256.581 141.274 247.295 150.46 238.899 145.521C235.936 143.743 233.17 148.386 236.133 150.065C241.863 153.424 249.37 152.93 254.21 148.188C258.951 143.447 259.643 135.841 256.482 130.112Z" fill="#31302E"/>
<path d="M321.873 148.188C318.91 140.286 312.983 134.359 304.982 131.495C301.722 130.309 300.24 135.446 303.5 136.631C309.526 138.804 314.465 143.546 316.736 149.571C317.922 152.732 323.058 151.448 321.873 148.188Z" fill="#31302E"/>
<path d="M337.974 118.752C334.418 115.69 330.368 113.517 325.725 112.529C322.367 111.838 320.885 116.974 324.244 117.666C327.898 118.456 331.257 119.938 334.122 122.506C336.789 124.679 340.641 121.024 337.974 118.752Z" fill="#31302E"/>
<path d="M288.683 311.471C158.295 310.186 152.862 303.865 150.59 339.129C148.318 374.393 149.602 392.173 174.593 392.766C209.956 393.655 333.233 396.618 359.41 395.334C385.586 394.05 385.784 390.692 383.018 345.253C380.45 304.457 388.846 312.458 288.683 311.471Z" fill="#8590C8"/>
<path d="M164.913 318.484C165.407 292.604 168.37 293.888 179.928 292.801C191.485 291.715 190.102 298.827 190.892 314.829C191.781 330.93 164.913 318.484 164.913 318.484Z" fill="#8590C8"/>
<path d="M352.792 374.097C351.113 374.196 349.236 374.393 347.063 374.393C345.877 371.726 344.692 369.059 343.408 366.392C342.025 363.33 338.666 354.242 336.592 351.674C329.974 343.475 323.652 361.157 316.737 375.183C314.465 374.986 312.589 374.591 311.107 373.998C314.959 366.392 319.108 358.885 323.652 351.674C326.023 348.019 328.986 343.278 334.024 343.574C339.457 343.969 341.729 349.995 343.605 354.143C346.766 360.86 349.73 367.479 352.792 374.097Z" fill="white"/>
<path d="M346.568 343.969V345.154C346.47 349.698 353.483 349.797 353.582 345.253V344.068C353.681 339.524 346.667 339.425 346.568 343.969Z" fill="white"/>
<path d="M241.368 338.141C218.748 338.141 196.226 338.24 173.606 338.24C170.148 338.24 170.05 343.574 173.507 343.574C196.127 343.574 218.649 343.475 241.27 343.475C244.727 343.475 244.826 338.141 241.368 338.141Z" fill="#31302E"/>
<path d="M223.193 361.058C206.006 360.959 188.719 360.959 171.532 360.86C168.074 360.86 167.976 366.195 171.433 366.195C188.719 366.293 205.907 366.293 223.094 366.392C226.65 366.392 226.65 361.058 223.193 361.058Z" fill="#31302E"/>
<path d="M287.894 312.952C287.894 309.495 282.56 309.396 282.56 312.854C282.757 339.919 282.955 366.985 283.152 394.05C283.152 397.508 288.486 397.606 288.486 394.149C288.289 367.084 288.091 340.018 287.894 312.952Z" fill="#31302E"/>
<path d="M321.874 378.048C319.898 378.048 318.12 377.949 316.54 377.85C313.971 377.653 311.798 377.159 310.119 376.468C305.97 374.788 303.896 371.529 303.995 366.688C304.093 362.54 304.093 358.786 304.093 355.526C304.093 342.389 304.093 335.77 307.946 331.918C311.798 328.164 318.416 328.263 331.455 328.56C334.32 328.658 337.481 328.658 341.136 328.757C362.274 329.053 363.855 330.239 365.238 347.13C365.435 349.797 365.732 352.859 366.028 356.415C367.016 365.009 367.312 369.652 364.645 372.813C362.373 375.48 358.718 376.27 352.989 376.665C351.31 376.764 349.334 376.961 347.161 376.961C345.778 377.06 344.198 377.06 342.519 377.159C340.839 377.258 339.16 377.258 337.283 377.357L335.999 377.455C330.467 377.85 325.825 378.048 321.874 378.048ZM322.565 333.894C316.737 333.894 313.181 334.289 311.601 335.869C309.329 338.141 309.329 344.364 309.329 355.625C309.329 358.885 309.329 362.638 309.23 366.886C309.23 369.948 310.316 370.936 311.996 371.627C313.181 372.121 314.762 372.418 316.836 372.615C321.281 373.01 327.603 372.714 335.505 372.319L336.789 372.22C338.666 372.121 340.444 372.022 342.123 372.022C343.803 371.924 345.383 371.924 346.766 371.825C348.939 371.726 350.816 371.627 352.397 371.529C357.138 371.232 359.509 370.64 360.299 369.553C361.583 368.071 361.188 363.626 360.496 357.107C360.101 353.452 359.805 350.291 359.607 347.624C359.015 340.512 358.718 337.252 357.039 335.968C355.064 334.388 349.532 334.289 340.741 334.19C337.184 334.19 333.925 334.091 331.06 333.992C327.998 333.894 325.035 333.894 322.565 333.894Z" fill="#31302E"/>
<path d="M380.45 278.281C378.968 255.265 382.326 247.264 361.089 244.301C360.891 231.558 361.188 225.829 346.272 226.422C331.554 227.014 328.689 224.94 327.01 242.523C321.775 242.424 315.947 242.424 309.625 242.325C309.526 230.373 309.328 225.138 294.907 225.631C280.188 226.224 276.435 224.15 274.558 241.831C268.631 241.732 263.198 241.634 258.161 241.535C258.062 229.583 257.864 224.347 243.443 224.94C228.23 225.533 225.366 222.668 223.588 241.831C202.449 243.214 200.572 248.746 199.486 265.933C197.609 295.666 195.436 310.582 215.093 310.384C234.75 310.187 339.16 313.841 359.706 312.755C380.153 311.668 382.524 310.681 380.45 278.281Z" fill="white"/>
<path d="M347.556 315.62C329.084 315.62 297.278 314.829 268.533 314.138C244.035 313.545 222.798 312.953 214.994 313.051C208.376 313.051 203.635 311.57 200.572 308.31C194.349 301.79 195.14 289.443 196.424 270.872L196.72 265.736C197.807 248.252 200.276 241.14 221.02 239.362C222.699 224.15 225.959 222.569 237.812 222.372C239.393 222.372 241.171 222.372 243.146 222.273C249.962 221.977 254.21 222.964 256.877 225.533C260.038 228.496 260.532 233.139 260.63 238.967L271.99 239.164C273.966 224.249 278.509 223.36 290.264 223.162C291.647 223.162 293.03 223.063 294.61 223.063C301.426 222.767 305.674 223.755 308.341 226.323C311.502 229.286 311.996 233.929 312.094 239.757C316.54 239.757 320.589 239.856 324.541 239.856C326.319 224.94 330.171 224.15 341.827 223.853C343.111 223.853 344.593 223.755 346.075 223.755C352.89 223.458 357.138 224.446 359.805 227.014C363.163 230.274 363.46 235.213 363.559 241.93C381.635 245.091 381.932 253.191 382.524 268.897C382.623 271.663 382.722 274.725 382.919 278.083C384.105 296.654 383.907 305.149 379.561 310.088C375.708 314.434 369.485 314.928 359.607 315.521C357.039 315.62 352.792 315.62 347.556 315.62ZM216.97 307.717C226.156 307.717 245.912 308.211 268.631 308.804C305.476 309.693 347.161 310.779 359.41 310.088C368.695 309.594 373.436 309.1 375.708 306.532C378.771 303.075 378.771 294.382 377.783 278.38C377.585 274.922 377.486 271.86 377.388 269.094C376.795 252.895 376.696 249.042 360.694 246.869C359.41 246.672 358.422 245.585 358.422 244.301V243.412C358.323 237.287 358.323 232.744 356.348 230.867C354.866 229.484 351.606 228.891 346.47 229.089C344.889 229.188 343.408 229.188 342.123 229.188C331.653 229.385 331.06 229.484 329.776 242.819C329.677 244.202 328.393 245.19 327.109 245.19C321.874 245.091 316.046 245.091 309.724 244.992C308.242 244.992 307.057 243.807 307.057 242.325C306.958 235.905 306.859 231.953 304.982 230.175C303.501 228.792 300.241 228.2 295.104 228.397C293.524 228.496 292.042 228.496 290.659 228.496C279.892 228.694 278.707 228.792 277.324 242.226C277.225 243.609 276.04 244.597 274.657 244.597L258.26 244.301C256.778 244.301 255.593 243.115 255.593 241.634C255.494 235.213 255.395 231.262 253.518 229.484C252.037 228.101 248.777 227.508 243.64 227.706C241.566 227.805 239.788 227.805 238.109 227.805C228.231 227.903 227.638 227.903 226.354 242.128C226.255 243.412 225.169 244.498 223.884 244.597C204.326 245.881 203.24 250.129 202.252 266.131L201.955 271.268C200.869 287.863 200.079 299.815 204.721 304.655C206.796 306.828 210.055 307.915 215.192 307.816C215.488 307.717 216.18 307.717 216.97 307.717Z" fill="#31302E"/>
<path d="M303.401 272.749C257.469 271.959 255.592 270.379 254.9 278.775C254.209 287.171 253.32 291.419 262.111 291.419C270.903 291.419 317.625 293.098 326.812 292.9C335.998 292.703 336.887 290.628 335.9 283.22C334.714 273.54 338.567 273.342 303.401 272.749Z" fill="white"/>
<path d="M324.837 295.666C317.626 295.666 300.932 295.172 286.016 294.777C275.052 294.481 265.569 294.184 262.013 294.184C257.963 294.184 255.395 293.295 253.715 291.517C251.246 288.85 251.641 284.998 252.036 280.059L252.135 278.676C252.925 268.996 255.987 269.095 285.522 269.786C290.56 269.885 296.487 270.082 303.303 270.181C334.912 270.774 337.48 270.774 338.172 280.553C338.271 281.343 338.271 282.133 338.369 283.121C338.863 286.776 339.061 290.332 336.986 292.703C334.912 295.073 331.356 295.666 326.713 295.765C326.318 295.666 325.627 295.666 324.837 295.666ZM268.927 274.725C257.864 274.725 257.765 275.614 257.568 278.972L257.469 280.454C257.173 283.911 256.975 286.875 257.765 287.863C258.062 288.258 259.05 288.752 262.112 288.85C265.668 288.85 275.151 289.147 286.214 289.443C301.821 289.838 321.281 290.431 326.713 290.332C330.368 290.233 332.443 289.838 333.035 289.147C333.727 288.258 333.332 285.097 333.233 283.714C333.134 282.726 333.035 281.738 332.937 280.948C332.64 277.491 332.64 277.491 330.467 276.898C326.713 275.91 318.515 275.713 303.204 275.515C296.289 275.416 290.461 275.219 285.325 275.12C278.213 274.922 272.879 274.725 268.927 274.725Z" fill="#31302E"/>
<path d="M225.07 271.86C240.381 272.453 241.072 270.971 241.27 279.368C241.467 287.764 241.764 292.011 238.899 291.814C235.936 291.616 220.328 291.814 217.266 291.32C214.204 290.826 213.908 288.752 214.204 281.442C214.599 271.663 213.315 271.366 225.07 271.86Z" fill="#8590C8"/>
<path d="M354.471 293.394C354.076 293.394 353.582 293.394 353.187 293.295C345.976 292.505 342.815 286.48 343.407 280.849C343.901 275.515 348.05 270.477 354.866 271.07C361.385 271.663 363.954 275.219 364.941 277.392C366.522 280.948 366.028 285.393 363.657 288.752C361.385 291.715 358.126 293.394 354.471 293.394ZM353.779 276.404C350.421 276.404 348.939 279.071 348.742 281.343C348.445 284.208 349.927 287.566 353.779 287.961C356.743 288.258 358.521 286.578 359.212 285.591C360.496 283.813 360.793 281.442 360.002 279.664C359.113 277.787 357.237 276.7 354.372 276.503C354.174 276.404 353.977 276.404 353.779 276.404Z" fill="#31302E"/>
<path d="M373.14 299.815C370.473 295.962 367.905 292.011 365.238 288.159C363.361 285.294 358.619 287.961 360.595 290.826C363.262 294.678 365.83 298.63 368.497 302.482C370.374 305.248 375.017 302.679 373.14 299.815Z" fill="#31302E"/>
<path d="M262.704 276.997L262.605 285.887C262.605 289.344 267.94 289.443 267.94 285.986L268.038 277.096C268.137 273.638 262.704 273.54 262.704 276.997Z" fill="#31302E"/>
<path d="M161.752 76.672C155.134 73.5111 148.417 70.2514 141.798 67.0904C138.736 65.6087 135.97 70.1526 139.033 71.6343C145.651 74.7952 152.368 78.0549 158.986 81.2159C162.048 82.7964 164.814 78.2525 161.752 76.672Z" fill="#8590C8"/>
<path d="M177.458 66.0039C174.889 59.682 172.321 53.4589 169.654 47.137C168.37 43.9761 163.727 46.6431 165.011 49.8041C167.58 56.126 170.148 62.3491 172.815 68.671C174.099 71.8319 178.742 69.1649 177.458 66.0039Z" fill="#8590C8"/>
</g>
<defs>
<clipPath id="clip0_460_16549">
<rect width="560" height="560" fill="white"/>
</clipPath>
</defs>
</svg>
