<svg width="560" height="560" viewBox="0 0 560 560" fill="none" xmlns="http://www.w3.org/2000/svg">
<path d="M412.807 66.6132C392.229 66.1754 371.651 65.65 350.985 65.2121C347.92 65.1246 348.095 69.8532 351.072 69.9408C371.651 70.3786 392.229 70.904 412.895 71.3418C415.96 71.4294 415.785 66.7008 412.807 66.6132Z" fill="#31302E"/>
<path d="M412.807 102.954C392.229 102.516 371.651 101.99 350.985 101.552C347.92 101.465 348.095 106.194 351.072 106.281C371.651 106.719 392.229 107.244 412.895 107.682C415.96 107.77 415.785 103.041 412.807 102.954Z" fill="#31302E"/>
<path d="M412.807 147.263C392.229 146.825 371.651 146.299 350.985 145.862C347.92 145.774 348.095 150.503 351.072 150.59C371.651 151.028 392.229 151.553 412.895 151.991C415.96 151.991 415.785 147.263 412.807 147.263Z" fill="#31302E"/>
<path d="M408.254 134.916C388.376 134.04 389.164 161.974 407.028 162.762C424.892 163.55 426.731 135.704 408.254 134.916Z" fill="white"/>
<path d="M407.728 165.126C407.466 165.126 407.203 165.126 406.94 165.126C400.898 164.864 395.819 161.711 393.104 156.545C390.302 151.116 390.477 144.46 393.63 139.557C396.695 134.828 401.861 132.289 408.341 132.639C414.471 132.902 419.199 135.791 421.827 140.783C424.541 146.037 424.278 153.042 421.038 158.121C418.061 162.587 413.333 165.126 407.728 165.126ZM407.29 137.28C401.774 137.28 398.971 139.819 397.57 142.009C395.381 145.511 395.294 150.415 397.308 154.268C398.446 156.457 401.161 160.047 407.115 160.31C411.318 160.485 414.821 158.734 416.923 155.406C419.287 151.641 419.55 146.562 417.536 142.797C416.31 140.432 413.595 137.455 408.078 137.28C407.816 137.28 407.553 137.28 407.29 137.28Z" fill="#31302E"/>
<path d="M407.466 93.3212C387.151 92.9709 388.727 121.518 407.028 121.781C425.33 122.131 426.381 93.6715 407.466 93.3212Z" fill="white"/>
<path d="M407.291 124.232C407.203 124.232 407.115 124.232 407.028 124.232C400.811 124.145 395.557 121.08 392.667 115.826C389.602 110.397 389.69 103.567 392.667 98.4877C395.644 93.5839 400.898 90.9569 407.466 91.0445C413.683 91.132 418.674 93.9342 421.389 98.9255C424.366 104.267 424.191 111.36 421.039 116.614C418.149 121.43 413.158 124.232 407.291 124.232ZM407.115 95.7731C401.073 95.7731 398.184 98.5753 396.782 100.94C394.593 104.53 394.593 109.609 396.782 113.549C398.008 115.738 400.898 119.416 407.028 119.504C411.406 119.591 414.909 117.665 417.01 114.25C419.375 110.397 419.462 105.143 417.273 101.29C415.96 98.838 413.07 95.9482 407.378 95.8607C407.291 95.7731 407.203 95.7731 407.115 95.7731Z" fill="#31302E"/>
<path d="M407.991 55.4046C387.675 55.0543 389.252 83.6012 407.553 83.8639C425.855 84.1266 426.993 55.7548 407.991 55.4046Z" fill="white"/>
<path d="M407.903 86.2283C407.815 86.2283 407.728 86.2283 407.553 86.2283C396.607 86.0531 390.827 77.1213 390.915 68.8024C391.003 61.184 396.344 53.0403 407.64 53.0403C407.728 53.0403 407.903 53.0403 407.991 53.0403C419.199 53.2154 424.191 61.797 424.103 69.6781C424.015 77.9969 418.411 86.2283 407.903 86.2283ZM407.728 57.7689C398.971 57.7689 395.819 63.7235 395.731 68.8899C395.644 75.0197 399.672 81.4121 407.64 81.4996C407.728 81.4996 407.815 81.4996 407.903 81.4996C415.697 81.4996 419.374 75.3699 419.462 69.5905C419.55 63.811 416.047 57.8565 408.078 57.7689C407.903 57.7689 407.816 57.7689 407.728 57.7689Z" fill="#31302E"/>
<path d="M362.106 406.812C351.948 422.661 333.909 421.436 312.017 423.975C311.142 424.15 310.178 424.238 309.215 424.325C303.786 424.851 298.007 425.376 292.052 425.639C284.871 426.077 277.341 426.339 269.635 426.514C267.358 426.602 265.081 426.69 262.805 426.69C261.841 426.69 260.878 426.777 259.827 426.777C258.163 426.777 256.5 426.865 254.748 426.865C244.941 427.04 234.871 427.215 225.063 427.39H224.538C211.928 427.74 199.318 428.003 186.971 428.091C184.957 428.091 182.943 428.091 180.929 428.091C166.831 428.178 153.345 428.178 140.736 427.916C101.944 427.215 70.9447 424.851 53.4313 420.122C27.2487 413.029 36.7059 329.928 40.734 166.527C44.587 12.409 27.7741 35.0013 212.191 31.9365C366.484 29.397 365.871 31.0608 369.724 169.68C372.789 280.277 373.139 389.649 362.106 406.812Z" fill="white"/>
<path d="M167.794 430.543C158.162 430.543 149.23 430.455 140.736 430.28C98.266 429.492 69.5439 426.865 52.8186 422.399C30.0511 416.269 31.89 362.065 35.6554 254.095C36.5311 228.175 37.5819 198.84 38.37 166.44C38.7203 153.83 38.8954 142.359 38.983 132.113C40.5592 30.623 41.4349 29.6597 150.894 29.8349C168.583 29.8349 188.635 29.9224 212.191 29.4846C292.403 28.1711 328.743 28.3462 348.708 45.7721C369.199 63.6358 370.162 98.4 372.001 167.666L372.089 169.505C376.117 315.304 373.49 393.327 364.12 407.95C354.926 422.224 339.952 423.537 322.526 425.201C319.286 425.464 315.871 425.814 312.368 426.252C311.492 426.427 310.529 426.515 309.566 426.602H309.478C303.961 427.215 298.182 427.653 292.315 427.916C284.609 428.353 276.64 428.616 269.81 428.791C267.533 428.879 265.257 428.966 262.892 428.966L249.407 429.229C241.351 429.404 233.295 429.492 225.238 429.667H224.626C211.14 430.017 198.793 430.28 187.059 430.367C185.045 430.367 183.031 430.367 181.017 430.367C176.464 430.455 172.085 430.543 167.794 430.543ZM138.81 34.6511C93.5374 34.6511 69.8942 35.4392 57.8975 46.3851C44.9375 58.2066 44.5873 82.9006 43.7992 132.201C43.624 142.359 43.4489 153.918 43.1862 166.527C42.3981 198.927 41.3473 228.262 40.4716 254.182C36.9689 356.286 34.9549 412.504 54.1321 417.758C70.2445 422.136 99.4044 424.676 140.911 425.464C153.083 425.726 166.218 425.726 181.105 425.639C183.119 425.639 185.133 425.639 187.147 425.639C198.881 425.551 211.14 425.376 224.713 424.938H225.326C233.295 424.763 241.438 424.588 249.495 424.5L262.98 424.238C265.257 424.238 267.533 424.15 269.81 424.063C276.64 423.887 284.522 423.625 292.227 423.187C298.007 422.924 303.699 422.486 309.216 421.873H309.478C310.179 421.786 311.054 421.698 311.93 421.611C315.52 421.173 319.023 420.91 322.351 420.56C339.164 418.984 352.474 417.758 360.355 405.498C369.111 391.925 371.563 312.59 367.623 169.68L367.535 167.841C363.595 31.8489 363.595 31.8489 212.279 34.3008C188.635 34.6511 168.583 34.6511 150.894 34.6511C146.691 34.6511 142.663 34.6511 138.81 34.6511Z" fill="#31302E"/>
<path d="M354.838 425.639C354.75 427.215 354.75 428.879 354.663 430.367C354.663 430.718 354.663 431.068 354.663 431.418C354.575 433.082 353.962 434.571 352.824 436.059C340.039 437.11 326.203 437.723 311.755 438.161C310.704 434.308 309.653 430.543 308.427 426.777C296.168 426.952 283.733 427.127 271.474 427.303H270.861C255.099 427.653 239.424 427.916 224.1 428.003C221.561 428.003 219.109 428.003 216.569 428.003C199.056 428.091 182.243 428.091 166.481 427.828C166.393 423.537 166.393 419.334 166.306 415.306C165.955 388.51 165.255 367.932 165.255 352.082C165.255 307.773 174.975 311.801 263.155 311.626C327.867 311.451 350.109 306.723 351.073 327.914C352.736 363.992 355.539 397.267 354.838 425.639Z" fill="#31302E"/>
<path d="M292.315 382.906C291.177 380.367 290.126 377.915 288.9 375.375C283.646 364.079 274.539 339.385 258.076 346.215C252.034 348.667 248.794 355.322 245.992 360.839C245.029 362.678 244.153 364.517 243.277 366.356C242.664 367.669 242.051 368.983 241.351 370.296C241.176 370.647 241.001 371.085 240.825 371.435C238.111 377.214 235.484 383.169 232.944 389.036C232.244 390.787 231.456 392.538 230.755 394.29C229.704 396.654 228.654 399.106 227.69 401.47C226.815 403.484 225.939 405.586 225.063 407.6C224.013 410.14 222.874 412.679 221.823 415.306C221.035 417.145 220.247 418.984 219.547 420.823C218.583 423.187 217.62 425.551 216.569 428.003C219.021 428.003 221.561 428.003 224.1 428.003C239.424 427.916 255.099 427.653 270.861 427.303H271.474C283.821 427.04 296.256 426.865 308.427 426.777C303.961 411.891 298.532 397.18 292.315 382.906Z" fill="#8590C8"/>
<path d="M255.537 378.09C262.105 378.528 268.673 381.155 275.24 382.293C281.282 383.344 287.062 383.607 292.316 382.994C291.177 380.454 290.039 378.002 288.901 375.463C283.647 364.167 274.54 339.56 258.077 346.303C252.035 348.755 248.795 355.41 245.993 360.927C242.577 367.582 239.513 374.5 236.448 381.417C242.753 379.578 248.97 377.652 255.537 378.09Z" fill="white"/>
<path d="M206.587 331.679C187.497 331.679 189.424 359.526 206.587 359.526C223.75 359.526 224.451 331.679 206.587 331.679Z" fill="white"/>
<path d="M102.119 319.858C100.805 319.858 99.7544 318.807 99.7544 317.493V288.946C99.7544 287.633 100.805 286.582 102.119 286.582C103.432 286.582 104.483 287.633 104.483 288.946V317.493C104.483 318.807 103.345 319.858 102.119 319.858ZM124.448 278.964C123.222 278.964 122.259 278.088 122.084 276.862C121.909 275.549 122.872 274.41 124.186 274.235C131.541 273.447 140.648 273.097 152.82 273.097C154.134 273.097 155.184 274.147 155.184 275.461C155.184 276.775 154.134 277.825 152.82 277.825C140.736 277.825 131.804 278.176 124.623 278.964C124.623 278.964 124.536 278.964 124.448 278.964ZM209.826 278.701C209.739 278.701 209.826 278.701 209.826 278.701C201.77 278.613 193.714 278.438 185.921 278.263L181.367 278.176C180.054 278.176 179.003 277.037 179.003 275.724C179.003 274.41 180.141 273.359 181.455 273.359L186.008 273.447C193.889 273.622 201.858 273.797 209.914 273.885C211.227 273.885 212.278 274.936 212.278 276.249C212.191 277.65 211.14 278.701 209.826 278.701ZM238.198 278.438C236.972 278.438 235.921 277.475 235.834 276.249C235.746 274.936 236.71 273.797 238.023 273.71C247.655 272.922 256.5 270.47 264.381 266.442C265.519 265.829 267.008 266.266 267.533 267.492C268.146 268.631 267.708 270.119 266.482 270.645C258.076 274.936 248.619 277.563 238.373 278.438C238.373 278.438 238.286 278.438 238.198 278.438ZM287.148 252.781C286.623 252.781 286.097 252.606 285.66 252.256C284.609 251.468 284.434 249.979 285.222 248.928C290.739 241.748 294.767 233.516 297.131 224.322C297.481 223.096 298.795 222.308 300.021 222.658C301.247 223.008 302.035 224.322 301.684 225.548C299.145 235.355 294.854 244.199 288.9 251.818C288.549 252.518 287.849 252.781 287.148 252.781ZM301.597 199.19C300.371 199.19 299.408 198.314 299.233 197.088C298.182 187.719 295.555 178.874 291.264 170.906C290.651 169.767 291.089 168.279 292.227 167.666C293.366 167.053 294.854 167.491 295.467 168.629C300.021 177.123 302.91 186.58 304.049 196.563C304.224 197.876 303.261 199.015 301.947 199.19C301.772 199.19 301.684 199.19 301.597 199.19ZM275.064 150.59C274.539 150.59 274.101 150.415 273.663 150.065C266.57 144.636 258.251 140.695 248.969 138.331C247.743 137.98 246.955 136.754 247.218 135.441C247.568 134.127 248.794 133.427 250.107 133.69C260.002 136.229 268.847 140.432 276.465 146.212C277.516 147 277.691 148.489 276.903 149.539C276.465 150.327 275.765 150.59 275.064 150.59ZM221.298 135.441H221.21C213.504 135.178 206.324 135.003 199.844 135.003C197.304 135.003 194.94 135.003 192.838 135.091C191.612 135.003 190.474 134.04 190.386 132.726C190.386 131.413 191.437 130.362 192.751 130.275C194.852 130.275 197.217 130.187 199.844 130.187C206.324 130.187 213.592 130.362 221.385 130.625C222.699 130.712 223.75 131.763 223.662 133.077C223.662 134.478 222.611 135.441 221.298 135.441ZM175.062 123.444C173.836 123.444 172.785 122.481 172.698 121.255C172.523 118.365 172.435 115.125 172.435 111.448C172.435 106.018 172.61 101.815 172.61 101.64C172.698 100.327 173.836 99.3633 175.062 99.3633C176.376 99.4508 177.339 100.502 177.339 101.815C177.339 101.815 177.164 106.106 177.164 111.448C177.164 114.95 177.251 118.19 177.427 120.905C177.514 122.218 176.551 123.357 175.237 123.444C175.15 123.444 175.062 123.444 175.062 123.444Z" fill="#31302E"/>
<path d="M227.34 159.434C159.563 159.434 166.393 254.27 227.34 254.27C288.374 254.27 290.564 159.434 227.34 159.434ZM226.99 231.765C194.94 231.765 191.437 181.939 226.99 181.939C260.178 181.939 258.952 231.765 226.99 231.765Z" fill="#8590C8"/>
<path d="M135.657 178.349C98.3536 178.349 102.119 230.539 135.657 230.539C169.195 230.539 170.421 178.349 135.657 178.349ZM135.307 212.325C125.149 212.325 124.011 196.475 135.307 196.475C145.903 196.563 145.552 212.325 135.307 212.325Z" fill="#8590C8"/>
<path d="M231.281 138.681C212.98 136.667 213.33 140.17 214.643 157.683C214.906 161.711 215.169 167.053 217.008 168.454C224.013 173.533 240.125 161.011 240.125 161.011C240.125 161.011 240.476 154.881 240.038 146.562C239.6 138.243 235.309 139.119 231.281 138.681Z" fill="#8590C8"/>
<path d="M223.05 273.184C241.351 275.198 241.001 271.696 239.687 254.182C239.425 250.154 239.162 244.812 237.323 243.411C230.318 238.332 214.205 250.855 214.205 250.855C214.205 250.855 213.855 256.984 214.293 265.303C214.731 273.622 219.022 272.746 223.05 273.184Z" fill="#8590C8"/>
<path d="M287.762 176.51C280.494 159.522 277.691 161.623 262.98 171.343C259.653 173.533 255.011 176.422 254.749 178.699C253.786 187.368 272.525 195.162 272.525 195.162C272.525 195.162 277.954 192.447 285.047 187.981C292.14 183.515 289.338 180.188 287.762 176.51Z" fill="#8590C8"/>
<path d="M174.625 209.26C177.69 197.176 175.238 197.088 163.416 196.3C160.702 196.125 157.024 195.775 155.973 196.913C151.945 201.116 158.863 213.113 158.863 213.113C158.863 213.113 162.891 213.901 168.583 214.427C174.187 214.952 174.012 211.887 174.625 209.26Z" fill="#8590C8"/>
<path d="M102.119 182.377C94.6763 192.447 96.8655 193.41 107.549 198.577C110.001 199.803 113.241 201.467 114.642 200.854C119.983 198.489 118.144 184.829 118.144 184.829C118.144 184.829 114.729 182.552 109.65 179.925C104.659 177.386 103.696 180.188 102.119 182.377Z" fill="#8590C8"/>
<path d="M147.654 167.666C136.183 162.849 135.745 165.126 133.118 176.773C132.505 179.4 131.629 182.99 132.593 184.216C136.183 188.857 148.968 183.866 148.968 183.866C148.968 183.866 150.369 180.013 151.682 174.496C153.083 169.067 150.106 168.716 147.654 167.666Z" fill="#8590C8"/>
<path d="M103.52 227.124C109.65 237.982 111.401 236.406 120.508 228.788C122.61 227.036 125.5 224.847 125.5 223.183C125.587 217.316 112.365 213.376 112.365 213.376C112.365 213.376 108.862 215.565 104.396 219.068C100.018 222.658 102.119 224.759 103.52 227.124Z" fill="#8590C8"/>
<path d="M150.457 241.485C162.366 237.719 161.14 235.705 155.623 225.197C154.31 222.745 152.733 219.505 151.245 219.155C145.465 217.929 138.985 230.013 138.985 230.013C138.985 230.013 140.474 233.866 142.926 238.945C145.378 244.024 147.83 242.36 150.457 241.485Z" fill="#8590C8"/>
<path d="M166.569 235.355C173.837 252.343 176.639 250.241 191.35 240.522C194.678 238.332 199.319 235.443 199.581 233.166C200.545 224.497 181.805 216.703 181.805 216.703C181.805 216.703 176.376 219.418 169.283 223.884C162.19 228.35 164.905 231.677 166.569 235.355Z" fill="#8590C8"/>
<path d="M280.231 247.439C292.228 233.429 289.163 231.852 274.014 222.921C270.511 220.907 265.958 218.017 263.769 218.805C255.537 221.695 256.851 242.01 256.851 242.01C256.851 242.01 261.667 245.688 268.76 250.154C275.853 254.62 277.604 250.504 280.231 247.439Z" fill="#8590C8"/>
<path d="M174.012 164.426C162.015 178.436 165.08 180.013 180.229 188.944C183.732 190.958 188.285 193.848 190.474 193.06C198.706 190.17 197.392 169.855 197.392 169.855C197.392 169.855 192.576 166.177 185.483 161.711C178.478 157.333 176.639 161.361 174.012 164.426Z" fill="#8590C8"/>
<path d="M215.431 180.363C212.541 181.326 213.767 185.88 216.657 184.916C242.402 176.335 260.178 208.997 239.162 226.073C236.797 228 240.125 231.327 242.489 229.401C267.358 209.26 245.642 170.205 215.431 180.363Z" fill="#31302E"/>
<path d="M142.662 199.102C139.16 194.286 132.067 194.023 127.688 197.701C125.324 199.628 128.739 202.955 131.016 201.029C133.293 199.19 137.146 199.54 138.897 201.992C140.648 204.444 139.685 208.209 137.146 209.698C134.606 211.362 136.971 215.477 139.51 213.814C144.501 210.749 146.165 203.831 142.662 199.102Z" fill="#31302E"/>
<path d="M107.636 315.392C68.9309 313.115 75.0606 317.318 72.959 339.998C70.8574 362.678 74.7104 364.867 102.294 366.443C129.878 368.107 132.592 362.503 132.242 342.537C131.892 322.572 130.491 316.793 107.636 315.392Z" fill="#8590C8"/>
<path d="M111.576 328.264C107.723 335.357 103.87 342.45 100.017 349.543C98.2661 346.128 96.6023 342.625 94.851 339.21C93.4499 336.496 89.2466 338.597 90.6477 341.399L97.8282 355.76C98.6163 357.249 101.068 357.599 101.944 356.023C106.497 347.704 111.051 339.298 115.604 330.979C116.918 328.264 112.977 325.637 111.576 328.264Z" fill="white"/>
<path d="M123.047 362.941C116.83 362.941 110.525 363.028 104.308 363.028C98.1781 363.028 90.2095 364.517 84.3425 363.116C74.535 360.839 76.3739 352.52 76.4615 344.464C76.549 337.283 76.6366 330.19 76.7241 323.01C76.7241 319.945 71.9955 319.682 71.9955 322.747C71.908 333.08 71.295 343.588 71.6453 353.921C71.7328 357.949 71.8204 361.977 74.9728 364.955C79.4387 369.158 87.4073 367.844 92.8365 367.757C102.819 367.669 112.802 367.669 122.785 367.582C125.849 367.669 126.112 362.941 123.047 362.941Z" fill="#31302E"/>
<path d="M112.89 92.7955C101.944 92.7955 95.9897 83.9512 95.9897 75.6324C95.9897 71.4291 97.4784 67.4886 100.193 64.5989C103.258 61.3589 107.636 59.6075 112.89 59.6075C124.099 59.6075 129.265 68.1016 129.265 75.9826C129.265 84.3891 123.661 92.7955 112.89 92.7955ZM112.89 64.3362C108.95 64.3362 105.797 65.5621 103.696 67.8389C101.857 69.8529 100.806 72.5675 100.806 75.6324C100.806 81.7621 105.009 88.0669 112.89 88.0669C120.859 88.0669 124.537 81.8496 124.537 75.9826C124.537 72.8302 123.486 70.028 121.647 67.9264C119.633 65.5621 116.568 64.3362 112.89 64.3362Z" fill="#31302E"/>
<path d="M237.673 58.907C143.276 58.0313 144.765 54.0032 144.765 81.1491C144.765 104.092 148.18 97.8744 232.857 98.575C317.535 99.2755 318.936 97.8744 319.461 76.3329C319.987 54.7913 313.069 59.6075 237.673 58.907Z" fill="white"/>
<path d="M173.224 101.202C157.111 101.202 149.931 100.414 145.99 96.5609C142.575 93.2333 142.312 88.0669 142.312 81.2366V80.0107C142.312 71.1664 142.312 65.2994 146.253 61.3589C152.383 55.3167 165.781 55.5794 205.624 56.1924C214.818 56.3675 225.414 56.5427 237.586 56.6302C251.421 56.7178 263.068 56.7178 272.437 56.6302C301.772 56.4551 312.718 56.4551 318.06 61.8843C321.212 65.1242 321.738 69.6777 321.65 76.4204C321.125 100.501 316.922 101.727 232.682 101.027C214.643 100.852 200.37 101.027 188.898 101.202C182.944 101.202 177.777 101.202 173.224 101.202ZM179.441 60.5707C161.665 60.5707 153.083 61.3589 149.756 64.6864C147.216 67.2259 147.216 71.9545 147.216 79.9231V81.149C147.216 87.8042 147.567 91.2193 149.493 93.1458C153.171 96.736 164.379 96.6484 189.073 96.2982C200.545 96.123 214.906 96.0355 232.945 96.123C316.746 96.8236 316.746 95.6852 317.184 76.1577C317.359 69.8529 316.746 66.788 314.995 65.0367C311.055 61.0086 299.058 61.0962 272.7 61.1837C263.33 61.2713 251.596 61.2713 237.761 61.1837C225.589 61.0962 214.993 60.921 205.799 60.7459C195.203 60.7459 186.534 60.5707 179.441 60.5707Z" fill="#31302E"/>
<path d="M100.455 84.3016C95.464 89.5556 90.4727 94.8096 85.4814 100.151C83.3798 102.34 86.7073 105.756 88.8089 103.479C93.8003 98.2248 98.7916 92.9707 103.87 87.6291C105.972 85.44 102.645 82.1124 100.455 84.3016Z" fill="#31302E"/>
<path d="M290.214 74.4066C254.399 74.5817 218.584 74.8444 182.681 75.0195C179.616 75.0195 179.616 79.7482 182.681 79.7482C218.496 79.573 254.311 79.3103 290.214 79.1352C293.278 79.1352 293.278 74.319 290.214 74.4066Z" fill="#31302E"/>
<path d="M354.837 425.639C354.75 427.215 354.75 428.879 354.662 430.368C354.662 430.718 354.662 431.068 354.662 431.418C354.575 433.082 353.962 434.571 352.823 436.059C340.039 437.11 326.203 437.723 311.754 438.161C310.704 434.308 309.653 430.543 308.427 426.777C296.167 426.952 283.733 427.128 271.473 427.303H270.86C255.098 427.653 239.424 427.916 224.1 428.003C221.56 428.003 219.108 428.003 216.569 428.003C199.055 428.091 182.242 428.091 166.48 427.828C166.393 423.537 166.393 419.334 166.305 415.306C165.955 388.51 165.254 367.932 165.254 352.082C165.254 307.773 174.974 311.802 263.155 311.626C327.867 311.451 350.109 306.723 351.072 327.914C352.736 363.992 355.538 397.267 354.837 425.639Z" fill="#31302E"/>
<path d="M292.315 382.906C291.176 380.367 290.125 377.915 288.9 375.375C283.646 364.079 274.538 339.385 258.076 346.215C252.034 348.667 248.794 355.322 245.992 360.839C245.028 362.678 244.153 364.517 243.277 366.356C242.664 367.669 242.051 368.983 241.351 370.296C241.175 370.647 241 371.084 240.825 371.435C238.111 377.214 235.483 383.169 232.944 389.036C232.244 390.787 231.455 392.538 230.755 394.29C229.704 396.654 228.653 399.106 227.69 401.47C226.814 403.484 225.939 405.586 225.063 407.6C224.012 410.139 222.874 412.679 221.823 415.306C221.035 417.145 220.247 418.984 219.546 420.823C218.933 422.224 218.32 423.625 217.795 425.113C220.072 425.026 222.261 425.026 224.625 424.938H225.151C233.119 424.763 241.263 424.588 249.319 424.413L262.804 424.15C265.081 424.15 267.358 424.063 269.635 423.975C276.465 423.8 284.434 423.537 292.052 423.099C297.131 422.837 302.122 422.486 307.026 421.961C302.823 408.826 297.919 395.691 292.315 382.906Z" fill="#8590C8"/>
<path d="M255.536 378.09C262.104 378.528 268.671 381.155 275.239 382.293C281.281 383.344 287.06 383.607 292.314 382.994C291.176 380.454 290.037 378.002 288.899 375.463C283.645 364.167 274.538 339.56 258.075 346.303C252.033 348.755 248.793 355.41 245.991 360.927C242.576 367.582 239.511 374.5 236.446 381.417C242.751 379.579 248.968 377.652 255.536 378.09Z" fill="white"/>
<path d="M206.586 331.679C187.496 331.679 189.423 359.526 206.586 359.526C223.749 359.526 224.45 331.679 206.586 331.679Z" fill="white"/>
<path d="M102.118 319.858C100.805 319.858 99.7539 318.807 99.7539 317.493V288.947C99.7539 287.633 100.805 286.582 102.118 286.582C103.432 286.582 104.483 287.633 104.483 288.947V317.493C104.483 318.807 103.344 319.858 102.118 319.858ZM124.448 278.964C123.222 278.964 122.259 278.088 122.084 276.862C121.908 275.549 122.872 274.41 124.185 274.235C131.541 273.447 140.648 273.097 152.82 273.097C154.133 273.097 155.184 274.148 155.184 275.461C155.184 276.775 154.133 277.825 152.82 277.825C140.735 277.825 131.804 278.176 124.623 278.964C124.623 278.964 124.535 278.964 124.448 278.964ZM209.826 278.701C209.738 278.701 209.826 278.701 209.826 278.701C201.77 278.614 193.714 278.438 185.92 278.263L181.367 278.176C180.053 278.176 179.002 277.037 179.002 275.724C179.002 274.41 180.141 273.36 181.454 273.36L186.008 273.447C193.889 273.622 201.857 273.797 209.913 273.885C211.227 273.885 212.278 274.936 212.278 276.249C212.19 277.65 211.139 278.701 209.826 278.701ZM238.198 278.438C236.972 278.438 235.921 277.475 235.833 276.249C235.746 274.936 236.709 273.797 238.023 273.71C247.655 272.922 256.499 270.47 264.38 266.442C265.519 265.829 267.007 266.267 267.533 267.493C268.146 268.631 267.708 270.12 266.482 270.645C258.075 274.936 248.618 277.563 238.373 278.438C238.373 278.438 238.285 278.438 238.198 278.438ZM287.148 252.781C286.622 252.781 286.097 252.606 285.659 252.256C284.608 251.468 284.433 249.979 285.221 248.928C290.738 241.748 294.766 233.516 297.13 224.322C297.481 223.096 298.794 222.308 300.02 222.658C301.246 223.008 302.034 224.322 301.684 225.548C299.144 235.355 294.854 244.2 288.899 251.818C288.549 252.519 287.848 252.781 287.148 252.781ZM301.596 199.19C300.37 199.19 299.407 198.314 299.232 197.088C298.181 187.719 295.554 178.874 291.263 170.906C290.65 169.767 291.088 168.279 292.227 167.666C293.365 167.053 294.854 167.491 295.467 168.629C300.02 177.123 302.91 186.58 304.048 196.563C304.223 197.877 303.26 199.015 301.947 199.19C301.772 199.19 301.684 199.19 301.596 199.19ZM275.064 150.59C274.538 150.59 274.1 150.415 273.662 150.065C266.569 144.636 258.251 140.695 248.968 138.331C247.743 137.981 246.954 136.755 247.217 135.441C247.567 134.128 248.793 133.427 250.107 133.69C260.002 136.229 268.846 140.432 276.465 146.212C277.515 147 277.691 148.489 276.902 149.539C276.465 150.328 275.764 150.59 275.064 150.59ZM221.297 135.441H221.21C213.504 135.178 206.323 135.003 199.843 135.003C197.304 135.003 194.939 135.003 192.838 135.091C191.612 135.003 190.474 134.04 190.386 132.727C190.386 131.413 191.437 130.362 192.75 130.275C194.852 130.275 197.216 130.187 199.843 130.187C206.323 130.187 213.591 130.362 221.385 130.625C222.698 130.712 223.749 131.763 223.662 133.077C223.662 134.478 222.611 135.441 221.297 135.441ZM175.062 123.444C173.836 123.444 172.785 122.481 172.697 121.255C172.522 118.365 172.435 115.126 172.435 111.448C172.435 106.019 172.61 101.815 172.61 101.64C172.697 100.327 173.836 99.3634 175.062 99.3634C176.375 99.451 177.338 100.502 177.338 101.815C177.338 101.815 177.163 106.106 177.163 111.448C177.163 114.95 177.251 118.19 177.426 120.905C177.514 122.218 176.55 123.357 175.237 123.444C175.149 123.444 175.062 123.444 175.062 123.444Z" fill="#31302E"/>
<path d="M227.339 159.434C159.562 159.434 166.392 254.27 227.339 254.27C288.373 254.27 290.562 159.434 227.339 159.434ZM226.988 231.765C194.939 231.765 191.436 181.939 226.988 181.939C260.176 181.939 258.95 231.765 226.988 231.765Z" fill="#8590C8"/>
<path d="M135.656 178.349C98.3526 178.349 102.118 230.539 135.656 230.539C169.194 230.539 170.42 178.349 135.656 178.349ZM135.306 212.325C125.148 212.325 124.01 196.475 135.306 196.475C145.902 196.563 145.551 212.325 135.306 212.325Z" fill="#8590C8"/>
<path d="M231.279 138.681C212.978 136.667 213.328 140.17 214.641 157.683C214.904 161.711 215.167 167.053 217.006 168.454C224.011 173.533 240.123 161.011 240.123 161.011C240.123 161.011 240.474 154.881 240.036 146.562C239.598 138.243 235.307 139.119 231.279 138.681Z" fill="#8590C8"/>
<path d="M223.048 273.184C241.35 275.198 241 271.696 239.686 254.182C239.423 250.154 239.161 244.813 237.322 243.412C230.316 238.333 214.204 250.855 214.204 250.855C214.204 250.855 213.854 256.984 214.292 265.303C214.729 273.622 219.02 272.747 223.048 273.184Z" fill="#8590C8"/>
<path d="M287.76 176.51C280.492 159.522 277.69 161.624 262.979 171.344C259.651 173.533 255.01 176.423 254.747 178.699C253.784 187.368 272.523 195.162 272.523 195.162C272.523 195.162 277.953 192.447 285.046 187.981C292.139 183.516 289.336 180.188 287.76 176.51Z" fill="#8590C8"/>
<path d="M174.623 209.26C177.688 197.176 175.236 197.088 163.415 196.3C160.7 196.125 157.022 195.775 155.971 196.913C151.943 201.116 158.861 213.113 158.861 213.113C158.861 213.113 162.889 213.901 168.581 214.427C174.185 214.952 174.01 211.887 174.623 209.26Z" fill="#8590C8"/>
<path d="M102.118 182.377C94.6748 192.447 96.864 193.411 107.547 198.577C109.999 199.803 113.239 201.467 114.64 200.854C119.982 198.489 118.143 184.829 118.143 184.829C118.143 184.829 114.728 182.552 109.649 179.925C104.657 177.386 103.694 180.188 102.118 182.377Z" fill="#8590C8"/>
<path d="M147.653 167.666C136.182 162.85 135.744 165.126 133.117 176.773C132.504 179.4 131.628 182.99 132.591 184.216C136.182 188.857 148.966 183.866 148.966 183.866C148.966 183.866 150.367 180.013 151.681 174.496C153.082 169.067 150.105 168.717 147.653 167.666Z" fill="#8590C8"/>
<path d="M103.519 227.124C109.649 237.982 111.4 236.406 120.507 228.788C122.609 227.036 125.498 224.847 125.498 223.183C125.586 217.316 112.363 213.376 112.363 213.376C112.363 213.376 108.861 215.565 104.395 219.068C100.016 222.658 102.118 224.76 103.519 227.124Z" fill="#8590C8"/>
<path d="M150.455 241.485C162.364 237.719 161.138 235.705 155.622 225.197C154.308 222.745 152.732 219.505 151.243 219.155C145.464 217.929 138.984 230.014 138.984 230.014C138.984 230.014 140.473 233.867 142.924 238.945C145.376 244.024 147.828 242.361 150.455 241.485Z" fill="#8590C8"/>
<path d="M166.568 235.355C173.836 252.343 176.638 250.242 191.349 240.522C194.677 238.333 199.318 235.443 199.58 233.166C200.544 224.497 181.804 216.703 181.804 216.703C181.804 216.703 176.375 219.418 169.282 223.884C162.189 228.35 164.904 231.677 166.568 235.355Z" fill="#8590C8"/>
<path d="M280.23 247.44C292.226 233.429 289.162 231.853 274.013 222.921C270.51 220.907 265.956 218.017 263.767 218.805C255.536 221.695 256.849 242.01 256.849 242.01C256.849 242.01 261.666 245.688 268.758 250.154C275.851 254.62 277.603 250.504 280.23 247.44Z" fill="#8590C8"/>
<path d="M174.011 164.426C162.014 178.437 165.079 180.013 180.228 188.945C183.731 190.959 188.284 193.848 190.473 193.06C198.705 190.171 197.391 169.855 197.391 169.855C197.391 169.855 192.575 166.177 185.482 161.711C178.477 157.333 176.638 161.361 174.011 164.426Z" fill="#8590C8"/>
<path d="M215.43 180.363C212.54 181.326 213.766 185.88 216.656 184.917C242.401 176.335 260.177 208.998 239.161 226.073C236.796 228 240.124 231.327 242.488 229.401C267.357 209.26 245.641 170.205 215.43 180.363Z" fill="#31302E"/>
<path d="M142.661 199.102C139.159 194.286 132.066 194.023 127.687 197.701C125.323 199.628 128.738 202.955 131.015 201.029C133.292 199.19 137.145 199.54 138.896 201.992C140.647 204.444 139.684 208.209 137.145 209.698C134.605 211.362 136.97 215.477 139.509 213.814C144.5 210.749 146.164 203.831 142.661 199.102Z" fill="#31302E"/>
<path d="M107.635 315.392C68.93 313.115 75.0597 317.318 72.9581 339.998C70.8564 362.678 74.7094 364.867 102.293 366.443C129.877 368.107 132.591 362.503 132.241 342.538C131.891 322.572 130.49 316.793 107.635 315.392Z" fill="#8590C8"/>
<path d="M111.576 328.264C107.723 335.357 103.87 342.45 100.017 349.543C98.2656 346.128 96.6018 342.625 94.8505 339.21C93.4494 336.495 89.2461 338.597 90.6472 341.399L97.8277 355.76C98.6159 357.249 101.068 357.599 101.943 356.023C106.497 347.704 111.05 339.298 115.604 330.979C116.917 328.264 112.977 325.637 111.576 328.264Z" fill="white"/>
<path d="M123.047 362.941C116.829 362.941 110.525 363.028 104.307 363.028C98.1776 363.028 90.209 364.517 84.342 363.116C74.5345 360.839 76.3734 352.52 76.461 344.464C76.5485 337.284 76.6361 330.191 76.7237 323.01C76.7237 319.945 71.995 319.683 71.995 322.747C71.9075 333.08 71.2945 343.588 71.6448 353.921C71.7323 357.949 71.8199 361.978 74.9723 364.955C79.4382 369.158 87.4069 367.845 92.836 367.757C102.819 367.669 112.801 367.669 122.784 367.582C125.849 367.669 126.112 362.941 123.047 362.941Z" fill="#31302E"/>
<path d="M112.889 92.7959C101.943 92.7959 95.9888 83.9516 95.9888 75.6327C95.9888 71.4295 97.4774 67.489 100.192 64.5992C103.257 61.3593 107.635 59.6079 112.889 59.6079C124.098 59.6079 129.264 68.1019 129.264 75.983C129.264 84.3894 123.66 92.7959 112.889 92.7959ZM112.889 64.3365C108.949 64.3365 105.796 65.5625 103.695 67.8392C101.856 69.8533 100.805 72.5679 100.805 75.6327C100.805 81.7624 105.008 88.0673 112.889 88.0673C120.858 88.0673 124.536 81.85 124.536 75.983C124.536 72.8306 123.485 70.0284 121.646 67.9268C119.632 65.5625 116.567 64.3365 112.889 64.3365Z" fill="#31302E"/>
<path d="M237.672 58.9074C143.275 58.0317 144.764 54.0036 144.764 81.1494C144.764 104.092 148.179 97.8748 232.856 98.5753C317.534 99.2759 318.935 97.8748 319.46 76.3332C319.986 54.7917 313.068 59.6079 237.672 58.9074Z" fill="white"/>
<path d="M173.223 101.202C157.111 101.202 149.93 100.414 145.99 96.5611C142.575 93.2336 142.312 88.0671 142.312 81.2369V80.0109C142.312 71.1666 142.312 65.2996 146.253 61.3591C152.382 55.317 165.78 55.5797 205.623 56.1926C214.818 56.3678 225.413 56.5429 237.585 56.6305C251.421 56.718 263.067 56.718 272.437 56.6305C301.772 56.4553 312.718 56.4553 318.059 61.8845C321.212 65.1245 321.737 69.678 321.65 76.4207C321.124 100.502 316.921 101.728 232.681 101.027C214.643 100.852 200.369 101.027 188.898 101.202C182.943 101.202 177.777 101.202 173.223 101.202ZM179.441 60.571C161.664 60.571 153.083 61.3591 149.755 64.6867C147.216 67.2261 147.216 71.9547 147.216 79.9234V81.1493C147.216 87.8044 147.566 91.2195 149.493 93.146C153.17 96.7363 164.379 96.6487 189.073 96.2984C200.544 96.1233 214.905 96.0357 232.944 96.1233C316.746 96.8238 316.746 95.6855 317.184 76.158C317.359 69.8531 316.746 66.7883 314.995 65.0369C311.054 61.0088 299.057 61.0964 272.7 61.184C263.33 61.2715 251.596 61.2715 237.76 61.184C225.588 61.0964 214.993 60.9213 205.798 60.7461C195.203 60.7461 186.533 60.571 179.441 60.571Z" fill="#31302E"/>
<path d="M100.454 84.3017C95.4631 89.5557 90.4717 94.8098 85.4804 100.151C83.3788 102.341 86.7063 105.756 88.808 103.479C93.7993 98.2249 98.7906 92.9709 103.87 87.6293C105.971 85.4401 102.644 82.1125 100.454 84.3017Z" fill="#31302E"/>
<path d="M290.213 74.4067C254.398 74.5818 218.583 74.8445 182.68 75.0197C179.615 75.0197 179.615 79.7483 182.68 79.7483C218.495 79.5732 254.31 79.3105 290.213 79.1353C293.277 79.1353 293.277 74.3191 290.213 74.4067Z" fill="#31302E"/>
<path d="M336.01 345.165C312.542 355.06 302.822 381.505 297.305 401.295C291.789 421.085 301.246 440.788 302.034 473.976C302.822 507.164 302.822 521.437 305.975 525.378C309.127 529.318 354.224 519.861 358.953 520.649C363.681 521.437 363.681 535.711 373.927 524.59C384.172 513.556 421.388 469.247 421.388 469.247C421.388 469.247 442.755 457.426 415.871 413.117C388.988 368.895 371.562 330.103 336.01 345.165Z" fill="white"/>
<path d="M367.447 531.157C367.272 531.157 367.009 531.157 366.834 531.157C363.682 530.807 361.93 528.005 360.617 525.728C360.091 524.765 359.041 523.101 358.515 523.014C357.027 522.839 348.883 524.065 341.702 525.115C315.607 529.143 306.588 529.932 304.136 526.867C300.808 522.663 300.546 511.893 299.845 483.083L299.67 474.064C299.32 460.316 297.481 448.844 295.905 438.686C293.628 424.676 291.701 412.591 295.029 400.682C300.546 380.892 310.791 353.308 335.135 343.063C368.673 328.877 386.624 359.175 409.304 397.617C412.106 402.258 414.909 407.162 417.886 411.978C429.62 431.331 433.998 447.268 430.846 459.177C428.832 466.708 424.453 470.211 422.965 471.086C419.725 474.939 385.486 515.746 375.678 526.254C372.614 529.581 369.987 531.157 367.447 531.157ZM358.165 518.198C358.603 518.198 359.041 518.197 359.303 518.285C361.93 518.723 363.419 521.175 364.645 523.276C365.433 524.59 366.484 526.341 367.272 526.429C367.622 526.516 369.023 526.341 372.176 523.014C382.334 512.155 419.112 468.197 419.55 467.759L419.812 467.409L420.163 467.233C420.338 467.146 424.453 464.694 426.205 457.776C428.044 450.42 427.431 436.935 413.77 414.43C410.793 409.527 407.903 404.71 405.189 399.982C382.771 362.153 366.659 334.832 336.886 347.354C314.644 356.724 305.274 381.417 299.495 401.908C296.43 412.854 298.181 423.888 300.458 437.898C302.122 448.144 303.961 459.79 304.311 473.889L304.486 482.908C305.012 506.901 305.362 520.387 307.551 523.714C310.966 525.028 330.319 522.05 340.827 520.474C350.109 518.986 355.538 518.198 358.165 518.198Z" fill="#31302E"/>
<path d="M363.244 522.663C357.464 509.703 351.772 496.831 345.993 483.871C344.767 481.069 340.651 483.521 341.877 486.235L359.128 525.028C360.354 527.83 364.47 525.378 363.244 522.663Z" fill="#31302E"/>
<path d="M323.664 475.552C323.401 472.487 318.673 472.487 318.935 475.552C319.636 485.009 320.336 494.554 321.037 504.012C321.3 507.076 326.028 507.076 325.766 504.012C325.065 494.554 324.365 485.009 323.664 475.552Z" fill="#31302E"/>
<path d="M377.079 500.596C320.423 462.855 296.167 453.485 304.136 437.46C310.09 425.639 352.123 449.895 352.123 449.895C352.123 449.895 299.67 385.883 311.229 373.449C319.985 364.079 329.881 372.573 329.881 372.573C329.881 372.573 323.663 360.139 332.508 354.797C341.352 349.455 349.408 356.548 349.408 356.548C349.408 356.548 346.781 344.989 356.501 342.362C368.76 339.035 374.89 359.438 400.635 394.115C426.38 428.791 480.934 454.361 480.058 462.33C479.183 470.298 426.73 520.124 418.674 521C410.88 521.963 387.762 507.777 377.079 500.596Z" fill="#8590C8"/>
<path d="M370.074 425.727C355.187 409.089 343.278 390.437 334.171 370.034C332.945 367.232 328.83 369.684 330.056 372.398C339.25 393.239 351.51 412.066 366.659 429.054C368.76 431.331 372.088 428.003 370.074 425.727Z" fill="#31302E"/>
<path d="M379.881 404.097C368.235 388.686 357.727 372.661 348.27 355.848C346.781 353.221 342.665 355.585 344.154 358.212C353.611 375.025 364.119 391.138 375.766 406.462C377.605 408.914 381.72 406.549 379.881 404.097Z" fill="#31302E"/>
<path d="M322.525 443.765C318.672 439.737 312.017 439.912 307.988 443.678C305.799 445.779 309.127 449.107 311.316 447.005C313.418 445.079 317.095 444.904 319.11 447.093C321.124 449.37 320.511 452.96 318.409 454.886C316.132 456.988 319.547 460.316 321.737 458.214C325.852 454.536 326.378 447.793 322.525 443.765Z" fill="#31302E"/>
<path d="M324.014 382.293C322.263 383.256 319.723 382.731 318.847 380.804C317.972 378.966 319.198 376.514 321.037 375.901C323.926 374.937 322.7 370.296 319.811 371.347C315.257 372.923 312.455 378.09 314.469 382.643C316.483 387.197 322.263 388.686 326.378 386.409C329.093 384.833 326.728 380.804 324.014 382.293Z" fill="#31302E"/>
<path d="M341.352 363.904C340.477 365.218 338.025 365.48 336.974 364.167C335.923 362.853 336.886 360.489 338.375 360.051C341.265 359.088 340.039 354.534 337.149 355.498C332.508 356.986 330.144 363.028 333.296 367.056C336.361 371.085 342.841 370.384 345.468 366.268C347.132 363.729 343.016 361.365 341.352 363.904Z" fill="#31302E"/>
<path d="M363.419 351.557C362.718 352.958 360.617 353.921 359.216 352.695C358.165 351.82 358.165 349.543 359.303 348.667C360.354 347.879 360.88 346.653 360.179 345.427C359.566 344.377 357.99 343.851 356.939 344.552C353.261 347.266 352.473 352.958 356.063 356.198C359.478 359.263 365.433 358.037 367.535 353.921C368.848 351.207 364.732 348.842 363.419 351.557Z" fill="#31302E"/>
<path d="M138.459 168.103C131.366 173.62 120.245 161.799 106.847 176.773C93.4495 191.834 83.9046 228.963 108.423 239.996C132.942 251.03 146.603 235.092 150.456 247.002C154.309 258.911 134.519 266.879 101.331 266.879C68.1425 266.879 72.0831 266.879 57.1091 283.517C42.1351 300.155 17.6162 339.648 11.2238 337.283C4.91899 334.919 4.13088 300.155 0.978456 267.755C-2.17396 235.355 0.978464 241.66 30.2259 204.531C59.4734 167.403 61.8377 158.646 80.0517 158.646C80.0517 158.646 91.8733 148.401 103.782 154.706C103.782 154.706 121.208 148.401 133.818 153.918C146.428 159.434 138.459 168.103 138.459 168.103Z" fill="#8590C8"/>
<path d="M102.206 153.918C92.1358 157.771 84.5174 165.739 81.4526 176.072C80.5769 178.962 85.1304 180.275 86.0061 177.298C88.6331 168.629 94.9379 161.624 103.52 158.471C106.322 157.42 105.096 152.867 102.206 153.918Z" fill="#31302E"/>
<path d="M76.3733 157.333C71.2068 160.31 67.0912 164.688 64.4642 170.03C63.1507 172.745 67.1788 175.196 68.5798 172.394C70.8566 167.753 74.2717 163.988 78.7376 161.361C81.3646 159.872 79.0003 155.756 76.3733 157.333Z" fill="#31302E"/>
<path d="M146.865 249.716C143.888 247.527 139.422 247.877 136.795 250.417C134.256 252.956 133.905 257.072 135.657 260.137C137.233 262.764 141.349 260.399 139.772 257.772C137.846 254.532 141.611 251.73 144.413 253.832C145.464 254.62 147.04 254.007 147.653 252.956C148.354 251.818 147.829 250.504 146.865 249.716Z" fill="#31302E"/>
<path d="M137.671 158.821C135.482 162.324 130.315 159.259 132.242 155.669C133.73 152.954 129.615 150.59 128.126 153.305C126.112 156.982 127.163 161.974 130.928 164.163C134.694 166.352 139.51 164.776 141.787 161.273C143.363 158.646 139.335 156.282 137.671 158.821Z" fill="#31302E"/>
<path d="M452.562 264.515C472.352 281.941 486.363 326.075 489.953 334.919C492.668 341.662 495.995 342.275 528.395 323.098C560.795 303.92 562.546 302.432 558.343 287.983C554.227 273.535 541.443 220.031 494.944 196.651C448.534 173.358 452.562 264.515 452.562 264.515Z" fill="#8590C8"/>
<path d="M523.666 287.983C516.223 280.19 511.757 270.732 510.269 260.049C509.831 257.072 505.277 258.123 505.628 261.1C507.204 272.484 512.195 282.817 520.164 291.136C522.265 293.325 525.768 290.172 523.666 287.983Z" fill="#31302E"/>
<path d="M450.986 140.52C457.028 143.059 447.834 172.482 452.037 180.013C453.876 183.253 465.873 199.015 479.358 216.616C489.341 229.576 500.111 243.674 508.08 254.27C504.315 262.063 500.111 270.207 495.821 278.351C494.332 281.153 490.567 281.503 488.552 279.051C481.46 270.295 467.186 252.519 461.144 244.725C429.007 203.481 426.642 199.978 420.863 196.038C413.507 190.959 396.432 188.682 388.638 186.493C380.845 184.216 383.91 161.536 385.048 152.955C386.186 144.461 409.041 172.394 413.682 172.482C418.324 172.482 432.247 163.375 432.334 158.822C432.334 154.18 409.742 132.639 411.931 129.487C414.12 126.334 444.944 137.981 450.986 140.52Z" fill="#8590C8"/>
<path d="M434.085 157.245C429.444 146.387 422.527 136.93 413.595 129.136C411.318 127.122 407.815 130.362 410.092 132.376C418.761 139.907 425.416 148.926 429.882 159.434C431.108 162.324 435.311 160.047 434.085 157.245Z" fill="#31302E"/>
<path d="M488.465 281.678C487.414 282.466 485.925 282.291 485.137 281.24C477.782 271.52 444.068 226.861 432.597 211.624C420.775 195.95 414.12 194.549 398.095 191.221L395.731 190.696C379.969 187.368 380.407 181.589 381.72 167.578C382.071 163.725 382.508 158.821 382.683 153.042C382.683 151.729 383.909 150.765 385.135 150.765C386.449 150.853 387.5 151.904 387.412 153.217C387.237 159.172 386.799 164.075 386.449 168.016C385.223 181.852 385.048 183.691 396.782 186.142L399.146 186.668C415.434 190.083 423.577 191.747 436.45 208.91C447.921 224.147 481.634 268.806 488.99 278.526C489.691 279.402 489.516 280.89 488.465 281.678Z" fill="#31302E"/>
<path d="M495.032 196.651C446.082 176.335 438.026 179.225 437.588 190.258C437.15 201.292 489.866 225.723 489.866 225.723L495.032 196.651Z" fill="#8590C8"/>
<path d="M430.758 201.029C409.216 203.656 425.767 225.373 425.767 225.373C425.767 225.373 422.001 240.259 435.049 249.541C435.049 249.541 432.859 263.727 445.294 268.981C457.729 274.235 479.007 270.207 481.985 261.801C485.575 251.643 474.629 248.053 474.629 248.053C477.781 247.089 486.188 230.101 471.652 224.234C471.652 224.234 470.689 209.961 456.678 204.619C445.031 200.066 435.487 200.504 430.758 201.029Z" fill="#8590C8"/>
<path d="M473.053 218.717C469.813 208.122 460.093 200.766 448.972 200.854C445.907 200.854 445.732 205.582 448.797 205.582C457.729 205.495 465.873 211.099 468.5 219.768C469.375 222.658 474.016 221.607 473.053 218.717Z" fill="#31302E"/>
<path d="M469.375 222.833C457.291 222.308 445.119 221.782 433.035 221.344C429.97 221.257 429.795 225.986 432.859 226.073C444.944 226.598 457.116 227.124 469.2 227.562C472.177 227.649 472.44 222.921 469.375 222.833Z" fill="#31302E"/>
<path d="M475.417 247.177C462.982 248.053 450.635 247.877 438.288 246.739C435.224 246.476 435.048 251.205 438.113 251.468C450.46 252.606 462.895 252.781 475.242 251.906C478.219 251.73 478.482 246.914 475.417 247.177Z" fill="#31302E"/>
<path d="M479.358 265.566C474.63 269.682 468.5 270.908 462.545 268.981C459.655 268.018 458.167 272.571 461.057 273.535C468.587 275.987 476.556 274.323 482.511 269.156C484.787 267.055 481.635 263.552 479.358 265.566Z" fill="#31302E"/>
<path d="M472.177 228.087C468.587 226.949 464.384 228.262 462.37 231.502C460.443 234.742 461.144 239.208 463.946 241.748C466.223 243.762 469.725 240.609 467.449 238.508C464.559 235.881 466.748 231.24 470.689 232.553C473.666 233.604 475.067 229.05 472.177 228.087Z" fill="white"/>
<path d="M469.025 213.376C467.361 208.822 462.282 205.845 457.554 207.772C452.913 209.698 451.074 215.39 453.263 219.856C454.576 222.571 458.78 220.381 457.466 217.667C456.59 215.828 457.203 213.201 459.217 212.238C461.144 211.362 463.771 212.5 464.471 214.514C465.347 217.317 469.988 216.266 469.025 213.376Z" fill="white"/>
<path d="M454.489 183.866C452.387 186.318 448.271 185.705 448.184 182.027C448.096 178.962 443.368 178.787 443.455 181.852C443.543 185.354 445.469 188.594 448.884 189.82C451.949 190.871 455.54 189.908 457.641 187.456C459.655 185.092 456.415 181.589 454.489 183.866Z" fill="white"/>
<path d="M474.717 263.64C470.951 263.289 470.251 258.123 473.929 256.984C476.818 256.021 475.768 251.468 472.878 252.343C469.113 253.569 466.31 256.984 466.748 261.1C467.186 265.128 470.601 268.018 474.542 268.368C477.607 268.631 477.782 263.902 474.717 263.64Z" fill="white"/>
<path d="M238.198 406.724C230.142 408.038 228.303 399.719 227.953 393.151C228.04 391.838 228.04 390.437 227.865 389.036C227.515 386.058 223.136 385.883 223.136 389.036C223.136 390.086 223.137 391.225 223.224 392.363C223.049 398.055 220.597 403.222 216.131 406.987C214.292 406.549 212.716 409.001 213.854 410.752C214.117 411.803 214.993 412.679 216.044 412.591C219.371 415.393 221.648 418.809 222.961 423.099C223.662 425.376 226.814 425.289 227.515 423.099C229.441 417.145 233.557 413.117 239.512 411.278C242.401 410.402 241.175 406.199 238.198 406.724ZM225.326 416.619C223.925 414.08 222.173 411.891 220.072 409.877C222.348 407.775 224.1 405.411 225.413 402.871C226.639 406.024 228.566 408.738 231.28 410.227C228.828 411.891 226.814 414.08 225.326 416.619Z" fill="white"/>
<path d="M352.473 287.195C348.007 285.181 346.956 280.715 345.993 276.337C345.38 273.534 341.615 274.498 341.352 276.95C340.914 280.365 340.214 285.706 335.573 285.881C334.434 285.881 333.734 286.67 333.383 287.545C331.807 288.684 332.245 291.748 334.784 291.836C339.075 292.011 341.965 295.426 341.79 299.629C341.702 302.694 346.256 302.607 346.518 299.629C346.869 295.777 349.058 293.062 352.473 291.311C354.049 290.522 354.049 287.895 352.473 287.195ZM344.329 292.186C343.366 290.873 342.14 289.734 340.739 288.946C342.053 287.983 343.103 286.67 343.891 285.093C344.68 286.67 345.73 288.071 346.956 289.297C345.993 290.085 345.03 291.048 344.329 292.186Z" fill="#8590C8"/>
</svg>
