<svg width="20" height="20" viewBox="0 0 20 20" fill="none" xmlns="http://www.w3.org/2000/svg">
<path d="M14.6523 11.8367C14.8512 11.3322 15.5653 11.3322 15.7642 11.8367L15.7987 11.9242C16.2847 13.1564 17.2601 14.1318 18.4924 14.6178L18.5799 14.6523C19.0844 14.8513 19.0844 15.5653 18.5799 15.7643L18.4924 15.7988C17.2601 16.2848 16.2847 17.2602 15.7987 18.4925L15.7642 18.5799C15.5653 19.0844 14.8512 19.0844 14.6523 18.5799L14.6178 18.4925C14.1318 17.2602 13.1564 16.2848 11.9241 15.7988L11.8366 15.7643C11.3321 15.5653 11.3321 14.8513 11.8366 14.6523L11.9241 14.6178C13.1564 14.1318 14.1318 13.1564 14.6178 11.9242L14.6523 11.8367Z" fill="#18181B"/>
<path d="M10.0469 1.04199C11.5783 1.04198 12.7919 1.04131 13.7412 1.16895C14.718 1.30031 15.5083 1.57772 16.1318 2.20117C16.7555 2.82481 17.0327 3.61576 17.1641 4.59277C17.2917 5.54203 17.292 6.75493 17.292 8.28613V9.21484C17.292 10.4279 17.2916 11.4755 17.252 12.3789C17.0393 12.0949 16.8629 11.7824 16.7334 11.4541C16.1875 10.0708 14.2296 10.0709 13.6836 11.4541C13.3035 12.4179 12.4179 13.3035 11.4541 13.6836C10.0709 14.2296 10.0708 16.1875 11.4541 16.7334C12.0956 16.9864 12.6756 17.4184 13.1045 17.9502C13.0661 17.9558 13.0272 17.9616 12.9883 17.9668C11.8121 18.1249 10.3044 18.125 8.38086 18.125H8.28613C6.75489 18.125 5.54204 18.1247 4.59277 17.9971C3.61584 17.8657 2.82478 17.5893 2.20117 16.9658C1.57754 16.3422 1.3003 15.5512 1.16895 14.5742C1.04131 13.6249 1.04198 12.4113 1.04199 10.8799V8.28613C1.04198 6.75493 1.04136 5.54203 1.16895 4.59277C1.3003 3.61576 1.57754 2.82481 2.20117 2.20117C2.82481 1.57754 3.61576 1.3003 4.59277 1.16895C5.54203 1.04136 6.75494 1.04198 8.28613 1.04199H10.0469ZM5.83301 12.708C5.48809 12.7082 5.20818 12.9881 5.20801 13.333C5.20801 13.6781 5.48798 13.9578 5.83301 13.958H9.16699C9.51202 13.9578 9.79199 13.6781 9.79199 13.333C9.79182 12.9881 9.51191 12.7082 9.16699 12.708H5.83301ZM5.83301 8.95801C5.48809 8.95818 5.20818 9.23809 5.20801 9.58301C5.20801 9.92808 5.48798 10.2078 5.83301 10.208H12.5C12.8452 10.208 13.125 9.92819 13.125 9.58301C13.1248 9.23798 12.8451 8.95801 12.5 8.95801H5.83301ZM5.83301 5.20801C5.48809 5.20818 5.20818 5.48809 5.20801 5.83301C5.20801 6.17808 5.48798 6.45783 5.83301 6.45801H12.5C12.8452 6.45801 13.125 6.17819 13.125 5.83301C13.1248 5.48798 12.8451 5.20801 12.5 5.20801H5.83301Z" fill="#18181B"/>
</svg>
