<svg width="24" height="24" viewBox="0 0 24 24" fill="none" xmlns="http://www.w3.org/2000/svg">
<path d="M22.75 12C22.75 17.9371 17.9371 22.75 12 22.75C6.06294 22.75 1.25 17.9371 1.25 12C1.25 6.06294 6.06294 1.25 12 1.25C17.9371 1.25 22.75 6.06294 22.75 12ZM17 12C17 11.6174 16.8498 11.3021 16.7314 11.1025C16.6038 10.8873 16.442 10.689 16.2852 10.5176C15.9712 10.1743 15.5762 9.83237 15.2295 9.54492L15.1924 9.51269C14.9723 9.33009 14.7389 9.13773 14.5371 9.00879C14.3904 8.91506 13.8476 8.56982 13.2383 8.87012C12.6295 9.17029 12.5505 9.82127 12.5293 9.99805C12.5003 10.2405 12.4999 10.5476 12.5 10.8379L12.5 11L8 11C7.44772 11 7 11.4477 7 12C7 12.5523 7.44772 13 8 13L12.5 13L12.5 13.1621C12.4999 13.4524 12.5003 13.7595 12.5293 14.002C12.5505 14.1787 12.6295 14.8297 13.2383 15.1299C13.8476 15.4302 14.3904 15.0849 14.5371 14.9912C14.7389 14.8623 14.9723 14.6699 15.1924 14.4873L15.2295 14.4551C15.5762 14.1676 15.9712 13.8257 16.2852 13.4824C16.442 13.311 16.6038 13.1127 16.7314 12.8975C16.8498 12.6979 17 12.3826 17 12Z" fill="#18181B"/>
</svg>
