<svg width="20" height="20" viewBox="0 0 20 20" fill="none" xmlns="http://www.w3.org/2000/svg">
<path d="M6.34375 1.04169C6.79248 1.04169 7.15625 1.40611 7.15625 1.85564V2.2774C7.74728 2.2626 8.40328 2.26261 9.12806 2.26262H10.8719H10.872C11.5967 2.26261 12.2527 2.2626 12.8438 2.2774V1.85564C12.8438 1.40611 13.2075 1.04169 13.6563 1.04169C14.105 1.04169 14.4688 1.40611 14.4688 1.85564V2.38665L14.4869 2.38908C15.462 2.52041 16.283 2.80138 16.9351 3.45462C17.5872 4.10787 17.8677 4.93037 17.9988 5.90723C18.125 6.84813 18.125 8.04445 18.125 9.52867V10.4022C18.125 10.8517 17.7612 11.2161 17.3125 11.2161C16.8638 11.2161 16.5 10.8517 16.5 10.4022V9.5882C16.5 9.14457 16.4999 8.73917 16.4971 8.36727H3.50288C3.50014 8.73917 3.5 9.14457 3.5 9.5882V11.2161C3.5 12.7739 3.50173 13.8604 3.61174 14.6802C3.71862 15.4765 3.9141 15.8982 4.21393 16.1986C4.51376 16.4989 4.93471 16.6948 5.72963 16.8018C6.54793 16.9121 7.63247 16.9138 9.1875 16.9138C9.63623 16.9138 10 17.2782 10 17.7277C10 18.1773 9.63623 18.5417 9.1875 18.5417H9.12808C7.64651 18.5417 6.45232 18.5417 5.5131 18.4152C4.53799 18.2839 3.71696 18.0029 3.06488 17.3497C2.4128 16.6964 2.13234 15.8739 2.00123 14.8971C1.87496 13.9562 1.87498 12.7599 1.875 11.2757V11.2757V9.52865V9.52863C1.87498 8.04443 1.87496 6.84812 2.00123 5.90723C2.13234 4.93037 2.4128 4.10787 3.06488 3.45462C3.71696 2.80138 4.53799 2.52041 5.51311 2.38908L5.53125 2.38665V1.85564C5.53125 1.40611 5.89502 1.04169 6.34375 1.04169Z" fill="#141B34"/>
<path d="M14.167 11.042C16.353 11.0422 18.125 12.814 18.125 15C18.125 17.186 16.353 18.9578 14.167 18.958C11.9809 18.958 10.208 17.1861 10.208 15C10.208 12.8139 11.9809 11.042 14.167 11.042ZM14.167 12.708C13.8219 12.708 13.5422 12.988 13.542 13.333V15C13.542 15.1658 13.6074 15.3252 13.7246 15.4424L14.5576 16.2754C14.8017 16.5195 15.1983 16.5195 15.4424 16.2754C15.6862 16.0314 15.6861 15.6357 15.4424 15.3916L14.792 14.7412V13.333C14.7918 12.9881 14.5119 12.7082 14.167 12.708Z" fill="#141B34"/>
</svg>
