<svg width="68" height="57" viewBox="0 0 68 57" fill="none" xmlns="http://www.w3.org/2000/svg">
<path d="M67.932 0C66.198 4.08 64.872 7.803 63.954 11.169C63.036 14.535 62.577 17.595 62.577 20.349C62.577 23.511 62.985 26.214 63.801 28.458C64.617 30.702 65.433 32.895 66.249 35.037C67.167 37.179 67.626 39.729 67.626 42.687C67.626 46.359 66.198 49.521 63.342 52.173C60.486 54.825 56.712 56.151 52.02 56.151C47.226 56.151 43.452 54.672 40.698 51.714C37.944 48.756 36.567 44.574 36.567 39.168C36.567 35.496 37.434 31.314 39.168 26.622C40.902 21.93 43.197 17.238 46.053 12.546C49.011 7.854 52.377 3.672 56.151 0H67.932ZM31.365 0C29.631 4.08 28.305 7.803 27.387 11.169C26.469 14.535 26.01 17.595 26.01 20.349C26.01 23.511 26.418 26.214 27.234 28.458C28.05 30.702 28.866 32.895 29.682 35.037C30.6 37.179 31.059 39.729 31.059 42.687C31.059 46.359 29.631 49.521 26.775 52.173C23.919 54.825 20.145 56.151 15.453 56.151C10.659 56.151 6.885 54.672 4.131 51.714C1.377 48.756 0 44.574 0 39.168C0 35.496 0.867 31.314 2.601 26.622C4.335 21.93 6.63 17.238 9.486 12.546C12.444 7.854 15.81 3.672 19.584 0H31.365Z" fill="#ECE3DA"/>
</svg>
