<svg width="20" height="20" viewBox="0 0 20 20" fill="none" xmlns="http://www.w3.org/2000/svg">
<path d="M10 1.04199C10.2955 1.04199 10.5974 1.13227 10.9043 1.24805C11.215 1.36525 11.603 1.53809 12.0869 1.75293C12.7982 2.06867 13.7372 2.43055 14.7441 2.7168C15.479 2.92569 16.0734 3.09501 16.5234 3.26953C16.9757 3.4449 17.3861 3.66197 17.6621 4.02734C17.9295 4.38131 18.0319 4.79524 18.0791 5.24121C18.1247 5.67157 18.125 6.2115 18.125 6.86523V9.31934C18.125 11.8659 16.9753 13.8855 15.5859 15.3906C14.2011 16.8908 12.5514 17.9114 11.4639 18.4854L11.4111 18.5137C10.9479 18.7585 10.5691 18.958 10 18.958C9.43088 18.958 9.05206 18.7585 8.58887 18.5137L8.53613 18.4854C7.44861 17.9114 5.79891 16.8908 4.41406 15.3906C3.0247 13.8855 1.875 11.8659 1.875 9.31934V6.86523C1.87499 6.2115 1.87531 5.67157 1.9209 5.24121C1.96814 4.79524 2.07052 4.38131 2.33789 4.02734C2.61394 3.66197 3.02433 3.4449 3.47656 3.26953C3.92663 3.09501 4.52097 2.92569 5.25586 2.7168C6.2628 2.43055 7.2018 2.06867 7.91309 1.75293C8.39705 1.53809 8.785 1.36525 9.0957 1.24805C9.40264 1.13227 9.70448 1.04199 10 1.04199ZM10 5.20801C8.87113 5.20801 7.91717 6.09636 7.91699 7.23926V8.12402C7.85452 8.14296 7.79214 8.16601 7.73047 8.19336C7.21372 8.42269 6.81573 8.85621 6.61133 9.38477C6.5231 9.61297 6.48938 9.84759 6.47363 10.0947C6.45849 10.3326 6.458 10.6225 6.45801 10.9697V11.0088C6.458 11.3559 6.45851 11.646 6.47363 11.8838C6.48937 12.1309 6.52318 12.3656 6.61133 12.5938C6.8157 13.1224 7.21366 13.5568 7.73047 13.7861C7.95725 13.8867 8.18995 13.924 8.42773 13.9414C8.654 13.9579 8.92802 13.958 9.24902 13.958H10.751C11.072 13.958 11.346 13.9579 11.5723 13.9414C11.81 13.924 12.0428 13.8867 12.2695 13.7861C12.7863 13.5568 13.1843 13.1224 13.3887 12.5938C13.4768 12.3656 13.5106 12.1309 13.5264 11.8838C13.5415 11.646 13.542 11.3559 13.542 11.0088V10.9697C13.542 10.6225 13.5415 10.3326 13.5264 10.0947C13.5106 9.84759 13.4769 9.61297 13.3887 9.38477C13.1843 8.85621 12.7863 8.42269 12.2695 8.19336C12.2079 8.16601 12.1455 8.14296 12.083 8.12402V7.23926C12.0828 6.09636 11.1289 5.20801 10 5.20801ZM10 6.45801C10.4817 6.45801 10.8328 6.82914 10.833 7.23926V8.02051H9.16699V7.23926C9.16718 6.82914 9.51827 6.45801 10 6.45801Z" fill="#141B34"/>
</svg>
