<svg width="24" height="24" viewBox="0 0 24 24" fill="none" xmlns="http://www.w3.org/2000/svg">
<path d="M1.75 11.9425C1.74999 9.75225 1.75012 8.03186 1.93066 6.6886C2.11575 5.31194 2.50313 4.21965 3.36133 3.36145C4.21953 2.50325 5.31182 2.11587 6.68848 1.93079C8.03174 1.75024 9.75212 1.75011 11.9424 1.75012L12.0576 1.75012C14.2479 1.75011 15.9683 1.75024 17.3115 1.93079C18.6882 2.11587 19.7805 2.50325 20.6387 3.36145C21.4969 4.21965 21.8842 5.31194 22.0693 6.6886C22.2499 8.03186 22.25 9.75224 22.25 11.9425L22.25 12.0577C22.25 14.248 22.2499 15.9684 22.0693 17.3116C21.8842 18.6883 21.4969 19.7806 20.6387 20.6388C19.7805 21.497 18.6882 21.8844 17.3115 22.0695C15.9683 22.25 14.2479 22.2501 12.0576 22.2501L11.9424 22.2501C9.75213 22.2501 8.03174 22.25 6.68848 22.0695C5.31182 21.8844 4.21953 21.497 3.36133 20.6388C2.50313 19.7806 2.11575 18.6883 1.93066 17.3116C1.75012 15.9684 1.74999 14.248 1.75 12.0577L1.75 11.9425ZM9.78613 7.29895C9.3992 7.69297 9.40584 8.32702 9.7998 8.71399L10.248 9.17004C10.5216 9.45467 10.8835 9.84256 11.2432 10.2589C11.6063 10.6794 11.95 11.1095 12.1973 11.4825C12.3212 11.6695 12.4079 11.8224 12.46 11.9376C12.4714 11.9628 12.48 11.9837 12.4863 12.0001C12.48 12.0166 12.4714 12.0374 12.46 12.0626C12.4079 12.1778 12.3212 12.3307 12.1973 12.5177C11.95 12.8907 11.6063 13.3209 11.2432 13.7413C10.8835 14.1577 10.5216 14.5456 10.248 14.8302L9.7998 15.2863C9.40597 15.6731 9.39958 16.3063 9.78613 16.7003C10.173 17.0942 10.8061 17.1006 11.2002 16.714L11.6895 16.2159C11.9784 15.9153 12.3667 15.5006 12.7568 15.0489C13.1434 14.6015 13.5491 14.0977 13.8643 13.6222C14.0215 13.3848 14.1703 13.1345 14.2822 12.8868C14.3862 12.6568 14.5 12.3418 14.5 12.0001C14.5 11.6585 14.3863 11.3435 14.2822 11.1134C14.1702 10.8658 14.0216 10.6154 13.8643 10.3781C13.5491 9.90254 13.1434 9.39878 12.7568 8.95129C12.3667 8.49962 11.9784 8.08494 11.6895 7.7843L11.2002 7.28625C10.8061 6.89964 10.173 6.90507 9.78613 7.29895Z" fill="#18181B"/>
</svg>
