<svg width="20" height="20" viewBox="0 0 20 20" fill="none" xmlns="http://www.w3.org/2000/svg">
<path fill-rule="evenodd" clip-rule="evenodd" d="M10 6.66667C8.15905 6.66667 6.66667 8.15905 6.66667 10C6.66667 11.8409 8.15905 13.3333 10 13.3333C11.8409 13.3333 13.3333 11.8409 13.3333 10C13.3333 9.53976 13.7064 9.16667 14.1667 9.16667C14.6269 9.16667 15 9.53976 15 10C15 12.7614 12.7614 15 10 15C7.23858 15 5 12.7614 5 10C5 7.23858 7.23858 5 10 5C10.4602 5 10.8333 5.3731 10.8333 5.83333C10.8333 6.29357 10.4602 6.66667 10 6.66667Z" fill="#2B2E33"/>
<path fill-rule="evenodd" clip-rule="evenodd" d="M9.99992 2.49998C5.85778 2.49998 2.49992 5.85784 2.49992 9.99998C2.49992 14.1421 5.85778 17.5 9.99992 17.5C14.1421 17.5 17.4999 14.1421 17.4999 9.99998C17.4999 9.48519 17.4482 8.98335 17.3499 8.49909C17.2583 8.04805 17.5497 7.60819 18.0008 7.51664C18.4518 7.42508 18.8917 7.7165 18.9832 8.16754C19.1036 8.76031 19.1666 9.37321 19.1666 9.99998C19.1666 15.0626 15.0625 19.1666 9.99992 19.1666C4.93731 19.1666 0.833252 15.0626 0.833252 9.99998C0.833252 4.93737 4.93731 0.833313 9.99992 0.833313C10.6267 0.833313 11.2396 0.896339 11.8324 1.01667C12.2834 1.10822 12.5748 1.54808 12.4833 1.99912C12.3917 2.45016 11.9518 2.74158 11.5008 2.65002C11.0165 2.55172 10.5147 2.49998 9.99992 2.49998Z" fill="#2B2E33"/>
<path d="M16.7852 1.73142C16.6538 1.22799 16.247 0.918906 15.8105 0.849187C15.3899 0.781995 14.9637 0.931346 14.6592 1.23588L13.7014 2.1937C12.6435 3.25154 12.555 4.55513 12.9091 5.91252L9.41083 9.41083C9.08539 9.73626 9.08539 10.2639 9.41083 10.5893C9.73626 10.9148 10.2639 10.9148 10.5893 10.5893L14.0876 7.09103C15.445 7.44519 16.7486 7.35663 17.8065 6.29879L18.7643 5.34097C19.0688 5.03644 19.2182 4.61025 19.151 4.18962C19.0813 3.75318 18.7722 3.34633 18.2687 3.21498L17.0922 2.90799L16.7852 1.73142Z" fill="#2B2E33"/>
</svg>
