<svg width="149" height="149" viewBox="0 0 149 149" fill="none" xmlns="http://www.w3.org/2000/svg">
<path d="M58.8627 46.7763C59.2351 46.7827 59.5603 47.0657 59.7162 47.404C59.8721 47.7422 59.8879 48.1272 59.8757 48.4995C59.8709 48.6452 59.8609 48.7959 59.7941 48.9255C59.6167 49.2697 59.0249 49.2631 58.8552 48.915C58.6855 48.5669 59.0448 48.0967 59.4252 48.1689" fill="black"/>
<path d="M58.7731 46.4591C59.2992 46.3693 59.8362 46.6085 60.1122 47.0688C60.3829 47.5203 60.4383 48.085 60.4121 48.6009C60.3966 48.9056 60.3196 49.2219 60.0887 49.4385C59.8851 49.6295 59.6292 49.7227 59.3534 49.7397C59.1321 49.7534 58.8843 49.6869 58.6998 49.5643C58.4219 49.3798 58.2674 49.1007 58.2371 48.7708C58.2081 48.4567 58.3537 48.1496 58.5572 47.92C58.7606 47.6904 59.1132 47.5264 59.4231 47.5667C59.5911 47.5885 59.723 47.6274 59.849 47.7431C59.9889 47.8715 60.039 48.0673 60.0146 48.249C59.9926 48.4124 59.9186 48.541 59.788 48.6418C59.6285 48.7651 59.458 48.7863 59.263 48.7496L59.2379 48.7449L59.3978 48.7664C59.3556 48.7611 59.3154 48.7607 59.2733 48.7653L59.4322 48.7439C59.4076 48.748 59.3841 48.7548 59.3598 48.7599C59.2639 48.7801 59.4894 48.6888 59.4102 48.7381C59.3895 48.751 59.368 48.7668 59.3463 48.7779C59.4311 48.7098 59.4514 48.6951 59.407 48.7338C59.3976 48.7424 59.3886 48.7513 59.3799 48.7607C59.2963 48.8353 59.4306 48.6746 59.4074 48.7212C59.397 48.7422 59.3823 48.7679 59.3683 48.7866C59.3375 48.8279 59.4132 48.6321 59.3885 48.7408C59.3821 48.7692 59.374 48.7966 59.3692 48.8256C59.3761 48.7744 59.383 48.7233 59.3899 48.6721C59.3854 48.7138 59.3854 48.7538 59.39 48.7954L59.3695 48.6426C59.3718 48.6591 59.375 48.6753 59.3792 48.6914C59.3963 48.7464 59.3856 48.7247 59.3471 48.6262C59.3534 48.6399 59.3604 48.6531 59.3682 48.666C59.3989 48.713 59.382 48.6925 59.3174 48.6045C59.366 48.6492 59.4213 48.6716 59.2818 48.59C59.307 48.6047 59.3311 48.621 59.3566 48.6354C59.4323 48.6781 59.2141 48.5894 59.3037 48.6113C59.3325 48.6184 59.3619 48.6244 59.3907 48.6316C59.2124 48.5874 59.2908 48.6203 59.3533 48.6189C59.4853 48.6159 59.2286 48.6493 59.316 48.6263C59.3406 48.6198 59.366 48.6109 59.3908 48.6055C59.4296 48.597 59.2462 48.6796 59.3477 48.6203C59.4558 48.5572 59.2666 48.7042 59.3227 48.6417C59.4068 48.5479 59.2694 48.7465 59.3057 48.6675C59.3647 48.5394 59.289 48.7557 59.3112 48.6551C59.3179 48.6244 59.3232 48.5866 59.3326 48.5569C59.3215 48.646 59.3191 48.6606 59.3253 48.6008C59.3273 48.5783 59.3289 48.5558 59.3302 48.5332C59.3332 48.4859 59.3353 48.4385 59.3369 48.3911C59.3403 48.2944 59.3411 48.1977 59.3374 48.101C59.336 48.0649 59.3337 48.0289 59.3312 47.9928C59.3293 47.9654 59.3362 47.8698 59.318 47.8498C59.3292 47.9301 59.3301 47.9411 59.3208 47.8829C59.3166 47.8593 59.312 47.8358 59.3069 47.8125C59.2967 47.7659 59.2847 47.7197 59.2706 47.6741C59.2671 47.6629 59.2488 47.5774 59.2352 47.5728C59.2659 47.6433 59.2705 47.6549 59.2489 47.6076C59.2404 47.5898 59.2314 47.5722 59.222 47.5548C59.1844 47.4855 59.1402 47.42 59.1009 47.3516C59.0962 47.3434 59.0374 47.2563 59.0386 47.2549C59.078 47.3044 59.0868 47.316 59.0651 47.2897C59.0559 47.2783 59.0464 47.2673 59.0365 47.2565C59.0109 47.228 58.9826 47.2031 58.9553 47.1764C58.9221 47.1488 58.927 47.1522 58.97 47.1865C58.9545 47.1754 58.9387 47.1648 58.9225 47.1547C58.9063 47.1447 58.798 47.0945 58.8826 47.1275C58.8467 47.1135 58.8103 47.1028 58.773 47.0935C58.6385 47.0601 58.5252 46.917 58.5315 46.7763C58.5376 46.6415 58.6281 46.4838 58.7731 46.4591Z" fill="black"/>
<path d="M59.7523 42.8224C59.73 42.8011 59.7062 42.7815 59.6835 42.7607C59.6541 42.7338 59.7277 42.7919 59.6953 42.7694C59.6814 42.7597 59.6679 42.7495 59.6538 42.7401C59.6058 42.7078 59.5554 42.6791 59.5032 42.6541C59.4417 42.6245 59.5135 42.6524 59.5136 42.657C59.5135 42.6502 59.4337 42.6226 59.419 42.6158C59.4069 42.6103 59.3933 42.6055 59.3818 42.5988C59.4484 42.6374 59.4136 42.6123 59.3913 42.604C59.3336 42.5824 59.2744 42.565 59.2142 42.5519C59.1875 42.546 59.1605 42.5417 59.1335 42.5369C59.0935 42.5297 59.2056 42.5437 59.1464 42.5392C59.1328 42.5382 59.1192 42.5368 59.1055 42.5359C59.0442 42.5318 58.9825 42.5322 58.9213 42.5371C58.9082 42.5382 58.8935 42.5418 58.8805 42.541C58.9086 42.5427 58.9438 42.5312 58.8934 42.54C58.8665 42.5447 58.8398 42.5502 58.8133 42.5568C58.7505 42.5722 58.6893 42.5939 58.6281 42.6147C58.4822 42.6641 58.3199 42.5695 58.2634 42.4357C58.206 42.2997 58.2533 42.1223 58.3899 42.0497C58.688 41.8911 59.0467 41.8726 59.3729 41.9379C59.6814 41.9997 59.9638 42.1678 60.1603 42.4144C60.2541 42.5322 60.2839 42.7089 60.1603 42.8224C60.0431 42.93 59.8688 42.934 59.7523 42.8224Z" fill="black"/>
<path d="M45.1517 46.7763C45.5241 46.7827 45.8493 47.0657 46.0052 47.404C46.1611 47.7422 46.1769 48.1272 46.1647 48.4995C46.1599 48.6452 46.15 48.7959 46.0831 48.9255C45.9057 49.2697 45.3139 49.2631 45.1442 48.915C44.9746 48.5669 45.3339 48.0967 45.7143 48.1689" fill="black"/>
<path d="M45.0621 46.4591C45.5882 46.3693 46.1252 46.6085 46.4013 47.0688C46.672 47.5203 46.7274 48.085 46.7012 48.6009C46.6857 48.9056 46.6086 49.2219 46.3777 49.4385C46.1741 49.6295 45.9183 49.7227 45.6424 49.7397C45.4211 49.7534 45.1733 49.6869 44.9888 49.5643C44.711 49.3798 44.5565 49.1007 44.5261 48.7708C44.4972 48.4567 44.6428 48.1496 44.8463 47.92C45.0497 47.6904 45.4023 47.5264 45.7122 47.5667C45.8801 47.5885 46.0121 47.6274 46.138 47.7431C46.278 47.8715 46.3281 48.0673 46.3036 48.249C46.2817 48.4124 46.2076 48.541 46.0771 48.6418C45.9175 48.7651 45.7471 48.7863 45.5521 48.7496L45.5269 48.7449L45.6868 48.7664C45.6446 48.7611 45.6045 48.7607 45.5623 48.7653C45.6153 48.7582 45.6683 48.7511 45.7213 48.7439C45.6967 48.748 45.6732 48.7548 45.6489 48.7599C45.553 48.7801 45.7785 48.6888 45.6993 48.7381C45.6786 48.751 45.657 48.7668 45.6354 48.7779C45.7202 48.7098 45.7404 48.6951 45.696 48.7338C45.6867 48.7424 45.6776 48.7513 45.669 48.7607C45.5853 48.8353 45.7196 48.6746 45.6965 48.7212C45.6861 48.7422 45.6713 48.7679 45.6574 48.7866C45.6265 48.8279 45.7022 48.6321 45.6776 48.7408C45.6711 48.7692 45.663 48.7966 45.6583 48.8256C45.6652 48.7744 45.672 48.7233 45.6789 48.6721C45.6745 48.7138 45.6745 48.7538 45.6791 48.7954L45.6585 48.6426C45.6608 48.6591 45.6641 48.6753 45.6682 48.6914C45.6854 48.7464 45.6747 48.7247 45.6362 48.6262C45.6425 48.6399 45.6495 48.6531 45.6572 48.666C45.688 48.713 45.671 48.6925 45.6064 48.6045C45.655 48.6492 45.7104 48.6716 45.5709 48.59C45.5961 48.6047 45.6202 48.621 45.6457 48.6354C45.7214 48.6781 45.5031 48.5894 45.5927 48.6113C45.6216 48.6184 45.651 48.6244 45.6797 48.6316C45.5014 48.5874 45.5798 48.6203 45.6424 48.6189C45.7744 48.6159 45.5177 48.6493 45.605 48.6263C45.6297 48.6198 45.655 48.6109 45.6798 48.6055C45.7186 48.597 45.5353 48.6796 45.6368 48.6203C45.7448 48.5572 45.5557 48.7042 45.6118 48.6417C45.6958 48.5479 45.5585 48.7465 45.5948 48.6675C45.6537 48.5394 45.578 48.7557 45.6002 48.6551C45.607 48.6244 45.6122 48.5866 45.6217 48.5569C45.6106 48.646 45.6082 48.6606 45.6144 48.6008C45.6163 48.5783 45.618 48.5558 45.6193 48.5332C45.6223 48.4859 45.6243 48.4385 45.626 48.3911C45.6293 48.2944 45.6302 48.1977 45.6264 48.101C45.625 48.0649 45.6228 48.0289 45.6202 47.9928C45.6183 47.9654 45.6253 47.8698 45.6071 47.8498C45.6182 47.9301 45.6192 47.9411 45.6099 47.8829C45.6057 47.8593 45.601 47.8358 45.5959 47.8125C45.5858 47.7659 45.5738 47.7197 45.5596 47.6741C45.5561 47.6629 45.5379 47.5774 45.5242 47.5728C45.555 47.6433 45.5596 47.6549 45.538 47.6076C45.5294 47.5898 45.5204 47.5722 45.511 47.5548C45.4735 47.4855 45.4292 47.42 45.39 47.3516C45.3853 47.3434 45.3265 47.2563 45.3277 47.2549C45.367 47.3044 45.3759 47.316 45.3542 47.2897C45.3449 47.2783 45.3354 47.2673 45.3256 47.2565C45.2999 47.228 45.2716 47.2031 45.2443 47.1764C45.2112 47.1488 45.216 47.1522 45.2591 47.1865C45.2436 47.1754 45.2277 47.1648 45.2115 47.1547C45.1954 47.1447 45.0871 47.0945 45.1716 47.1275C45.1358 47.1135 45.0994 47.1028 45.0621 47.0935C44.9276 47.0601 44.8143 46.917 44.8206 46.7763C44.8266 46.6415 44.9172 46.4838 45.0621 46.4591Z" fill="black"/>
<path d="M46.0414 42.8224C46.0191 42.8011 45.9953 42.7815 45.9725 42.7607C45.9431 42.7338 46.0167 42.7919 45.9843 42.7694C45.9705 42.7597 45.957 42.7495 45.9429 42.7401C45.8949 42.7078 45.8445 42.6791 45.7923 42.6541C45.7308 42.6245 45.8026 42.6524 45.8027 42.657C45.8025 42.6502 45.7228 42.6226 45.7081 42.6158C45.696 42.6103 45.6824 42.6055 45.6709 42.5988C45.7374 42.6374 45.7026 42.6123 45.6804 42.604C45.6227 42.5824 45.5635 42.565 45.5033 42.5519C45.4765 42.546 45.4496 42.5417 45.4226 42.5369C45.3825 42.5297 45.4947 42.5437 45.4355 42.5392C45.4219 42.5382 45.4083 42.5368 45.3946 42.5359C45.3333 42.5318 45.2716 42.5322 45.2103 42.5371C45.1973 42.5382 45.1826 42.5418 45.1696 42.541C45.1977 42.5427 45.2329 42.5312 45.1825 42.54C45.1556 42.5447 45.1289 42.5502 45.1024 42.5568C45.0396 42.5722 44.9784 42.5939 44.9172 42.6147C44.7712 42.6641 44.609 42.5695 44.5525 42.4357C44.4951 42.2997 44.5424 42.1223 44.679 42.0497C44.9771 41.8911 45.3357 41.8726 45.6619 41.9379C45.9705 41.9997 46.2529 42.1678 46.4493 42.4144C46.5432 42.5322 46.5729 42.7089 46.4493 42.8224C46.3321 42.93 46.1579 42.934 46.0414 42.8224Z" fill="black"/>
<path d="M74.5015 46.2596C74.6197 45.8848 74.7928 45.5211 75.0069 45.1916C75.0545 45.1183 75.1048 45.0466 75.1574 44.9767C75.2 44.9202 75.2432 44.8641 75.2872 44.8086C75.3027 44.789 75.3184 44.7696 75.3342 44.7502C75.4243 44.6402 75.2375 44.8794 75.3598 44.7211C75.5018 44.5374 75.7068 44.391 75.8895 44.2505C76.5647 43.7315 77.3627 43.4467 78.2064 43.3641C80.027 43.1858 81.7913 44.1826 82.8122 45.6536C83.3434 46.419 83.6361 47.3119 83.7442 48.2313C83.8521 49.1486 83.6896 50.085 83.3553 50.9412C82.756 52.4761 81.7874 53.8584 80.5457 54.9434C79.3319 56.0039 77.8902 56.8051 76.3298 57.2223C76.1489 57.2706 75.9666 57.3135 75.7833 57.3512C75.5998 57.389 75.4144 57.3782 75.249 57.2813C75.1052 57.1972 74.968 57.0323 74.9304 56.867C74.8515 56.5207 75.0347 56.0922 75.4146 56.0141C76.0195 55.8897 76.6096 55.7043 77.1787 55.4649C77.1233 55.4883 77.068 55.5116 77.0127 55.535C77.7957 55.2026 78.5325 54.7697 79.2068 54.2513C79.1597 54.2876 79.1126 54.324 79.0655 54.3604C79.7382 53.8398 80.344 53.2368 80.8652 52.5644C80.8286 52.6117 80.7921 52.6589 80.7556 52.7062C81.2522 52.0613 81.6672 51.357 81.9842 50.6071C81.9606 50.6632 81.937 50.7192 81.9133 50.7752C82.1173 50.2869 82.2767 49.7801 82.3488 49.2546C82.3404 49.3171 82.332 49.3797 82.3236 49.4422C82.3788 49.0181 82.377 48.5901 82.3219 48.1661C82.3303 48.2288 82.3387 48.2914 82.3471 48.3541C82.2861 47.9081 82.1661 47.4749 81.9933 47.0593C82.0171 47.1157 82.0409 47.1721 82.0647 47.2284C81.9022 46.8449 81.6941 46.4836 81.4412 46.1525C81.4778 46.2 81.5145 46.2475 81.5512 46.2949C81.3081 45.9813 81.0275 45.7013 80.7145 45.4576L80.8561 45.567C80.5345 45.3201 80.1845 45.1148 79.8118 44.9551C79.8672 44.9785 79.9226 45.0019 79.978 45.0252C79.5699 44.8536 79.134 44.7307 78.6953 44.6698L78.8735 44.6937C78.5123 44.6463 78.1481 44.6438 77.7869 44.6919L77.9549 44.6694C77.6374 44.7141 77.3312 44.7986 77.0299 44.9072C76.9927 44.9206 76.9556 44.9346 76.9187 44.9491C76.7751 45.0056 77.0137 44.9056 76.9201 44.9475C76.847 44.9803 76.7742 45.0135 76.7027 45.0496C76.5606 45.1214 76.4226 45.2012 76.2897 45.2888C76.2237 45.3324 76.1595 45.3784 76.0957 45.4251C76.0527 45.4575 76.0642 45.4488 76.1302 45.3989C76.0908 45.4364 76.0476 45.4683 76.0006 45.4944C75.9685 45.5165 75.9365 45.5387 75.905 45.5616C75.8893 45.573 75.8737 45.5845 75.8582 45.5961C75.8182 45.6264 75.8272 45.6193 75.8851 45.5749C75.8677 45.6025 75.8175 45.6289 75.7921 45.6501C75.7313 45.7009 75.672 45.7535 75.6144 45.8079C75.5858 45.8349 75.5576 45.8624 75.5299 45.8903C75.5146 45.9057 75.4506 45.9541 75.4483 45.9749C75.4913 45.9144 75.4789 45.9295 75.4109 46.0201C75.3964 46.0333 75.3833 46.0477 75.3715 46.0633C75.3608 46.0756 75.2832 46.1762 75.3378 46.1038C75.2419 46.2309 75.1542 46.3633 75.075 46.5014C74.901 46.8052 74.3929 46.6042 74.5015 46.2596Z" fill="black"/>
<path d="M53.8251 89.6469C53.9155 88.6159 53.9378 87.5831 53.8895 86.5493C53.8776 86.294 53.8618 86.0389 53.8421 85.7841C53.8324 85.6593 53.8165 85.5357 53.8003 85.4117C53.8104 85.4889 53.8016 85.4217 53.7996 85.4069C53.7942 85.3684 53.7889 85.3299 53.7834 85.2915C53.7743 85.2274 53.7649 85.1632 53.7553 85.0992C53.6791 84.5919 53.5868 84.0871 53.4789 83.5856C53.3566 83.0173 53.252 82.4455 53.1186 81.8795C53.0477 81.5786 53.2124 81.224 53.5322 81.1511C53.8276 81.0838 54.1942 81.2402 54.2606 81.5647C54.3726 82.113 54.4831 82.6691 54.5335 83.2269C54.5803 83.7452 54.6106 84.2651 54.6245 84.7854C54.6381 85.2944 54.6415 85.8046 54.6442 86.3137C54.6469 86.8375 54.6331 87.3613 54.6028 87.8842C54.5688 88.4733 54.5228 89.0609 54.4527 89.6469C54.4333 89.8093 54.3223 89.9689 54.1389 89.9607C53.9812 89.9536 53.8098 89.822 53.8251 89.6469Z" fill="black"/>
<path d="M79.4263 49.0843C78.7964 48.9022 78.1948 49.3323 77.7584 49.7417C77.5314 49.9546 77.3474 50.1925 77.1855 50.4581C77.0283 50.7159 76.8914 50.9597 76.8237 51.2548C76.814 51.2971 76.8062 51.3399 76.7981 51.3826C76.7975 51.3861 76.7895 51.4396 76.7945 51.4013C76.7917 51.4228 76.7892 51.4447 76.788 51.4664C76.7875 51.4753 76.7902 51.493 76.7871 51.5011C76.7784 51.5245 76.7712 51.4554 76.7864 51.5046C76.7895 51.5147 76.7954 51.5295 76.7962 51.5399C76.7984 51.5676 76.7655 51.4967 76.7986 51.5405C76.7426 51.4664 76.6175 51.4276 76.5345 51.4861C76.4592 51.5391 76.4397 51.5948 76.4322 51.6773C76.4281 51.7234 76.4362 51.6865 76.4258 51.6676C76.4159 51.6408 76.4227 51.6522 76.4462 51.7017C76.4767 51.7466 76.4819 51.759 76.4618 51.7389C76.4565 51.7379 76.4392 51.7203 76.435 51.7162C76.4175 51.6994 76.313 51.5697 76.3897 51.6643C76.2716 51.5185 76.2365 51.2967 76.3897 51.1561C76.5443 51.0142 76.7427 51.0278 76.8979 51.1561C77.0568 51.2876 77.1225 51.5938 77.0631 51.7886C76.9725 52.0858 76.5896 52.1916 76.3603 51.9817C76.0222 51.6722 76.2406 51.1219 76.4157 50.7866C76.6079 50.4184 76.8877 50.1152 77.2013 49.8474C77.5209 49.5745 77.8111 49.2758 78.1773 49.0617C78.5752 48.829 79.0409 48.6988 79.4936 48.8403C79.6483 48.8887 79.5836 49.1298 79.4263 49.0843Z" fill="black"/>
<path d="M55.3383 81.9702C51.5624 81.5598 48.0244 79.4321 45.4208 76.7317C42.8994 74.1167 41.1982 70.8419 40.162 67.3817C39.6063 65.5263 39.1693 63.6498 38.8878 61.7327C38.5704 59.5706 38.411 57.3909 38.3567 55.2071C38.2468 50.7835 38.5313 46.3639 38.6506 41.9437C38.7722 37.4364 38.9157 32.9317 39.0891 28.4261C39.111 27.8568 39.1371 27.2955 39.2037 26.7296C39.237 26.4473 39.4219 26.2032 39.7301 26.2032C40.0257 26.2032 40.2436 26.4445 40.2564 26.7296C40.3061 27.8407 40.229 28.9566 40.1908 30.0679C40.1525 31.1807 40.1141 32.2935 40.0758 33.4063C39.9998 35.6144 39.8894 37.8212 39.7881 40.0282C39.5876 44.391 39.3696 48.7656 39.3636 53.1338C39.358 57.261 39.6145 61.4261 40.6812 65.4294C41.132 67.1215 41.7817 68.7624 42.5639 70.3283C43.3336 71.8694 44.1789 73.3697 45.2408 74.7314C47.5146 77.6474 50.4677 79.975 54.0403 81.0638C54.4957 81.2026 54.9439 81.3595 55.4043 81.4831C55.6654 81.5531 55.6235 82.0012 55.3383 81.9702Z" fill="black"/>
<path d="M42.2029 32.5106C42.5621 32.1477 42.9274 31.7785 43.3219 31.4537C43.5361 31.2774 43.7589 31.1102 43.994 30.9624C44.2325 30.8124 44.5177 30.7089 44.7866 30.6253C45.8132 30.3061 46.8981 30.4822 47.8062 31.0439C48.6946 31.5936 49.3492 32.411 49.7562 33.3666C49.9845 33.9025 50.1457 34.4494 50.2441 35.0236C50.3414 35.5912 50.3999 36.167 50.448 36.7407C50.5465 37.9126 50.5958 39.091 50.6386 40.2662C50.682 41.4602 50.6743 42.6524 50.6537 43.8467C50.6123 46.2561 50.4105 48.6603 50.0604 51.0443C49.973 51.6395 49.8758 52.2333 49.7689 52.8253C49.7169 53.1138 49.6608 53.4015 49.6072 53.6896C49.58 53.8358 49.5523 53.9819 49.5284 54.1287C49.5178 54.1939 49.5075 54.2591 49.4986 54.3245C49.5082 54.2543 49.4973 54.3363 49.4962 54.3463C49.4907 54.3952 49.4851 54.4441 49.4804 54.4932C49.453 54.7788 49.4555 55.0597 49.4786 55.3452C49.4858 55.4343 49.4569 55.2387 49.485 55.3886C49.491 55.4205 49.4963 55.4525 49.5027 55.4844C49.5149 55.5446 49.529 55.6045 49.5456 55.6637C49.5592 55.7122 49.5746 55.7603 49.5916 55.8077C49.5922 55.8092 49.6375 55.9253 49.6096 55.8576C49.5842 55.7961 49.627 55.8941 49.6326 55.9057C49.6826 56.0092 49.7405 56.109 49.8057 56.2036C49.8202 56.2247 49.8355 56.2451 49.8502 56.266C49.8404 56.2521 49.7901 56.1937 49.8467 56.2603C49.8878 56.3086 49.9294 56.3561 49.9739 56.4013C50.0092 56.437 50.0459 56.4715 50.0838 56.5044C50.1026 56.5208 50.1219 56.5366 50.1412 56.5524C50.0616 56.4869 50.1272 56.5406 50.1492 56.5559C50.1895 56.5839 50.2307 56.6108 50.273 56.6359C50.2992 56.6514 50.3258 56.6662 50.3528 56.6802C50.365 56.6866 50.4577 56.733 50.395 56.7027C50.328 56.6704 50.4345 56.7169 50.4396 56.7187C50.4623 56.7265 50.4853 56.7338 50.5084 56.7406C50.5547 56.7541 50.6016 56.764 50.6489 56.7735C50.7494 56.7937 50.6317 56.7695 50.6319 56.7715C50.6322 56.7736 50.6955 56.7759 50.7047 56.7763C50.7666 56.7786 50.8279 56.7756 50.8895 56.77C51.1328 56.7476 51.3657 57.0001 51.3551 57.2356C51.3428 57.5111 51.1497 57.672 50.8895 57.7012C49.8361 57.8194 48.952 56.926 48.6582 55.9866C48.2984 54.8361 48.679 53.5931 48.9008 52.4547C49.3566 50.1155 49.6477 47.8313 49.7964 45.4455C49.9434 43.0855 49.9393 40.6932 49.7033 38.339C49.6737 38.0435 49.6417 37.7482 49.6073 37.4531C49.5912 37.3152 49.5746 37.1773 49.5574 37.0396C49.5497 36.9782 49.5419 36.9169 49.5339 36.8557C49.5312 36.8356 49.5177 36.7362 49.529 36.8185C49.5237 36.7804 49.5185 36.7423 49.5131 36.7042C49.4375 36.1709 49.3316 35.6431 49.1829 35.1251C49.109 34.8678 49.0247 34.6125 48.9315 34.3615C48.9102 34.3042 48.8883 34.2471 48.8655 34.1903C48.8647 34.1882 48.8062 34.0495 48.8418 34.1315C48.872 34.201 48.8325 34.1116 48.8252 34.095C48.7694 33.9697 48.7095 33.8462 48.6454 33.7249C48.5324 33.5111 48.406 33.3047 48.2633 33.1093C48.2602 33.1051 48.2266 33.0497 48.2161 33.0457C48.2552 33.0607 48.2873 33.1347 48.2379 33.0743C48.2003 33.0284 48.1632 32.9823 48.1245 32.9373C48.0471 32.8471 47.9694 32.757 47.8878 32.6706C47.8109 32.5891 47.731 32.5104 47.6482 32.4348C47.6094 32.3994 47.5699 32.3646 47.5299 32.3306C47.5098 32.3137 47.4897 32.2969 47.4694 32.2803C47.4491 32.2637 47.4287 32.2473 47.4081 32.2311C47.4283 32.2467 47.4485 32.2624 47.4687 32.278C47.273 32.1609 47.0974 32.0197 46.8924 31.9149C46.8408 31.8885 46.7883 31.8641 46.7358 31.8396C46.6575 31.803 46.7501 31.8657 46.7733 31.8545C46.7684 31.8569 46.7002 31.8255 46.7018 31.8261C46.5943 31.7847 46.4846 31.7488 46.3732 31.7192C46.2681 31.6913 46.1615 31.6699 46.0544 31.651C46.0292 31.6466 46.0039 31.643 45.9787 31.6387C45.893 31.624 46.1342 31.6522 46.0021 31.6427C45.9439 31.6386 45.886 31.6325 45.8277 31.6301C45.7099 31.625 45.5917 31.6272 45.4741 31.6362C45.446 31.6383 45.4179 31.6415 45.3898 31.6438C45.282 31.6525 45.4025 31.6465 45.4156 31.6391C45.3643 31.6677 45.2655 31.664 45.2075 31.6763C45.0905 31.7011 44.9749 31.732 44.8611 31.7684C44.8007 31.7877 44.7408 31.8084 44.6814 31.8306C44.655 31.8405 44.6288 31.851 44.6024 31.8611C44.4948 31.9022 44.6914 31.8224 44.5755 31.8729C44.4936 31.9086 44.4101 31.9369 44.3269 31.969C44.3007 31.9791 44.2748 31.9901 44.2485 32.0002C44.3441 31.9637 44.2721 31.9899 44.2522 31.9987C44.133 32.0517 44.0153 32.1073 43.8996 32.1674C43.6681 32.2877 43.4439 32.4218 43.2257 32.5646C43.0375 32.6879 42.8644 32.837 42.6824 32.9901C42.5423 33.1079 42.3402 33.1275 42.2028 32.9901C42.0724 32.8597 42.0736 32.6412 42.2029 32.5106Z" fill="black"/>
<path d="M65.8595 34.4254C65.8442 34.4263 65.8289 34.4271 65.8135 34.4279C65.8658 34.4138 65.9181 34.3996 65.9703 34.3855L65.9642 34.3893C65.8292 34.4739 65.6595 34.4356 65.5472 34.3355C65.428 34.2294 65.3009 34.1312 65.1767 34.031C65.0479 33.9271 64.9294 33.8104 64.8065 33.6995C64.5642 33.481 64.3175 33.2674 64.0642 33.0617C64.0065 33.0147 63.9484 32.9682 63.8899 32.9222C63.8719 32.908 63.8538 32.894 63.8359 32.8798C63.7903 32.8437 63.8758 32.9115 63.8756 32.9103C63.8722 32.889 63.7889 32.844 63.7682 32.8284C63.6767 32.7595 63.5862 32.6896 63.4963 32.6187C63.4795 32.6055 63.3718 32.5213 63.4447 32.5781C63.5135 32.6318 63.4112 32.553 63.3927 32.5392C63.1364 32.3465 62.8717 32.165 62.5974 31.9988C62.2849 31.8094 61.9601 31.641 61.624 31.4974C61.6722 31.5178 61.7205 31.5382 61.7687 31.5585C61.2618 31.3448 60.7304 31.1876 60.1847 31.1139L60.3509 31.1363C59.8934 31.0769 59.4306 31.0738 58.9729 31.1328L59.1402 31.1103C58.748 31.1632 58.3639 31.2617 57.998 31.4132C58.0484 31.3919 58.0988 31.3706 58.1492 31.3493C57.8505 31.4754 57.5687 31.6356 57.3111 31.8328C57.354 31.7997 57.3969 31.7665 57.4398 31.7333C57.1828 31.9333 56.9708 32.2097 56.6805 32.3609C56.475 32.4679 56.2375 32.4607 56.051 32.3165C55.8699 32.1767 55.7913 31.9443 55.8478 31.7208C55.9629 31.2657 56.3725 30.9481 56.7355 30.6847C57.0397 30.464 57.377 30.3026 57.726 30.1661C58.3961 29.904 59.1454 29.8064 59.8619 29.8401C60.2481 29.8582 60.6367 29.9118 61.0132 30C61.4061 30.0921 61.7784 30.2382 62.1441 30.4081C62.9076 30.7629 63.5988 31.2603 64.2341 31.809C64.5775 32.1056 64.8866 32.4466 65.1881 32.7848C65.3405 32.9557 65.4899 33.1292 65.6373 33.3045C65.8012 33.4995 65.9348 33.7154 66.0877 33.9185C66.1544 34.0072 66.1517 34.1768 66.0877 34.2659L66.0818 34.2741L66.1242 34.1173C66.122 34.134 66.1198 34.1507 66.1176 34.1674C66.0985 34.3118 66.0145 34.4172 65.8595 34.4254Z" fill="black"/>
<path d="M55.2691 40.2681C56.0396 40.0311 56.8204 39.8419 57.6171 39.7185C58.434 39.592 59.2577 39.5108 60.0839 39.4817C60.7423 39.4586 61.4026 39.4704 62.0611 39.4882C62.6732 39.5047 63.2843 39.5464 63.8889 39.6468C64.4788 39.7447 65.0634 39.9156 65.5904 40.2031C66.164 40.5161 66.6293 40.9829 66.952 41.5501C67.6454 42.7688 67.7516 44.2634 67.5903 45.6308C67.431 46.9805 67.0309 48.3373 66.2115 49.4409C65.7802 50.0219 65.2666 50.5201 64.6505 50.9042C64.0512 51.2779 63.3733 51.5339 62.6876 51.6966C61.982 51.8641 61.2562 51.9429 60.5329 51.9794C59.8364 52.0145 59.1341 52.0258 58.437 52.0041C57.6608 51.98 56.8844 51.8769 56.1775 51.5392C55.5178 51.224 54.9945 50.6742 54.6696 50.0245C54.6337 49.9527 54.5995 49.8801 54.5669 49.8067C54.5489 49.7663 54.5334 49.7229 54.5144 49.6838C54.5164 49.6879 54.5413 49.7433 54.5216 49.7031C54.5003 49.6596 54.4821 49.6142 54.4632 49.5697C54.3902 49.398 54.3212 49.225 54.2595 49.0488C54.1413 48.7116 54.0176 48.3737 53.8896 48.04C53.6084 47.3072 53.3628 46.5496 53.2235 45.7762C53.0797 44.9771 52.9912 44.1666 52.9662 43.3549C52.9547 42.98 52.9486 42.6008 52.9738 42.2262C52.9971 41.8811 53.0595 41.546 53.2105 41.2328C53.2881 41.0719 53.3989 40.926 53.5485 40.8265C53.6208 40.7784 53.7002 40.7437 53.7814 40.7129C53.8114 40.7015 53.8416 40.6913 53.8729 40.6838C53.9141 40.6738 54.0987 40.6271 53.9737 40.667C54.1528 40.6098 54.3738 40.7341 54.4157 40.918C54.4604 41.1144 54.3565 41.2987 54.1647 41.36L54.14 41.3679C54.1929 41.3371 54.2457 41.3063 54.2986 41.2755C54.2814 41.2917 54.1934 41.3806 54.1756 41.3703L54.1654 41.3776C54.2072 41.3444 54.2174 41.3371 54.1959 41.3557C54.1901 41.3644 54.1773 41.3726 54.1697 41.3801C54.1583 41.3914 54.1481 41.4037 54.1367 41.415C54.1041 41.4475 54.1436 41.4416 54.1573 41.3864C54.1512 41.4112 54.1194 41.445 54.1048 41.4656C54.0784 41.5029 54.0469 41.5367 54.0204 41.5737C54.0186 41.5761 54.0731 41.4935 54.052 41.5341C54.0387 41.5597 54.0193 41.5832 54.0047 41.6083C53.9875 41.638 53.973 41.6687 53.9573 41.6992C53.951 41.7114 53.933 41.7553 53.9584 41.6946C53.9871 41.626 53.957 41.7004 53.9514 41.7158C53.9048 41.8445 53.8774 41.9773 53.8541 42.1118C53.8406 42.1902 53.8647 42.0179 53.8536 42.1183C53.8501 42.1497 53.8471 42.1813 53.8445 42.2128C53.8378 42.295 53.8346 42.3774 53.8316 42.4597C53.8037 43.2147 53.8309 43.9717 53.912 44.7228C53.9222 44.8174 53.9333 44.9119 53.9452 45.0064C53.9476 45.0253 53.9502 45.0441 53.9525 45.063C53.9606 45.1298 53.9432 44.9981 53.9526 45.0647C53.9598 45.115 53.9667 45.1654 53.9741 45.2157C54.0019 45.4042 54.0331 45.5923 54.0676 45.7798C54.1369 46.1555 54.1958 46.5325 54.2772 46.9061C54.3579 47.2762 54.4423 47.653 54.5662 48.0113C54.623 48.1756 54.6823 48.3391 54.7451 48.5012C54.7606 48.541 54.7763 48.5808 54.7922 48.6205C54.7981 48.6353 54.8034 48.6507 54.8103 48.6651C54.8332 48.7136 54.792 48.6282 54.8183 48.6747C54.8577 48.7442 54.892 48.8171 54.9303 48.8873C55.0074 49.0286 55.0955 49.1629 55.1752 49.3025C55.2101 49.3638 55.1762 49.3162 55.1681 49.3033C55.1913 49.34 55.2222 49.3735 55.2477 49.4088C55.2698 49.4392 55.2915 49.4698 55.3138 49.5C55.3234 49.5129 55.3331 49.5258 55.3427 49.5387C55.3885 49.6003 55.3434 49.5413 55.3358 49.5303C55.3593 49.5645 55.388 49.596 55.4145 49.628C55.613 49.8677 55.827 50.1057 56.0666 50.305C56.0837 50.3193 56.1728 50.3914 56.1155 50.3451C56.0543 50.2957 56.1515 50.3709 56.1667 50.382C56.2349 50.4317 56.3049 50.4788 56.377 50.5225C56.4453 50.5638 56.5153 50.6023 56.5867 50.6378C56.6273 50.658 56.6685 50.6768 56.7097 50.6956C56.722 50.7012 56.7762 50.7256 56.7127 50.6971C56.6406 50.6648 56.7317 50.7039 56.7475 50.7099C56.9059 50.7702 57.0689 50.8181 57.2341 50.856C57.3118 50.8738 57.39 50.8894 57.4685 50.903C57.508 50.9099 57.5475 50.9162 57.5871 50.9221C57.6066 50.925 57.683 50.9361 57.605 50.925C57.5181 50.9125 57.6314 50.9276 57.6401 50.9286C58.3152 51.0057 59.0014 50.977 59.679 50.9545C60.0142 50.9435 60.3493 50.9275 60.6837 50.9018C60.851 50.889 61.0181 50.8738 61.1849 50.8554C61.2625 50.8469 61.3401 50.8376 61.4176 50.8277C61.4562 50.8228 61.4948 50.8174 61.5335 50.8128C61.3569 50.8335 61.533 50.8125 61.5709 50.8069C61.8921 50.7594 62.2114 50.6976 62.5258 50.616C62.6838 50.575 62.8406 50.529 62.9955 50.4774C63.0725 50.4517 63.1491 50.4245 63.2252 50.3959C63.2606 50.3826 63.2959 50.369 63.3311 50.355C63.3512 50.347 63.3712 50.3388 63.3913 50.3308C63.4598 50.3032 63.3698 50.339 63.3505 50.3482C63.6454 50.2075 63.9342 50.0689 64.2071 49.887C64.2709 49.8446 64.3336 49.8006 64.3953 49.7552C64.4106 49.7439 64.4306 49.7248 64.4482 49.7157C64.4418 49.719 64.341 49.8004 64.4109 49.7445C64.4431 49.7187 64.4754 49.6929 64.5071 49.6665C64.6255 49.568 64.7391 49.4638 64.8476 49.3545C64.9556 49.2457 65.0586 49.132 65.1563 49.0139C65.1791 48.9863 65.2016 48.9586 65.2239 48.9306C65.2979 48.8374 65.1661 49.0091 65.2221 48.9331C65.2706 48.8672 65.319 48.8014 65.3654 48.734C65.54 48.4796 65.6938 48.2111 65.8282 47.9335C65.8598 47.8682 65.8903 47.8024 65.9198 47.7362C65.9301 47.7128 65.9782 47.6005 65.9413 47.6881C65.9043 47.7762 65.9563 47.6511 65.9669 47.6247C66.0251 47.4795 66.0785 47.3324 66.1275 47.1839C66.226 46.8854 66.3084 46.5811 66.3746 46.2739C66.4078 46.1202 66.4368 45.9656 66.462 45.8103C66.4737 45.7381 66.4843 45.6656 66.4947 45.5931C66.5049 45.5221 66.4787 45.7176 66.4874 45.6463C66.4893 45.6308 66.4914 45.6152 66.4933 45.5997C66.4991 45.5531 66.5045 45.5065 66.5096 45.4599C66.5436 45.1473 66.5628 44.8332 66.5634 44.5187C66.564 44.2002 66.5403 43.885 66.5048 43.5687C66.5245 43.7442 66.5071 43.5902 66.5011 43.552C66.4952 43.5147 66.489 43.4774 66.4824 43.4401C66.4684 43.3605 66.4528 43.2811 66.4354 43.2021C66.4008 43.0448 66.3593 42.8891 66.3102 42.7357C66.2874 42.6646 66.263 42.594 66.2368 42.524C66.2219 42.4842 66.2061 42.4446 66.1903 42.4051C66.1841 42.3895 66.162 42.3357 66.1927 42.4102C66.2272 42.4939 66.1897 42.4048 66.1814 42.3865C66.1159 42.2416 66.0421 42.1005 65.9595 41.9647C65.9209 41.9013 65.8805 41.8391 65.8381 41.7783C65.8138 41.7435 65.7896 41.7086 65.7647 41.6743C65.7559 41.6621 65.7466 41.6502 65.7378 41.6379C65.7006 41.5866 65.8188 41.7375 65.7627 41.6707C65.6773 41.5691 65.589 41.4714 65.4914 41.3812C65.4465 41.3397 65.4002 41.2996 65.3527 41.2611C65.3393 41.2502 65.3247 41.2399 65.3118 41.2284C65.3059 41.2232 65.4083 41.2995 65.3637 41.2689C65.3312 41.2466 65.3001 41.2221 65.2676 41.1997C65.1588 41.1244 65.0453 41.056 64.9286 40.9938C64.8736 40.9645 64.8179 40.9366 64.7616 40.91C64.7333 40.8966 64.7049 40.8836 64.6763 40.8709C64.6599 40.8636 64.6433 40.8567 64.627 40.8493C64.5739 40.8253 64.7496 40.8989 64.6581 40.8629C64.5349 40.8143 64.4107 40.7689 64.2844 40.7291C64.0178 40.645 63.7452 40.5811 63.4705 40.5306C63.3316 40.5051 63.1921 40.4839 63.0523 40.4637C63.0002 40.4562 63.1097 40.4713 63.1052 40.4708C63.0865 40.4687 63.0677 40.4659 63.049 40.4635C63.0162 40.4594 62.9834 40.4554 62.9505 40.4515C62.8757 40.4427 62.8008 40.4345 62.7259 40.4269C62.1973 40.3735 61.6665 40.3499 61.1362 40.3213C60.3575 40.2793 59.5769 40.2805 58.7985 40.3279C58.4099 40.3516 58.0219 40.3866 57.6353 40.433C57.2686 40.4771 56.9183 40.5287 56.5299 40.5915C56.157 40.6518 55.786 40.7232 55.4171 40.8049C55.2705 40.8374 55.116 40.7606 55.0747 40.6105C55.0338 40.4615 55.1249 40.3124 55.2691 40.2681Z" fill="black"/>
<path d="M39.1731 40.268C39.9086 40.0226 40.6562 39.8286 41.4217 39.7045C42.2043 39.5777 42.9949 39.5001 43.7875 39.4791C44.3833 39.4633 44.9823 39.4758 45.5779 39.4987C46.1536 39.5208 46.7331 39.5704 47.2972 39.6915C47.8444 39.809 48.3966 40.007 48.8579 40.3293C49.3893 40.7006 49.8001 41.2078 50.0608 41.8016C50.6078 43.0472 50.6808 44.4525 50.516 45.7892C50.3531 47.111 49.9779 48.4448 49.1939 49.5407C48.7878 50.1083 48.2997 50.5953 47.7103 50.9728C47.1429 51.3362 46.4956 51.583 45.8412 51.7363C45.1733 51.8927 44.486 51.962 43.8016 51.9914C43.1473 52.0195 42.4837 52.0358 41.8297 51.9943C41.1051 51.9484 40.3594 51.8063 39.7452 51.3967C39.4485 51.1988 39.192 50.9609 38.9744 50.6792C38.8686 50.5423 38.769 50.4021 38.6795 50.2539C38.5851 50.0975 38.5168 49.9268 38.4482 49.7579C38.3268 49.4583 38.2261 49.1479 38.1371 48.8373C38.0392 48.4959 37.9329 48.1557 37.8223 47.8178C37.5873 47.1 37.3624 46.3741 37.2451 45.6264C37.1236 44.8512 37.0479 44.069 37.0285 43.2845C37.0117 42.6059 36.9718 41.8624 37.2595 41.2301C37.3337 41.067 37.4356 40.9319 37.5827 40.8271C37.6424 40.7845 37.7059 40.7557 37.7733 40.7272C37.8106 40.7115 37.8472 40.6958 37.8863 40.6852C37.9017 40.681 37.9174 40.6772 37.933 40.6744L37.9822 40.6678C38.0477 40.6592 38.0477 40.659 37.9822 40.6671C38.1598 40.6051 38.3831 40.7375 38.4242 40.918C38.4698 41.1186 38.3634 41.2937 38.1732 41.36L38.1497 41.3682L38.3083 41.2758C38.2794 41.3059 38.2573 41.3172 38.2178 41.3499C38.2184 41.3494 38.2712 41.2979 38.2468 41.3272C38.2302 41.3472 38.2071 41.3659 38.1883 41.384C38.1407 41.4297 38.2349 41.3055 38.1886 41.3845C38.1726 41.4118 38.1574 41.4402 38.1403 41.4666C38.1107 41.5124 38.0782 41.5552 38.0521 41.6035C38.0445 41.6176 38.0025 41.7141 38.0292 41.645C38.0558 41.576 38.0143 41.6862 38.0078 41.7051C37.987 41.7662 37.9697 41.8285 37.9552 41.8913C37.9477 41.9234 37.941 41.9556 37.9349 41.9879C37.9298 42.0149 37.9322 42.0805 37.9163 42.0998C37.9159 42.1002 37.9274 42.0058 37.9225 42.0542C37.9206 42.073 37.9181 42.0917 37.9161 42.1104C37.9127 42.143 37.9098 42.1756 37.9072 42.2083C37.9018 42.2795 37.8988 42.3508 37.8962 42.4221C37.8692 43.1561 37.8899 43.8917 37.9576 44.6231C37.9741 44.8009 37.9933 44.9784 38.0154 45.1556C38.0209 45.1999 38.0265 45.2442 38.0324 45.2884C38.0216 45.2065 38.0373 45.3229 38.0409 45.3479C38.0544 45.4427 38.0687 45.5373 38.0837 45.6318C38.1016 45.7437 38.1167 45.8559 38.1313 45.9683C38.1319 45.9727 38.1403 46.035 38.1341 45.9898C38.1279 45.9445 38.1367 46.0075 38.1373 46.0118C38.1445 46.0625 38.1517 46.1131 38.1592 46.1638C38.1865 46.347 38.2167 46.5298 38.2499 46.712C38.3146 47.0669 38.3818 47.4273 38.4858 47.773C38.5388 47.9489 38.5947 48.1239 38.6535 48.298C38.6664 48.3364 38.6783 48.3757 38.693 48.4135C38.6759 48.3696 38.7073 48.442 38.7127 48.4541C38.7459 48.528 38.78 48.6016 38.815 48.6748C38.9487 48.9545 39.0996 49.2226 39.2757 49.4781C39.3638 49.6058 39.4542 49.7326 39.5456 49.8579C39.5549 49.8708 39.5645 49.8835 39.5738 49.8963C39.6226 49.963 39.565 49.8836 39.557 49.8753C39.5819 49.9014 39.6029 49.9329 39.6259 49.9606C39.6757 50.0204 39.7274 50.0787 39.7812 50.1351C39.8808 50.2396 39.9838 50.3406 40.0954 50.4324C40.1111 50.4453 40.1284 50.4574 40.1435 50.471C40.1449 50.4722 40.0603 50.4099 40.1046 50.4402C40.1343 50.4605 40.1628 50.4824 40.1926 50.5026C40.2621 50.5496 40.3339 50.5931 40.4076 50.6332C40.4715 50.668 40.5369 50.6993 40.603 50.7296C40.6832 50.7663 40.5865 50.7201 40.5753 50.718C40.5904 50.7208 40.6074 50.7307 40.6218 50.7362C40.6631 50.7521 40.7048 50.767 40.7468 50.781C40.8993 50.832 41.0557 50.8712 41.2137 50.9009C41.252 50.9081 41.2905 50.9148 41.329 50.921C41.3655 50.9268 41.4915 50.9354 41.3428 50.9242C41.4209 50.9301 41.4988 50.9422 41.5769 50.9487C41.7398 50.9622 41.9032 50.969 42.0666 50.9718C42.3832 50.9772 42.6999 50.9685 43.0163 50.9593C43.3276 50.9502 43.6387 50.9372 43.9493 50.9155C44.1079 50.9043 44.2664 50.891 44.4245 50.8745C44.5008 50.8666 44.5769 50.858 44.653 50.8486C44.6855 50.8447 44.7181 50.8406 44.7506 50.8365C44.7721 50.8338 44.794 50.83 44.8156 50.8282C44.7949 50.8299 44.6937 50.8452 44.7689 50.8343C45.08 50.789 45.389 50.7318 45.6934 50.6525C45.839 50.6146 45.9834 50.572 46.126 50.524C46.1971 50.5001 46.2678 50.4749 46.3379 50.4482C46.3729 50.4349 46.4079 50.4213 46.4426 50.4072C46.4575 50.4013 46.4722 50.3944 46.4873 50.389C46.4464 50.4037 46.3814 50.4346 46.4603 50.4C46.7419 50.2767 47.0128 50.1286 47.2661 49.9544C47.3295 49.9108 47.3899 49.8632 47.4527 49.819C47.4555 49.817 47.3611 49.892 47.4071 49.8538C47.4198 49.8431 47.4331 49.833 47.446 49.8225C47.4783 49.7963 47.5102 49.7696 47.5418 49.7424C47.6533 49.6464 47.7601 49.5448 47.8618 49.4385C47.9639 49.3317 48.0589 49.2194 48.1526 49.1051C48.2119 49.0327 48.0726 49.2115 48.1508 49.1077C48.1723 49.0791 48.1936 49.0503 48.2145 49.0213C48.2565 48.9631 48.2974 48.904 48.3371 48.8442C48.5036 48.5931 48.6497 48.3286 48.7773 48.0558C48.8063 47.9938 48.8337 47.9311 48.8615 47.8685C48.8901 47.8039 48.8159 47.979 48.8427 47.9135C48.8486 47.8988 48.8548 47.8842 48.8608 47.8695C48.8768 47.8303 48.8925 47.7909 48.9078 47.7514C48.9638 47.6074 49.0151 47.4616 49.0623 47.3145C49.156 47.0225 49.2352 46.7254 49.2997 46.4256C49.3316 46.2776 49.3599 46.1288 49.3848 45.9795C49.3973 45.9049 49.4089 45.8301 49.4196 45.7552C49.4227 45.734 49.4267 45.7124 49.4287 45.6911C49.4293 45.6844 49.4122 45.819 49.4197 45.7571C49.4249 45.7142 49.4305 45.6714 49.4355 45.6285C49.4709 45.3261 49.4936 45.0222 49.5011 44.7178C49.5088 44.4074 49.5007 44.0964 49.4733 43.7871C49.4665 43.7106 49.4585 43.6343 49.4493 43.5581C49.4344 43.4349 49.4636 43.6516 49.4492 43.5548C49.4428 43.5114 49.4364 43.4681 49.4293 43.4248C49.4046 43.2742 49.3746 43.1244 49.3385 42.9762C49.3015 42.8242 49.2581 42.6738 49.2074 42.5258C49.1832 42.4551 49.1573 42.3849 49.1296 42.3154C49.0847 42.2025 49.1654 42.3937 49.1281 42.3102C49.1108 42.2715 49.0936 42.2327 49.0754 42.1944C49.0122 42.0612 48.9437 41.93 48.8675 41.8038C48.8303 41.7421 48.7912 41.6814 48.75 41.6222C48.7316 41.5959 48.7123 41.5703 48.6936 41.5443C48.6615 41.4998 48.7379 41.6002 48.7329 41.5951C48.7171 41.5792 48.7042 41.5595 48.6899 41.5424C48.6097 41.4465 48.5227 41.3564 48.4299 41.2727C48.3841 41.2313 48.3354 41.1937 48.2886 41.1534C48.2486 41.119 48.3442 41.1954 48.3384 41.192C48.3239 41.1834 48.3098 41.1706 48.2959 41.1606C48.2673 41.1399 48.2384 41.1197 48.2092 41.1C48.1066 41.031 47.9999 40.9682 47.8903 40.9112C47.8352 40.8826 47.7793 40.8553 47.7229 40.8295C47.7024 40.8201 47.6052 40.7785 47.6832 40.811C47.7617 40.8437 47.6525 40.7988 47.6292 40.7897C47.3878 40.6951 47.1382 40.6223 46.8855 40.5645C46.7555 40.5347 46.6246 40.5091 46.4931 40.4866C46.4341 40.4765 46.375 40.467 46.3158 40.4581C46.284 40.4534 46.2521 40.449 46.2202 40.4444C46.1602 40.4356 46.3193 40.4571 46.2591 40.4495C46.2408 40.4472 46.2225 40.4448 46.2042 40.4425C45.7003 40.3793 45.1932 40.3528 44.6865 40.324C43.972 40.2834 43.2581 40.2747 42.5434 40.3175C42.1746 40.3396 41.8066 40.3737 41.4401 40.42C41.1234 40.46 40.7431 40.5201 40.3942 40.581C40.0341 40.6437 39.6763 40.7187 39.3212 40.8048C38.9711 40.8897 38.8343 40.3811 39.1731 40.268Z" fill="black"/>
<path d="M52.9018 45.5192C52.7242 45.4544 52.5325 45.3854 52.3427 45.3736C52.1445 45.3614 51.9474 45.3688 51.7499 45.3864C51.7028 45.3905 51.6557 45.3937 51.6087 45.3983C51.5851 45.4006 51.5615 45.4033 51.538 45.4059C51.5116 45.4089 51.4897 45.413 51.5289 45.4069C51.4298 45.4224 51.3387 45.4446 51.2441 45.4776C51.1944 45.495 51.1454 45.5139 51.0963 45.5328C51.0372 45.5556 51.0915 45.5427 51.1144 45.5245C51.1086 45.5291 51.0593 45.5539 51.0535 45.5517C51.0697 45.5579 51.1313 45.4697 51.0873 45.53C51.0496 45.5817 50.9918 45.6209 50.9375 45.6525C50.8936 45.678 50.8452 45.6967 50.7988 45.7185C50.6026 45.8107 50.3748 45.8437 50.1807 45.7185C50.0464 45.632 49.9425 45.5095 49.8992 45.3525C49.8571 45.1993 49.8807 45.0178 49.961 44.8807C50.0787 44.6796 50.2685 44.6004 50.4897 44.5774C50.5941 44.5665 50.6741 44.5587 50.7832 44.5856C50.8668 44.6063 50.9446 44.6458 51.0237 44.6805L50.7647 44.6104C50.8579 44.6186 50.951 44.6245 51.0439 44.636C51.1162 44.645 51.1885 44.6545 51.2605 44.6658C51.2825 44.6692 51.3046 44.6727 51.3265 44.6768C51.3633 44.6836 51.3623 44.6827 51.3258 44.6784C51.5375 44.7034 51.7477 44.7283 51.9524 44.7897C52.1393 44.8458 52.3184 44.9197 52.4966 44.9988C52.6726 45.0769 52.8518 45.1423 53.0227 45.2324C53.1773 45.3139 53.0708 45.5808 52.9018 45.5192Z" fill="black"/>
<path d="M51.2562 64.8473C51.2762 64.9635 51.3042 65.0778 51.3416 65.1896C51.3505 65.2164 51.36 65.2431 51.37 65.2696C51.375 65.2829 51.3802 65.2961 51.3852 65.3093C51.3858 65.3108 51.4037 65.3538 51.392 65.3265C51.3804 65.2993 51.3989 65.3413 51.3996 65.3429C51.4055 65.3555 51.4113 65.3683 51.4172 65.3809C51.4312 65.4103 51.4458 65.4396 51.4609 65.4685C51.5155 65.5725 51.5777 65.6725 51.6463 65.768C51.6538 65.7785 51.7018 65.8416 51.6791 65.813C51.6584 65.7868 51.7114 65.852 51.7231 65.8658C51.7626 65.9124 51.8037 65.9576 51.8463 66.0014C51.8683 66.024 52.1115 66.2362 52.1097 66.2399C52.11 66.2393 52.0505 66.1957 52.0865 66.2221C52.0978 66.2305 52.109 66.239 52.1203 66.2474C52.1431 66.264 52.1661 66.2804 52.1893 66.2963C52.2399 66.3311 52.2918 66.3638 52.3442 66.3955C52.4457 66.457 52.5593 66.498 52.6601 66.5587C52.6615 66.5595 52.5733 66.5238 52.6189 66.5413C52.632 66.5463 52.6449 66.5518 52.658 66.5569C52.6842 66.5671 52.7106 66.5769 52.737 66.5863C52.7946 66.6066 52.8528 66.6249 52.9116 66.6411C52.9661 66.6562 53.021 66.6694 53.0763 66.6809C53.104 66.6866 53.1318 66.6919 53.1597 66.6967C53.1737 66.6991 53.1877 66.7012 53.2017 66.7036C53.2704 66.7151 53.1702 66.6981 53.1541 66.6974C53.2711 66.7023 53.3866 66.7194 53.504 66.7191C53.5654 66.719 53.6268 66.7165 53.688 66.7114C53.6963 66.7107 53.7717 66.7078 53.773 66.7027C53.7739 66.6994 53.6512 66.7215 53.7033 66.7117C53.7218 66.7083 53.7405 66.7057 53.759 66.7024C53.8746 66.6814 53.9871 66.6501 54.0984 66.6128C54.1516 66.5949 54.2043 66.5761 54.2568 66.5563C54.3446 66.5231 54.1439 66.6078 54.2288 66.5681C54.2584 66.5542 54.288 66.5407 54.3173 66.5261C54.4218 66.4739 54.5226 66.4143 54.619 66.3483C54.6422 66.3324 54.6648 66.3158 54.6878 66.2995C54.7645 66.2451 54.592 66.3774 54.6646 66.3179C54.7119 66.2793 54.7585 66.2401 54.8035 66.1989C54.8902 66.1194 54.9719 66.0343 55.0479 65.9445C55.0638 65.9257 55.1365 65.8337 55.0751 65.9136C55.0137 65.9936 55.0846 65.9001 55.0989 65.8802C55.14 65.8228 55.179 65.7639 55.2158 65.7036C55.25 65.6473 55.2823 65.5899 55.3125 65.5313C55.3276 65.5021 55.3422 65.4726 55.3563 65.4428C55.3671 65.4198 55.4142 65.3112 55.3734 65.4079C55.3325 65.5046 55.3774 65.3954 55.3863 65.3716C55.3977 65.3409 55.4086 65.31 55.4189 65.2789C55.4395 65.2168 55.4578 65.1539 55.4736 65.0904C55.506 64.9599 55.531 64.8257 55.5499 64.6926L55.5296 64.8436C55.549 64.6942 55.5543 64.5452 55.547 64.3948C55.5338 64.1233 55.7651 63.8924 56.0209 63.858C56.2641 63.8253 56.5786 63.9806 56.6206 64.2495C56.6757 64.6024 56.6863 64.9501 56.6058 65.3009C56.5367 65.6024 56.4137 65.8989 56.2596 66.1666C55.9532 66.6985 55.485 67.1668 54.9357 67.4458C54.3462 67.7452 53.6667 67.8431 53.0222 67.6722C52.4459 67.5194 51.9064 67.1836 51.5113 66.7378C51.063 66.232 50.7746 65.5958 50.7591 64.9146C50.7563 64.79 50.8575 64.6805 50.9785 64.6661C51.0928 64.6525 51.2345 64.7217 51.2562 64.8473Z" fill="black"/>
<path d="M56.6895 64.678C56.5739 64.6356 56.453 64.6156 56.3382 64.5726C56.2186 64.5277 56.0944 64.4973 55.9681 64.4793L56.0886 64.4955C56.0168 64.4861 55.9449 64.4811 55.8725 64.48C55.836 64.4795 55.7997 64.4811 55.7633 64.4817C55.689 64.4829 55.6265 64.4694 55.5599 64.4413C55.4529 64.3961 55.3928 64.3303 55.3247 64.2373C55.2371 64.1175 55.2352 63.8868 55.3247 63.7673C55.3502 63.7332 55.3766 63.694 55.4054 63.6627C55.4762 63.5855 55.5804 63.5441 55.6812 63.5306C55.7303 63.524 55.7624 63.5228 55.8088 63.5284C55.8987 63.5392 55.9891 63.55 56.0776 63.5697C56.2137 63.6002 56.341 63.6506 56.469 63.7053C56.5897 63.757 56.7098 63.8179 56.8096 63.9043C56.9053 63.9871 56.9836 64.1001 57.054 64.2039C57.1261 64.3102 57.1027 64.4667 57.0288 64.5624C56.9553 64.6576 56.8099 64.7222 56.6895 64.678Z" fill="black"/>
<path d="M75.6067 57.1485C74.3985 64.3649 72.7782 71.5014 71.2889 78.6629C69.8983 85.3497 68.6139 92.0751 67.9857 98.8827C67.6321 102.714 67.483 106.565 67.6015 110.412C67.3929 110.253 67.1843 110.094 66.9757 109.935C68.7344 109.523 70.4817 109.054 72.2188 108.56C75.1216 107.733 78.0852 106.871 80.7926 105.515C81.3059 105.258 81.8162 104.982 82.2859 104.65C82.7161 104.346 83.1986 103.883 83.6741 103.534C84.4377 102.973 85.2315 102.455 86 101.902C86.712 101.389 87.4825 100.843 88.0233 100.141C88.0572 100.097 88.0827 100.033 88.124 99.9972C88.3779 99.7777 87.9014 100.042 88.1549 100.106C88.1528 100.105 88.1556 100.062 88.1551 100.059C88.1409 99.9784 88.1563 99.8817 88.1569 99.8C88.1601 99.4086 88.1647 99.0171 88.1702 98.6257C88.1892 97.2669 88.2254 95.9087 88.2746 94.5506C88.4025 91.0221 88.462 87.3624 89.286 83.9119C89.3857 83.4944 90.0719 83.4696 90.1555 83.9119C90.6417 86.485 91.117 89.0492 91.4636 91.6463C91.7504 93.795 92.0088 95.9471 92.0077 98.1183C91.764 98.0173 91.5202 97.9164 91.2765 97.8154C93.1656 96.2101 95.0498 94.6007 96.9183 92.9716C97.3303 92.6124 97.7664 92.2672 98.143 91.8701C98.5596 91.4308 98.5689 90.9503 98.5505 90.373C98.5351 89.8923 98.5154 89.4117 98.4935 88.9313C98.3895 86.6446 98.2334 84.3587 98.0531 82.0769C97.6068 76.4276 97.1828 70.7728 96.4029 65.157C95.5272 58.8508 94.3826 52.589 92.7965 46.4207C91.3151 40.6595 89.5347 34.9195 87.0451 29.5069C85.0412 25.1501 82.5497 20.7884 78.9182 17.5775C78.5459 17.2483 78.1621 16.9308 77.7615 16.6366C77.3355 16.3236 77.749 15.6031 78.1804 15.9199C82.0501 18.762 84.7668 22.9227 86.9021 27.1578C89.5965 32.5019 91.515 38.2298 93.0597 44.0005C94.7251 50.2218 96.0026 56.5611 97.055 62.9132C97.5618 65.9714 98.0254 69.0371 98.4277 72.1109C98.7939 74.9098 99.1635 77.7155 99.3596 80.5321C99.5271 82.937 99.6529 85.3431 99.7018 87.7534C99.7126 88.285 99.7205 88.8167 99.7248 89.3484C99.7299 89.9764 99.7821 90.6387 99.6764 91.2585C99.4845 92.3827 98.4362 93.0038 97.6179 93.6711C96.6555 94.4558 95.689 95.2358 94.7367 96.0327C93.7852 96.8288 92.8337 97.625 91.8822 98.4211C91.6098 98.6491 91.1478 98.5139 91.1511 98.1183C91.1682 96.0165 90.9939 93.8908 90.7302 91.8072C90.4055 89.2415 89.9587 86.6498 89.286 84.1516H90.1555C89.9297 85.5665 89.8355 87.0081 89.7551 88.4375C89.6569 90.1825 89.55 91.9261 89.4838 93.6728C89.4275 95.1559 89.3894 96.6396 89.3541 98.1233C89.3387 98.772 89.3915 99.4579 89.3161 100.103C89.234 100.806 88.4117 101.448 87.9028 101.872C87.1388 102.509 86.3139 103.069 85.4923 103.627C84.7986 104.099 84.0947 104.559 83.4621 105.111C83.069 105.455 82.6432 105.748 82.1897 106.006C80.966 106.702 79.6234 107.198 78.3028 107.675C76.7723 108.228 75.2237 108.725 73.6627 109.184C71.5383 109.809 69.3958 110.387 67.2385 110.888C66.9202 110.962 66.6222 110.741 66.6127 110.411C66.4162 103.582 67.0987 96.7776 68.2225 90.0471C69.3805 83.1114 70.9722 76.2577 72.46 69.388C73.3535 65.2623 74.2104 61.1275 74.9918 56.9789C75.0681 56.5736 75.6737 56.7486 75.6067 57.1485Z" fill="black"/>
<path d="M75.2063 57.2634C75.342 56.7895 75.4777 56.3156 75.6134 55.8418C75.6291 55.7868 75.6449 55.728 75.6276 55.6735C75.5934 55.5651 75.4565 55.5356 75.3433 55.5251C74.4874 55.446 73.6266 55.42 72.7675 55.4473C72.6645 55.4506 72.5539 55.4572 72.4726 55.5207C72.3739 55.5978 72.3482 55.734 72.3311 55.858C72.2974 56.1016 72.2702 56.3461 72.2494 56.5911C72.156 57.6909 73.0426 58.6317 74.1432 58.5482C74.9929 58.4837 75.8461 58.4659 76.6978 58.4951C76.862 58.5007 77.0586 58.4918 77.144 58.3514C77.1855 58.2834 77.1889 58.1997 77.1912 58.12C77.2056 57.619 77.22 57.118 77.2344 56.617C76.5946 56.9176 75.9067 57.1157 75.205 57.2015" fill="black"/>
<path d="M74.8357 57.2634C74.862 56.9679 74.9067 56.6789 74.9576 56.3868C74.9806 56.2549 75.0035 56.1231 75.0265 55.9912C75.038 55.9253 75.0494 55.8593 75.0609 55.7934C75.0619 55.7876 75.0766 55.6944 75.0781 55.6945C75.0649 55.6934 75.0763 55.848 75.066 55.7067C75.0728 55.7569 75.0795 55.8072 75.0863 55.8574C75.109 55.9618 75.2414 56.0964 75.35 56.1077C75.3153 56.1041 75.2787 56.0886 75.2435 56.0832C75.2942 56.09 75.3449 56.0968 75.3956 56.1036C74.9404 56.0498 74.4731 56.0449 74.0152 56.0392C73.7869 56.0363 73.5586 56.0382 73.3303 56.0394C73.1026 56.0405 72.8679 56.0321 72.6414 56.0589L72.8016 56.0374C72.7602 56.0443 72.7225 56.0542 72.6836 56.0702L72.8276 56.0094C72.7878 56.0326 72.7914 56.0277 72.8385 55.9947C72.88 55.9681 72.912 55.9322 72.9344 55.8868C72.9272 55.9117 72.9059 55.9381 72.8956 55.9624C72.9158 55.9144 72.9361 55.8664 72.9563 55.8184C72.9289 55.8959 72.917 55.9756 72.9059 56.0567C72.9131 56.0033 72.9203 55.9499 72.9275 55.8965C72.8799 56.2531 72.8162 56.6243 72.8596 56.9841L72.838 56.8237C72.86 56.9855 72.9017 57.142 72.9633 57.2932C72.9431 57.2451 72.9228 57.1971 72.9025 57.149C72.9475 57.2548 73.0007 57.3566 73.0641 57.4526C73.0786 57.4746 73.0942 57.4957 73.109 57.5175C73.1687 57.6052 73.0095 57.3984 73.0787 57.4786C73.1159 57.5216 73.1525 57.5646 73.1926 57.6051C73.2325 57.6455 73.2742 57.6839 73.3177 57.7203C73.3563 57.7525 73.4359 57.7913 73.2778 57.6906C73.2998 57.7046 73.3203 57.7214 73.342 57.736C73.4369 57.7998 73.5377 57.8533 73.6428 57.8981C73.5947 57.8778 73.5466 57.8575 73.4985 57.8372C73.6403 57.8952 73.787 57.9346 73.9387 57.9558L73.778 57.9342C74.0063 57.9622 74.2323 57.9359 74.4608 57.9216C74.7398 57.9041 75.0192 57.8918 75.2988 57.8844C75.5716 57.8771 75.8446 57.8748 76.1176 57.8772C76.373 57.8795 76.6403 57.913 76.8944 57.8826C76.8408 57.8898 76.7871 57.897 76.7334 57.9042C76.7792 57.8968 76.8218 57.886 76.8646 57.8683C76.8164 57.8886 76.7682 57.909 76.7199 57.9293C76.7444 57.9169 76.8116 57.8696 76.7237 57.9345C76.6929 57.9514 76.6686 57.9751 76.6509 58.0055C76.6155 58.0563 76.6103 58.0597 76.6353 58.0156C76.6149 58.0639 76.5946 58.1121 76.5742 58.1603C76.5864 58.127 76.5937 58.0971 76.5993 58.0621C76.5921 58.1157 76.5849 58.1694 76.5777 58.2231C76.6034 57.9611 76.5962 57.6926 76.6037 57.4294C76.6113 57.1586 76.619 56.8878 76.6267 56.617C76.9309 56.7915 77.2351 56.9661 77.5393 57.1406C77.1661 57.3149 76.7814 57.467 76.3852 57.5802C76.2063 57.6312 76.0253 57.6749 75.8428 57.7108C75.7576 57.7276 75.6721 57.7428 75.5863 57.7562C75.4358 57.7797 75.3406 57.7925 75.1909 57.7636C75.1461 57.755 75.1016 57.7438 75.0572 57.7334C74.6054 57.6273 74.5073 56.9425 74.9254 56.7251C75.0283 56.6716 75.1297 56.6097 75.2451 56.5879C75.3242 56.5729 75.4042 56.562 75.4834 56.5469C75.6357 56.5179 75.787 56.4836 75.9369 56.444C76.2429 56.3634 76.5422 56.2604 76.8341 56.1381C76.7858 56.1585 76.7375 56.1789 76.6892 56.1993C76.7691 56.1653 76.8483 56.13 76.927 56.0933C77.1287 55.9993 77.3387 55.9759 77.5393 56.0933C77.7196 56.1988 77.8458 56.4051 77.8396 56.617C77.8313 56.9013 77.823 57.1857 77.8148 57.47C77.8108 57.6054 77.8069 57.7409 77.8029 57.8763C77.7977 58.054 77.806 58.2445 77.7622 58.4179C77.6504 58.86 77.2638 59.0706 76.8378 59.0994C76.5804 59.1169 76.3158 59.089 76.0576 59.0872C75.5051 59.0833 74.9524 59.0991 74.4009 59.1345C74.1313 59.1518 73.886 59.1595 73.6174 59.1211C73.386 59.0881 73.1716 59.009 72.9605 58.909C72.125 58.513 71.5908 57.5644 71.641 56.6483C71.6562 56.3702 71.6954 56.0921 71.7325 55.8163C71.756 55.6409 71.7835 55.5044 71.8602 55.3407C71.9601 55.1274 72.149 54.9902 72.3631 54.9078C72.5018 54.8545 72.6589 54.8479 72.8066 54.8435C72.9542 54.839 73.102 54.8364 73.2497 54.8352C73.5319 54.8328 73.8138 54.8412 74.0957 54.8548C74.4112 54.8699 74.7264 54.8922 75.041 54.9217C75.4346 54.9585 75.8876 54.9716 76.1072 55.3631C76.323 55.7479 76.0811 56.1496 75.9346 56.511C75.8058 56.8287 75.6793 57.1439 75.5241 57.4498C75.4534 57.5891 75.2547 57.6674 75.1069 57.6196C74.9614 57.5725 74.821 57.4282 74.8357 57.2634Z" fill="black"/>
<path d="M75.1414 46.3589C75.0024 46.2018 74.8599 46.0484 74.7352 45.8799C74.6192 45.7232 74.499 45.5695 74.3837 45.4121C74.1638 45.1122 73.9809 44.7775 73.7844 44.4618C73.3849 43.8201 73.0048 43.1682 72.6323 42.5105C71.8892 41.1984 71.1787 39.8669 70.5373 38.5018C69.8798 37.1026 69.288 35.6698 68.8204 34.1955C68.3525 32.7203 68.0094 31.2123 67.804 29.6783C67.7049 28.9377 67.6408 28.1925 67.6198 27.4455C67.6094 27.0751 67.6113 26.7061 67.6302 26.336C67.6514 25.921 67.6719 25.4985 67.7543 25.0907C67.7723 25.0019 67.7854 24.909 67.8118 24.8223C67.8467 24.7078 67.9094 24.5992 67.9643 24.493C68.1526 24.1295 68.7374 24.2195 68.8339 24.6067C68.8673 24.741 68.9012 24.8698 68.9066 25.0098C68.9107 25.1151 68.9094 25.2208 68.9121 25.3262C68.9173 25.5238 68.8988 25.7224 68.893 25.9201C68.8808 26.3358 68.8835 26.7523 68.8898 27.1682C68.9023 27.9947 68.968 28.8197 69.0774 29.6389C69.0698 29.5823 69.0622 29.5256 69.0546 29.469C69.3244 31.4621 69.8615 33.4011 70.553 35.2869C70.7501 35.8245 70.9617 36.3567 71.1842 36.8843C71.1629 36.8339 71.1416 36.7834 71.1203 36.733C71.6403 37.9624 72.2215 39.1649 72.84 40.3475C73.4628 41.5383 74.1338 42.702 74.7798 43.88C74.9587 44.2063 75.1625 44.5279 75.3193 44.8653C75.3986 45.0358 75.4742 45.2082 75.5517 45.3795C75.641 45.5768 75.7105 45.7809 75.7843 45.9847C75.9143 46.3441 75.3903 46.6405 75.1414 46.3589Z" fill="black"/>
<path d="M69.4377 20.5901C69.2125 20.7337 68.9869 20.879 68.7811 21.0496C68.5791 21.2171 68.3823 21.3908 68.1909 21.5703C67.8006 21.9364 67.4436 22.3299 67.0917 22.7323C66.9207 22.9278 66.7556 23.1283 66.5961 23.3333C66.6432 23.2727 66.5782 23.3569 66.5737 23.3627C66.5543 23.3883 66.5349 23.414 66.5156 23.4397C66.477 23.4911 66.4388 23.5428 66.401 23.5949C66.3189 23.7077 66.2386 23.8218 66.1602 23.9371C65.864 24.3728 65.578 24.8186 65.3213 25.2789C65.1794 25.5332 65.0459 25.7924 64.9214 26.0557C64.7805 26.3535 64.6578 26.8271 64.2964 26.9125C64.1379 26.95 63.9762 26.887 63.8906 26.7474C63.6921 26.4237 63.9409 26.0167 64.0889 25.7185C64.2087 25.4772 64.336 25.2397 64.4706 25.0064C64.7524 24.5176 65.0631 24.047 65.4156 23.6063C66.1017 22.7483 66.889 21.9952 67.7754 21.3466C68.0174 21.1696 68.2655 21.001 68.5191 20.8413C68.7788 20.6778 69.0333 20.5064 69.2946 20.3454C69.4507 20.2493 69.591 20.4924 69.4377 20.5901Z" fill="black"/>
<path d="M65.5314 19.5264C64.4818 20.1872 63.5169 20.9677 62.6278 21.8316C62.181 22.2657 61.758 22.7244 61.3613 23.2049C60.9981 23.6449 60.6585 24.1504 60.3433 24.6659C60.1624 24.9617 59.9892 25.263 59.8221 25.5668C59.7383 25.7191 59.6569 25.8728 59.5779 26.0277C59.5384 26.1052 59.4994 26.183 59.4611 26.2612C59.4452 26.2937 59.4293 26.3264 59.4135 26.359C59.4 26.3871 59.324 26.5661 59.3826 26.4176C59.2826 26.6711 59.0973 26.8362 58.8169 26.8482C58.7757 26.85 58.7306 26.8572 58.6894 26.8538L58.6639 26.8549C58.7912 26.8316 58.7571 26.8347 58.5619 26.8644C58.4525 26.8644 58.321 26.8299 58.2104 26.8127C58.0394 26.7861 57.8684 26.7603 57.6973 26.7354C57.5346 26.7118 57.3719 26.6891 57.2091 26.6667C57.1759 26.6622 57.0786 26.6471 57.232 26.6698C57.1894 26.6635 57.1466 26.6585 57.1039 26.6529C57.0099 26.6407 56.9159 26.6287 56.8218 26.617C56.1623 26.5347 55.503 26.4515 54.8417 26.3849C53.5101 26.2508 52.1735 26.1677 50.8356 26.1354C48.179 26.0713 45.5136 26.2073 42.8757 26.5273C42.6873 26.5502 42.4991 26.5743 42.3109 26.599C42.1873 26.6152 42.3101 26.5988 42.3315 26.5961C42.28 26.6026 42.2287 26.6101 42.1774 26.6172C42.0747 26.6314 41.972 26.6459 41.8694 26.6607C41.4702 26.7184 41.0723 26.7829 40.6728 26.838C40.8211 26.8176 40.7004 26.8344 40.6632 26.8395C40.6031 26.8477 40.543 26.8561 40.4829 26.8646C40.397 26.8766 40.3112 26.8889 40.2254 26.9014C40.0368 26.9289 39.8483 26.9575 39.6599 26.987C39.4405 27.0215 39.2157 27.0605 38.9927 27.0592C38.8065 27.0582 38.6218 27.0468 38.4351 27.0487C38.2579 27.0505 38.0705 26.9176 38.0301 26.7403C37.992 26.5732 38.0504 26.3418 38.2231 26.2659C38.5559 26.1198 38.8454 25.9529 39.2409 25.8557C39.5586 25.7776 39.8789 25.7087 40.1987 25.6398C40.8563 25.4981 41.5217 25.3962 42.1873 25.3003C43.5622 25.1022 44.944 24.9472 46.3306 24.8624C49.0109 24.6985 51.7035 24.7387 54.3776 24.9839C55.168 25.0564 55.9598 25.1395 56.745 25.2567C57.1201 25.3128 57.4946 25.3725 57.8684 25.4365C58.0554 25.4685 58.2422 25.5015 58.4288 25.5356C58.5135 25.551 58.599 25.5645 58.6831 25.5827C58.731 25.593 58.9737 25.703 58.8588 25.6467C58.7805 25.6083 58.9557 25.6888 58.9729 25.696C58.752 25.7858 58.5312 25.8757 58.3104 25.9655C58.4865 25.7006 58.6399 25.4202 58.8146 25.1539C58.9901 24.8866 59.1738 24.6257 59.3682 24.3718C59.7713 23.8454 60.2068 23.3535 60.6511 22.8622C61.5073 21.9153 62.468 21.0611 63.5223 20.3405C64.1133 19.9366 64.7302 19.5718 65.3679 19.2467C65.5532 19.1522 65.7087 19.4147 65.5314 19.5264Z" fill="black"/>
<path d="M74.988 14.7613C72.3224 12.9112 69.3016 11.6354 66.1389 10.9258C62.9795 10.217 59.699 10.0731 56.4689 10.4865C56.3521 10.5014 56.5492 10.4752 56.4327 10.4912C56.386 10.4976 56.3393 10.5041 56.2926 10.5108C56.1877 10.5258 56.0828 10.5415 55.9781 10.5577C55.7803 10.5884 55.5828 10.6214 55.3858 10.6566C54.9921 10.7269 54.6 10.8061 54.2098 10.8941C53.42 11.0721 52.6383 11.286 51.8679 11.5349C50.3327 12.0309 49.0275 12.5859 47.6009 13.3564C46.9113 13.729 46.2387 14.1332 45.5867 14.5682C45.2625 14.7844 44.9435 15.0085 44.63 15.2399C44.5564 15.2942 44.4831 15.349 44.4102 15.4042C44.3737 15.4318 44.3374 15.4595 44.3011 15.4872C44.2894 15.4961 44.1987 15.5668 44.2778 15.5051C44.116 15.6313 43.9557 15.7593 43.7972 15.8895C42.5374 16.9242 41.3976 18.098 40.3311 19.3289C38.1681 21.8255 36.3021 24.5665 34.0869 27.0191C33.8089 27.3269 33.5255 27.63 33.2402 27.9311L33.3908 27.3613C33.7234 28.4052 34.218 29.3735 34.883 30.3046C35.5079 31.1796 36.349 31.9997 37.2167 32.7167C37.71 33.1243 38.2568 33.494 38.8234 33.8215C39.048 33.9514 39.1265 34.256 38.9959 34.4793C38.8568 34.7171 38.572 34.7665 38.3381 34.6518C36.106 33.5573 34.2551 31.7773 33.0776 29.5843C32.7498 28.9738 32.4765 28.3313 32.2615 27.6726C32.1958 27.4715 32.2734 27.2514 32.4121 27.1029C34.7179 24.6345 36.5132 21.8214 38.6527 19.1905C39.7178 17.8808 40.8494 16.6254 42.1176 15.5081C43.3286 14.4412 44.6461 13.4904 46.0387 12.6749C48.8453 11.0315 51.9686 9.90301 55.1753 9.36418C58.5181 8.80248 61.9514 8.88687 65.2573 9.64284C68.4757 10.3788 71.5732 11.704 74.3078 13.5565C74.6391 13.7809 74.9644 14.014 75.2843 14.2543C75.5797 14.4761 75.3032 14.98 74.988 14.7613Z" fill="black"/>
<path d="M69.6978 83.5801C69.5509 83.8462 69.416 84.1199 69.2398 84.3681C69.0579 84.6245 68.8688 84.8771 68.6707 85.1212C68.2847 85.5969 67.85 86.0383 67.4214 86.4751C66.5805 87.3322 65.7224 88.1736 64.8625 89.0116C64.0079 89.8444 63.104 90.6339 62.1945 91.406C61.2602 92.1991 60.2932 92.9521 59.2884 93.6541C58.7472 94.0322 58.1952 94.3947 57.6311 94.7378C57.3439 94.9125 57.0535 95.0821 56.76 95.2461C56.4355 95.4274 56.1129 95.6091 55.7646 95.7406C55.5196 95.833 55.2371 95.6574 55.1436 95.4358C55.039 95.1879 55.1375 94.9242 55.359 94.7786C55.6101 94.6135 55.8829 94.4838 56.1459 94.3383C56.4086 94.193 56.6689 94.0432 56.9266 93.8893C57.4315 93.5877 57.9269 93.2704 58.4134 92.9401C58.9004 92.6094 59.3786 92.2658 59.8491 91.912C59.9645 91.8252 60.0794 91.7378 60.1939 91.6499C60.2172 91.6319 60.3193 91.5572 60.1986 91.6464C60.2277 91.6249 60.2558 91.6021 60.2843 91.5799C60.3413 91.5356 60.3981 91.4909 60.4551 91.4465C60.5104 91.4033 60.5662 91.3606 60.6219 91.3178C60.7224 91.2407 60.5268 91.3918 60.627 91.3139C60.6842 91.2694 60.7414 91.2251 60.7984 91.1804C60.922 91.0838 61.0452 90.9865 61.1679 90.8887C62.0945 90.1501 62.9959 89.3805 63.8854 88.5978C64.7784 87.812 65.6986 87.0562 66.5963 86.2754C67.1062 85.8318 67.6104 85.3807 68.0908 84.905C68.334 84.6643 68.5819 84.4282 68.8184 84.1807C69.0532 83.9351 69.3054 83.7056 69.5309 83.4513C69.6129 83.3588 69.7548 83.477 69.6978 83.5801Z" fill="black"/>
<path d="M53.5389 86.6571C53.6085 86.9334 53.6782 87.2119 53.7649 87.4835C53.8483 87.7449 53.9508 88.0018 54.0512 88.257C54.1038 88.3909 54.1579 88.5242 54.2132 88.657C54.2224 88.6792 54.2317 88.7013 54.241 88.7234C54.2152 88.6623 54.2605 88.7686 54.2607 88.7692C54.3011 88.8643 54.339 88.9603 54.378 89.0559C54.4005 89.1114 54.4235 89.1667 54.4464 89.222C54.4919 89.3317 54.4162 89.152 54.4623 89.2599C54.4762 89.2924 54.4901 89.325 54.5041 89.3575C54.5602 89.4876 54.6177 89.6172 54.6764 89.7462C54.9074 90.2531 55.164 90.7478 55.4154 91.2447C55.668 91.7439 55.9404 92.2331 56.232 92.7105C56.3934 92.9749 56.556 93.2387 56.7251 93.4982C56.8096 93.628 56.8956 93.7568 56.9831 93.8847C57.1191 94.0837 57.2884 94.2655 57.2851 94.5225C57.2808 94.8574 56.937 95.1673 56.5943 95.0487C56.4873 95.0117 56.3998 94.9757 56.3181 94.894C56.2702 94.8461 56.2286 94.7783 56.1889 94.7205C56.1484 94.6616 56.1083 94.6025 56.0684 94.5433C55.9887 94.4247 55.9102 94.3053 55.8329 94.1851C55.6785 93.9449 55.5263 93.7022 55.3847 93.4542C55.107 92.9677 54.8521 92.4675 54.6159 91.9597C54.1292 90.9132 53.7505 89.7951 53.5119 88.6651C53.4453 88.3494 53.3858 88.0321 53.3337 87.7136C53.2816 87.3954 53.2112 87.0802 53.1582 86.762C53.1407 86.657 53.1858 86.5495 53.2961 86.5192C53.3974 86.4914 53.5127 86.5533 53.5389 86.6571Z" fill="black"/>
<path d="M65.4325 55.5586C65.3939 55.5521 65.3554 55.5456 65.3169 55.5391L65.2419 55.5074C65.2053 55.4877 65.176 55.4608 65.1539 55.4266C65.1344 55.407 65.121 55.384 65.1135 55.3574C65.0939 55.32 65.0849 55.2797 65.0865 55.2365C65.0902 55.2087 65.094 55.1809 65.0977 55.1531C65.1082 55.1281 65.1188 55.1031 65.1293 55.0781C65.149 55.0416 65.176 55.0122 65.2101 54.9901C65.2405 54.9624 65.276 54.9436 65.3169 54.9339C65.3554 54.9274 65.3939 54.9209 65.4325 54.9144C65.4917 54.8985 65.5509 54.8985 65.6101 54.9144C65.6666 54.9303 65.7158 54.9589 65.7574 55.0003L65.8097 55.0679C65.8399 55.12 65.8551 55.1762 65.8553 55.2365C65.857 55.2825 65.8474 55.3254 65.8265 55.3652C65.813 55.4066 65.79 55.4424 65.7574 55.4727C65.7158 55.5141 65.6666 55.5427 65.61 55.5586C65.5508 55.5745 65.4917 55.5745 65.4325 55.5586Z" fill="black"/>
<path d="M63.71 54.6483C63.5114 54.6483 63.3212 54.4737 63.3304 54.2687C63.3396 54.0631 63.4972 53.8892 63.71 53.8892C63.9085 53.8892 64.0987 54.0638 64.0895 54.2687C64.0803 54.4744 63.9227 54.6483 63.71 54.6483Z" fill="black"/>
<path d="M63.7065 57.1029C63.5478 57.1029 63.4129 56.968 63.4129 56.8093C63.4129 56.6501 63.5473 56.5158 63.7065 56.5158C63.8651 56.5158 64 56.6507 64 56.8093C64 56.9685 63.8657 57.1029 63.7065 57.1029Z" fill="black"/>
<path d="M61.652 55.7873C61.4905 55.7873 61.3358 55.6453 61.3433 55.4786C61.3507 55.3113 61.4789 55.1699 61.652 55.1699C61.8134 55.1699 61.9682 55.3119 61.9607 55.4786C61.9532 55.6458 61.825 55.7873 61.652 55.7873Z" fill="black"/>
<path d="M42.1726 56.0388C41.9186 56.0388 41.9182 55.6441 42.1726 55.6441C42.4266 55.6441 42.427 56.0388 42.1726 56.0388Z" fill="black"/>
<path d="M40.2404 54.7388C40.0577 54.7388 39.8827 54.5782 39.8912 54.3896C39.8996 54.2004 40.0446 54.0404 40.2404 54.0404C40.423 54.0404 40.598 54.201 40.5895 54.3896C40.5811 54.5788 40.4361 54.7388 40.2404 54.7388Z" fill="black"/>
<path d="M40.6003 57.0372C40.3072 57.0372 40.3068 56.5817 40.6003 56.5817C40.8934 56.5817 40.8939 57.0372 40.6003 57.0372Z" fill="black"/>
<path d="M43.1401 57.8091C42.9336 57.8091 42.7358 57.6275 42.7453 57.4143C42.7549 57.2005 42.9188 57.0196 43.1401 57.0196C43.3466 57.0196 43.5444 57.2012 43.5348 57.4143C43.5252 57.6282 43.3614 57.8091 43.1401 57.8091Z" fill="black"/>
<path d="M67.0778 97.5C67.002 97.6015 66.9228 97.7014 66.8514 97.8061C66.7804 97.9101 66.7252 98.0253 66.6621 98.1344C66.6009 98.2403 66.5137 98.3336 66.4364 98.4291C66.3548 98.5299 66.2727 98.6303 66.1898 98.7301C65.8677 99.1179 65.5345 99.4969 65.18 99.8555C64.478 100.566 63.6377 101.193 62.7208 101.596C62.2484 101.804 61.7692 101.961 61.2579 102.039C60.754 102.116 60.2485 102.145 59.7416 102.079C59.2053 102.01 58.6996 101.87 58.2142 101.627C57.7798 101.41 57.3803 101.108 57.0378 100.764C56.2836 100.008 55.7537 99.0628 55.2485 98.1319C55.573 98.0895 55.8975 98.0471 56.2221 98.0047C55.8683 98.8919 55.3522 99.7031 54.6693 100.375C53.9821 101.051 53.0999 101.665 52.1279 101.812C51.6517 101.885 51.1611 101.865 50.7058 101.696C50.3025 101.546 49.9452 101.323 49.6284 101.031C49.0189 100.47 48.6173 99.7211 48.3075 98.9634C48.1478 98.5732 48.0269 98.1681 47.9144 97.7621C47.7793 97.2745 47.6627 96.7816 47.5646 96.2852C47.5155 96.0367 47.471 95.7874 47.4312 95.5373C47.4113 95.4122 47.3925 95.2869 47.375 95.1614C47.3626 95.0734 47.3508 94.9854 47.3391 94.8973C47.3358 94.8722 47.3326 94.8472 47.3293 94.8222C47.3417 94.9175 47.3269 94.8054 47.3241 94.7849C47.2503 94.2522 47.1925 93.7177 47.1579 93.1808C47.0924 92.1649 47.1025 91.1441 47.1893 90.1298C47.2697 89.1896 47.402 88.2465 47.6311 87.3302C47.8358 86.5117 48.1231 85.706 48.5239 84.9621C48.9236 84.2205 49.4542 83.5122 50.1379 83.0114C50.2995 82.8931 50.4693 82.7904 50.6386 82.684C50.8227 82.5683 51.1041 82.6391 51.2064 82.8329C51.3144 83.0372 51.254 83.2772 51.0575 83.4007C51.015 83.4275 50.9742 83.458 50.9335 83.4875C50.9172 83.4993 50.9009 83.5112 50.8847 83.5232C50.8799 83.5269 50.8003 83.5869 50.8559 83.5445C50.9113 83.5023 50.8335 83.5626 50.8286 83.5665C50.8074 83.5831 50.7418 83.6526 50.718 83.6522C50.7603 83.653 50.7792 83.6067 50.7263 83.6527C50.7039 83.6722 50.6816 83.6918 50.6596 83.7117C50.5167 83.8405 50.3742 83.9715 50.2394 84.1089C50.108 84.2429 49.9835 84.3837 49.8661 84.5302C49.8507 84.5496 49.8354 84.5691 49.8201 84.5885C49.7795 84.6397 49.8867 84.4998 49.8268 84.5804C49.8002 84.6162 49.7735 84.652 49.7474 84.6883C49.6892 84.7691 49.633 84.8512 49.5787 84.9347C49.367 85.2595 49.1838 85.6025 49.0247 85.956C49.0038 86.0024 48.9836 86.0491 48.9632 86.0957C48.953 86.1191 48.9242 86.1663 48.9722 86.0741C48.9606 86.0964 48.9526 86.1215 48.9431 86.1448C48.9044 86.2396 48.8674 86.3349 48.8318 86.4309C48.7622 86.6187 48.6983 86.8085 48.6394 87C48.5232 87.378 48.4269 87.762 48.3465 88.1491C48.3058 88.3456 48.2692 88.543 48.2362 88.741C48.2175 88.8532 48.1998 88.9656 48.183 89.0782C48.1737 89.1407 48.1647 89.2033 48.1559 89.2659C48.1525 89.2909 48.1489 89.3159 48.1456 89.341C48.1592 89.2365 48.1429 89.3632 48.1414 89.3754C48.0178 90.3414 47.9645 91.3163 47.9806 92.2901C47.9888 92.7832 48.0148 93.276 48.0586 93.7672C48.0799 94.0065 48.1054 94.2454 48.1352 94.4838C48.1398 94.5215 48.1448 94.5591 48.1496 94.5967C48.1517 94.6135 48.1609 94.6804 48.1494 94.5964C48.1571 94.6528 48.1658 94.7089 48.1749 94.7651C48.1961 94.8959 48.2185 95.0266 48.2422 95.1571C48.4164 96.1146 48.6586 97.0604 48.9697 97.9826C49.0274 98.1536 49.0895 98.3232 49.157 98.4906C49.175 98.5353 49.1936 98.5799 49.2121 98.6244C49.2242 98.6536 49.2543 98.6982 49.197 98.5884C49.208 98.6096 49.2162 98.633 49.2258 98.655C49.2648 98.7437 49.3053 98.8318 49.3477 98.919C49.5093 99.2517 49.6975 99.5704 49.9186 99.8672C49.9784 99.9475 49.8582 99.7916 49.9007 99.8442C49.9154 99.8623 49.9298 99.8807 49.9446 99.8987C49.971 99.9311 49.9979 99.9631 50.0254 99.9946C50.0856 100.064 50.1483 100.131 50.2136 100.196C50.2747 100.256 50.3381 100.315 50.4038 100.37C50.431 100.393 50.4613 100.414 50.4871 100.438C50.3808 100.338 50.4376 100.401 50.4697 100.424C50.4912 100.44 50.513 100.456 50.5349 100.471C50.6004 100.516 50.668 100.558 50.7374 100.598C50.7758 100.619 50.8149 100.64 50.8544 100.66C50.8956 100.68 51.0355 100.731 50.8777 100.674C51.0441 100.734 51.2064 100.79 51.3818 100.819C51.4278 100.826 51.4782 100.814 51.3418 100.814C51.3615 100.814 51.3855 100.819 51.4043 100.821C51.462 100.827 51.5199 100.83 51.5778 100.831C51.6085 100.831 51.9224 100.828 51.9226 100.811C51.9227 100.809 51.7885 100.833 51.8884 100.815C51.9111 100.81 51.9338 100.807 51.9564 100.802C52.0131 100.791 52.0695 100.778 52.1254 100.764C52.238 100.735 52.3488 100.699 52.4574 100.657C52.466 100.654 52.5135 100.641 52.5227 100.631L52.4639 100.656C52.4855 100.647 52.507 100.638 52.5283 100.628C52.5712 100.609 52.6136 100.589 52.6558 100.568C52.7614 100.515 52.8646 100.458 52.9655 100.397C53.0662 100.336 53.1646 100.271 53.2607 100.203C53.2988 100.176 53.3367 100.148 53.3741 100.12C53.385 100.112 53.4744 100.056 53.3997 100.101C53.3247 100.147 53.4359 100.072 53.45 100.061C53.7735 99.7983 54.0702 99.5027 54.3351 99.1814C54.37 99.1391 54.4029 99.0951 54.4381 99.0531C54.3373 99.1733 54.4427 99.0459 54.4648 99.0159C54.5331 98.9232 54.5987 98.8286 54.6618 98.7323C54.7758 98.558 54.8811 98.378 54.9771 98.1932C55.0226 98.1056 55.066 98.017 55.1072 97.9273C55.1294 97.8791 55.1469 97.8226 55.1739 97.777C55.1123 97.8814 55.1442 97.8487 55.1582 97.8131C55.1703 97.7825 55.1828 97.7521 55.1948 97.7215C55.2745 97.5185 55.4104 97.3705 55.6376 97.3399C55.8422 97.3124 56.0655 97.4071 56.1684 97.5942C56.3853 97.9891 56.6044 98.3831 56.8445 98.7645C56.9614 98.9504 57.0833 99.1333 57.2123 99.3112C57.2435 99.3543 57.2752 99.3972 57.3073 99.4397C57.3292 99.4685 57.3832 99.5325 57.291 99.4191C57.3044 99.4356 57.3172 99.4525 57.3303 99.4691C57.4026 99.5601 57.4771 99.6493 57.554 99.7363C57.7 99.9013 57.8556 100.057 58.0202 100.203C58.098 100.272 58.1839 100.334 58.2598 100.405C58.1394 100.293 58.265 100.407 58.3019 100.433C58.3533 100.47 58.4055 100.505 58.4585 100.539C58.544 100.594 58.6315 100.646 58.7211 100.694C58.7695 100.72 58.8186 100.745 58.8681 100.769C58.8928 100.781 58.9176 100.793 58.9426 100.804C58.9625 100.813 58.9824 100.822 59.0025 100.831L58.9368 100.803C58.9858 100.809 59.0423 100.845 59.0895 100.862C59.1407 100.881 59.1923 100.899 59.2442 100.915C59.3582 100.951 59.4738 100.982 59.5906 101.008C59.6926 101.031 59.8144 101.032 59.9116 101.067C59.8012 101.027 59.8365 101.057 59.8878 101.064C59.9149 101.067 59.9421 101.07 59.9693 101.072C60.0347 101.079 60.1002 101.084 60.1658 101.088C60.3913 101.101 60.6177 101.097 60.8428 101.079C60.8981 101.075 60.9532 101.07 61.0083 101.064C61.024 101.062 61.0795 101.047 61.091 101.054C61.0672 101.039 60.9849 101.069 61.0564 101.058C61.1779 101.04 61.2989 101.019 61.4192 100.994C61.6489 100.946 61.8782 100.887 62.1028 100.819C62.2097 100.786 62.3158 100.751 62.4209 100.713C62.4733 100.694 62.5254 100.674 62.5773 100.654C62.598 100.646 62.6186 100.637 62.6393 100.629C62.6599 100.621 62.6804 100.612 62.7009 100.604C62.6486 100.626 62.638 100.63 62.6691 100.617C62.8822 100.521 63.0915 100.42 63.2957 100.306C63.5086 100.188 63.7161 100.059 63.9182 99.9231C64.0142 99.8584 64.109 99.792 64.2027 99.724C64.2495 99.69 64.296 99.6556 64.3422 99.6208C64.3607 99.6069 64.3791 99.5928 64.3976 99.5789C64.4319 99.5526 64.4344 99.5508 64.4049 99.5735C64.4235 99.5593 64.4418 99.5448 64.4598 99.5299C64.6781 99.3588 64.856 99.2267 65.0935 99.0263C65.2999 98.8521 65.5018 98.6727 65.7007 98.4899C65.8995 98.3072 66.0905 98.1161 66.289 97.9333C66.3929 97.8375 66.5222 97.7713 66.6331 97.6834C66.7427 97.5965 66.8411 97.4917 66.9427 97.3958C67.0103 97.3319 67.1387 97.4186 67.0778 97.5Z" fill="black"/>
<path d="M30.8959 108.505C32.0618 106.498 33.3207 104.543 34.7106 102.684C38.2475 97.9551 42.64 93.8706 47.6032 90.6706C47.4507 93.1792 47.7474 95.715 48.5135 98.1091C48.9772 99.5572 49.8616 101.156 51.3723 101.329C52.1836 101.422 52.9848 101.058 53.6402 100.571C54.5644 99.8842 55.2906 98.9347 55.7113 97.863C56.3927 99.1118 57.1376 100.425 58.3825 101.114C59.865 101.933 61.7597 101.654 63.2416 100.833C64.7232 100.011 65.8796 98.7218 67.0063 97.4566C67.724 97.3684 66.7447 97.7466 67.4476 97.5977C66.8358 102.5 66.9551 105.347 67.111 110.412C67.111 110.412 80.257 107.347 83.0753 104.721C84.3636 103.52 87.9002 101.655 88.7393 100.107C88.7393 100.107 88.7827 94.9116 89.0762 90.1414C89.7439 90.6089 90.002 90.7892 90.6672 91.2602C91.0031 93.7957 91.595 96.4043 91.5832 98.1183C92.9016 97.0068 94.2197 95.895 95.538 94.7835C102.839 100.214 109.671 106.153 114.866 113.804C121.677 123.835 125.785 135.504 128.027 148.325L20.6217 148.505C20.4651 133.924 24.0558 120.282 30.8959 108.505ZM66.9095 98.1382L66.8124 98.8227C66.8909 98.8148 66.9 98.476 66.9095 98.1382ZM55.1357 136.287C55.5073 137.576 56.9857 138.494 58.2652 138.089C59.5446 137.684 60.1937 135.886 59.3457 134.846C58.9696 134.385 58.2804 134.123 57.7619 134.415L56.1282 133.983C55.2306 134.23 54.8779 135.392 55.1357 136.287ZM54.516 125.26C54.8877 126.549 56.3661 127.467 57.6456 127.062C58.925 126.658 59.5741 124.859 58.7257 123.819C58.35 123.358 57.6604 123.096 57.1423 123.388L55.5086 122.956C54.6109 123.203 54.2582 124.365 54.516 125.26ZM53.8964 114.233C54.268 115.522 55.7465 116.44 57.0259 116.035C58.3054 115.631 58.9541 113.832 58.1061 112.792C57.7303 112.331 57.0408 112.069 56.5227 112.361L54.889 111.929C53.9913 112.176 53.6383 113.338 53.8964 114.233Z" fill="black"/>
<path d="M30.4712 108.26C33.7671 102.604 37.8813 97.5211 42.9925 93.4048C44.3907 92.2787 45.8459 91.2267 47.3528 90.2511C47.6536 90.0563 48.1041 90.3089 48.0838 90.6706C47.9952 92.2554 48.0653 93.8469 48.3423 95.4113C48.5764 96.7338 48.8856 98.1453 49.5522 99.3257C50.161 100.404 51.1522 101.175 52.4304 100.699C53.7154 100.221 54.7315 98.9712 55.2377 97.7339C55.3847 97.3746 55.9061 97.2163 56.1257 97.6178C56.7537 98.7664 57.4316 100.041 58.6226 100.694C59.9531 101.424 61.6281 101.143 62.9139 100.455C64.2172 99.7564 65.2533 98.6742 66.2331 97.5877C66.5576 97.2278 66.9665 96.7193 67.5115 97.0397C67.6939 97.1469 67.7856 97.3451 67.7555 97.5516C67.7408 97.6526 67.701 97.7242 67.6456 97.8054C67.4931 98.0289 67.6585 97.7852 67.6608 97.6232C67.5419 97.467 67.423 97.3109 67.3041 97.1547C67.2195 97.1498 67.2226 97.1413 67.3133 97.1292C67.5861 97.0764 67.97 97.2591 67.9282 97.5977C67.4005 101.873 67.4591 106.115 67.5917 110.412C67.3867 110.255 67.1817 110.099 66.9767 109.943C70.4078 109.142 73.8257 108.194 77.1529 107.035C78.232 106.659 79.306 106.259 80.3458 105.783C81.1168 105.431 81.9285 105.049 82.5847 104.503C83.5619 103.689 84.5971 102.982 85.6401 102.254C86.2391 101.837 86.8363 101.411 87.3824 100.924C87.6114 100.721 87.8384 100.507 88.0341 100.271C88.086 100.208 88.172 100.02 88.2409 99.9868C88.3527 99.9339 88.2419 100.189 88.2488 100.061C88.3094 98.9369 88.2835 97.8019 88.3128 96.6764C88.3695 94.4968 88.453 92.3177 88.5852 90.1414C88.6057 89.8044 88.9933 89.4958 89.3163 89.7219C89.6206 89.9349 89.925 90.1478 90.2288 90.3615C90.4906 90.5457 90.9154 90.7419 91.0816 91.0149C91.2556 91.3008 91.224 91.8029 91.2745 92.1334C91.3454 92.5977 91.4216 93.0611 91.4983 93.5244C91.749 95.0389 92.0604 96.5776 92.064 98.1183C91.7875 98.0038 91.511 97.8893 91.2346 97.7747C92.5529 96.6632 93.871 95.5514 95.1893 94.4399C95.3401 94.3128 95.5983 94.2301 95.7781 94.364C102.527 99.3895 108.962 104.929 113.985 111.731C118.918 118.411 122.506 126.066 125.032 133.954C126.524 138.612 127.645 143.38 128.491 148.195C128.545 148.502 128.362 148.81 128.022 148.81C127.059 148.812 126.096 148.814 125.134 148.815C122.536 148.82 119.939 148.824 117.342 148.828C113.476 148.835 109.611 148.841 105.745 148.848C101.061 148.856 96.3771 148.863 91.6931 148.871C86.5278 148.88 81.3626 148.889 76.1974 148.897C71.0188 148.906 65.8403 148.915 60.6617 148.923C55.8002 148.932 50.9386 148.94 46.0771 148.948C41.9963 148.955 37.9155 148.962 33.8348 148.968C30.8801 148.973 27.9255 148.978 24.9709 148.983C23.5812 148.986 22.1885 149.015 20.7989 148.99C20.7382 148.989 20.6773 148.991 20.6165 148.991C20.352 148.991 20.1332 148.768 20.1307 148.505C20.025 137.497 22.0645 126.51 26.398 116.377C27.5895 113.591 28.9527 110.882 30.4712 108.26C30.7845 107.719 31.6246 108.208 31.3103 108.751C25.9293 118.041 22.6252 128.447 21.5281 139.122C21.2078 142.239 21.0723 145.372 21.1024 148.505L20.6166 148.019C21.5794 148.017 22.5423 148.016 23.5052 148.014C26.1024 148.01 28.6995 148.005 31.2966 148.001C35.1623 147.995 39.028 147.988 42.8937 147.982C47.5777 147.974 52.2617 147.966 56.9457 147.958C62.1109 147.949 67.2762 147.941 72.4414 147.932C77.6199 147.923 82.7985 147.915 87.977 147.906C92.8386 147.898 97.7001 147.89 102.562 147.881C106.642 147.875 110.723 147.868 114.804 147.861C117.759 147.856 120.713 147.851 123.668 147.846C125.044 147.844 126.467 147.736 127.84 147.839C127.9 147.843 127.962 147.839 128.022 147.839C127.866 148.044 127.71 148.249 127.554 148.454C126.098 140.164 123.815 131.98 120.256 124.336C118.54 120.649 116.537 117.089 114.23 113.74C111.862 110.302 109.099 107.153 106.105 104.249C102.727 100.973 99.0595 98.0117 95.2877 95.203L95.8764 95.127C94.5581 96.2385 93.24 97.3503 91.9217 98.4618C91.6104 98.7242 91.0933 98.5644 91.0923 98.1183C91.0871 95.8628 90.4942 93.616 90.1936 91.3893C90.268 91.4861 90.3425 91.5829 90.4169 91.6796C89.8877 91.3051 89.357 90.9327 88.8259 90.5609C89.0696 90.421 89.3133 90.2812 89.557 90.1414C89.3611 93.3663 89.2614 96.5984 89.2231 99.8289C89.2118 100.784 88.2311 101.505 87.541 102.053C86.3689 102.984 85.0775 103.747 83.8942 104.661C83.1846 105.209 82.5514 105.755 81.7497 106.176C80.7666 106.693 79.7318 107.115 78.6936 107.507C76.359 108.389 73.9612 109.106 71.5562 109.768C70.1227 110.163 68.6832 110.542 67.2351 110.88C66.9218 110.953 66.6301 110.735 66.6201 110.411C66.4875 106.115 66.4289 101.873 66.9566 97.5976C67.1616 97.7538 67.3666 97.91 67.5716 98.0661C67.4141 98.0966 67.2033 98.1568 67.0458 98.0917C66.8468 98.0094 66.6859 97.8554 66.6891 97.6232C66.6907 97.5059 66.7246 97.4438 66.7707 97.3417C66.9515 96.9414 66.7941 97.5183 66.7916 97.4667C66.8718 97.6065 66.952 97.7463 67.0322 97.8862C67.1631 97.9306 67.1528 97.9493 67.0012 97.9424C67.1157 97.895 67.2303 97.8475 67.3448 97.8001C65.6004 99.758 63.6548 101.795 60.8946 102.066C59.6746 102.186 58.4542 101.867 57.4932 101.098C56.5127 100.313 55.88 99.1932 55.2868 98.1082C55.5828 98.0695 55.8788 98.0309 56.1748 97.9922C55.5881 99.4262 54.5503 100.763 53.1285 101.45C51.755 102.113 50.2778 101.831 49.2943 100.655C48.2942 99.4586 47.8629 97.8633 47.5426 96.3689C47.1415 94.4978 47.0055 92.5801 47.1123 90.6705C47.356 90.8104 47.5996 90.9502 47.8433 91.09C42.5909 94.4905 37.9852 98.869 34.3641 103.975C33.2704 105.517 32.2619 107.117 31.3103 108.751C30.9956 109.291 30.1554 108.802 30.4712 108.26Z" fill="black"/>
<path d="M67.3731 98.2675C67.3448 98.4673 67.3165 98.6671 67.2881 98.8668C67.2841 98.8952 67.2801 98.9236 67.276 98.9519C67.0768 98.7527 66.8776 98.5535 66.6784 98.3543C66.6816 98.3538 66.6842 98.3531 66.6872 98.3519C66.6485 98.3682 66.6099 98.3845 66.5712 98.4009C66.5731 98.4 66.575 98.3989 66.5767 98.3976C66.544 98.423 66.5112 98.4483 66.4784 98.4736C66.4823 98.4706 66.4856 98.4673 66.4888 98.4634L66.4128 98.5618C66.4184 98.5542 66.4226 98.5462 66.4265 98.5377C66.4102 98.5764 66.3938 98.6151 66.3775 98.6538C66.3954 98.611 66.4023 98.5639 66.4084 98.5182L66.3911 98.6473C66.4126 98.4789 66.414 98.3078 66.4188 98.1383C66.4224 98.0116 66.4705 97.8853 66.5611 97.7948C66.6051 97.7474 66.6572 97.7139 66.7174 97.6943C66.7753 97.6639 66.8377 97.6499 66.9046 97.6525C67.0303 97.6581 67.1606 97.6994 67.2482 97.7948C67.334 97.8883 67.3941 98.008 67.3905 98.1383C67.3859 98.3016 67.3842 98.4662 67.3651 98.6286C67.3547 98.7163 67.3491 98.8165 67.3186 98.9019C67.2827 99.0024 67.25 99.0752 67.1746 99.152C67.1425 99.1848 67.1051 99.2164 67.0658 99.2376C67.037 99.2531 66.9769 99.2785 66.9455 99.2889C66.9425 99.2899 66.9398 99.2908 66.9367 99.2913C66.8506 99.3144 66.7645 99.3144 66.6784 99.2913C66.5961 99.2682 66.5246 99.2265 66.464 99.1663C66.4038 99.1057 66.3621 99.0342 66.339 98.9519C66.3159 98.8658 66.3159 98.7797 66.339 98.6936C66.3674 98.4938 66.3957 98.294 66.4241 98.0942C66.4281 98.0659 66.4321 98.0375 66.4361 98.0091C66.4512 97.9459 66.4801 97.8908 66.5231 97.8439C66.5574 97.791 66.6028 97.7493 66.6594 97.7188C66.7152 97.6833 66.7754 97.6641 66.84 97.6611C66.9046 97.6467 66.9692 97.6496 67.0338 97.6698C67.1513 97.7079 67.2648 97.7807 67.3241 97.8931C67.3405 97.9318 67.3568 97.9705 67.3731 98.0092C67.3963 98.0953 67.3963 98.1814 67.3731 98.2675Z" fill="black"/>
<path d="M55.6009 136.157C55.6166 136.211 55.6335 136.263 55.6526 136.316C55.6619 136.341 55.6759 136.367 55.6826 136.393C55.6495 136.266 55.6599 136.34 55.6776 136.379C55.724 136.479 55.7771 136.577 55.8362 136.67C55.8608 136.709 55.8865 136.748 55.9132 136.786C55.9287 136.808 55.9491 136.829 55.9623 136.853C55.8987 136.74 55.929 136.81 55.955 136.842C56.0255 136.928 56.1013 137.009 56.1815 137.086C56.2217 137.125 56.263 137.162 56.3053 137.198C56.323 137.213 56.3408 137.228 56.3588 137.242C56.3906 137.268 56.4412 137.285 56.3371 137.226C56.4326 137.28 56.5184 137.355 56.6139 137.411C56.7097 137.467 56.812 137.508 56.9092 137.56C56.7722 137.486 56.9088 137.558 56.9463 137.572C57.0064 137.593 57.0672 137.613 57.1287 137.63C57.2253 137.656 57.3247 137.668 57.4213 137.692C57.2813 137.657 57.3584 137.684 57.3998 137.688C57.4268 137.691 57.4538 137.693 57.4809 137.695C57.5349 137.699 57.5891 137.7 57.6433 137.7C57.6975 137.699 57.7518 137.697 57.8058 137.693C57.8322 137.69 57.8606 137.684 57.887 137.684C57.881 137.684 57.7595 137.705 57.8388 137.69C57.9504 137.669 58.0602 137.646 58.168 137.609C58.2122 137.594 58.3446 137.522 58.2005 137.6C58.2432 137.577 58.289 137.559 58.3319 137.536C58.4183 137.489 58.4953 137.431 58.5774 137.378C58.4432 137.465 58.559 137.391 58.5925 137.362C58.6293 137.33 58.665 137.297 58.6995 137.263C58.7341 137.228 58.7675 137.192 58.7997 137.156C58.8308 137.12 58.9197 136.983 58.8317 137.121C58.8803 137.045 58.9355 136.974 58.9811 136.896C59.006 136.853 59.0295 136.81 59.0517 136.766C59.0628 136.744 59.0735 136.722 59.0839 136.7C59.0915 136.683 59.1368 136.581 59.0992 136.668C59.062 136.754 59.1193 136.612 59.1275 136.588C59.1437 136.542 59.1584 136.495 59.1717 136.448C59.1982 136.354 59.2128 136.258 59.233 136.163C59.1967 136.334 59.2297 136.182 59.2332 136.135C59.2366 136.091 59.2387 136.047 59.2393 136.003C59.24 135.955 59.239 135.907 59.2364 135.86C59.2339 135.814 59.2045 135.644 59.2375 135.823C59.2216 135.737 59.2073 135.652 59.1829 135.568C59.1696 135.522 59.1546 135.477 59.1377 135.433C59.1226 135.393 59.0802 135.336 59.1503 135.461C59.1349 135.433 59.1234 135.403 59.1089 135.375C59.0678 135.295 59.014 135.226 58.9683 135.15C59.0499 135.286 58.9745 135.159 58.9422 135.124C58.896 135.074 58.8454 135.029 58.7946 134.984C58.7166 134.914 58.8874 135.046 58.8002 134.988C58.7798 134.974 58.7601 134.96 58.7396 134.947C58.6945 134.917 58.6481 134.89 58.6003 134.866C58.5775 134.854 58.5407 134.844 58.5213 134.828L58.5838 134.855C58.5659 134.848 58.5478 134.841 58.5296 134.835C58.4755 134.816 58.4202 134.8 58.3641 134.788C58.3176 134.778 58.2501 134.789 58.3815 134.786C58.3542 134.787 58.325 134.781 58.2975 134.779C58.2508 134.777 58.2048 134.78 58.1582 134.781C58.0564 134.783 58.2762 134.755 58.1773 134.778C58.1502 134.785 58.123 134.79 58.0961 134.797C58.0753 134.803 58.0373 134.824 58.0164 134.823C58.0888 134.791 58.1015 134.786 58.0546 134.808C58.0375 134.816 58.0206 134.825 58.0039 134.834C57.8744 134.896 57.7512 134.912 57.6104 134.878C57.5793 134.871 57.5484 134.862 57.5175 134.854C57.0103 134.72 56.5031 134.585 55.9958 134.451H56.2542C56.2256 134.459 56.1978 134.469 56.1694 134.478C56.0624 134.51 56.2612 134.431 56.1814 134.471C56.1373 134.493 56.0935 134.515 56.0514 134.54C56.0306 134.553 56.0102 134.566 55.9902 134.58C55.9769 134.59 55.9638 134.599 55.9508 134.609C56.0135 134.559 56.0304 134.547 56.0015 134.57C55.964 134.607 55.9224 134.64 55.8858 134.678C55.8689 134.696 55.8524 134.714 55.8364 134.732C55.8257 134.744 55.8152 134.757 55.8049 134.77C55.8201 134.75 55.8353 134.73 55.8505 134.71C55.8198 134.759 55.7833 134.804 55.7533 134.854C55.7274 134.897 55.7034 134.941 55.6813 134.986C55.6702 135.008 55.6616 135.033 55.6491 135.055C55.7214 134.929 55.6701 135.004 55.6548 135.045C55.6171 135.146 55.5875 135.25 55.5657 135.356C55.5604 135.381 55.5555 135.407 55.5511 135.433C55.5482 135.45 55.5455 135.467 55.5429 135.485C55.5534 135.403 55.5564 135.382 55.5517 135.42C55.5479 135.477 55.5405 135.534 55.5381 135.591C55.5333 135.705 55.5392 135.818 55.549 135.931C55.5567 136.02 55.5286 135.811 55.5453 135.906C55.5499 135.931 55.5538 135.957 55.5588 135.982C55.5703 136.041 55.5846 136.1 55.6009 136.157C55.6696 136.402 55.5165 136.697 55.2616 136.755C55.0037 136.814 54.7376 136.678 54.6639 136.416C54.4007 135.48 54.6564 134.362 55.4604 133.77C55.6734 133.613 55.9863 133.453 56.2545 133.514C56.3114 133.527 56.3676 133.544 56.4241 133.559C56.7013 133.633 56.9786 133.706 57.2558 133.779C57.4665 133.835 57.6772 133.891 57.8879 133.946L57.5135 133.995C58.3622 133.534 59.389 133.991 59.8761 134.759C60.259 135.363 60.2977 136.156 60.0724 136.823C59.8455 137.496 59.371 138.128 58.7132 138.429C57.9488 138.779 57.1091 138.719 56.3559 138.371C55.5531 138 54.9139 137.264 54.6639 136.416C54.5921 136.172 54.7506 135.876 55.0032 135.818C55.2639 135.759 55.524 135.897 55.6009 136.157Z" fill="black"/>
<path d="M54.98 125.131C54.9956 125.184 55.0126 125.237 55.0317 125.289C55.041 125.314 55.0549 125.34 55.0616 125.366C55.0285 125.239 55.039 125.314 55.0567 125.352C55.1031 125.452 55.1561 125.55 55.2152 125.644C55.2399 125.683 55.2656 125.721 55.2922 125.759C55.3078 125.781 55.3282 125.803 55.3413 125.826C55.2777 125.713 55.308 125.783 55.334 125.815C55.4045 125.901 55.4803 125.983 55.5606 126.06C55.6007 126.098 55.642 126.135 55.6844 126.171C55.702 126.186 55.7199 126.201 55.7379 126.216C55.7696 126.241 55.8202 126.258 55.7162 126.2C55.8117 126.253 55.8975 126.328 55.993 126.384C56.0888 126.44 56.191 126.481 56.2882 126.533C56.1513 126.46 56.2879 126.531 56.3254 126.545C56.3854 126.567 56.4463 126.586 56.5077 126.603C56.6043 126.63 56.7038 126.641 56.8004 126.665C56.6604 126.63 56.7374 126.657 56.7789 126.661C56.8058 126.664 56.8329 126.666 56.8599 126.668C56.914 126.672 56.9681 126.673 57.0223 126.673C57.0766 126.673 57.1308 126.67 57.1849 126.666C57.2113 126.664 57.2396 126.657 57.266 126.658C57.2601 126.658 57.1386 126.678 57.2178 126.664C57.3294 126.643 57.4392 126.619 57.547 126.582C57.5913 126.567 57.7236 126.495 57.5795 126.573C57.6222 126.55 57.668 126.532 57.711 126.509C57.7973 126.462 57.8744 126.405 57.9564 126.352C57.8223 126.438 57.9381 126.365 57.9716 126.336C58.0083 126.304 58.044 126.27 58.0785 126.236C58.1131 126.201 58.1465 126.166 58.1787 126.129C58.2098 126.093 58.2986 125.957 58.2108 126.094C58.2594 126.018 58.3145 125.947 58.3602 125.869C58.385 125.826 58.4085 125.783 58.4307 125.739C58.4418 125.717 58.4525 125.695 58.463 125.673C58.4706 125.657 58.5158 125.554 58.4782 125.641C58.4409 125.727 58.4983 125.585 58.5065 125.561C58.5227 125.515 58.5374 125.468 58.5506 125.421C58.5771 125.327 58.5917 125.231 58.6119 125.136C58.5757 125.307 58.6086 125.155 58.6121 125.109C58.6155 125.065 58.6176 125.02 58.6182 124.976C58.6189 124.928 58.6179 124.88 58.6153 124.833C58.6127 124.787 58.5833 124.617 58.6163 124.796C58.6004 124.71 58.5861 124.625 58.5617 124.541C58.5484 124.495 58.5334 124.45 58.5165 124.406C58.5014 124.366 58.459 124.309 58.5291 124.434C58.5136 124.406 58.5022 124.376 58.4876 124.348C58.4465 124.268 58.3927 124.199 58.347 124.123C58.4287 124.259 58.3531 124.132 58.3209 124.097C58.2747 124.047 58.2241 124.002 58.1733 123.957C58.0954 123.887 58.2662 124.019 58.179 123.961C58.1586 123.947 58.1389 123.933 58.1184 123.92C58.0733 123.891 58.0269 123.864 57.9791 123.839C57.9563 123.827 57.9196 123.818 57.9001 123.801L57.9626 123.828C57.9447 123.821 57.9266 123.814 57.9084 123.808C57.8543 123.789 57.799 123.773 57.7429 123.761C57.6965 123.751 57.6287 123.762 57.7603 123.76C57.733 123.76 57.7038 123.754 57.6764 123.752C57.6296 123.75 57.5836 123.753 57.537 123.754C57.4352 123.757 57.6551 123.728 57.5561 123.751C57.5291 123.758 57.5018 123.763 57.475 123.77C57.4542 123.776 57.4161 123.797 57.3953 123.796C57.4677 123.764 57.4805 123.759 57.4336 123.781C57.4165 123.789 57.3996 123.798 57.383 123.807C57.2534 123.869 57.1302 123.885 56.9894 123.851C56.9583 123.844 56.9274 123.835 56.8965 123.827C56.3893 123.693 55.8821 123.559 55.3749 123.425H55.6332C55.6047 123.433 55.5768 123.443 55.5484 123.451C55.4414 123.483 55.6403 123.405 55.5604 123.444C55.5163 123.466 55.4725 123.488 55.4304 123.514C55.4097 123.526 55.3892 123.54 55.3692 123.553C55.3559 123.563 55.3428 123.572 55.3298 123.582C55.3925 123.533 55.4094 123.52 55.3805 123.544C55.343 123.581 55.3014 123.613 55.2648 123.651C55.2479 123.669 55.2314 123.687 55.2154 123.705C55.2047 123.718 55.1942 123.73 55.1839 123.743C55.1991 123.723 55.2143 123.703 55.2295 123.683C55.1988 123.732 55.1623 123.777 55.1323 123.827C55.1064 123.87 55.0824 123.914 55.0603 123.959C55.0492 123.981 55.0406 124.006 55.0281 124.028C55.1004 123.903 55.0491 123.977 55.0339 124.018C54.9961 124.119 54.9666 124.223 54.9447 124.329C54.9394 124.354 54.9345 124.38 54.9301 124.406C54.9272 124.423 54.9245 124.44 54.9219 124.458C54.9324 124.376 54.9354 124.355 54.9307 124.394C54.9269 124.45 54.9195 124.507 54.9171 124.564C54.9123 124.678 54.9182 124.791 54.928 124.904C54.9357 124.994 54.9076 124.785 54.9244 124.879C54.9289 124.904 54.9329 124.93 54.9378 124.955C54.9493 125.015 54.9637 125.073 54.98 125.131C55.0487 125.375 54.8955 125.67 54.6406 125.728C54.3827 125.787 54.1166 125.651 54.043 125.389C53.7798 124.453 54.0352 123.336 54.8394 122.743C55.0524 122.586 55.3653 122.426 55.6335 122.488C55.6904 122.501 55.7467 122.518 55.8031 122.532C56.0803 122.606 56.3576 122.679 56.6348 122.752C56.8455 122.808 57.0562 122.864 57.2669 122.919L56.8925 122.968C57.7411 122.508 58.7678 122.964 59.2548 123.732C59.6379 124.336 59.6767 125.129 59.4514 125.797C59.2245 126.469 58.75 127.102 58.0922 127.402C57.3278 127.752 56.4881 127.692 55.7349 127.344C54.9321 126.973 54.2929 126.237 54.043 125.389C53.9711 125.145 54.1296 124.849 54.3823 124.791C54.6429 124.732 54.903 124.87 54.98 125.131Z" fill="black"/>
<path d="M54.3628 114.104C54.3785 114.157 54.3955 114.21 54.4146 114.262C54.4238 114.287 54.4378 114.314 54.4445 114.34C54.4114 114.212 54.4219 114.287 54.4396 114.325C54.486 114.426 54.539 114.523 54.5981 114.617C54.6228 114.656 54.6485 114.694 54.6751 114.732C54.6907 114.754 54.711 114.776 54.7242 114.799C54.6606 114.686 54.6909 114.756 54.7169 114.788C54.7874 114.874 54.8632 114.956 54.9435 115.033C54.9836 115.071 55.0249 115.108 55.0673 115.144C55.0849 115.159 55.1028 115.174 55.1208 115.189C55.1525 115.215 55.2031 115.231 55.0991 115.173C55.1946 115.227 55.2804 115.301 55.3759 115.357C55.4717 115.413 55.5739 115.454 55.6711 115.506C55.5342 115.433 55.6707 115.505 55.7083 115.518C55.7683 115.54 55.8291 115.559 55.8906 115.576C55.9872 115.603 56.0867 115.614 56.1833 115.638C56.0433 115.603 56.1203 115.63 56.1618 115.635C56.1887 115.637 56.2158 115.64 56.2428 115.641C56.2969 115.645 56.351 115.647 56.4052 115.646C56.4595 115.646 56.5137 115.643 56.5678 115.639C56.5942 115.637 56.6225 115.631 56.6489 115.631C56.643 115.631 56.5215 115.652 56.6007 115.637C56.7123 115.616 56.8221 115.592 56.9299 115.555C56.9742 115.54 57.1064 115.468 56.9624 115.547C57.0051 115.523 57.0509 115.505 57.0938 115.482C57.1802 115.436 57.2572 115.378 57.3393 115.325C57.2051 115.411 57.321 115.338 57.3544 115.309C57.3912 115.277 57.4269 115.243 57.4614 115.209C57.496 115.174 57.5294 115.139 57.5616 115.102C57.5926 115.066 57.6814 114.93 57.5936 115.067C57.6421 114.991 57.6973 114.92 57.743 114.842C57.7678 114.799 57.7913 114.756 57.8135 114.712C57.8246 114.69 57.8353 114.668 57.8457 114.646C57.8533 114.63 57.8986 114.527 57.861 114.614C57.8237 114.7 57.8811 114.558 57.8893 114.535C57.9054 114.488 57.9202 114.442 57.9334 114.394C57.9599 114.3 57.9745 114.204 57.9947 114.109C57.9585 114.281 57.9914 114.128 57.9949 114.082C57.9983 114.038 58.0003 113.994 58.001 113.949C58.0017 113.901 58.0007 113.854 57.9981 113.806C57.9955 113.761 57.9661 113.59 57.9991 113.769C57.9832 113.683 57.969 113.598 57.9445 113.514C57.9313 113.468 57.9162 113.423 57.8993 113.379C57.8842 113.339 57.8419 113.282 57.9119 113.407C57.8965 113.379 57.8851 113.349 57.8705 113.321C57.8294 113.242 57.7756 113.172 57.7299 113.096C57.8115 113.232 57.7361 113.106 57.7039 113.07C57.6577 113.02 57.6071 112.975 57.5563 112.93C57.4783 112.86 57.6492 112.992 57.5619 112.934C57.5416 112.921 57.5218 112.906 57.5013 112.893C57.4563 112.864 57.4098 112.837 57.362 112.812C57.3392 112.801 57.3026 112.791 57.2831 112.775L57.3456 112.801C57.3276 112.794 57.3096 112.787 57.2913 112.781C57.2372 112.762 57.1819 112.746 57.1259 112.734C57.0794 112.724 57.0116 112.735 57.1433 112.733C57.1159 112.733 57.0868 112.727 57.0593 112.726C57.0126 112.723 56.9666 112.726 56.9199 112.727C56.8182 112.73 57.038 112.701 56.9391 112.725C56.912 112.731 56.8848 112.736 56.8579 112.743C56.8372 112.749 56.7991 112.77 56.7783 112.769C56.8506 112.738 56.8634 112.732 56.8166 112.754C56.7994 112.762 56.7825 112.771 56.7659 112.78C56.6363 112.842 56.5132 112.858 56.3723 112.824C56.3412 112.817 56.3104 112.808 56.2794 112.8C55.7722 112.666 55.265 112.532 54.7578 112.398H55.0161C54.9876 112.406 54.9597 112.416 54.9314 112.424C54.8243 112.456 55.0232 112.378 54.9433 112.417C54.8993 112.439 54.8554 112.461 54.8134 112.487C54.7926 112.499 54.7722 112.513 54.7522 112.527C54.7388 112.536 54.7257 112.545 54.7128 112.555C54.7754 112.506 54.7923 112.493 54.7634 112.517C54.7259 112.554 54.6843 112.586 54.6477 112.624C54.6308 112.642 54.6143 112.66 54.5983 112.678C54.5876 112.691 54.5771 112.703 54.5668 112.716C54.582 112.696 54.5972 112.676 54.6124 112.656C54.5816 112.705 54.5452 112.75 54.5152 112.8C54.4893 112.843 54.4653 112.887 54.4431 112.932C54.4321 112.955 54.4235 112.979 54.411 113.001C54.4832 112.876 54.4319 112.951 54.4167 112.991C54.3789 113.092 54.3494 113.196 54.3275 113.302C54.3222 113.328 54.3173 113.353 54.3129 113.379C54.31 113.396 54.3073 113.414 54.3047 113.431C54.3152 113.349 54.3182 113.328 54.3135 113.367C54.3097 113.424 54.3023 113.48 54.2999 113.537C54.2951 113.651 54.301 113.764 54.3109 113.878C54.3186 113.967 54.2905 113.758 54.3072 113.852C54.3118 113.877 54.3157 113.903 54.3207 113.929C54.3322 113.988 54.3465 114.046 54.3628 114.104C54.4316 114.348 54.2784 114.644 54.0235 114.702C53.7655 114.76 53.4996 114.624 53.4259 114.362C53.1624 113.426 53.4181 112.309 54.2223 111.716C54.4353 111.559 54.7482 111.399 55.0164 111.461C55.0733 111.474 55.1296 111.491 55.186 111.506C55.4633 111.579 55.7405 111.652 56.0178 111.725C56.2285 111.781 56.4391 111.837 56.6498 111.892C56.525 111.909 56.4002 111.925 56.2754 111.941C57.1239 111.481 58.1508 111.937 58.6378 112.706C59.0207 113.31 59.0595 114.102 58.8342 114.77C58.6073 115.442 58.1329 116.075 57.4751 116.376C56.7109 116.725 55.871 116.666 55.1179 116.317C54.315 115.946 53.6758 115.21 53.4259 114.362C53.3541 114.119 53.5125 113.822 53.7652 113.765C54.0258 113.705 54.2859 113.843 54.3628 114.104Z" fill="black"/>
<path d="M83.5461 59.3847C82.7537 64.2287 81.9946 69.0779 81.206 73.9225C80.8117 76.3443 80.4175 78.7661 80.0233 81.1879C79.6286 83.6123 79.2803 86.0448 78.9142 88.4736C78.711 89.8216 78.4816 91.166 78.2634 92.5117C78.1523 93.1968 78.0413 93.8819 77.9302 94.5669C77.8198 95.2482 77.7439 95.947 77.5153 96.5996C77.4355 96.8273 77.0847 96.7997 77.0829 96.5411C77.0786 95.9221 77.2057 95.3117 77.31 94.7027C77.4145 94.0925 77.519 93.4823 77.6235 92.8721C77.8325 91.6517 78.0415 90.4312 78.2505 89.2108C78.664 86.7968 79.141 84.3939 79.5652 81.9818C80.4144 77.1526 81.1919 72.3109 82.0431 67.482C82.5202 64.7754 82.9909 62.068 83.4509 59.3585C83.4616 59.2958 83.5563 59.3226 83.5461 59.3847Z" fill="black"/>
<path d="M90.2973 73.6023C90.3032 74.1801 90.2916 74.7576 90.2995 75.3354C90.3035 75.6239 90.3038 75.9123 90.3035 76.2008C90.3032 76.4894 90.3279 76.7766 90.3237 77.0655C90.3154 77.6416 90.3036 78.2174 90.2971 78.7935C90.2938 79.0816 90.295 79.3697 90.2701 79.6568C90.2452 79.9446 90.2193 80.2323 90.1928 80.5199C90.0866 81.6718 89.941 82.8203 89.8201 83.9709C89.7565 84.5753 89.7106 85.1827 89.6285 85.7849C89.6105 85.9162 89.6421 85.6822 89.6245 85.8146C89.621 85.8407 89.6175 85.8669 89.614 85.893C89.6036 85.9715 89.5934 86.05 89.5832 86.1285C89.5646 86.2724 89.5464 86.4163 89.5287 86.5603C89.5079 86.7291 89.4833 86.897 89.4577 87.0651C89.448 87.1293 89.4376 87.1934 89.4288 87.2578C89.4121 87.3783 89.4263 87.2137 89.4265 87.2867C89.4266 87.332 89.4188 87.3789 89.4151 87.4241C89.363 88.0653 89.3218 88.7073 89.2956 89.35C89.2688 90.0077 89.2005 90.6622 89.1559 91.3188C89.1465 91.4559 89.0456 91.5731 88.9016 91.5731C88.7514 91.5731 88.6625 91.4559 88.6472 91.3188C88.5834 90.7457 88.5156 90.1635 88.5252 89.5861C88.5348 89.0091 88.5568 88.4324 88.5885 87.8562C88.6043 87.5679 88.6255 87.2809 88.6279 86.9921C88.6302 86.7037 88.6445 86.4165 88.6606 86.1285C88.6929 85.5499 88.7538 84.9775 88.8229 84.4022C88.9613 83.2509 89.1152 82.1016 89.2617 80.9513C89.3015 80.6385 89.3483 80.3266 89.3914 80.0143C89.4112 79.8714 89.4307 79.7285 89.4501 79.5855C89.4519 79.5718 89.4611 79.5043 89.4511 79.5783C89.4564 79.5391 89.4616 79.4998 89.4668 79.4606C89.4804 79.3592 89.4996 79.2603 89.5196 79.1601C89.632 78.5985 89.7416 78.0372 89.8269 77.4709C89.9224 76.8376 90.0337 76.2082 90.1031 75.5714C90.1388 75.2438 90.1742 74.9167 90.1873 74.5874C90.2003 74.2591 90.2091 73.9307 90.2138 73.6022C90.2145 73.5485 90.2967 73.5484 90.2973 73.6023Z" fill="black"/>
<path d="M86.5103 35.2581C86.9812 36.9446 87.386 38.6495 87.7218 40.368C87.815 40.8446 87.9203 41.3243 87.9836 41.8059C87.9962 41.9023 87.8582 41.945 87.7981 41.8827C87.4874 41.5607 87.1539 41.2607 86.8304 40.9515C86.516 40.6511 86.2033 40.3487 85.8925 40.0446C85.2618 39.4275 84.6365 38.8045 84.0237 38.1696C82.7982 36.9001 81.603 35.6015 80.4394 34.275C80.1107 33.9002 79.7844 33.5232 79.4608 33.144C79.3031 32.9593 79.146 32.774 78.9896 32.5883C78.8254 32.3934 78.6235 32.2313 78.4628 32.0348C78.6065 31.9968 78.7503 31.9588 78.8941 31.9209C78.7715 32.4906 78.439 32.9801 77.9793 33.3316C77.8606 33.4224 77.7032 33.3387 77.6287 33.2397C76.6989 32.0044 75.8882 30.6804 75.2133 29.2893C75.0175 28.8856 74.853 28.4651 74.6927 28.0462C74.6074 27.8231 74.98 27.6639 75.0812 27.8824C75.7274 29.2778 76.4504 30.6425 77.3111 31.9183C77.5547 32.2794 77.8084 32.6336 78.0712 32.981L77.7206 32.8891C78.0712 32.6197 78.3045 32.2159 78.3964 31.7837C78.4346 31.6038 78.7061 31.5219 78.8277 31.6698C78.9714 31.8447 79.0736 32.051 79.2169 32.2258C79.3589 32.399 79.5012 32.572 79.6441 32.7444C79.9217 33.0794 80.2013 33.4128 80.4829 33.7445C81.0542 34.4176 81.6335 35.084 82.2207 35.7433C83.3947 37.0614 84.5999 38.3528 85.8295 39.6192C86.1769 39.9771 86.5268 40.3327 86.8791 40.6858C87.2309 41.0386 87.5775 41.4001 87.9518 41.7291C87.8912 41.7643 87.8307 41.7995 87.7702 41.8347C87.6822 41.4064 87.6237 40.9705 87.545 40.5402C87.4674 40.1159 87.3856 39.6923 87.2997 39.2696C87.1266 38.4178 86.9366 37.5694 86.73 36.725C86.6133 36.2482 86.4911 35.7726 86.3639 35.2985C86.3386 35.204 86.484 35.164 86.5103 35.2581Z" fill="black"/>
<path d="M88.0969 53.717C87.6923 53.315 87.2877 52.913 86.8831 52.5111C86.7824 52.4111 86.9381 52.2554 87.0388 52.3554C87.4434 52.7574 87.848 53.1593 88.2526 53.5613C88.3532 53.6613 88.1976 53.817 88.0969 53.717Z" fill="black"/>
</svg>
