<svg width="560" height="560" viewBox="0 0 560 560" fill="none" xmlns="http://www.w3.org/2000/svg">
<path d="M460.926 336.4C442.426 356.9 393.827 352.3 255.027 355.5C1.0265 361.3 29.6265 356.4 27.8265 218C27.5265 194.1 26.5265 174.1 26.8265 157.8C26.8265 156 26.9265 154.1 27.0265 152.4C27.6265 134.8 30.2265 121.9 37.6265 113.5C59.2265 88.6 121.827 96.8 297.327 94.8C400.427 93.6 442.827 88.4 460.126 116.9C464.926 124.9 467.827 135.4 469.527 149.4C469.727 151.2 469.926 153 470.126 154.8C471.526 170.1 471.827 189.2 471.827 213C471.827 285.2 476.226 319.3 460.926 336.4Z" fill="white"/>
<path d="M159.327 359.7C90.7265 359.7 56.9265 355.3 40.2265 338.8C24.3265 323.1 24.6265 297.8 25.0265 255.9C25.1265 244.7 25.2265 231.9 25.1265 218C25.0265 208.5 24.8265 199.6 24.5265 191.4C24.2265 178.7 23.9265 167.6 24.1265 157.8C24.1265 155.9 24.2265 154.1 24.3265 152.3C25.0265 132.1 28.4265 119.9 35.6265 111.7C52.8265 91.9 92.6265 92 188.827 92.3C219.827 92.4 254.927 92.5 297.427 92C311.327 91.8 324.227 91.5999 336.027 91.3999C412.127 89.9999 446.827 89.3999 462.627 115.4C467.427 123.4 470.527 134.1 472.327 149C472.527 150.8 472.727 152.6 472.927 154.5C474.427 170 474.627 189.1 474.627 212.9C474.627 227.5 474.827 240.6 474.927 252.2C475.527 298.4 475.927 323.8 462.927 338.2C447.527 355.4 413.126 355.8 330.227 356.9C308.427 357.2 283.827 357.5 255.027 358.2C217.327 359 185.727 359.7 159.327 359.7ZM157.527 97.6C85.4265 97.6 53.3265 99.4 39.6265 115.2C33.3265 122.4 30.3265 133.6 29.6265 152.5C29.5265 154.3 29.5265 156 29.4265 157.9C29.2265 167.7 29.5265 178.6 29.8265 191.3C30.0265 199.6 30.2265 208.5 30.4265 218C30.6265 232 30.5265 244.8 30.3265 256C29.9265 296.5 29.6265 320.9 43.9265 335C65.5265 356.3 124.227 355.9 254.927 352.8C283.727 352.1 308.327 351.8 330.127 351.5C411.427 350.4 445.027 350 458.827 334.6C470.327 321.8 470.027 297.1 469.427 252.3C469.227 240.7 469.127 227.6 469.127 213C469.127 189.3 468.827 170.4 467.427 155.1C467.227 153.3 467.027 151.5 466.827 149.7C465.127 135.6 462.227 125.6 457.827 118.3C443.727 95 409.927 95.5999 336.027 96.8999C324.227 97.0999 311.327 97.3 297.427 97.5C254.927 98 219.727 97.9 188.727 97.8C177.527 97.7 167.227 97.6 157.527 97.6Z" fill="#31302E"/>
<path d="M245.727 263.9C220.627 263.9 95.4266 263.7 89.9266 259C86.1266 255.7 85.4267 246 85.3267 225.4V224.2C85.3267 206.5 85.6266 194.6 90.9266 190.8C98.0266 185.7 140.327 185.7 209.227 186.4C233.927 186.7 257.227 186.9 275.727 186.6V189.3V186.6C328.127 185.8 388.927 187 398.727 191.3C403.627 193.5 404.127 202.7 404.627 218.8C404.727 220.6 404.727 222.5 404.827 224.3C404.927 226.3 405.027 228.2 405.127 230.1C405.827 244.9 406.027 254.1 402.227 257.9C397.427 262.9 314.427 263.9 245.727 263.9ZM93.3267 254.7C100.127 256.8 166.527 258.5 245.827 258.5C329.727 258.5 392.327 256.6 398.727 253.9C400.827 251.3 400.227 239.7 399.827 230.4C399.727 228.5 399.627 226.5 399.527 224.6C399.427 222.7 399.427 220.9 399.327 219C399.027 210.6 398.627 197.8 396.527 196.2C390.227 193.4 345.727 190.9 275.827 192C257.227 192.3 233.927 192 209.127 191.8C160.627 191.3 100.227 190.7 94.1266 195.1C90.6266 197.6 90.7267 213.6 90.7267 224.1V225.3C90.8267 233.3 90.9267 251.8 93.3267 254.7Z" fill="#31302E"/>
<path d="M303.627 236.1C307.527 240.2 311.427 244.3 315.327 248.5C326.027 248.4 335.927 248.2 344.827 248C329.827 232.6 315.027 217 300.427 201.2C291.727 201.2 282.627 201.3 273.327 201.4C272.827 201.4 272.327 201.4 271.727 201.4C282.727 212.6 292.727 224.7 303.627 236.1Z" fill="#8590C8"/>
<path d="M296.726 236.4C285.826 224.8 275.727 212.6 264.527 201.4C208.327 201.6 114.226 199.2 105.626 203.7C101.326 206 101.426 216.1 101.526 225.2C101.526 235.2 101.827 244.2 104.827 246.1C108.627 248.4 225.926 249.5 308.226 248.6C304.326 244.5 300.526 240.5 296.726 236.4Z" fill="#8590C8"/>
<path d="M470.126 154.7C322.326 153 174.626 154 26.8264 157.7C26.8264 155.9 26.9264 154 27.0264 152.3C174.526 148.6 322.026 147.6 469.526 149.2C469.726 151.1 469.926 152.9 470.126 154.7Z" fill="#31302E"/>
<path d="M428.427 135.1C421.527 127.9 414.527 120.7 407.627 113.5C405.227 111 401.327 114.8 403.827 117.3C410.727 124.5 417.727 131.7 424.627 138.9C427.027 141.5 430.827 137.6 428.427 135.1Z" fill="#8590C8"/>
<path d="M422.926 114.2C415.726 121.4 408.526 128.6 401.226 135.9C398.726 138.4 402.626 142.2 405.026 139.7L426.726 118C429.226 115.6 425.326 111.7 422.926 114.2Z" fill="#8590C8"/>
<path d="M381.527 126.1H354.427C350.927 126.1 350.927 131.5 354.427 131.5H381.527C384.927 131.5 384.927 126.1 381.527 126.1Z" fill="#8590C8"/>
<path d="M224.426 298.5C220.226 298.5 217.726 296.8 216.326 295.4C214.526 293.6 213.626 291.1 213.626 288.4C213.626 282.7 218.026 276.9 225.326 276.9C232.026 276.9 235.726 282.5 235.726 287.7C235.726 292.8 232.226 298.5 224.426 298.5ZM225.326 282.2C221.226 282.2 219.026 285.3 219.026 288.3C219.026 289.6 219.426 290.8 220.226 291.6C221.126 292.6 222.526 293.1 224.426 293.1C228.726 293.1 230.326 290.3 230.326 287.7C230.326 285 228.726 282.2 225.326 282.2Z" fill="#8590C8"/>
<path d="M248.827 322.8C244.627 322.8 242.127 321.1 240.727 319.7C238.927 317.9 238.027 315.4 238.027 312.7C238.027 307 242.427 301.2 249.727 301.2C256.427 301.2 260.127 306.8 260.127 312C260.127 317.2 256.527 322.8 248.827 322.8ZM249.727 306.6C245.627 306.6 243.427 309.7 243.427 312.7C243.427 314 243.827 315.2 244.627 316C245.527 317 246.927 317.5 248.827 317.5C253.127 317.5 254.727 314.7 254.727 312.1C254.627 309.4 253.127 306.6 249.727 306.6Z" fill="#8590C8"/>
<path d="M255.227 275.9C242.827 290 230.427 304.1 218.027 318.2C215.727 320.8 219.527 324.7 221.827 322C234.227 307.9 246.627 293.8 259.027 279.7C261.327 277.2 257.527 273.3 255.227 275.9Z" fill="#8590C8"/>
<path d="M68.7265 316.9C53.6265 301.3 38.5265 285.8 23.3265 270.2C20.9265 267.7 17.0265 271.5 19.5265 274C34.6265 289.6 49.2265 305.1 64.3265 320.6C66.8265 323.2 71.2265 319.4 68.7265 316.9Z" fill="#31302E"/>
<path d="M33.8265 340.1C26.0265 337.7 18.2265 335.3 10.3265 332.9C7.02653 331.9 5.52651 337.1 8.92651 338.1C16.7265 340.5 24.5265 342.9 32.4265 345.3C35.7265 346.3 37.1265 341.1 33.8265 340.1Z" fill="#31302E"/>
<path d="M378.427 282.7C370.027 289.9 361.527 297.1 353.127 304.3C350.427 306.6 354.327 310.4 356.927 308.1C363.927 302.1 372.127 295.1 382.227 286.5C384.927 284.3 381.027 280.5 378.427 282.7Z" fill="#31302E"/>
<path d="M267.426 490.4C251.726 490.4 243.826 489 239.126 484.5C234.926 480.5 234.426 474.7 234.426 469.1C234.426 457 244.126 451.1 266.726 449.3C307.526 446 374.826 449.1 424.026 451.3C456.026 452.8 481.226 453.9 488.626 452.9C495.226 452 499.126 450.5 500.226 448.3C501.826 445.3 498.826 439.6 495.426 432.9C492.926 428.1 490.226 422.7 488.226 416.7C487.726 415.3 488.526 413.7 489.926 413.3C491.326 412.8 492.926 413.6 493.326 415C495.226 420.6 497.926 425.8 500.226 430.4C504.526 438.7 507.826 445.3 505.026 450.7C502.926 454.6 497.926 457 489.326 458.2C481.426 459.2 456.026 458.1 423.726 456.6C374.726 454.4 307.626 451.3 267.126 454.6C239.826 456.8 239.826 464.8 239.826 469.1C239.826 475.2 240.726 478.5 242.926 480.6C248.726 486.2 266.526 485.4 305.326 483.8L311.026 483.6C374.426 480.9 547.726 483.6 549.526 483.6C551.026 483.6 552.226 484.9 552.226 486.4C552.226 487.9 551.026 489.1 549.426 489.1C547.726 489.1 374.526 486.4 311.326 489.1L305.626 489.3C289.326 489.8 276.926 490.4 267.426 490.4Z" fill="#31302E"/>
<path d="M460.027 330.1C431.527 330.1 420.326 359 426.626 380.6C439.526 424.8 430.526 430.9 484.626 430.9C525.926 430.9 524.326 414.3 505.126 360.7C494.326 330.6 470.927 330.1 460.027 330.1Z" fill="#8590C8"/>
<path d="M497.926 354.9C475.726 361.4 453.526 367.9 431.326 374.4C428.026 375.4 429.426 380.6 432.726 379.6C454.926 373.1 477.126 366.6 499.326 360.1C502.726 359.1 501.326 353.9 497.926 354.9Z" fill="white"/>
<path d="M454.726 332.6C452.326 330 448.526 333.9 450.926 336.4C459.026 345 464.126 355.3 466.526 366.8C467.226 370.2 472.426 368.8 471.726 365.4C469.126 353 463.426 341.9 454.726 332.6Z" fill="white"/>
<path d="M49.4266 380.9C35.8266 385.4 35.0266 380 42.1266 408C49.2266 436 47.4266 441.4 56.4266 443.2C65.4266 445 219.827 436.5 227.927 441C236.027 445.5 265.827 442 271.227 438.4C276.627 434.8 323.627 438.6 366.927 438.7C410.227 438.8 441.827 449.1 432.027 428.4C425.527 414.6 416.527 397.3 411.227 387.2C408.527 382 403.127 378.8 397.327 378.9L49.4266 380.9Z" fill="#8590C8"/>
<path d="M231.627 373.4C215.427 347.2 163.027 312.9 117.927 328.3C72.8265 343.6 52.9266 353.6 41.2266 359C41.2266 359 53.8266 395.1 54.7266 412.3C54.7266 412.3 57.4266 424.9 64.6266 428.5C71.8266 432.1 103.427 430.3 119.727 428.5C132.827 427 228.027 423.1 230.727 430.3C233.427 437.5 259.627 435.7 264.127 429.4C268.627 423.1 279.427 426.7 334.527 427.6C390.627 428.5 418.427 436.6 422.127 432.1C425.727 427.6 403.127 387 398.627 373.4C394.127 359.9 392.327 367.1 391.427 359.9C390.527 352.7 370.627 350 370.627 350C370.627 350 372.427 334.7 367.027 332.8C361.627 331 274.927 321 231.627 373.4Z" fill="white"/>
<path d="M244.426 437.6C242.526 437.6 240.726 437.5 239.126 437.3C233.426 436.6 229.726 434.6 228.326 431.6C220.726 426.7 138.226 429.1 119.926 431.1C108.026 432.4 72.1264 435.2 63.3264 430.8C55.0264 426.7 52.1264 413.3 51.9264 412.7C51.9264 412.6 51.9264 412.4 51.8264 412.3C50.9264 395.7 38.5264 360.2 38.4264 359.8C37.9264 358.5 38.6264 357 39.8264 356.4L43.6264 354.6C55.7264 348.9 76.1264 339.4 116.826 325.6C159.726 311 211.926 340.7 231.726 368.8C276.126 319.1 359.926 327.5 367.726 330.1C373.626 332.1 373.826 342 373.426 347.5C379.726 348.6 393.026 351.9 393.926 359.4C394.126 361.1 394.326 361.5 394.326 361.5C394.326 361.5 394.426 361.5 394.526 361.6C396.426 362.8 398.326 364.6 400.926 372.4C402.526 377.2 406.526 385.7 410.826 394.7C423.426 421.2 426.826 430 423.926 433.6C421.226 437 414.426 436.2 398.026 434.5C383.926 433 362.526 430.6 334.226 430.1C316.326 429.8 302.926 429.2 293.226 428.8C273.426 427.9 268.226 427.8 266.126 430.8C263.026 435.5 252.826 437.6 244.426 437.6ZM188.426 423.3C231.026 423.3 232.426 426.9 233.326 429.3C233.626 430 235.226 431.3 239.926 431.9C248.926 433.1 260.026 430.6 262.026 427.7C265.926 422.2 272.426 422.5 293.826 423.5C303.526 423.9 316.826 424.5 334.726 424.8C363.326 425.3 384.826 427.6 399.026 429.2C408.626 430.2 417.626 431.2 419.926 430.4C420.026 426.1 411.526 408.1 406.326 397.1C402.026 387.9 397.926 379.3 396.226 374.2C394.026 367.5 392.726 366.7 392.026 366.2C390.326 365.1 389.426 363.9 388.926 360.1C388.526 357.1 378.926 353.7 370.526 352.5C369.026 352.3 368.026 351 368.226 349.5C369.026 342.9 368.126 335.8 366.426 335.2C359.826 333 275.326 325 233.926 375C233.326 375.7 232.526 376 231.626 376C230.726 375.9 229.926 375.5 229.526 374.7C214.926 351.2 164.126 315.3 118.926 330.7C78.4264 344.5 58.3264 353.9 46.3264 359.5L44.7264 360.2C47.5264 368.5 56.7264 396.6 57.6264 411.7C58.4264 415 61.2264 423.5 66.0264 425.9C72.0264 428.9 101.526 427.6 119.526 425.6C126.426 424.8 153.726 423.5 179.226 423.2C182.426 423.3 185.526 423.3 188.426 423.3Z" fill="#31302E"/>
<path d="M234.527 368.2C233.127 365 228.527 367.8 229.827 370.9C237.727 389.4 242.727 408.5 245.027 428.4C245.427 431.8 250.827 431.9 250.427 428.4C248.127 407.5 242.827 387.5 234.527 368.2Z" fill="#8590C8"/>
<path d="M371.427 338.2C371.227 334.7 365.827 334.7 366.027 338.2C366.527 347 367.027 355.8 367.627 364.6C367.927 369.1 371.727 387.2 369.227 391C366.327 395.5 356.027 392.8 350.827 392.9C342.927 393.1 334.927 393.7 327.127 394.7C298.927 398.3 272.027 407.5 247.227 421.3C244.227 423 246.927 427.7 249.927 426C287.527 405.2 329.427 396 372.327 399C373.727 399.1 375.127 397.7 375.027 396.3C373.727 376.9 372.627 357.5 371.427 338.2Z" fill="#8590C8"/>
<path d="M400.926 412.2C396.926 393 392.926 373.9 389.026 354.7C388.326 351.3 383.126 352.7 383.826 356.1C387.526 373.8 391.226 391.6 394.826 409.3C345.526 398.6 294.626 404.8 249.126 426.9C246.026 428.4 248.726 433.1 251.826 431.6C297.226 409.5 348.426 403.9 397.526 415.5C399.726 416 401.426 414.2 400.926 412.2Z" fill="#8590C8"/>
<path d="M240.827 421.3C211.127 398 178.627 374.9 139.827 371.5C107.727 368.7 75.0266 382.1 59.7266 411.5C58.1266 414.6 62.8266 417.3 64.4266 414.2C80.5266 383.3 115.927 372.2 148.827 378.1C182.427 384.1 210.827 404.5 237.127 425.1C239.627 427.3 243.527 423.5 240.827 421.3Z" fill="#8590C8"/>
<path d="M186.927 398.3C150.927 381.8 110.327 390.2 84.3265 420.2C82.0265 422.8 85.8265 426.7 88.1265 424C112.427 396 150.327 387.5 184.127 403C187.327 404.4 190.027 399.7 186.927 398.3Z" fill="#8590C8"/>
<path d="M173.526 407.4C152.126 402.2 130.926 407 113.826 420.7C111.126 422.9 114.926 426.7 117.626 424.5C133.226 412.1 152.726 407.9 172.126 412.6C175.526 413.4 176.926 408.2 173.526 407.4Z" fill="#8590C8"/>
<path d="M123.527 349.1C107.027 354.3 90.5265 359.5 74.0265 364.7C70.7265 365.7 72.1265 371 75.4265 369.9C91.9265 364.7 108.427 359.5 124.927 354.3C128.227 353.2 126.827 348 123.527 349.1Z" fill="#8590C8"/>
<path d="M110.126 339.6C97.1264 344.2 84.1264 348.9 71.1264 353.5C67.8264 354.7 69.2264 359.9 72.5264 358.7C85.5264 354.1 98.5264 349.4 111.526 344.8C114.826 343.7 113.426 338.4 110.126 339.6Z" fill="#8590C8"/>
<path d="M248.826 353.5C256.926 379.7 261.426 398.6 261.426 398.6L272.226 378.7L286.626 387.7L276.726 338.1L248.826 353.5Z" fill="#8590C8"/>
<path d="M136.126 347.9C138.026 358.6 134.326 363.8 149.126 364.9C163.926 366 167.326 364.5 165.926 351C164.526 337.5 163.126 340.5 149.926 338.2C136.726 335.9 134.726 339.9 136.126 347.9Z" fill="#31302E"/>
<path d="M177.626 363.3C179.526 374 175.826 380 190.626 380.3C210.826 380.7 213.226 380.6 211.726 367.1C210.326 353.6 208.126 356.3 191.426 353.6C178.226 351.4 176.226 355.3 177.626 363.3Z" fill="#31302E"/>
<path d="M339.527 338.6C316.727 340.9 319.827 341.2 319.827 352.1C319.827 363 312.427 360.5 300.127 361.7C287.827 363 291.127 368.8 292.727 380.3C294.327 391.9 298.727 387.2 333.727 384.8C368.727 382.4 360.527 382.2 358.327 362.9C355.927 341.8 358.427 336.6 339.527 338.6Z" fill="#31302E"/>
<path d="M340.326 350.8C340.226 347.3 334.826 347.3 334.926 350.8C335.126 357.1 335.326 363.5 335.526 369.8C328.026 370.4 320.526 370.9 312.926 371.5C309.426 371.8 309.426 377.2 312.926 376.9C321.326 376.3 329.826 375.6 338.226 375C339.626 374.9 341.026 373.8 340.926 372.3C340.726 365.1 340.526 358 340.326 350.8Z" fill="white"/>
<path d="M316.527 377.8C312.227 377.5 312.227 371.3 316.527 371C320.027 370.8 320.027 365.3 316.527 365.6C311.927 365.9 307.727 369.5 307.727 374.4C307.727 379.3 311.827 382.9 316.527 383.2C319.927 383.5 319.927 378 316.527 377.8Z" fill="white"/>
<path d="M198.127 360.9C197.527 357.5 192.327 358.9 192.927 362.3C193.527 365.6 194.127 368.9 194.727 372.2C195.327 375.6 200.527 374.2 199.927 370.8L198.127 360.9Z" fill="white"/>
<path d="M154.926 356.4C152.526 356.6 149.826 355 149.826 352.3C149.826 349.8 152.626 347.9 155.026 348.4C158.426 349.1 159.926 343.9 156.426 343.2C150.926 342.1 144.926 345.7 144.426 351.6C144.026 357.3 149.226 362.3 154.926 361.8C158.426 361.5 158.426 356.1 154.926 356.4Z" fill="white"/>
<path d="M200.027 363.4H192.827C189.327 363.4 189.327 368.8 192.827 368.8H200.027C203.527 368.9 203.527 363.4 200.027 363.4Z" fill="white"/>
</svg>
