<svg width="142" height="32" viewBox="0 0 142 32" fill="none" xmlns="http://www.w3.org/2000/svg">
<circle cx="16" cy="16" r="16" fill="#2EC5CE"/>
<path d="M10.512 21.4116C10.1186 21.7993 10.1109 22.4377 10.5411 22.7839C11.1693 23.2896 11.8659 23.7065 12.6116 24.0217C13.6651 24.4669 14.796 24.7003 15.9396 24.7085C17.0833 24.7167 18.2173 24.4995 19.2771 24.0694C20.0273 23.765 20.7298 23.358 21.3651 22.8615C21.8002 22.5214 21.8017 21.883 21.4139 21.4897L16.704 16.7118C16.3163 16.3185 15.6831 16.3139 15.2898 16.7017L10.512 21.4116Z" fill="white"/>
<path d="M23.5342 15.9575C24.0864 15.9614 24.5433 15.5154 24.4832 14.9663C24.3962 14.1702 24.1986 13.3883 23.8949 12.6438C23.4649 11.5898 22.8307 10.6314 22.0288 9.82352C21.2269 9.01569 20.2731 8.37445 19.2224 7.93672C18.1716 7.499 17.0447 7.27343 15.9064 7.273C14.7682 7.27258 13.6411 7.49731 12.59 7.93425C11.539 8.37119 10.5847 9.01172 9.7822 9.81895C8.9797 10.6262 8.34479 11.5842 7.91403 12.6378C7.60971 13.3821 7.41152 14.1638 7.32391 14.9599C7.26349 15.5089 7.71998 15.9553 8.27226 15.9518L9.67209 15.9431C10.2244 15.9396 10.6596 15.4852 10.7611 14.9423C10.8262 14.5946 10.9265 14.2535 11.061 13.9244C11.3221 13.2858 11.7069 12.7052 12.1933 12.2159C12.6797 11.7267 13.2581 11.3385 13.8951 11.0736C14.5322 10.8088 15.2153 10.6726 15.9052 10.6729C16.5951 10.6731 17.2781 10.8098 17.9149 11.0751C18.5518 11.3404 19.1299 11.7291 19.6159 12.2187C20.1019 12.7083 20.4863 13.2893 20.7469 13.928C20.8812 14.2572 20.9812 14.5984 21.046 14.9461C21.1472 15.4891 21.5821 15.9438 22.1343 15.9477L23.5342 15.9575Z" fill="white"/>
<path d="M41.1816 23C41.0616 23 40.9616 22.96 40.8816 22.88C40.8016 22.8 40.7616 22.7 40.7616 22.58L40.8016 22.4L45.6016 9.5C45.735 9.16667 45.975 9 46.3216 9H48.5216C48.8683 9 49.1083 9.16667 49.2416 9.5L54.0416 22.4L54.0816 22.58C54.0816 22.7 54.035 22.8 53.9416 22.88C53.8616 22.96 53.7683 23 53.6616 23H51.8816C51.6016 23 51.4083 22.8733 51.3016 22.62L50.3816 20.2H44.4616L43.5416 22.62C43.435 22.8733 43.2416 23 42.9616 23H41.1816ZM45.1616 17.88H49.6816L47.4216 11.72L45.1616 17.88ZM61.2684 23.2C59.8817 23.2 58.8217 22.7267 58.0884 21.78V22.52C58.0884 22.6533 58.0417 22.7667 57.9484 22.86C57.855 22.9533 57.735 23 57.5884 23H55.9884C55.855 23 55.7417 22.9533 55.6484 22.86C55.555 22.7667 55.5084 22.6533 55.5084 22.52V9.28C55.5084 9.13333 55.555 9.02 55.6484 8.94C55.7417 8.84667 55.855 8.8 55.9884 8.8H57.7284C57.875 8.8 57.9884 8.84667 58.0684 8.94C58.1617 9.02 58.2084 9.13333 58.2084 9.28V13.72C58.955 12.84 59.975 12.4 61.2684 12.4C62.615 12.4 63.6484 12.84 64.3684 13.72C65.1017 14.5867 65.4884 15.7267 65.5284 17.14C65.5417 17.3 65.5484 17.52 65.5484 17.8C65.5484 18.0667 65.5417 18.2867 65.5284 18.46C65.475 19.9 65.0884 21.0533 64.3684 21.92C63.6484 22.7733 62.615 23.2 61.2684 23.2ZM60.5084 21.04C61.935 21.04 62.695 20.16 62.7884 18.4C62.8017 18.2667 62.8084 18.0667 62.8084 17.8C62.8084 17.5333 62.8017 17.3333 62.7884 17.2C62.695 15.44 61.935 14.56 60.5084 14.56C59.775 14.56 59.215 14.7933 58.8284 15.26C58.4417 15.7267 58.235 16.2933 58.2084 16.96C58.195 17.12 58.1884 17.38 58.1884 17.74C58.1884 18.0867 58.195 18.34 58.2084 18.5C58.235 19.2067 58.435 19.8067 58.8084 20.3C59.1817 20.7933 59.7484 21.04 60.5084 21.04ZM68.0735 23C67.9402 23 67.8268 22.9533 67.7335 22.86C67.6402 22.7667 67.5935 22.6533 67.5935 22.52V9.28C67.5935 9.13333 67.6402 9.02 67.7335 8.94C67.8268 8.84667 67.9402 8.8 68.0735 8.8H69.7535C69.9002 8.8 70.0135 8.84667 70.0935 8.94C70.1868 9.02 70.2335 9.13333 70.2335 9.28V22.52C70.2335 22.6533 70.1868 22.7667 70.0935 22.86C70.0135 22.9533 69.9002 23 69.7535 23H68.0735ZM77.186 23.2C75.6927 23.2 74.506 22.7733 73.626 21.92C72.7593 21.0667 72.2993 19.8533 72.246 18.28L72.226 17.78C72.226 16.1133 72.6593 14.8 73.526 13.84C74.406 12.88 75.6193 12.4 77.166 12.4C78.7527 12.4 79.9727 12.88 80.826 13.84C81.6927 14.8 82.126 16.08 82.126 17.68V18.1C82.126 18.2333 82.0793 18.3467 81.986 18.44C81.8927 18.5333 81.7727 18.58 81.626 18.58H74.986V18.74C75.0127 19.4867 75.2127 20.1067 75.586 20.6C75.9727 21.08 76.4993 21.32 77.166 21.32C77.926 21.32 78.546 21.0133 79.026 20.4C79.146 20.2533 79.2393 20.1667 79.306 20.14C79.3727 20.1 79.486 20.08 79.646 20.08H81.406C81.526 20.08 81.626 20.1133 81.706 20.18C81.7993 20.2467 81.846 20.34 81.846 20.46C81.846 20.78 81.6527 21.16 81.266 21.6C80.8927 22.0267 80.3527 22.4 79.646 22.72C78.9393 23.04 78.1193 23.2 77.186 23.2ZM79.366 16.88V16.84C79.366 16.0533 79.166 15.4267 78.766 14.96C78.3793 14.48 77.846 14.24 77.166 14.24C76.486 14.24 75.9527 14.48 75.566 14.96C75.1793 15.4267 74.986 16.0533 74.986 16.84V16.88H79.366ZM89.1685 23.2C87.9685 23.2 86.9418 23.02 86.0885 22.66C85.2352 22.3 84.5885 21.8267 84.1485 21.24C83.7085 20.6533 83.4752 20.0133 83.4485 19.32C83.4485 19.2133 83.4885 19.12 83.5685 19.04C83.6485 18.9467 83.7485 18.9 83.8685 18.9H85.6885C85.8352 18.9 85.9552 18.9333 86.0485 19C86.1418 19.0667 86.2285 19.16 86.3085 19.28C86.4418 19.7333 86.7418 20.1133 87.2085 20.42C87.6885 20.7267 88.3418 20.88 89.1685 20.88C90.1018 20.88 90.8018 20.7267 91.2685 20.42C91.7485 20.1 91.9885 19.6667 91.9885 19.12C91.9885 18.76 91.8685 18.46 91.6285 18.22C91.3885 17.98 91.0218 17.7733 90.5285 17.6C90.0485 17.4133 89.3285 17.1933 88.3685 16.94C86.7952 16.5667 85.6418 16.0733 84.9085 15.46C84.1752 14.8467 83.8085 13.9667 83.8085 12.82C83.8085 12.0467 84.0218 11.36 84.4485 10.76C84.8752 10.1467 85.4818 9.66667 86.2685 9.32C87.0685 8.97333 87.9952 8.8 89.0485 8.8C90.1552 8.8 91.1085 8.99333 91.9085 9.38C92.7218 9.76667 93.3352 10.2533 93.7485 10.84C94.1752 11.4133 94.4018 11.9867 94.4285 12.56C94.4285 12.6667 94.3885 12.7667 94.3085 12.86C94.2285 12.94 94.1285 12.98 94.0085 12.98H92.1085C91.8152 12.98 91.6152 12.86 91.5085 12.62C91.4418 12.1933 91.1818 11.84 90.7285 11.56C90.2752 11.2667 89.7152 11.12 89.0485 11.12C88.3152 11.12 87.7352 11.26 87.3085 11.54C86.8952 11.82 86.6885 12.2267 86.6885 12.76C86.6885 13.12 86.7952 13.42 87.0085 13.66C87.2218 13.9 87.5552 14.1133 88.0085 14.3C88.4618 14.4733 89.1218 14.6733 89.9885 14.9C91.1752 15.1667 92.1152 15.4667 92.8085 15.8C93.5152 16.1333 94.0352 16.5533 94.3685 17.06C94.7018 17.5667 94.8685 18.2133 94.8685 19C94.8685 19.8667 94.6285 20.62 94.1485 21.26C93.6818 21.8867 93.0152 22.3667 92.1485 22.7C91.2952 23.0333 90.3018 23.2 89.1685 23.2ZM97.2001 26.8C97.0667 26.8 96.9534 26.7533 96.8601 26.66C96.7667 26.58 96.7201 26.4667 96.7201 26.32V13.08C96.7201 12.9333 96.7667 12.82 96.8601 12.74C96.9534 12.6467 97.0667 12.6 97.2001 12.6H98.8001C98.9467 12.6 99.0667 12.6467 99.1601 12.74C99.2534 12.8333 99.3001 12.9467 99.3001 13.08V13.88C100.007 12.8933 101.067 12.4 102.48 12.4C103.827 12.4 104.86 12.8267 105.58 13.68C106.3 14.52 106.687 15.6533 106.74 17.08C106.753 17.24 106.76 17.48 106.76 17.8C106.76 18.12 106.753 18.36 106.74 18.52C106.7 19.92 106.313 21.0533 105.58 21.92C104.86 22.7733 103.827 23.2 102.48 23.2C101.147 23.2 100.127 22.7267 99.4201 21.78V26.32C99.4201 26.4667 99.3734 26.58 99.2801 26.66C99.2001 26.7533 99.0867 26.8 98.9401 26.8H97.2001ZM101.72 21.04C103.147 21.04 103.907 20.16 104 18.4C104.013 18.2667 104.02 18.0667 104.02 17.8C104.02 17.5333 104.013 17.3333 104 17.2C103.907 15.44 103.147 14.56 101.72 14.56C100.96 14.56 100.393 14.8067 100.02 15.3C99.6467 15.7933 99.4467 16.3933 99.4201 17.1C99.4067 17.26 99.4001 17.5133 99.4001 17.86C99.4001 18.2067 99.4067 18.4667 99.4201 18.64C99.4467 19.3067 99.6534 19.8733 100.04 20.34C100.427 20.8067 100.987 21.04 101.72 21.04ZM111.805 23.2C111.125 23.2 110.499 23.0667 109.925 22.8C109.365 22.52 108.919 22.1467 108.585 21.68C108.265 21.2133 108.105 20.7 108.105 20.14C108.105 19.2333 108.472 18.5 109.205 17.94C109.939 17.38 110.945 17 112.225 16.8L114.965 16.4V15.98C114.965 15.4067 114.819 14.9733 114.525 14.68C114.232 14.3867 113.765 14.24 113.125 14.24C112.685 14.24 112.332 14.32 112.065 14.48C111.799 14.64 111.579 14.8067 111.405 14.98C111.245 15.14 111.139 15.2467 111.085 15.3C111.032 15.46 110.932 15.54 110.785 15.54H109.225C109.105 15.54 108.999 15.5 108.905 15.42C108.825 15.34 108.785 15.2333 108.785 15.1C108.799 14.7667 108.959 14.3933 109.265 13.98C109.585 13.5533 110.072 13.1867 110.725 12.88C111.379 12.56 112.185 12.4 113.145 12.4C114.719 12.4 115.865 12.7533 116.585 13.46C117.305 14.1667 117.665 15.0933 117.665 16.24V22.52C117.665 22.6533 117.619 22.7667 117.525 22.86C117.445 22.9533 117.332 23 117.185 23H115.525C115.392 23 115.279 22.9533 115.185 22.86C115.092 22.7667 115.045 22.6533 115.045 22.52V21.74C114.752 22.1667 114.339 22.52 113.805 22.8C113.272 23.0667 112.605 23.2 111.805 23.2ZM112.485 21.28C113.219 21.28 113.819 21.04 114.285 20.56C114.752 20.08 114.985 19.3867 114.985 18.48V18.08L112.985 18.4C111.452 18.64 110.685 19.1533 110.685 19.94C110.685 20.3667 110.859 20.7 111.205 20.94C111.565 21.1667 111.992 21.28 112.485 21.28ZM124.531 23.2C123.064 23.2 121.891 22.7933 121.011 21.98C120.144 21.1667 119.684 20.04 119.631 18.6L119.611 17.8L119.631 17C119.684 15.56 120.144 14.4333 121.011 13.62C121.891 12.8067 123.064 12.4 124.531 12.4C125.584 12.4 126.471 12.5867 127.191 12.96C127.924 13.3333 128.464 13.7933 128.811 14.34C129.171 14.8733 129.364 15.3867 129.391 15.88C129.404 16.0133 129.357 16.1267 129.251 16.22C129.157 16.3133 129.044 16.36 128.911 16.36H127.131C126.984 16.36 126.877 16.3333 126.811 16.28C126.744 16.2133 126.677 16.1 126.611 15.94C126.411 15.4333 126.144 15.0667 125.811 14.84C125.491 14.6133 125.077 14.5 124.571 14.5C123.891 14.5 123.357 14.7133 122.971 15.14C122.597 15.5667 122.397 16.22 122.371 17.1L122.351 17.84L122.371 18.5C122.451 20.2333 123.184 21.1 124.571 21.1C125.091 21.1 125.511 20.9933 125.831 20.78C126.151 20.5533 126.411 20.18 126.611 19.66C126.664 19.5133 126.724 19.4067 126.791 19.34C126.871 19.2733 126.984 19.24 127.131 19.24H128.911C129.044 19.24 129.157 19.2867 129.251 19.38C129.357 19.4733 129.404 19.5867 129.391 19.72C129.364 20.1867 129.177 20.6933 128.831 21.24C128.484 21.7733 127.951 22.2333 127.231 22.62C126.511 23.0067 125.611 23.2 124.531 23.2ZM135.776 23.2C134.283 23.2 133.096 22.7733 132.216 21.92C131.349 21.0667 130.889 19.8533 130.836 18.28L130.816 17.78C130.816 16.1133 131.249 14.8 132.116 13.84C132.996 12.88 134.209 12.4 135.756 12.4C137.343 12.4 138.563 12.88 139.416 13.84C140.283 14.8 140.716 16.08 140.716 17.68V18.1C140.716 18.2333 140.669 18.3467 140.576 18.44C140.483 18.5333 140.363 18.58 140.216 18.58H133.576V18.74C133.603 19.4867 133.803 20.1067 134.176 20.6C134.563 21.08 135.089 21.32 135.756 21.32C136.516 21.32 137.136 21.0133 137.616 20.4C137.736 20.2533 137.829 20.1667 137.896 20.14C137.963 20.1 138.076 20.08 138.236 20.08H139.996C140.116 20.08 140.216 20.1133 140.296 20.18C140.389 20.2467 140.436 20.34 140.436 20.46C140.436 20.78 140.243 21.16 139.856 21.6C139.483 22.0267 138.943 22.4 138.236 22.72C137.529 23.04 136.709 23.2 135.776 23.2ZM137.956 16.88V16.84C137.956 16.0533 137.756 15.4267 137.356 14.96C136.969 14.48 136.436 14.24 135.756 14.24C135.076 14.24 134.543 14.48 134.156 14.96C133.769 15.4267 133.576 16.0533 133.576 16.84V16.88H137.956Z" fill="#404040"/>
</svg>
