<svg width="24" height="24" viewBox="0 0 24 24" fill="none" xmlns="http://www.w3.org/2000/svg">
<path d="M3.125 12.0009C3.12508 11.4763 3.39365 11.0838 3.68652 10.7772C3.95931 10.4917 4.38846 10.1535 4.8252 9.80948L5.83887 9.01065C6.58127 8.42576 7.20251 7.93577 7.71973 7.63565C8.23993 7.33381 8.87982 7.08921 9.54297 7.38272C10.2242 7.68432 10.4469 8.33605 10.5371 8.92276C10.6196 9.45946 10.6237 10.1676 10.624 10.9999L19.875 10.9999C20.4273 10.9999 20.875 11.4476 20.875 11.9999C20.875 12.5522 20.4273 12.9999 19.875 12.9999L10.624 12.9999C10.6237 13.834 10.6197 14.5433 10.5371 15.081C10.4469 15.6678 10.2243 16.3203 9.54297 16.622C8.87989 16.9154 8.23989 16.6699 7.71973 16.3681C7.20252 16.0679 6.58121 15.5779 5.83887 14.9931L4.8252 14.1952C4.38859 13.8513 3.95932 13.5129 3.68652 13.2274C3.3936 12.9208 3.125 12.5256 3.125 12.0009Z" fill="#18181B"/>
</svg>
