<svg width="24" height="24" viewBox="0 0 24 24" fill="none" xmlns="http://www.w3.org/2000/svg">
<path d="M20.875 12.003C20.8749 12.5276 20.6064 12.9201 20.3135 13.2267C20.0407 13.5122 19.6115 13.8504 19.1748 14.1944L18.1611 14.9933C17.4187 15.5781 16.7975 16.0681 16.2803 16.3683C15.7601 16.6701 15.1202 16.9147 14.457 16.6212C13.7758 16.3196 13.5531 15.6679 13.4629 15.0811C13.3803 14.5436 13.3763 13.834 13.376 13.0001L4.125 13.0001C3.57272 13.0001 3.125 12.5524 3.125 12.0001C3.125 11.4478 3.57272 11.0001 4.125 11.0001L13.376 11.0001C13.3763 10.1677 13.3804 9.45973 13.4629 8.92295C13.5531 8.33615 13.7757 7.68359 14.457 7.38193C15.1201 7.08854 15.7601 7.33403 16.2803 7.63584C16.7975 7.93598 17.4188 8.42599 18.1611 9.01084L19.1748 9.80869C19.6114 10.1526 20.0407 10.491 20.3135 10.7765C20.6064 11.0831 20.875 11.4783 20.875 12.003Z" fill="#18181B"/>
</svg>
