<svg width="56" height="56" viewBox="0 0 56 56" fill="none" xmlns="http://www.w3.org/2000/svg">
<path opacity="0.3" d="M28.1333 4.08325C33.245 4.08322 37.2599 4.0832 40.3945 4.50464C43.6067 4.93651 46.1553 5.83959 48.1578 7.84205C50.1603 9.84451 51.0633 12.3931 51.4952 15.6053C51.9166 18.7399 51.9166 22.7548 51.9166 27.8664V27.8665V28.1333V28.1334C51.9166 33.245 51.9166 37.2599 51.4952 40.3945C51.0633 43.6067 50.1603 46.1553 48.1578 48.1578C46.1553 50.1603 43.6067 51.0633 40.3945 51.4952C37.2599 51.9166 33.245 51.9166 28.1334 51.9166H28.1333H27.8665H27.8664C22.7548 51.9166 18.7399 51.9166 15.6053 51.4952C12.3931 51.0633 9.84451 50.1603 7.84205 48.1578C5.83959 46.1553 4.93651 43.6067 4.50464 40.3945C4.0832 37.2599 4.08322 33.245 4.08325 28.1333V27.8665C4.08322 22.7549 4.0832 18.7399 4.50464 15.6053C4.93651 12.3931 5.83959 9.84451 7.84205 7.84205C9.84451 5.83959 12.3931 4.93651 15.6053 4.50464C18.7399 4.0832 22.7549 4.08322 27.8665 4.08325H28.1333Z" fill="#F47F6B"/>
<path fill-rule="evenodd" clip-rule="evenodd" d="M16.3333 28.5833C17.2998 28.5833 18.0833 29.3668 18.0833 30.3333L18.0833 39.6666C18.0833 40.6331 17.2998 41.4166 16.3333 41.4166C15.3668 41.4166 14.5833 40.6331 14.5833 39.6666L14.5833 30.3333C14.5833 29.3668 15.3668 28.5833 16.3333 28.5833Z" fill="#F47F6B"/>
<path fill-rule="evenodd" clip-rule="evenodd" d="M28 14.5833C28.9665 14.5833 29.75 15.3668 29.75 16.3333L29.75 39.6666C29.75 40.6331 28.9665 41.4166 28 41.4166C27.0335 41.4166 26.25 40.6331 26.25 39.6666L26.25 16.3333C26.25 15.3668 27.0335 14.5833 28 14.5833Z" fill="#F47F6B"/>
<path fill-rule="evenodd" clip-rule="evenodd" d="M39.6667 23.9165C40.6332 23.9165 41.4167 24.7 41.4167 25.6665L41.4167 39.6665C41.4167 40.633 40.6332 41.4165 39.6667 41.4165C38.7003 41.4165 37.9167 40.633 37.9167 39.6665L37.9167 25.6665C37.9167 24.7 38.7002 23.9165 39.6667 23.9165Z" fill="#F47F6B"/>
</svg>
