<svg width="48" height="48" viewBox="0 0 48 48" fill="none" xmlns="http://www.w3.org/2000/svg">
<path d="M45.4249 30.3934C43.5623 29.1448 46.1691 26.1821 43.6656 25.2621C42.5912 22.621 46.433 4.43777 40.6667 4.99471C38.3838 6.24234 0.067333 1.84675 1.66534 7.99276C2.96566 36.4273 -6.37065 35.9212 25.7494 34.9931C26.6064 38.1499 25.0166 39.9582 29.6854 40.4067C32.011 45.7117 33.253 41.584 36.5717 42.7113C39.8571 45.0664 39.7818 40.4334 42.3023 40.1032C46.3476 40.084 43.62 36.4251 45.4243 34.6447C47.051 33.2271 47.0674 31.8217 45.4249 30.3934ZM43.2767 28.0553C43.1978 28.198 43.1355 28.3492 43.0909 28.506C42.5975 28.7216 42.1551 29.0387 41.7924 29.4367C41.5236 28.6793 41.0637 28.0041 40.4573 27.4767C40.7754 27.1303 41.7793 26.7201 41.4835 26.1615C42.6532 26.5459 43.5894 26.6796 43.2767 28.0553ZM37.6883 27.6177C37.6953 27.7595 37.7517 27.8944 37.8477 27.999C37.9438 28.1036 38.0734 28.1713 38.2141 28.1904C40.4465 28.5555 40.9816 31.2595 40.5385 33.1171C39.5204 37.5884 33.4347 38.6046 31.1308 34.5768C28.7521 30.1657 33.1284 25.6594 37.6883 27.6177ZM36.7514 25.8991C37.4224 25.2866 38.185 24.7896 38.8716 24.1962C39.3743 25.0643 40.1767 25.719 41.1279 26.0374C40.6405 26.3146 40.1943 26.6586 39.8023 27.0596C39.4119 26.8698 38.9874 26.7604 38.554 26.7377C38.0493 26.2861 37.422 25.9942 36.7514 25.8991ZM4.66561 6.49443C6.20386 7.81705 45.5571 3.22368 42.1656 9.49406H3.16561C3.09965 8.34658 3.0477 6.46889 4.66561 6.49443ZM24.4394 33.4944C23.2274 32.8386 2.42817 35.1054 3.16561 31.9944V10.9941H42.1656V24.9124C40.2454 24.9371 40.5967 22.3141 38.8923 21.8171C37.3533 21.2303 36.0842 23.3825 34.6656 22.527C34.198 20.5195 36.1632 13.1012 32.4159 13.2446C31.2519 13.4533 23.4201 12.6979 22.6658 13.8295C7.16272 10.7911 11.0865 15.6137 10.666 27.4943C11.1321 32.5538 20.4157 27.2771 21.9612 31.2529C23.3391 32.9388 24.0225 28.9058 26.0031 29.7444C25.11 30.757 23.4974 31.964 24.4394 33.4944ZM33.1656 21.8446C31.1966 21.1981 30.625 23.2469 29.8178 24.4941C29.0186 24.5025 23.7852 24.0886 26.278 25.9663C25.9211 26.6713 25.8454 27.4857 26.0662 28.2444C25.1344 28.1614 24.2016 28.3919 23.4156 28.8992V15.4944C23.0859 13.9512 31.8245 15.0639 32.4155 14.744C33.9289 14.5162 32.8641 21.2068 33.1656 21.8446ZM21.9156 28.8992C8.00583 26.6187 13.0637 31.7599 12.1653 15.4933C11.8385 13.9401 20.5726 15.0713 21.1655 14.7436C22.734 13.9401 21.584 28.5563 21.9156 28.8992ZM27.5559 28.0556C26.8161 25.3979 31.3056 27.0573 31.6585 24.3094C32.6821 21.8033 35.0317 25.7507 38.4292 23.2426C38.4928 23.4199 38.5654 23.5938 38.6467 23.7638C37.7393 24.3378 36.908 25.0241 36.1726 25.8066C34.716 25.6612 33.254 26.0245 32.0347 26.8347C32.5645 26.3214 33.0956 25.81 33.578 25.2516C33.729 25.0768 33.5237 24.746 33.3118 24.9065C30.6391 27.1686 28.1837 29.6755 25.9777 32.3946C26.168 31.2122 28.0979 30.705 27.5559 28.0556ZM26.1003 33.1904C27.5553 31.9665 28.6781 30.3464 30.0093 28.9791C29.2867 30.24 29.0001 31.704 29.194 33.1442C28.5044 33.6289 27.9006 34.2252 27.4072 34.9085C26.8702 34.4205 26.4272 33.8382 26.1003 33.1904ZM27.7373 37.9118C27.4994 37.3177 27.4136 36.6736 27.4877 36.038C28.1715 35.4787 28.774 34.8142 29.4526 34.2439C29.6371 34.8112 29.9065 35.3473 30.2516 35.8338C29.2678 36.3285 28.4084 37.0388 27.7373 37.9118ZM30.679 39.088C30.6099 39.1577 30.5346 39.2308 30.4593 39.3072C29.8983 39.0197 29.3046 38.8012 28.691 38.6565C29.5058 38.0744 30.2657 37.4191 30.9612 36.6987C31.3457 37.0977 31.7778 37.448 32.2477 37.7417C31.6831 38.1394 31.1578 38.5903 30.679 39.088ZM32.8725 41.5682C32.7153 41.6411 32.5576 41.7091 32.4018 41.7954C32.1532 41.1836 31.8126 40.6135 31.3917 40.1046C32.1183 39.4866 32.9894 39.0436 33.7074 38.423C34.3937 38.6489 35.1157 38.7468 35.8374 38.7121C34.7957 39.6071 33.8058 40.5607 32.8725 41.5682ZM44.373 33.5763C43.8631 33.9632 43.4844 34.4973 43.2882 35.1065C43.092 35.7158 43.0877 36.3705 43.276 36.9822C43.9108 39.6644 39.9261 37.5716 38.4305 41.7949C37.4423 41.2184 36.3094 40.9376 35.1663 40.986C37.3868 39.4408 39.4721 37.6632 41.5903 35.9689C42.5487 35.2768 43.3867 34.4316 44.0705 33.4672C44.2649 33.1614 43.9368 32.6834 43.5742 32.8217C43.0614 33.0228 42.5728 33.2811 42.1179 33.5918C42.3143 32.6197 42.3188 31.6187 42.1313 30.645C42.4744 30.3312 42.8426 30.046 43.2322 29.7925C43.9211 31.2382 46.0467 32.2606 44.373 33.5763Z" fill="#8C857F"/>
<path d="M4.47874 8.49336C5.32399 8.39471 6.33744 8.90311 7.06908 8.33951C7.11551 8.29044 7.14519 8.22791 7.15383 8.16091C7.16248 8.09392 7.14965 8.0259 7.1172 7.96666C6.49116 7.22116 5.21895 7.60462 4.36659 7.66454C4.27055 7.69402 4.18811 7.75665 4.13397 7.84127C4.07982 7.92589 4.0575 8.02699 4.07097 8.12654C4.08444 8.22609 4.13283 8.31762 4.20752 8.3848C4.2822 8.45199 4.37832 8.49046 4.47874 8.49336Z" fill="#8C857F"/>
<path d="M8.65958 8.61109C8.84037 8.62797 9.02254 8.62296 9.20212 8.59617L9.05404 8.61608C9.50374 8.53144 9.96659 8.61526 10.4136 8.54174C11.1275 8.35786 11.0498 7.60964 10.3819 7.42397C9.818 7.32812 8.04879 7.41122 8.21033 8.26905C8.23969 8.36609 8.29891 8.45139 8.37958 8.51281C8.46024 8.57422 8.55823 8.60861 8.65958 8.61109Z" fill="#8C857F"/>
<path d="M13.1945 8.57985C13.7513 8.63655 14.313 8.62623 14.8673 8.5491C14.9376 8.52761 15.0002 8.48635 15.0476 8.43025C15.0951 8.37415 15.1253 8.30558 15.1349 8.23273C15.1444 8.15988 15.1327 8.08583 15.1013 8.01943C15.0699 7.95302 15.02 7.89707 14.9576 7.85824C14.7892 7.75595 14.593 7.70881 14.3964 7.72343C13.9601 7.73744 13.5265 7.79882 13.1034 7.90649C13.0241 7.92923 12.9557 7.97974 12.9106 8.04879C12.8655 8.11784 12.8468 8.20082 12.8578 8.28254C12.8689 8.36426 12.909 8.43928 12.9708 8.49386C13.0326 8.54845 13.112 8.57899 13.1945 8.57985Z" fill="#8C857F"/>
<path d="M15.2073 17.8259C15.8794 17.7014 20.7636 18.7119 19.5146 17.1109C18.2406 16.3526 16.6287 16.5637 15.2073 16.648C15.0525 16.6526 14.9054 16.7162 14.7959 16.8256C14.6865 16.9351 14.623 17.0823 14.6184 17.237C14.6209 17.3924 14.6838 17.5407 14.7937 17.6506C14.9036 17.7605 15.0519 17.8234 15.2073 17.8259Z" fill="#8C857F"/>
<path d="M18.8924 19.8421C17.6147 19.8206 16.3388 19.9445 15.0891 20.2112C14.9874 20.2428 14.9002 20.3095 14.8429 20.3993C14.7857 20.4891 14.7621 20.5963 14.7764 20.7018C14.7907 20.8074 14.8419 20.9044 14.921 20.9758C15 21.0472 15.1018 21.0882 15.2083 21.0917C15.9327 21.0548 21.0075 21.6696 19.555 20.0278C19.3557 19.9055 19.1262 19.8412 18.8924 19.8421Z" fill="#8C857F"/>
<path d="M18.6162 23.8394C17.4089 23.5966 16.1661 23.5884 14.9557 23.8153C14.8468 23.8182 14.7426 23.8598 14.6616 23.9326C14.5805 24.0054 14.528 24.1046 14.5134 24.2125C14.4988 24.3205 14.5231 24.4301 14.5818 24.5217C14.6406 24.6134 14.73 24.6813 14.8342 24.7131C15.4538 24.8428 16.0833 24.92 16.7158 24.944C17.3535 24.9349 18.9052 25.2498 19.0034 24.348C18.9992 24.2336 18.9597 24.1233 18.8904 24.0323C18.8211 23.9412 18.7253 23.8738 18.6162 23.8394Z" fill="#8C857F"/>
<path d="M26.3388 17.6432C27.3279 17.6935 28.3193 17.6774 29.3062 17.5949C29.4047 17.5654 29.4925 17.5081 29.5592 17.4298C29.6258 17.3516 29.6683 17.2557 29.6816 17.1538C29.6949 17.0519 29.6785 16.9483 29.6342 16.8555C29.59 16.7627 29.5198 16.6848 29.4322 16.631C28.0569 16.1812 26.5747 16.1768 25.1967 16.6184C25.1065 16.6739 25.0342 16.7542 24.9886 16.8498C24.943 16.9455 24.9261 17.0522 24.9398 17.1572C24.9535 17.2623 24.9973 17.3611 25.066 17.4418C25.1346 17.5224 25.2251 17.5815 25.3266 17.6119C25.6621 17.6562 26.0012 17.6667 26.3388 17.6432Z" fill="#8C857F"/>
<path d="M30.1137 19.5372C28.662 19.4607 27.2063 19.5312 25.7688 19.7478C25.6349 19.752 25.5077 19.807 25.413 19.9018C25.3183 19.9965 25.2632 20.1237 25.259 20.2576C25.2617 20.392 25.3163 20.5201 25.4113 20.6151C25.5063 20.7101 25.6344 20.7647 25.7688 20.7674C26.9529 20.8722 28.1369 20.9696 29.324 21.0301C29.7795 21.1075 30.2478 21.0224 30.647 20.7899C31.286 20.2751 30.7385 19.69 30.1137 19.5372Z" fill="#8C857F"/>
</svg>
