<svg width="56" height="56" viewBox="0 0 56 56" fill="none" xmlns="http://www.w3.org/2000/svg">
<path opacity="0.4" d="M17.7625 2.9165C19.019 2.9165 20.0375 3.93688 20.0375 5.19557V6.3765C21.6924 6.33505 23.5292 6.33508 25.5586 6.33511H30.4415C32.4708 6.33508 34.3076 6.33505 35.9625 6.3765V5.19557C35.9625 3.93688 36.9811 2.9165 38.2375 2.9165C39.494 2.9165 40.5125 3.93688 40.5125 5.19557V6.68241L40.5633 6.68919C43.2936 7.05693 45.5925 7.84365 47.4183 9.67273C49.2441 11.5018 50.0295 13.8048 50.3965 16.54C50.7501 19.1745 50.7501 22.5242 50.75 26.68V29.1258C50.75 30.3845 49.7314 31.4049 48.475 31.4049C47.2186 31.4049 46.2 30.3845 46.2 29.1258V26.8467C46.2 25.6046 46.1996 24.4695 46.1919 23.4281H9.80807C9.8004 24.4695 9.80001 25.6046 9.80001 26.8467V31.4049C9.80001 35.7668 9.80484 38.8089 10.1129 41.1042C10.4121 43.334 10.9595 44.5148 11.799 45.3558C12.6385 46.1968 13.8172 46.7451 16.043 47.0449C18.3342 47.3535 21.3709 47.3584 25.725 47.3584C26.9814 47.3584 28 48.3787 28 49.6374C28 50.8961 26.9814 51.9165 25.725 51.9165H25.5586C21.4102 51.9166 18.0665 51.9166 15.4367 51.5624C12.7064 51.1947 10.4075 50.408 8.58167 48.5789C6.75585 46.7498 5.97054 44.4468 5.60346 41.7116C5.24989 39.0771 5.24994 35.7274 5.25 31.5717V31.5716V26.68V26.6799C5.24994 22.5242 5.24989 19.1745 5.60346 16.54C5.97054 13.8048 6.75585 11.5018 8.58167 9.67273C10.4075 7.84365 12.7064 7.05693 15.4367 6.68919L15.4875 6.68241V5.19557C15.4875 3.93688 16.5061 2.9165 17.7625 2.9165Z" fill="#F47F6B"/>
<path d="M39.667 30.917C45.788 30.9172 50.75 35.879 50.75 42C50.75 48.121 45.788 53.0828 39.667 53.083C33.5458 53.083 28.583 48.1212 28.583 42C28.583 35.8788 33.5458 30.917 39.667 30.917ZM39.667 35.583C38.7006 35.583 37.9172 36.3667 37.917 37.333V42C37.917 42.4641 38.1015 42.9091 38.4297 43.2373L40.7627 45.5703C41.4461 46.2537 42.5539 46.2537 43.2373 45.5703C43.9206 44.8869 43.9207 43.7791 43.2373 43.0957L41.417 41.2754V37.333C41.4168 36.3668 40.6332 35.5832 39.667 35.583Z" fill="#F47F6B"/>
</svg>
