<svg width="48" height="48" viewBox="0 0 48 48" fill="none" xmlns="http://www.w3.org/2000/svg">
<g clip-path="url(#clip0_1_1530)">
<path d="M2.43196 41.1622C1.71965 43.0985 3.82267 44.103 5.43612 44.2459C8.84735 44.6757 12.292 44.7767 15.7227 44.5479C22.9477 44.2963 30.2044 44.214 37.4149 43.6925C39.2911 43.5568 41.2233 43.6755 43.0861 43.4431C44.0466 43.4167 44.8787 42.7696 45.1408 41.8454C45.9024 41.8448 46.664 41.846 47.4255 41.8439C47.7536 41.8328 48.0105 41.5579 47.9995 41.2299C47.9901 40.952 47.7894 40.7178 47.5162 40.666C47.5694 32.1262 47.8335 23.5759 47.654 15.0355C47.9422 14.8023 47.9868 14.3797 47.7537 14.0915C47.7075 14.0345 47.6523 13.9854 47.5903 13.9462C47.5974 10.5153 46.5244 8.33069 42.7382 8.57368C38.9385 8.75164 35.1373 9.17896 31.3351 9.06824C24.4411 9.01418 17.5436 9.09777 10.6518 8.86386C9.85203 8.93717 -0.0466207 7.83045 1.53621 9.06924C0.447339 13.9824 0.708484 19.4717 0.359161 24.5146C0.253725 27.2816 0.171831 30.0496 0.113477 32.8181C0.0519318 35.5366 -0.661178 39.863 2.43196 41.1622ZM3.04831 41.3746C4.16541 41.6023 5.30544 41.6969 6.44478 41.6565C5.77457 42.0912 5.16759 42.6163 4.64101 43.217C3.84212 43.0246 2.71156 42.2363 3.04831 41.3746ZM5.41397 43.3805C5.95172 43.0106 6.45645 42.595 6.92258 42.1381C7.05106 42.0104 7.05156 41.8028 6.92388 41.6743C6.92149 41.6719 6.91899 41.6695 6.9165 41.6671C7.70243 41.6838 8.48805 41.7059 9.27438 41.7169C8.5478 42.3042 7.86811 42.921 7.19011 43.5645C6.60777 43.5196 6.00319 43.4751 5.41397 43.3805ZM21.3179 42.8327C21.0986 42.992 20.9113 43.1913 20.7658 43.4201C19.5765 43.4711 18.387 43.5202 17.1974 43.5675C18.156 42.9192 19.1607 42.3702 20.1494 41.7644C21.1018 41.7516 22.0627 41.7332 23.0078 41.6745C22.4251 42.0315 21.8611 42.418 21.3179 42.8327ZM17.7794 41.9373C17.1341 42.4468 16.5306 43.0068 15.9743 43.6122C14.8785 43.6507 13.7827 43.683 12.6869 43.7022C13.6779 43.2229 14.5799 42.5779 15.3536 41.7949C16.2313 41.8023 17.1089 41.8024 17.9863 41.795C17.9183 41.8435 17.8443 41.8866 17.7794 41.9373ZM13.0041 42.3606C12.3939 42.8047 11.7898 43.2572 11.1827 43.7054C10.3329 43.7041 9.48385 43.6824 8.63548 43.6404C9.24725 43.1158 10.3879 42.6216 10.4394 41.7338C11.615 41.7472 12.7896 41.7713 13.9649 41.7804C13.6446 41.9686 13.3041 42.1422 13.0041 42.3606ZM22.2985 43.3567C22.7735 42.9689 24.5724 42.3296 24.075 41.5557C25.4629 41.3159 26.8821 41.32 28.2686 41.5679C27.536 42.0755 26.8311 42.6219 26.1568 43.2047C24.8707 43.2555 23.5845 43.3024 22.2985 43.3567ZM31.5639 42.2716C31.2293 42.5029 30.911 42.7569 30.6111 43.0319C29.562 43.0726 28.5128 43.1134 27.4636 43.1541C28 42.6831 28.9168 42.3226 29.1485 41.6258C30.3258 41.6669 31.5035 41.6963 32.6811 41.7243C32.2711 41.8173 31.8887 42.0048 31.5639 42.2716ZM32.4695 42.9597C32.7893 42.7671 33.686 42.0821 33.1483 41.7372C34.2715 41.7624 35.3948 41.7793 36.5181 41.7947C36.1915 42.0369 35.8665 42.2818 35.5592 42.5479C35.4735 42.6328 35.4728 42.771 35.5577 42.8567C35.5661 42.8652 35.5753 42.873 35.5849 42.8801C34.5459 42.8769 33.5074 42.916 32.4695 42.9597ZM35.8687 42.8757C36.3986 42.4846 36.9649 42.1487 37.5288 41.8099C38.3567 41.8194 39.1846 41.8263 40.0126 41.8308C39.6487 42.2111 39.1655 42.4761 38.8071 42.8534C37.8276 42.8696 36.8481 42.8714 35.8687 42.8757ZM41.7937 42.7257C41.2246 42.7557 40.6552 42.7862 40.0856 42.8121C40.5044 42.4518 41.1308 42.2971 41.4457 41.839C42.3785 41.8428 43.3112 41.8451 44.244 41.846C43.8428 42.6877 42.6667 42.6799 41.7937 42.7257ZM8.68346 9.66046C16.1537 9.97706 23.6669 10.3373 31.1382 9.84789C33.5625 9.54475 35.9853 9.66724 38.4233 9.56619C42.2387 9.41048 47.5797 7.90995 46.7682 13.8115C45.4686 13.7075 44.1683 13.6131 42.8671 13.5284C42.9178 13.1525 42.9365 12.7728 42.923 12.3937C43.3667 11.7767 42.7413 10.7864 42.048 11.1867C39.5345 10.8439 36.5761 11.0047 34.8313 13.0872C23.9051 12.6787 12.9398 12.3174 2.0171 12.89C2.0955 11.6411 2.06628 10.3876 1.92962 9.14365C4.1657 9.47781 6.42274 9.65058 8.68346 9.66046ZM39.8288 12.8364C39.8491 12.6103 39.82 12.3824 39.7434 12.1688C40.0586 12.1654 40.3741 12.1705 40.6886 12.1924C40.4018 12.4069 40.1153 12.6215 39.8288 12.8364ZM38.9782 12.9785L39.022 13.4406C38.6695 13.7044 38.3171 13.9684 37.9648 14.2325C38.0843 13.747 37.7641 13.2626 37.3207 13.6062C37.0042 14.0467 36.8208 14.5689 36.7923 15.1107C36.1605 15.5843 35.5285 16.0576 34.8964 16.5307C34.8148 14.2223 36.6199 12.2849 38.9283 12.2033C38.9644 12.202 39.0007 12.2012 39.0369 12.2009C38.9604 12.4526 38.9403 12.7182 38.9782 12.9785ZM37.5433 16.4575C37.9297 16.5967 38.3396 16.6595 38.7501 16.6421C39.1735 16.6064 39.6505 16.7231 40.0205 16.475C40.1676 16.3837 40.2129 16.1904 40.1215 16.0432C40.0961 16.0022 40.0615 15.9676 40.0205 15.9422C39.453 15.7808 38.8535 15.769 38.2802 15.9082C38.7455 15.5613 39.2109 15.2144 39.6763 14.8674C40.1708 15.0348 40.7028 15.0577 41.2099 14.9333C40.5807 17.1196 38.068 19.2642 35.8657 17.7084C36.425 17.2916 36.9842 16.8747 37.5433 16.4575ZM41.4519 14.1142C41.275 14.0341 41.0868 13.9819 40.894 13.9594C41.1238 13.7879 41.3537 13.6164 41.5838 13.4452C41.547 13.6696 41.5047 13.8929 41.4519 14.1142ZM0.896512 36.955C1.16893 29.2529 1.35696 21.566 1.95745 13.8764C12.6865 13.5382 23.4432 13.2697 34.1652 14.0488C33.5735 15.0772 33.3977 16.2928 33.6738 17.4466C33.4752 17.5955 33.2766 17.7443 33.0779 17.893C31.3738 16.2038 29.07 15.2586 26.6706 15.2642C26.3738 15.2732 26.1404 15.521 26.1494 15.8178C26.1548 15.9972 26.2495 16.1621 26.4017 16.2574C28.1198 17.3433 30.3081 17.3463 31.8608 18.8049C31.2288 19.2776 30.6036 19.7593 29.9796 20.2423C29.4974 19.5932 28.7979 19.1393 28.0086 18.9635C27.7411 18.8994 27.4722 19.0642 27.408 19.3318C27.3582 19.5394 27.4462 19.7555 27.6267 19.8694C28.109 20.2133 28.5577 20.602 28.9668 21.0303C28.4141 21.468 27.8634 21.9094 27.3144 22.3544C26.6588 21.7179 25.6202 21.7041 24.9479 22.3231C24.8427 22.426 24.793 22.573 24.8144 22.7188C21.5467 22.2685 20.0447 26.6677 22.6108 28.575C24.4935 30.1037 27.4481 28.8911 28.5476 26.9668C29.0899 25.7701 28.5412 24.517 28.0497 23.3913C28.6261 22.9951 29.2003 22.5962 29.7723 22.1947C30.7702 24.4728 31.2621 27.7096 29.2625 29.5873C26.5035 32.3444 22.2819 32.7949 19.6866 29.5778C18.0311 27.65 17.418 25.071 18.8918 22.8592C20.5725 20.337 23.5463 19.9595 26.2744 19.4063C26.6225 19.3357 26.4947 18.8731 26.1974 18.8368C22.0999 18.2747 17.0293 21.0873 17.0127 25.599C17.2602 29.5667 21.2855 33.819 25.4594 32.8517C31.4061 30.8851 33.144 27.3139 30.765 21.4821C31.4623 20.9803 32.1573 20.4753 32.8454 19.9608C34.5434 22.9788 34.8885 26.5735 33.7955 29.8595C33.0537 31.7992 31.5872 33.3747 29.7056 34.2534C22.5728 37.9422 15.8443 36.7786 13.6265 28.3085C11.5943 22.0948 16.5334 16.7637 22.591 16.1252C23.667 16.0059 24.7446 16.0404 25.8115 15.8798C25.9413 15.8411 26.0153 15.7044 25.9766 15.5745C25.9593 15.5166 25.9212 15.467 25.8695 15.4354C21.6986 13.7248 16.297 16.4612 13.8257 19.9349C10.8015 24.2157 12.4142 29.5243 15.2187 33.4466C18.2916 38.0971 24.0412 37.8079 28.7052 35.9993C30.8531 35.2419 32.9341 34.179 34.275 32.2715C36.7257 28.5171 36.3124 22.8271 34.0346 19.0733C34.3389 18.8467 34.6431 18.62 34.9471 18.393C37.9229 21.2107 41.9434 17.9956 42.6239 14.6886C43.9582 14.8069 45.2924 14.9305 46.6261 15.0594C46.0631 23.5695 46.2014 32.1121 45.9829 40.6354C41.3243 40.5965 36.6639 40.5805 32.0064 40.6774C29.3873 40.6142 26.8112 41.0731 24.2158 40.7468C17.298 40.0174 10.2811 40.8284 3.3331 40.523C3.25739 40.4358 3.1313 40.4129 3.02976 40.4678C1.23476 40.213 0.778408 38.5315 0.896512 36.955ZM25.1316 23.5633C25.3308 23.5545 25.4852 23.3858 25.4763 23.1866C25.4755 23.1696 25.4736 23.1527 25.4705 23.136C25.7365 23.1177 26.0025 23.169 26.2425 23.2851C25.736 23.787 25.2841 24.3298 24.7698 24.8293C24.7022 24.901 24.7054 25.0139 24.7772 25.0815C24.8333 25.1345 24.9173 25.1454 24.985 25.1084C25.7184 24.6956 26.4817 24.3796 27.2038 23.9457C27.8602 24.6111 28.5664 25.6479 28.0492 26.5635C27.0863 27.8405 25.0316 28.6949 23.5493 27.847C21.4485 26.3882 22.7918 23.6406 25.1316 23.5633Z" fill="#8C857F"/>
<path d="M5.04974 11.8407C5.88864 11.7918 6.83696 12.0871 7.56114 11.5467C7.72174 11.4486 7.77231 11.2388 7.67415 11.0783C7.64602 11.0322 7.60722 10.9935 7.56114 10.9653C6.81172 10.4611 5.88963 10.7806 5.04974 10.7747C4.7861 10.9057 4.7064 11.2814 4.83748 11.545C4.88915 11.649 4.97343 11.7333 5.04974 11.8407Z" fill="#8C857F"/>
<path d="M10.405 11.7658C11.1057 11.696 11.8507 11.9465 12.5165 11.656C12.6478 11.5803 12.7259 11.4377 12.7189 11.2863C12.3917 10.4208 10.9688 10.8661 10.313 11.086C10.1296 11.1431 10.0271 11.338 10.0841 11.5214C10.1281 11.6629 10.2569 11.761 10.405 11.7658Z" fill="#8C857F"/>
<path d="M14.4151 11.9898C14.9881 12.0269 15.698 12.2853 16.1924 11.8938C16.3931 11.6823 16.3843 11.3481 16.1727 11.1474C16.0899 11.0689 15.9839 11.0192 15.8706 11.006C15.342 10.9918 14.815 11.0698 14.3133 11.2367C14.1094 11.2951 13.9916 11.5079 14.05 11.7117C14.0968 11.8749 14.2453 11.988 14.4151 11.9898Z" fill="#8C857F"/>
<path d="M35.8032 6.96345C36.2867 8.59406 37.8692 8.21192 37.2653 6.52974C37.111 5.65424 36.8487 4.80128 36.4845 3.99032C36.3353 3.75062 36.02 3.6772 35.7803 3.82643C35.6754 3.89176 35.5978 3.99281 35.5615 4.11091C35.3039 5.06063 35.3895 6.07069 35.8032 6.96345Z" fill="#8C857F"/>
<path d="M39.4524 7.13708C39.5291 7.40551 39.7913 7.57678 40.0679 7.53897C40.6356 7.46416 40.5478 6.81948 40.6111 6.39505C40.693 5.6956 40.7046 4.97132 40.7662 4.2621C40.8443 3.67488 40.2788 3.00994 39.7316 3.5075C39.007 4.4598 39.1589 6.03415 39.4524 7.13708Z" fill="#8C857F"/>
<path d="M42.5064 6.88068C43.3044 7.22791 43.6425 6.06254 44.0529 5.58713C44.3532 5.17077 44.5395 4.6832 44.5937 4.17278C44.5889 3.88071 44.3482 3.6479 44.0561 3.65279C43.9682 3.65428 43.8822 3.67752 43.8055 3.72062C43.0102 4.24789 42.6996 5.26115 42.2982 6.08747C42.1413 6.36448 42.2336 6.71619 42.5064 6.88068Z" fill="#8C857F"/>
</g>
<defs>
<clipPath id="clip0_1_1530">
<rect width="48" height="48" fill="white"/>
</clipPath>
</defs>
</svg>
