<svg width="56" height="56" viewBox="0 0 56 56" fill="none" xmlns="http://www.w3.org/2000/svg">
<path d="M32.8443 2.87151C33.0518 3.10756 33.0072 3.46882 32.918 4.19134L32.7842 5.27457C32.5474 6.69477 32.3918 7.60543 32.193 8.27289C32.0066 8.89922 31.84 9.09832 31.7078 9.21028C31.5756 9.32225 31.3519 9.45384 30.7034 9.5348C30.0065 9.62182 29.0727 9.625 27.6117 9.625H23.1382C21.6772 9.625 20.7434 9.62182 20.0465 9.5348C19.398 9.45384 19.1742 9.32225 19.0421 9.21028C18.9099 9.09832 18.7433 8.89922 18.5568 8.27289C18.3584 7.60628 18.2028 6.69709 17.9666 5.28001L17.8381 4.18271C17.7539 3.46368 17.7118 3.10417 17.9192 2.86976C18.1266 2.63535 18.4863 2.63337 19.2057 2.62941C20.009 2.62498 20.8533 2.62499 21.7389 2.625H29.0115C29.8995 2.62499 30.7465 2.62498 31.5516 2.62944C32.275 2.63345 32.6367 2.63545 32.8443 2.87151Z" fill="#F47F6B"/>
<path opacity="0.4" d="M13.9638 2.99755C14.1956 3.17754 14.2332 3.49896 14.3085 4.14181L14.4949 5.73344L14.506 5.79999C14.7205 7.08779 14.9363 8.38354 15.2019 9.27568C15.493 10.2535 15.9324 11.1675 16.7793 11.885C17.6263 12.6024 18.6001 12.8856 19.6124 13.012C20.552 13.1293 21.7068 13.1292 23.0345 13.1291H27.7146C29.0422 13.1292 30.197 13.1293 31.1366 13.012C32.149 12.8856 33.1228 12.6024 33.9697 11.885C34.8167 11.1675 35.256 10.2535 35.5471 9.27568C35.8138 8.37998 36.0291 7.08776 36.2444 5.79518L36.2529 5.74439L36.4517 4.13452C36.5306 3.49554 36.57 3.17605 36.8015 2.99758C37.033 2.81911 37.3395 2.86051 37.9525 2.9433L38.0814 2.96112C40.5162 3.30571 42.5142 4.03793 44.0852 5.69166C45.6442 7.33275 46.3236 9.39851 46.6453 11.9177C46.9585 14.3695 46.9585 17.5007 46.9584 21.4472L46.9573 31.0134C46.9573 31.4514 46.9572 31.6704 46.8529 31.8394C46.7485 32.0085 46.5409 32.1125 46.1257 32.3206C44.2096 33.2809 42.4962 34.578 41.0665 35.8318C39.141 37.5204 37.3833 39.4415 35.9297 41.1839C35.8027 41.3362 35.7391 41.4124 35.6781 41.4594C35.4985 41.5977 35.3081 41.6384 35.0876 41.5854C35.0127 41.5675 34.9134 41.5189 34.7149 41.4219C34.1966 41.1684 33.6955 40.9802 33.2225 40.8447L33.2201 40.844L33.2112 40.8415C33.1313 40.8184 32.1676 40.5457 31.213 40.5457C27.9913 40.5457 25.3796 43.1573 25.3796 46.379C25.3796 48.9962 27.1012 51.2082 29.4753 51.9484C29.5577 51.9741 29.6005 51.9809 29.6535 52.049C29.8787 52.3386 29.6802 52.7958 29.3133 52.7958H21.739C18.0047 52.7958 15.0153 52.7959 12.6688 52.4638C10.2339 52.1192 8.23601 51.387 6.66497 49.7332C5.10593 48.0922 4.42661 46.0264 4.10485 43.5072C3.79169 41.0554 3.79172 37.9242 3.79175 33.9778V21.4471C3.79172 17.5007 3.79169 14.3695 4.10485 11.9177C4.42661 9.39851 5.10593 7.33275 6.66497 5.69166C8.23601 4.03793 10.2339 3.30571 12.6688 2.96112L12.8073 2.942C13.4237 2.85904 13.732 2.81756 13.9638 2.99755Z" fill="#F47F6B"/>
<path fill-rule="evenodd" clip-rule="evenodd" d="M14.2961 25.375C14.2961 24.4085 15.0796 23.625 16.0461 23.625H34.7128C35.6793 23.625 36.4628 24.4085 36.4628 25.375C36.4628 26.3415 35.6793 27.125 34.7128 27.125H16.0461C15.0796 27.125 14.2961 26.3415 14.2961 25.375ZM14.2961 37.0417C14.2961 36.0752 15.0796 35.2917 16.0461 35.2917H25.3795C26.346 35.2917 27.1295 36.0752 27.1295 37.0417C27.1295 38.0082 26.346 38.7917 25.3795 38.7917H16.0461C15.0796 38.7917 14.2961 38.0082 14.2961 37.0417Z" fill="#F47F6B"/>
<path d="M52.0745 36.2632C52.5047 37.478 51.8687 38.8115 50.654 39.2417C49.4088 39.6827 47.9704 40.632 46.4466 41.9684C44.9469 43.2835 43.4883 44.863 42.1961 46.4119C40.9085 47.9554 39.8147 49.4341 39.0423 50.5284C38.6569 51.0744 38.0498 51.9853 37.8445 52.2934C37.3935 53.003 36.5953 53.4155 35.7557 53.3725C34.9158 53.3295 34.1641 52.8379 33.788 52.0857C32.7597 50.0292 31.8373 49.2103 31.3724 48.9003C31.1756 48.7692 31.0427 48.7166 30.9899 48.6988C29.8036 48.5887 28.875 47.5906 28.875 46.3756C28.875 45.0869 29.9197 44.0422 31.2083 44.0422C31.7552 44.0422 32.0096 44.1361 32.2504 44.2049C32.7354 44.3435 33.3207 44.5906 33.961 45.0174C34.6009 45.4441 35.2721 46.0339 35.9459 46.8409C36.6813 45.8358 37.5877 44.6512 38.6127 43.4225C39.997 41.7631 41.6266 39.9884 43.3696 38.4598C45.0884 36.9524 47.0471 35.5684 49.096 34.8428C50.3108 34.4125 51.6442 35.0485 52.0745 36.2632Z" fill="#F47F6B"/>
</svg>
