<svg width="24" height="24" viewBox="0 0 24 24" fill="none" xmlns="http://www.w3.org/2000/svg">
<path d="M12.5566 1.25C14.3943 1.24998 15.8501 1.25016 16.9893 1.40332C18.1616 1.56096 19.1101 1.89329 19.8584 2.6416C20.6067 3.38991 20.939 4.33844 21.0967 5.51074C21.2498 6.6499 21.25 8.10573 21.25 9.94336V17C21.25 17.0672 21.2373 17.1314 21.2207 17.1934C21.2137 17.2288 21.2059 17.2638 21.1953 17.2979C21.1759 17.3603 21.1499 17.42 21.1191 17.4766C21.0575 17.5899 20.9748 17.69 20.876 17.7715C20.8514 17.7917 20.8262 17.8112 20.7998 17.8291C20.7466 17.8651 20.6898 17.8965 20.6299 17.9219C20.5402 17.9599 20.4436 17.9848 20.3428 17.9951C20.3091 17.9985 20.2748 18 20.2402 18C19.4118 18 18.7402 18.6716 18.7402 19.5C18.7402 20.3284 19.4118 21 20.2402 21C20.2748 21 20.3091 21.0015 20.3428 21.0049C20.4436 21.0152 20.5402 21.0401 20.6299 21.0781C20.6898 21.1035 20.7466 21.1349 20.7998 21.1709C20.8262 21.1888 20.8514 21.2083 20.876 21.2285C20.9748 21.31 21.0575 21.4101 21.1191 21.5234C21.1499 21.58 21.1759 21.6397 21.1953 21.7021C21.2246 21.7962 21.2402 21.8963 21.2402 22C21.2402 22.1037 21.2246 22.2038 21.1953 22.2979C21.1759 22.3603 21.1499 22.42 21.1191 22.4766C21.0575 22.5899 20.9748 22.69 20.876 22.7715C20.8514 22.7917 20.8262 22.8112 20.7998 22.8291C20.7466 22.8651 20.6898 22.8965 20.6299 22.9219C20.5402 22.9599 20.4436 22.9848 20.3428 22.9951C20.3091 22.9985 20.2748 23 20.2402 23L6.20996 23C4.28325 23 2.74609 21.4192 2.74609 19.5C2.74609 19.448 2.74776 19.3962 2.75 19.3447L2.75 9.94336C2.74998 8.10571 2.75016 6.64991 2.90332 5.51074C3.06096 4.33844 3.39329 3.38991 4.1416 2.6416C4.88991 1.89329 5.83844 1.56096 7.01074 1.40332C8.14991 1.25016 9.60571 1.24998 11.4434 1.25L12.5566 1.25ZM6.20996 18C5.41522 18 4.74609 18.6578 4.74609 19.5C4.74609 20.3422 5.41522 21 6.20996 21L17.0771 21C16.8612 20.5454 16.7402 20.0368 16.7402 19.5C16.7402 18.9632 16.8612 18.4546 17.0771 18L6.20996 18ZM9 10.25C8.58579 10.25 8.25 10.5858 8.25 11C8.25 11.4142 8.58579 11.75 9 11.75H12C12.4142 11.75 12.75 11.4142 12.75 11C12.75 10.5858 12.4142 10.25 12 10.25H9ZM9 6.25C8.58579 6.25 8.25 6.58579 8.25 7C8.25 7.41421 8.58579 7.75 9 7.75L15 7.75C15.4142 7.75 15.75 7.41421 15.75 7C15.75 6.58579 15.4142 6.25 15 6.25L9 6.25Z" fill="#ED573C"/>
</svg>
