<svg width="24" height="24" viewBox="0 0 24 24" fill="none" xmlns="http://www.w3.org/2000/svg">
<path d="M7.49805 3C7.49805 2.0335 8.28155 1.25 9.24805 1.25H14.748C15.7145 1.25 16.498 2.0335 16.498 3C16.498 3.9665 15.7145 4.75 14.748 4.75H9.24805C8.28155 4.75 7.49805 3.9665 7.49805 3Z" fill="#CE4A98"/>
<path d="M17.9121 2.85281C18.8121 2.97698 19.56 3.24239 20.1504 3.83328C20.752 4.4356 21.0109 5.19436 21.1318 6.095C21.2484 6.96265 21.2481 8.06602 21.248 9.43484L21.248 16.0501C21.2481 17.4188 21.2483 18.5223 21.1318 19.3899C21.0109 20.2905 20.752 21.0493 20.1504 21.6516C19.5485 22.2541 18.7899 22.5129 17.8896 22.6341C17.0227 22.7507 15.9202 22.7513 14.5527 22.7513L9.44336 22.7513C8.07591 22.7513 6.97343 22.7507 6.10645 22.6341C5.20621 22.5129 4.44759 22.2541 3.8457 21.6516C3.2441 21.0493 2.98523 20.2905 2.86426 19.3899C2.74776 18.5223 2.74803 17.4188 2.74805 16.0501L2.74805 9.43484C2.74803 8.06606 2.74775 6.96263 2.86426 6.095C2.98523 5.19436 3.24405 4.4356 3.8457 3.83328C4.43604 3.24239 5.18403 2.97698 6.08398 2.85281C6.17178 2.8407 6.24805 2.91262 6.24805 3.00125C6.24811 4.65805 7.59123 6.00125 9.24805 6.00125L14.748 6.00125C16.4049 6.00125 17.748 4.65806 17.748 3.00125C17.748 2.91262 17.8243 2.8407 17.9121 2.85281ZM8.00195 16.0003C7.44967 16.0003 7.00195 16.448 7.00195 17.0003C7.00209 17.5524 7.44976 18.0003 8.00195 18.0003H9.00195C9.55415 18.0003 10.0018 17.5524 10.002 17.0003C10.002 16.448 9.55424 16.0003 9.00195 16.0003H8.00195ZM13.502 16.2503C13.0877 16.2503 12.752 16.5861 12.752 17.0003C12.7521 17.4144 13.0878 17.7503 13.502 17.7503L17.002 17.7503C17.4161 17.7503 17.7518 17.4144 17.752 17.0003C17.752 16.5861 17.4162 16.2503 17.002 16.2503L13.502 16.2503ZM11.709 9.75027C11.5707 9.35994 11.1423 9.1552 10.752 9.29324C10.2698 9.464 9.82213 9.78431 9.44336 10.1165C9.05685 10.4555 8.69805 10.8458 8.39648 11.2073C8.25036 11.3825 8.11579 11.5537 7.99512 11.7122C7.90692 11.6296 7.81817 11.5597 7.73047 11.5013C7.57154 11.3953 7.4225 11.331 7.29395 11.2942H7.29102C7.22748 11.2761 7.13834 11.2503 7.00195 11.2503C6.58774 11.2503 6.25195 11.5861 6.25195 12.0003C6.25198 12.3749 6.52672 12.6857 6.88574 12.7415C6.88931 12.7436 6.89363 12.7461 6.89844 12.7493C6.95415 12.7864 7.12565 12.9245 7.33105 13.3352C7.45194 13.577 7.69391 13.7355 7.96387 13.7493C8.23345 13.763 8.48979 13.6303 8.63477 13.4026C8.67763 13.3383 8.80362 13.1494 8.88477 13.0345C9.04757 12.8038 9.27833 12.4925 9.54883 12.1682C9.82071 11.8423 10.1234 11.5138 10.4316 11.2434C10.7475 10.9664 11.0283 10.7866 11.252 10.7073C11.6423 10.5691 11.847 10.1406 11.709 9.75027ZM13.502 10.2503C13.0877 10.2503 12.752 10.5861 12.752 11.0003C12.7521 11.4144 13.0878 11.7503 13.502 11.7503L17.002 11.7503C17.4161 11.7503 17.7518 11.4144 17.752 11.0003C17.752 10.5861 17.4162 10.2503 17.002 10.2503H13.502Z" fill="#CE4A98"/>
</svg>
