<svg width="48" height="48" viewBox="0 0 48 48" fill="none" xmlns="http://www.w3.org/2000/svg">
<path d="M10.417 43.825C11.4849 42.1353 11.0907 40.0187 10.7118 38.1865C10.5319 37.3166 9.16133 37.6819 9.37273 38.5557C9.7382 40.0663 10.2513 42.0072 9.1064 43.3077C8.92709 43.5773 8.67443 43.7901 8.3782 43.9209C8.08197 44.0518 7.75452 44.0952 7.43443 44.0461C7.11434 43.997 6.81495 43.8575 6.57154 43.6439C6.32813 43.4303 6.15084 43.1516 6.06058 42.8406C5.56721 41.4188 5.26301 39.9383 5.15582 38.4372C3.25546 26.3355 4.46207 14.0219 7.06808 2.12745C7.09687 2.00554 7.07728 1.87721 7.01342 1.76945C6.94956 1.66169 6.8464 1.58289 6.72563 1.54961C6.60487 1.51634 6.47591 1.53119 6.36586 1.59103C6.25582 1.65088 6.17327 1.75106 6.13556 1.87051C4.95066 5.63673 4.13963 9.51052 3.71423 13.4357C2.69903 21.2703 2.66156 29.2006 3.60267 37.0444C4.07393 39.6902 3.75982 44.2314 6.71784 45.3923C7.42099 45.5706 8.16318 45.514 8.83111 45.231C9.49905 44.948 10.056 44.4542 10.417 43.825Z" fill="#8C857F"/>
<path d="M38.7739 37.5641C37.7093 37.2423 36.5608 37.53 35.4743 37.543C35.5856 36.3604 35.5486 35.1685 35.3643 33.9951C35.1012 34.1304 34.8061 34.1911 34.5111 34.1704C34.216 34.1498 33.9322 34.0487 33.6906 33.8781C33.7117 35.133 33.8198 36.385 34.0141 37.6251C26.3058 38.1236 18.6219 37.4432 10.9556 36.7281C10.8112 36.7323 10.6731 36.7876 10.5657 36.8841C10.4584 36.9807 10.3888 37.1123 10.3695 37.2554C10.3501 37.3984 10.3822 37.5438 10.46 37.6654C10.5378 37.787 10.6563 37.8771 10.7943 37.9194C19.517 39.3607 28.385 39.7124 37.1944 38.9666C38.4928 38.6707 38.508 39.1549 38.219 40.2983C37.6925 44.4668 33.6251 44.7712 30.2123 44.6613C23.566 44.6451 16.9185 44.5224 10.2724 44.5402C10.0355 44.5484 9.81106 44.6483 9.64637 44.8189C9.48169 44.9894 9.38965 45.2172 9.38965 45.4543C9.38965 45.6913 9.48169 45.9191 9.64637 46.0896C9.81106 46.2602 10.0355 46.3601 10.2724 46.3683C14.934 46.4335 19.5989 46.3948 24.2611 46.4079C29.2911 46.0921 38.1249 48.1327 39.6711 41.5512C39.9304 40.2632 40.4086 38.0974 38.7739 37.5641Z" fill="#8C857F"/>
<path d="M8.34158 2.4984C15.5525 3.94122 23.0086 3.88487 30.3256 3.52114C31.6022 3.44006 32.8771 3.3376 34.1504 3.21375C35.1173 3.11959 36.437 3.2544 37.1876 2.57261C37.2355 2.52382 37.2717 2.46481 37.2934 2.40003C37.3152 2.33524 37.3219 2.26636 37.3132 2.19858C37.3045 2.1308 37.2804 2.06588 37.243 2.00873C37.2055 1.95157 37.1556 1.90366 37.0969 1.86861C36.2173 1.39547 34.9325 1.8287 33.9686 1.92556C30.3272 2.2882 26.6743 2.48507 23.0098 2.51616C18.1328 2.55178 13.2879 2.12185 8.42096 1.91146C8.34985 1.91352 8.28179 1.94077 8.2289 1.98836C8.17602 2.03594 8.14176 2.10075 8.13223 2.17125C8.12269 2.24174 8.13851 2.31333 8.17685 2.37325C8.21519 2.43317 8.27357 2.47752 8.34158 2.4984Z" fill="#8C857F"/>
<path d="M36.1472 9.69897C36.2944 9.50213 36.4414 9.30522 36.592 9.11088C37.0446 7.03456 37.5885 4.97737 38.2388 2.95016C38.368 2.54751 37.7397 2.27216 37.548 2.65893C36.3829 5.04897 35.4877 7.56135 34.8788 10.1496C35.2799 9.94414 35.7064 9.79262 36.1472 9.69897Z" fill="#8C857F"/>
<path d="M10.915 23.7616C16.5826 28.3979 24.4849 23.3463 23.1575 16.3032C22.4691 12.8642 19.3289 9.36692 15.612 9.58537C14.1318 8.5554 12.0428 10.011 10.9409 11.0399C7.28608 14.2645 7.04091 20.6123 10.915 23.7616ZM15.1431 10.5984C15.2589 10.7246 15.4181 10.8026 15.5889 10.8167C17.1954 10.918 18.6986 11.6434 19.7776 12.838C18.1592 13.7771 16.7237 15.001 15.5404 16.4505C15.4155 14.6746 15.1627 12.9117 14.9601 11.1436C14.9518 11.0592 14.9257 10.9776 14.8835 10.904C14.8413 10.8305 14.7839 10.7667 14.7152 10.717C14.8551 10.6813 14.9993 10.639 15.1431 10.5984ZM9.57023 16.7394C9.7295 15.4695 10.2203 14.264 10.9932 13.2439C11.7661 12.2238 12.7939 11.4252 13.9734 10.9283C13.8581 10.8414 14.0129 14.235 13.9905 14.2818C14.0851 15.3425 13.9211 16.5145 14.2789 17.5225C14.3397 17.6248 14.4263 17.7093 14.5302 17.7673C14.634 17.8254 14.7513 17.855 14.8703 17.8531C14.9892 17.8513 15.1056 17.8181 15.2076 17.7568C15.3096 17.6956 15.3936 17.6085 15.4511 17.5044C17.0808 16.2241 18.9908 15.3511 20.6856 14.1714C23.6197 19.4183 18.6501 26.1003 12.8752 23.2636C11.7372 22.629 10.8146 21.669 10.2257 20.5066C9.63686 19.3442 9.40861 18.0324 9.57023 16.7394Z" fill="#8C857F"/>
<path d="M17.7321 29.486C17.929 29.5378 18.1383 29.5098 18.3147 29.4082C18.491 29.3067 18.6203 29.1397 18.6744 28.9435C18.7285 28.7473 18.7031 28.5376 18.6037 28.36C18.5042 28.1824 18.3388 28.0512 18.1433 27.9947C15.5607 27.4659 12.8922 27.5258 10.3359 28.17C10.2321 28.2022 10.143 28.2701 10.0846 28.3617C10.0261 28.4533 10.002 28.5627 10.0166 28.6703C10.0312 28.778 10.0835 28.8771 10.1642 28.9498C10.2449 29.0226 10.3488 29.0644 10.4574 29.0678C12.8882 29.0734 15.3168 29.213 17.7321 29.486Z" fill="#8C857F"/>
<path d="M9.94744 32.9051C14.0197 33.2933 18.1062 33.22 22.1936 33.2345C22.4055 33.2272 22.6063 33.1379 22.7536 32.9854C22.9009 32.8329 22.9833 32.6291 22.9833 32.4171C22.9833 32.2051 22.9009 32.0014 22.7536 31.8489C22.6063 31.6964 22.4055 31.6071 22.1936 31.5997C18.1061 31.6173 14.0195 31.5471 9.94744 31.9383C9.82241 31.9431 9.70409 31.9961 9.61731 32.0862C9.53053 32.1764 9.48206 32.2966 9.48206 32.4217C9.48206 32.5469 9.53053 32.6671 9.61731 32.7572C9.70409 32.8474 9.82241 32.9004 9.94744 32.9051Z" fill="#8C857F"/>
<path d="M30.3695 26.7122C29.6645 24.7195 27.2658 24.8558 25.5877 25.3474C25.5241 25.361 25.4648 25.39 25.415 25.4318C25.3653 25.4736 25.3265 25.527 25.302 25.5872C25.2117 25.5903 25.1251 25.6241 25.0565 25.683C24.9879 25.7419 24.9414 25.8224 24.9248 25.9113C24.7524 26.8637 24.603 27.8236 24.4556 28.7802C23.6467 32.8151 26.3235 33.127 29.5744 32.9084C30.6421 32.8181 30.43 31.5304 30.4079 30.7614C30.4057 29.4276 30.8177 28.0115 30.3695 26.7122ZM28.8056 29.8201C28.7525 30.3303 28.7346 30.8436 28.7519 31.3562C27.877 31.3784 26.2457 31.5383 25.7928 30.6632C25.6473 29.1986 25.6556 27.7226 25.8177 26.2597C29.0752 26.1346 29.1367 26.8441 28.8056 29.8201Z" fill="#8C857F"/>
<path d="M37.7504 22.2465C37.6281 19.1447 36.1651 16.9994 32.8549 18.2788C32.7454 18.3105 32.6521 18.3826 32.5939 18.4805C32.5356 18.5784 32.5168 18.6948 32.5412 18.8061C32.4427 18.8284 32.354 18.8817 32.2881 18.9582C32.2223 19.0347 32.1827 19.1304 32.1754 19.2311C31.8862 22.4733 31.4156 25.7908 31.5684 29.0518C31.5357 29.5445 31.6026 30.0388 31.765 30.5051C31.9275 30.9714 32.1822 31.4002 32.5139 31.766C32.8457 32.1318 33.2477 32.427 33.696 32.634C34.1443 32.8411 34.6297 32.9557 35.1233 32.9711C35.9903 32.9985 37.611 32.9936 37.6698 31.8694C37.7477 31.0852 37.7491 30.2952 37.6739 29.5106C37.6593 27.0872 37.9456 24.6669 37.7504 22.2465ZM36.1917 24.0288C36.1575 26.4473 35.9022 28.8533 36.0592 31.2726C33.3025 31.8726 32.9327 29.696 33.0404 27.5153C32.9862 24.7366 32.9722 21.9502 33.0993 19.1772C36.5204 18.2517 36.2716 21.696 36.1917 24.0288Z" fill="#8C857F"/>
<path d="M45.0312 17.3547C44.8722 14.9611 45.0657 11.3944 42.4833 10.2364C41.63 10.0683 40.7448 10.2348 40.0109 10.7013C39.9484 10.7384 39.8955 10.7896 39.8564 10.8508C39.8173 10.9121 39.7932 10.9816 39.7859 11.0539C39.7786 11.1262 39.7884 11.1992 39.8145 11.267C39.8405 11.3348 39.8822 11.3955 39.936 11.4443C39.8742 11.441 39.8123 11.4501 39.7539 11.4709C39.6956 11.4917 39.6419 11.5238 39.596 11.5654C39.5502 11.6071 39.513 11.6574 39.4867 11.7135C39.4603 11.7695 39.4454 11.8303 39.4427 11.8922C39.1614 16.7488 38.8149 21.6019 38.8069 26.4696C38.804 28.2638 38.8963 30.4099 40.1318 31.8387C40.6982 32.4752 41.4811 32.8782 42.3283 32.9693C43.1754 33.0604 44.0261 32.833 44.7148 32.3315C44.8097 32.26 44.8788 32.1596 44.9115 32.0454C44.9443 31.9313 44.939 31.8095 44.8963 31.6987C45.0279 30.4935 45.0428 29.2785 44.9407 28.0705C44.9264 24.4969 45.1739 20.9274 45.0312 17.3547ZM43.4517 20.1247C43.5 23.8041 42.9423 27.5517 43.3896 31.2184C39.677 32.305 40.4114 25.9764 40.3143 23.7988C40.2835 19.8297 40.2361 15.8593 40.3743 11.8922C40.3784 11.8331 40.3698 11.7738 40.349 11.7184C40.3282 11.6629 40.2958 11.6126 40.2539 11.5708C41.3095 11.231 42.2592 10.891 42.8345 12.1012C43.8213 14.6283 43.4358 17.4667 43.4517 20.1247Z" fill="#8C857F"/>
<path d="M38.1224 5.36623C38.4875 6.36085 39.5421 5.6039 40.1831 5.3481C37.949 9.23364 34.772 12.4938 30.9454 14.8275C29.5406 15.706 28.0494 16.4353 26.6559 17.3217C26.5743 17.373 26.5135 17.4516 26.4846 17.5435C26.4556 17.6355 26.4602 17.7347 26.4977 17.8235C26.5351 17.9123 26.6029 17.985 26.689 18.0284C26.775 18.0718 26.8737 18.0833 26.9674 18.0606C33.1499 16.5102 38.0632 11.56 41.3994 6.31501C41.4104 6.51306 41.4408 6.70956 41.4901 6.90168C41.5353 7.05123 41.6323 7.1798 41.7637 7.2643C41.8951 7.34879 42.0523 7.3837 42.2071 7.36274C42.3619 7.34178 42.5042 7.26633 42.6084 7.14994C42.7126 7.03354 42.7719 6.88382 42.7756 6.72764C42.7754 6.11451 42.6619 5.49671 42.6838 4.87928C42.6735 4.46189 42.7503 3.78157 42.175 3.74911C42.1063 3.66819 42.0211 3.60287 41.9251 3.5575C41.8291 3.51214 41.7246 3.48778 41.6184 3.48606C41.5123 3.48434 41.407 3.50528 41.3096 3.5475C41.2122 3.58972 41.1249 3.65224 41.0536 3.73089C40.4341 3.90228 39.815 4.07494 39.2071 4.28446C38.6583 4.41099 37.9595 4.6764 38.1224 5.36623Z" fill="#8C857F"/>
</svg>
