<svg width="48" height="48" viewBox="0 0 48 48" fill="none" xmlns="http://www.w3.org/2000/svg">
<path d="M6.07432 19.8016C6.3459 19.3988 5.72893 18.924 5.40121 19.2822C4.69463 19.9853 3.99811 21.005 4.59532 21.9949C5.1101 22.8974 6.33345 22.9945 7.26022 22.9586C8.00525 22.8728 9.51436 22.9298 9.45925 21.8715C10.641 21.6479 10.7214 19.9843 9.9875 19.2363C9.19624 18.3205 7.85166 18.4076 6.81801 18.8064C6.74263 18.8301 6.67938 18.8821 6.6416 18.9515C6.60381 19.0209 6.59443 19.1023 6.61544 19.1785C6.63644 19.2547 6.68619 19.3197 6.7542 19.3599C6.82222 19.4002 6.90319 19.4124 6.98006 19.3941C7.36019 19.2809 7.76273 19.2653 8.15047 19.3489C8.5382 19.4324 8.89862 19.6124 9.19839 19.8721C9.28695 19.9753 9.34521 20.1011 9.36673 20.2354C9.38824 20.3697 9.37217 20.5073 9.3203 20.6331C9.30323 20.6642 9.16459 20.8639 9.27749 20.7125C9.06514 21.0359 8.89212 21.1037 8.87962 21.3708C7.94884 21.4077 5.37531 22.3092 5.61052 20.7725C5.67551 20.4132 5.83567 20.0779 6.07432 19.8016Z" fill="#8C857F"/>
<path d="M16.3916 20.9601C15.9757 21.4323 15.9748 22.1767 16.7551 22.1745C17.267 22.1404 17.607 21.5838 17.7196 21.1284C17.8038 20.6958 17.7483 20.2475 17.5611 19.8484C17.3739 19.4493 17.0648 19.1201 16.6783 18.9081C16.2262 18.6853 15.734 18.5558 15.2308 18.5273C14.7277 18.4987 14.2239 18.5717 13.7495 18.7418C13.6903 18.7572 13.6365 18.7889 13.5944 18.8333C13.5522 18.8777 13.5233 18.933 13.511 18.9929C12.4728 18.763 11.8651 20.356 12.1004 21.1948C12.3533 22.5405 14.4455 23.1889 15.2588 22.0063C15.3141 21.9055 15.3388 21.7908 15.33 21.6762C15.3212 21.5616 15.2791 21.4521 15.2091 21.3609C15.139 21.2698 15.0439 21.201 14.9354 21.163C14.827 21.125 14.7097 21.1194 14.5981 21.1469C14.3201 21.2794 14.005 21.3125 13.7055 21.2408C13.6134 21.1913 13.5353 21.1194 13.4785 21.0316C13.4216 20.9439 13.3879 20.8432 13.3804 20.7389C13.3728 20.6346 13.3918 20.5301 13.4355 20.4351C13.4791 20.3401 13.5461 20.2577 13.6301 20.1955C13.7577 20.1168 13.856 19.9985 13.9102 19.8587C13.9643 19.719 13.9712 19.5653 13.9299 19.4212C14.5332 19.4358 15.1302 19.5483 15.6974 19.7545C16.0744 19.9209 16.4932 20.2343 16.4479 20.6937C16.4512 20.6806 16.4527 20.6724 16.4584 20.6536C16.4562 20.6725 16.431 20.7603 16.4402 20.7478C16.4312 20.82 16.4149 20.8911 16.3916 20.9601Z" fill="#8C857F"/>
<path d="M20.3317 18.9479C19.9326 19.2486 19.6505 19.6787 19.5339 20.1647C18.8896 22.8408 22.4839 22.9186 24.0608 21.9208C25.3748 22.5184 25.9736 20.5482 25.5728 19.5908C25.4379 19.2346 25.2258 18.9125 24.9519 18.6478C24.6779 18.3831 24.3488 18.1822 23.9882 18.0596C23.6275 17.9369 23.2442 17.8955 22.8656 17.9384C22.4871 17.9812 22.1227 18.1072 21.7986 18.3074C21.7007 18.3691 21.6279 18.4636 21.5932 18.5739C21.5585 18.6843 21.5641 18.8034 21.6091 18.9101C21.654 19.0167 21.7354 19.1039 21.8387 19.1561C21.9419 19.2083 22.0604 19.2221 22.1729 19.1951C23.1661 18.67 24.9036 19.5848 24.0536 20.7595C23.2411 20.4372 22.1244 21.0218 21.2019 20.7807C21.2296 20.8021 21.1703 20.7729 21.1501 20.7629C21.005 20.4311 21.3547 19.9526 21.3982 19.5687C21.4319 19.4336 21.4208 19.2914 21.3667 19.1632C21.3125 19.035 21.2183 18.9279 21.098 18.8579C20.9778 18.7879 20.838 18.7588 20.6998 18.775C20.5616 18.7913 20.4324 18.8519 20.3317 18.9479Z" fill="#8C857F"/>
<path d="M4.59526 27.9033C5.11014 28.8058 6.33349 28.9028 7.26026 28.8669C8.00387 28.78 9.51534 28.839 9.45934 27.7798C10.6411 27.5561 10.7214 25.8927 9.9875 25.1446C9.19624 24.2288 7.85167 24.3159 6.81802 24.7148C6.74266 24.7385 6.67945 24.7905 6.64168 24.8599C6.60392 24.9293 6.59455 25.0106 6.61555 25.0868C6.63655 25.1629 6.68627 25.228 6.75426 25.2682C6.82225 25.3085 6.9032 25.3207 6.98007 25.3025C7.36019 25.1893 7.76273 25.1737 8.15047 25.2572C8.53821 25.3407 8.89862 25.5207 9.1984 25.7804C9.28695 25.8837 9.34522 26.0094 9.36673 26.1437C9.38825 26.278 9.37218 26.4157 9.3203 26.5414C9.30323 26.5725 9.1646 26.7723 9.2775 26.6208C9.06525 26.944 8.89213 27.0121 8.87963 27.2792C7.9663 27.3132 5.982 28.0562 5.58379 27.058C5.57291 26.5631 5.74797 26.0821 6.07441 25.7099C6.34594 25.3072 5.72902 24.8323 5.40125 25.1906C4.69467 25.8936 3.99815 26.9133 4.59526 27.9033Z" fill="#8C857F"/>
<path d="M12.1004 27.1031C12.3533 28.4487 14.4455 29.0972 15.2589 27.9146C15.3141 27.8138 15.3389 27.6991 15.33 27.5845C15.3212 27.4699 15.2792 27.3604 15.2091 27.2692C15.139 27.1781 15.044 27.1093 14.9355 27.0713C14.827 27.0333 14.7098 27.0277 14.5982 27.0552C13.8868 27.4008 13.0173 27.0635 13.5275 26.206C13.6796 26.1222 13.8007 25.9918 13.8731 25.834C13.9455 25.6763 13.9654 25.4994 13.9299 25.3295C14.5333 25.3441 15.1302 25.4566 15.6974 25.6628C16.0744 25.8292 16.4932 26.1426 16.4479 26.602C16.4513 26.5889 16.4527 26.5807 16.4584 26.5618C16.4562 26.5808 16.431 26.6686 16.4403 26.656C16.4312 26.778 16.3881 26.8949 16.3157 26.9935C16.2165 27.0776 16.1464 27.1908 16.1152 27.3171C16.084 27.4433 16.0934 27.5762 16.1421 27.6968C16.1907 27.8174 16.2762 27.9196 16.3862 27.9889C16.4963 28.0582 16.6254 28.091 16.7551 28.0828C17.267 28.0486 17.6071 27.4921 17.7197 27.0367C17.8038 26.6041 17.7483 26.1558 17.5611 25.7567C17.374 25.3577 17.0648 25.0284 16.6783 24.8164C16.2263 24.5937 15.734 24.4642 15.2309 24.4356C14.7277 24.407 14.2239 24.48 13.7496 24.6501C13.6903 24.6655 13.6366 24.6972 13.5944 24.7416C13.5522 24.786 13.5234 24.8413 13.511 24.9012C12.473 24.6715 11.865 26.2641 12.1004 27.1031Z" fill="#8C857F"/>
<path d="M47.8709 32.2292C48.5874 27.3182 46.3052 21.429 41.4381 19.5676C42.2572 16.4237 38.6317 15.6212 36.2516 15.7022C36.7269 12.6126 34.5209 11.0453 31.6167 11.4574C31.3658 8.01656 28.614 7.41682 25.6864 7.38116C25.8708 5.18213 24.8007 3.43359 22.516 3.14986C21.7618 2.93126 20.9555 2.97687 20.2308 3.27913C19.1972 4.06256 19.178 5.86452 18.8244 7.03935C17.0853 6.99029 15.3535 6.934 13.6178 6.9577C13.665 6.4987 13.62 6.03489 13.4855 5.5935C13.351 5.15211 13.1297 4.74203 12.8346 4.38733C12.5395 4.03263 12.1765 3.74046 11.7669 3.52796C11.3573 3.31545 10.9094 3.18691 10.4495 3.14986C9.69525 2.93126 8.88898 2.97687 8.16423 3.27913C7.39868 3.77024 7.26667 4.9551 7.0517 5.76298C6.91732 6.26793 6.80155 6.77478 6.71261 7.28414C5.38763 7.41206 4.06399 7.56583 2.74243 7.78096C1.64671 7.95933 2.12596 9.58371 3.19813 9.43396C4.31056 9.2786 5.4284 9.16125 6.54818 9.05991C6.26141 9.53746 6.14177 10.0969 6.20814 10.65C6.2745 11.203 6.52309 11.7183 6.9147 12.1144C7.64556 12.6516 8.52057 12.9575 9.42692 12.9928C12.1957 13.667 13.3873 11.056 13.5495 8.72301C15.2502 8.70714 16.9509 8.73228 18.6485 8.78863C18.6492 8.86517 18.6566 8.9423 18.6601 9.01904C18.5411 9.09787 18.4558 9.21838 18.4211 9.35688C18.2443 9.82249 18.2032 10.3287 18.3023 10.8167C18.4015 11.3048 18.6369 11.7548 18.9813 12.1145C19.7122 12.6516 20.5872 12.9575 21.4935 12.9928C24.0994 13.6095 25.3067 11.3893 25.5737 9.13669C26.7708 9.28977 28.2012 9.06055 29.191 9.87885C30.4963 11.4773 29.5563 13.9955 29.3554 15.8653C28.3194 15.6082 27.2468 15.5324 26.185 15.6415C22.8391 15.608 19.4937 15.6097 16.1509 15.4444C11.6741 15.3828 7.18896 14.6005 2.72856 14.6987C2.12603 14.7455 1.93064 15.639 2.57915 15.8027C4.73979 16.2189 6.93422 16.4347 9.13452 16.4475C13.6098 16.7182 18.0915 16.8598 22.5718 17.0186C24.7548 16.9766 27.043 17.3831 29.1894 16.9502C29.0209 18.1476 28.8656 19.347 28.7089 20.5461C26.9919 21.3519 25.5272 22.6108 24.4726 24.1872C24.0652 23.9519 23.6021 23.8303 23.1317 23.8353C22.6613 23.8403 22.2008 23.9716 21.7985 24.2155C21.6978 24.2756 21.6222 24.3701 21.5856 24.4816C21.5491 24.5931 21.5542 24.714 21.5998 24.8221C21.8327 25.3201 22.2624 25.041 22.6562 24.9715C23.0766 24.9121 23.5038 25.0166 23.8494 25.2633C23.6321 25.6895 23.4422 26.1292 23.2809 26.5796C22.5975 26.722 21.8964 26.7589 21.2019 26.6889C21.2296 26.7103 21.1702 26.6811 21.1501 26.6712C21.1107 26.6007 21.0948 26.5195 21.1047 26.4393C21.2254 25.9159 21.7316 25.1399 21.1049 24.7563C20.3268 24.4136 19.7054 25.4311 19.5339 26.0728C19.0379 28.2501 21.151 28.634 22.8135 28.2884C22.555 29.6549 22.5262 31.055 22.7281 32.431C17.4943 32.8544 12.2061 32.3932 6.95571 32.4667C2.92506 32.4584 1.06799 30.6953 1.50127 26.603C1.75444 21.1398 1.93649 15.673 2.16123 10.2084C2.19734 9.28832 0.773163 9.29164 0.732675 10.2084C0.567104 13.9587 0.401565 17.709 0.236058 21.4594C0.107889 26.389 -1.39419 32.5981 5.18248 33.6588C4.91225 34.1274 4.79844 34.6699 4.8576 35.2076C4.91676 35.7452 5.14579 36.25 5.51144 36.6487C6.69188 38.0017 8.71769 37.9118 10.3447 38.0213C15.233 38.6057 20.1717 38.6371 25.0671 38.1151C25.4768 38.6568 25.9272 39.1663 26.4146 39.6392C24.4967 40.4821 22.9498 44.6828 25.9882 44.9805C27.1648 44.8868 28.2826 44.4271 29.1849 43.6661C29.6972 43.3226 30.2542 42.8045 30.0232 42.1291C31.7945 42.9473 33.7323 43.3413 35.6825 43.2797C37.6327 43.2182 39.5418 42.7028 41.258 41.7746C41.4791 42.4478 41.845 43.0643 42.3301 43.5809C42.8151 44.0974 43.4075 44.5013 44.0655 44.7642C44.4178 44.8518 44.7859 44.8539 45.1391 44.7702C45.4924 44.6866 45.8204 44.5196 46.096 44.2832C46.3715 44.0468 46.5864 43.7479 46.7228 43.4115C46.8592 43.0751 46.9131 42.711 46.88 42.3495C46.8338 41.4144 46.4016 40.1131 45.3051 40.039C45.1802 40.0456 45.0585 40.0814 44.9498 40.1435C44.8412 40.2057 44.7486 40.2923 44.6794 40.3967C44.6103 40.501 44.5665 40.62 44.5517 40.7443C44.5368 40.8686 44.5512 40.9946 44.5938 41.1123L44.5899 41.0635C44.6691 41.7486 45.6289 42.6187 44.7763 43.1916C44.6062 43.2071 44.4348 43.1871 44.2729 43.1331C44.1109 43.0791 43.9619 42.9921 43.8352 42.8776C43.2326 42.3787 42.6723 41.8309 42.1599 41.2397C43.7024 40.2354 45.0108 38.9108 45.9962 37.3561C46.9816 35.8014 47.621 34.0528 47.8709 32.2292ZM12.0764 6.96299L11.9379 8.75261C11.8855 9.30915 11.7536 9.85531 11.5462 10.3744C11.3519 10.8352 11.0554 11.4143 10.5043 11.4743C9.76416 11.4797 9.02655 11.387 8.31069 11.1989C7.57156 10.9469 7.58263 10.1923 7.53312 9.51634C7.52318 9.37943 7.46754 9.24984 7.37513 9.14834C7.77984 7.55228 8.26861 5.97873 8.8394 4.43426C9.56567 4.34584 10.3025 4.44768 10.9775 4.72979C11.3845 4.92495 11.7141 5.25122 11.9134 5.65622C12.1127 6.06122 12.1701 6.52145 12.0764 6.96299ZM24.1305 7.27311L23.9645 9.03822C23.904 9.49664 23.7858 9.94559 23.6127 10.3744C23.4185 10.8352 23.122 11.4143 22.5709 11.4743C21.8307 11.4796 21.0931 11.387 20.3772 11.1989C19.6381 10.9469 19.6492 10.1923 19.5997 9.51634C19.5897 9.37944 19.5341 9.24984 19.4417 9.14834C19.4764 9.03901 19.5108 8.92949 19.5428 8.81991L20.0147 7.0807C20.2389 6.17567 20.537 5.29056 20.906 4.43426C21.6322 4.34584 22.369 4.44768 23.0441 4.72979C24.0953 5.13222 24.2376 6.2767 24.1305 7.27311ZM31.5603 13.5538C31.5874 13.3018 31.608 13.047 31.6239 12.7918C33.8127 12.6593 35.2221 13.2466 34.8571 15.7502C33.5956 15.8495 32.1198 15.9239 31.1821 16.8671C31.3131 15.7633 31.4413 14.6591 31.5603 13.5538ZM30.885 19.3091C30.9698 19.4483 31.0753 19.5738 31.1979 19.6813C31.074 19.7085 30.9511 19.7406 30.8281 19.7722C30.8472 19.6178 30.8662 19.4635 30.885 19.3091ZM15.4918 36.78C13.5136 36.7974 11.5314 36.9362 9.55383 36.85C8.60296 36.894 7.65573 36.7054 6.79419 36.3006C6.57329 36.1944 6.37839 36.041 6.22323 35.8512C6.06808 35.6614 5.95646 35.4399 5.89625 35.2023C5.83603 34.9647 5.82869 34.7168 5.87473 34.476C5.92077 34.2353 6.01909 34.0076 6.16273 33.8089C10.643 34.1825 15.0975 34.2796 19.5815 34.5006C20.7773 34.565 21.9765 34.5236 23.1651 34.3771C23.3768 35.0712 23.649 35.7453 23.9787 36.3916C21.1604 36.6686 18.3131 36.7552 15.4918 36.78ZM28.5901 41.9477C27.8493 42.5923 26.8259 43.4585 25.8006 43.3659C25.4661 42.5048 26.4016 41.0549 26.9007 40.0965C27.5975 40.709 28.3578 41.2452 29.1685 41.6962C28.9543 41.7184 28.7523 41.8062 28.5901 41.9477ZM38.928 40.5486C30.4241 43.8763 21.4497 35.2609 24.897 26.6692C25.3481 25.5381 26.0247 24.5108 26.8857 23.6497C27.7467 22.7887 28.774 22.112 29.905 21.6608C31.036 21.2097 32.2471 20.9936 33.4643 21.0257C34.6815 21.0577 35.8795 21.3373 36.9852 21.8474C37.7196 22.1206 38.1086 21.0197 37.4988 20.6287C36.1101 19.7642 34.4853 19.3568 32.8529 19.4638C32.8803 19.3336 32.8574 19.1979 32.7887 19.0839C32.7201 18.9699 32.6109 18.8862 32.483 18.8494C31.5916 18.347 32.4941 17.6196 33.1497 17.532C34.4009 17.2086 41.0186 16.7549 39.7096 19.2607C39.5256 19.2578 39.3415 19.2643 39.1581 19.28C38.9749 19.286 38.7997 19.3566 38.6637 19.4794C38.5276 19.6023 38.4395 19.7693 38.4149 19.951C38.3903 20.1326 38.4309 20.3171 38.5294 20.4717C38.6279 20.6262 38.778 20.7409 38.9531 20.7953C41.073 21.4113 42.9216 22.7275 44.1972 24.5293C45.0789 25.8863 45.6448 27.4239 45.8532 29.0286C46.0617 30.6334 45.9074 32.2645 45.4018 33.8018C44.8962 35.339 44.052 36.7432 42.9316 37.9109C41.8112 39.0785 40.443 39.9799 38.928 40.5486Z" fill="#8C857F"/>
<path d="M36.2661 25.2637C35.4085 27.0339 35.3494 29.6108 35.0119 31.5866C33.4766 31.1603 31.879 30.8781 30.3541 30.4256C29.4476 30.1499 27.7839 29.2375 27.4879 30.6939C27.4155 32.1158 29.2863 31.8595 30.2333 32.0651C30.861 32.176 31.4809 32.353 32.1021 32.4961C32.7511 32.6456 33.4006 32.7925 34.0499 32.9407C34.6409 33.0756 35.3912 33.3839 35.9583 33.0286C36.5301 32.6702 36.5007 31.9214 36.5659 31.3296C36.5651 30.7019 37.5332 24.2345 36.2661 25.2637Z" fill="#8C857F"/>
</svg>
