<svg width="48" height="48" viewBox="0 0 48 48" fill="none" xmlns="http://www.w3.org/2000/svg">
<path d="M41.5253 38.8836C42.5436 33.2088 42.3928 27.3439 43.2195 21.6317C43.4888 19.6678 44.0485 17.1243 42.996 15.3101C42.9449 15.2133 42.87 15.131 42.7784 15.071C42.6868 15.011 42.5814 14.9753 42.4721 14.9672C41.3439 13.5689 39.2884 13.5758 37.6103 13.7345C37.5648 6.68833 39.3458 2.69187 30.3059 2.93929C23.8466 2.65343 17.3754 2.7995 10.9356 3.37654C10.6856 3.39701 10.4521 3.50954 10.2803 3.69232C10.1085 3.8751 10.0107 4.11513 10.0057 4.36591C9.93706 4.36553 9.86906 4.37943 9.80605 4.40673C9.74304 4.43403 9.68639 4.47414 9.63972 4.5245C9.59304 4.57487 9.55735 4.6344 9.53491 4.6993C9.51247 4.7642 9.50378 4.83306 9.50938 4.9015C9.62226 8.10204 9.70722 11.3036 9.80166 14.5049C3.69271 14.5703 4.59949 17.5621 4.46691 22.3451C4.49854 27.9531 4.39005 33.5633 5.06791 39.1289C2.01148 39.0538 0.175528 43.2138 3.40102 44.5447C5.48752 45.0699 7.71265 44.9109 9.85709 45.0422C17.1275 45.242 24.3999 45.2635 31.6742 45.1066C34.1004 45.0542 36.5206 44.9362 38.944 44.8197C40.7934 44.7308 42.7986 44.9364 44.5206 44.1433C46.0722 43.4286 46.8613 41.7946 45.7971 40.2678C44.8213 38.8677 43.1154 38.6389 41.5253 38.8836ZM10.9356 5.32768C17.6834 4.74778 24.4609 4.59139 31.2283 4.85943C32.3954 4.90493 33.9755 4.75126 35.0251 5.39689C36.2828 6.17046 35.9643 7.94123 35.892 9.19147C35.6463 14.8 35.5327 20.4104 35.1009 26.0126C32.073 25.5875 29.0984 24.9645 26.0856 24.4608C25.9574 24.4285 25.823 24.43 25.6955 24.4651C25.5681 24.5003 25.4519 24.5679 25.3584 24.6614C25.2649 24.7549 25.1973 24.871 25.1622 24.9985C25.127 25.126 25.1255 25.2604 25.1579 25.3885C25.8069 27.6472 26.3644 29.9467 27.1211 32.1702C23.7913 32.437 20.4473 32.4787 17.1119 32.2951C13.7961 32.3412 12.0923 31.4748 11.9935 27.9196C11.6132 20.3804 11.2257 12.8409 10.6622 5.31212C10.7522 5.32992 10.8442 5.33516 10.9356 5.32768ZM6.38773 16.9861C7.08952 15.8708 8.67178 15.9702 9.8421 15.8854C9.9657 19.8988 10.1158 23.9112 10.3762 27.9196C10.4145 30.8822 11.7344 33.3314 14.8706 33.782C19.1494 34.3167 23.4731 34.392 27.7679 34.0066C27.8146 34.1373 27.8591 34.2671 27.9059 34.3981C27.9455 34.5242 28.0325 34.63 28.1486 34.6932C28.2647 34.7563 28.4008 34.772 28.5282 34.7369C28.6556 34.7018 28.7644 34.6186 28.8317 34.5048C28.899 34.3911 28.9195 34.2557 28.889 34.1271C28.4005 31.4166 27.6715 28.7669 26.9236 26.1169C29.7333 26.5736 32.574 27.0111 35.3509 27.5696C35.8648 27.8399 34.7333 28.9284 34.5489 29.1942C34.297 29.5244 34.1487 29.9219 34.1227 30.3364C34.0967 30.7509 34.1942 31.1638 34.4029 31.5229C34.7775 32.1351 35.424 32.4561 35.8991 32.9697C36.2477 33.3467 36.3172 34.3125 35.5757 34.2506C35.2528 34.2236 34.9356 33.9025 34.6869 33.7261C34.2433 33.4322 33.7419 33.2369 33.2164 33.1535C32.6909 33.07 32.1536 33.1004 31.6408 33.2424C31.128 33.3845 30.6517 33.6349 30.2441 33.9769C29.8364 34.3189 29.5069 34.7444 29.2779 35.2246C29.1664 35.4197 29.1364 35.651 29.1944 35.8681C29.2525 36.0852 29.3939 36.2706 29.5879 36.384C29.7819 36.4974 30.0129 36.5296 30.2305 36.4737C30.4482 36.4177 30.6349 36.2781 30.7502 36.0852C31.3841 34.6457 32.9962 34.5437 34.1237 35.4855C34.5137 35.7636 34.9801 35.9145 35.4591 35.9173C35.9381 35.9202 36.4063 35.7749 36.7996 35.5014C37.1928 35.2279 37.4919 34.8396 37.656 34.3895C37.82 33.9394 37.8409 33.4497 37.7158 32.9873C37.4075 32.2126 36.8589 31.5571 36.1507 31.1171C35.2622 30.5215 35.7445 30.0642 36.2793 29.4502C36.5533 29.1564 36.7538 28.8018 36.8643 28.4155C36.9747 28.0292 36.9921 27.6223 36.9149 27.228C37.2688 23.2072 37.4422 19.1777 37.5724 15.1452C38.9245 14.9703 40.547 14.8044 41.674 15.6827C42.3954 17.5349 41.6599 19.4827 41.6293 21.4165C41.4028 25.3111 40.8323 29.1746 40.409 33.0499C40.133 34.8441 40.2484 36.7496 39.7687 38.4992C39.4297 39.3365 38.5042 39.3353 37.7253 39.3619C34.676 39.3538 31.5833 39.7175 28.544 39.5916C21.6633 39.298 14.7321 39.5233 7.8412 39.3731C6.55135 39.4052 6.53721 38.4831 6.5411 37.4506C6.16798 31.4916 6.05659 25.5236 6.20693 19.5466C6.22625 18.7955 6.04612 17.6828 6.38773 16.9861ZM21.1214 41.1332C21.1175 41.118 21.1126 41.1031 21.1065 41.0886C21.1092 41.0892 21.1066 41.0466 21.104 41.0511C21.109 41.039 21.1133 41.0265 21.1171 41.0139C21.0966 41.0792 21.1179 41.0263 21.1421 40.9619C22.4708 40.9568 23.7999 40.9552 25.1294 40.957C24.6097 41.3955 23.9506 41.6341 23.2707 41.6299C22.6287 41.6123 21.6036 41.7925 21.1583 41.2513C21.177 41.2937 21.126 41.149 21.1214 41.1332ZM42.2979 43.2635C29.4704 43.7379 16.5433 43.8839 3.74407 43.3004C2.67638 42.9379 2.78451 41.6414 3.4734 40.9634C4.07195 40.4975 4.7803 40.1935 5.53031 40.0806C6.2236 41.0639 7.5907 41.0692 8.68215 41.0366C12.4096 41.0399 16.14 40.9777 19.8654 40.9635C19.6754 42.7094 21.7394 42.9138 23.0245 42.8242C24.4301 42.8855 26.0359 42.3557 26.5903 40.9467C29.8047 40.7677 33.0111 41.0598 36.2263 41.0948C37.6082 41.1125 39.3497 41.394 40.5027 40.5048C41.9592 40.3124 43.8767 39.7833 44.8231 41.2823C45.9461 43.0609 43.3523 43.2018 42.2979 43.2635Z" fill="#8C857F"/>
<path d="M16.3884 17.5315C19.3848 19.0079 23.0139 16.522 23.0301 13.2785C24.0763 12.4042 25.1044 11.5055 26.139 10.6211C26.223 10.537 26.2897 10.4372 26.3352 10.3274C26.3807 10.2175 26.4041 10.0998 26.4041 9.98093C26.4041 9.86204 26.3807 9.74433 26.3352 9.63449C26.2897 9.52466 26.223 9.42486 26.139 9.3408C26.0549 9.25674 25.9551 9.19006 25.8453 9.14456C25.7355 9.09907 25.6177 9.07565 25.4989 9.07565C25.38 9.07565 25.2623 9.09907 25.1524 9.14456C25.0426 9.19006 24.9428 9.25674 24.8587 9.3408C24.1345 10.022 23.4104 10.7031 22.6862 11.3843C22.1758 9.5717 18.575 7.26988 17.0768 9.01144C17.0002 9.09007 16.9425 9.18499 16.9077 9.28909C16.873 9.3932 16.8623 9.5038 16.8763 9.61264C16.8903 9.72148 16.9288 9.82574 16.9888 9.91764C17.0487 10.0095 17.1287 10.0867 17.2227 10.1434C17.2518 10.1587 17.4744 10.2939 17.2924 10.1709C17.6751 10.5281 18.2379 10.496 18.7091 10.6007C19.2867 10.7208 19.8149 11.0119 20.225 11.4361C20.635 11.8603 20.908 12.3981 21.0084 12.9795C20.8424 13.1349 20.6574 13.3785 20.4146 13.3108C19.8812 13.1759 19.6013 12.569 19.3688 12.1299C19.1206 11.6612 18.4144 11.9894 18.5334 12.4821C18.7155 13.5276 19.4029 14.7853 20.6058 14.719C20.3207 15.2679 19.863 15.7077 19.3033 15.9709C18.7436 16.234 18.1129 16.3058 17.5083 16.1752C14.3382 15.5151 14.1331 11.5396 16.6164 9.87762C16.9276 9.6719 16.7357 9.07812 16.3454 9.2351C12.6497 10.7361 12.7541 16.0095 16.3884 17.5315ZM18.5538 10.5663C18.5973 10.5714 18.609 10.5728 18.5538 10.5663V10.5663ZM21.0059 12.9331C20.999 12.8082 20.9995 12.8868 21.0059 12.9331V12.9331Z" fill="#8C857F"/>
<path d="M16.3884 28.9082C19.3848 30.3846 23.0139 27.8987 23.0301 24.6551C24.0763 23.7808 25.1044 22.8823 26.139 21.9978C26.2238 21.9139 26.2912 21.814 26.3373 21.704C26.3835 21.594 26.4074 21.4759 26.4077 21.3566C26.408 21.2373 26.3848 21.1191 26.3393 21.0088C26.2938 20.8985 26.2269 20.7983 26.1426 20.7139C26.0582 20.6296 25.958 20.5627 25.8477 20.5172C25.7374 20.4717 25.6192 20.4485 25.4999 20.4488C25.3806 20.4491 25.2625 20.473 25.1525 20.5191C25.0425 20.5653 24.9426 20.6327 24.8587 20.7175C24.1345 21.3987 23.4104 22.0798 22.6862 22.761C22.1758 20.9484 18.575 18.6466 17.0768 20.3881C17.0002 20.4668 16.9425 20.5617 16.9077 20.6658C16.873 20.7699 16.8623 20.8805 16.8763 20.9893C16.8903 21.0982 16.9288 21.2025 16.9888 21.2943C17.0487 21.3862 17.1287 21.4634 17.2227 21.5201C17.2518 21.5354 17.4744 21.6706 17.2924 21.5476C17.6751 21.9048 18.2379 21.8727 18.7091 21.9774C19.2867 22.0975 19.8149 22.3886 20.225 22.8128C20.635 23.237 20.908 23.7748 21.0084 24.3562C20.8424 24.5116 20.6574 24.7552 20.4146 24.6875C19.8812 24.5527 19.6013 23.9458 19.3688 23.5066C19.1206 23.0379 18.4144 23.3661 18.5334 23.8588C18.7155 24.9043 19.4029 26.162 20.6058 26.0957C20.3207 26.6446 19.863 27.0844 19.3033 27.3476C18.7436 27.6107 18.1129 27.6825 17.5083 27.5519C14.3382 26.8918 14.1331 22.9163 16.6164 21.2543C16.9276 21.0486 16.7357 20.4548 16.3454 20.6118C12.6497 22.1128 12.7541 27.3861 16.3884 28.9082ZM18.5538 21.943C18.5973 21.9481 18.609 21.9494 18.5538 21.943V21.943ZM21.0059 24.3098C20.999 24.1849 20.9995 24.2635 21.0059 24.3098V24.3098Z" fill="#8C857F"/>
<path d="M28.8752 12.753C30.1739 12.7253 31.4728 12.7907 32.762 12.9487C33.2291 13.0903 33.7332 13.042 34.1649 12.8143C34.776 12.3791 34.2528 11.7156 33.696 11.551C32.1002 11.3112 30.4807 11.2721 28.8752 11.4346C28.7018 11.439 28.5367 11.5099 28.414 11.6326C28.2913 11.7553 28.2205 11.9204 28.2161 12.0938C28.218 12.268 28.2881 12.4346 28.4113 12.5578C28.5345 12.681 28.701 12.7511 28.8752 12.753Z" fill="#8C857F"/>
<path d="M28.5993 23.4213C29.4608 23.4944 30.3322 23.1301 31.2169 23.1878C31.5957 23.1827 31.9684 23.0917 32.307 22.9218C32.4025 22.8643 32.4815 22.7831 32.5364 22.686C32.5912 22.5889 32.6201 22.4793 32.6201 22.3678C32.6201 22.2563 32.5912 22.1467 32.5364 22.0497C32.4815 21.9526 32.4025 21.8714 32.307 21.8138C31.4148 21.2384 30.269 21.5337 29.3067 21.7622C28.7578 21.9122 27.9373 22.2215 28.1144 22.9363C28.1452 23.0528 28.2063 23.159 28.2915 23.2442C28.3767 23.3293 28.4829 23.3904 28.5993 23.4213Z" fill="#8C857F"/>
</svg>
