<svg width="48" height="48" viewBox="0 0 48 48" fill="none" xmlns="http://www.w3.org/2000/svg">
<path d="M27.6284 13.11C28.3841 12.7467 29.141 12.5005 29.9998 12.5005C30.8585 12.5005 31.6154 12.7467 32.3712 13.11C33.0808 13.4512 33.8884 13.9468 34.838 14.5295L36.9589 15.8309C37.8575 16.3822 38.6221 16.8514 39.2203 17.3043C39.8583 17.7874 40.3974 18.3164 40.7929 19.0307C41.1874 19.7433 41.352 20.4833 41.4281 21.2843C41.4998 22.0386 41.4998 22.9475 41.4998 24.0211L41.4998 35.9217V35.9218C41.4998 37.7628 41.4999 39.2912 41.3405 40.5033C41.173 41.7775 40.8056 42.9257 39.9007 43.8511C38.9912 44.7812 37.855 45.1633 36.5932 45.3367C35.4014 45.5006 33.901 45.5006 32.1057 45.5005H27.8938C26.0985 45.5006 24.5981 45.5006 23.4064 45.3367C22.1445 45.1633 21.0083 44.7812 20.0989 43.8511C19.1939 42.9257 18.8265 41.7775 18.659 40.5033C18.4997 39.2912 18.4997 37.7627 18.4998 35.9217L18.4998 24.0211C18.4997 22.9475 18.4997 22.0386 18.5714 21.2843C18.6475 20.4833 18.8121 19.7433 19.2067 19.0307C19.6021 18.3164 20.1412 17.7874 20.7792 17.3043C21.3774 16.8514 22.142 16.3822 23.0405 15.831L23.0405 15.831L25.1615 14.5295C26.1112 13.9468 26.9187 13.4512 27.6284 13.11Z" fill="#A0A4A6"/>
<path fill-rule="evenodd" clip-rule="evenodd" d="M23.2368 14.4396C22.6498 14.5395 21.9064 14.7391 20.744 15.0544L18.4949 15.6644C17.3943 15.963 16.6942 16.1548 16.1702 16.3507C15.6802 16.5339 15.4923 16.6694 15.38 16.7776C15.2737 16.8801 15.147 17.0421 14.973 17.4822C14.7815 17.9666 14.5952 18.6175 14.2975 19.671L11.3199 30.208C10.8145 31.9964 10.4962 33.1396 10.3783 34.0075C10.2691 34.8105 10.3796 35.0703 10.4716 35.2215C10.4706 35.2202 10.4713 35.221 10.4716 35.2215C10.4833 35.2365 10.5889 35.3728 10.8911 35.6019C11.1939 35.8315 11.6059 36.0886 12.1108 36.352C13.1218 36.8794 14.3801 37.3668 15.6045 37.6867C16.6293 37.9545 17.2454 39.0114 16.9806 40.0474C16.7157 41.0833 15.6701 41.7061 14.6453 41.4384C13.1546 41.049 11.6274 40.4603 10.3529 39.7955C9.71519 39.4629 9.10945 39.0949 8.59096 38.7018C8.09728 38.3275 7.56775 37.845 7.20705 37.2526C6.4682 36.0391 6.40792 34.7505 6.58056 33.4802C6.74017 32.3057 7.13912 30.8943 7.59755 29.2724C7.60963 29.2297 7.62176 29.1868 7.63393 29.1437L10.6115 18.6067C10.6194 18.579 10.6272 18.5514 10.6349 18.5239C10.902 17.5786 11.1405 16.7344 11.4134 16.0441C11.7118 15.2894 12.0992 14.586 12.734 13.9739C13.3628 13.3675 14.0787 13.0011 14.8407 12.7163C15.5503 12.451 16.4233 12.2142 17.4236 11.943L19.831 11.29C20.8898 11.0027 21.811 10.7528 22.6001 10.6185C23.4486 10.474 24.2868 10.4347 25.1705 10.6592C26.6625 11.0383 27.7423 12.054 28.9103 13.1869C29.6742 13.9277 29.6992 15.1542 28.9663 15.9263C28.2334 16.6984 27.0201 16.7237 26.2563 15.9828C24.9754 14.7404 24.5906 14.5074 24.2361 14.4173C24.0464 14.3691 23.7841 14.3464 23.2368 14.4396Z" fill="#A0A4A6"/>
<path fill-rule="evenodd" clip-rule="evenodd" d="M26.0949 7.1166C24.7965 7.94513 23.5646 9.37333 22.7966 11.2318C22.5416 11.8489 22.359 12.4626 22.2426 13.0584C22.0415 14.088 21.0487 14.7587 20.0251 14.5564C19.0015 14.3542 18.3347 13.3556 18.5358 12.326C18.7015 11.4772 18.9583 10.6205 19.3083 9.77344C20.3498 7.25288 22.0659 5.18768 24.0711 3.9081C26.0666 2.63476 28.5058 2.05821 30.816 2.88901C33.1528 3.72936 34.6028 5.73756 35.1868 8.01338C35.7686 10.2804 35.54 12.9216 34.4992 15.4403C33.4897 17.8832 31.8477 19.8963 29.9249 21.1824C29.0563 21.7634 27.8838 21.5262 27.3062 20.6525C26.7285 19.7787 26.9644 18.5994 27.8331 18.0184C29.0881 17.1789 30.2674 15.7811 31.0108 13.982C31.7795 12.1217 31.8792 10.3274 31.5291 8.9631C31.1812 7.60762 30.439 6.78874 29.5442 6.46693C28.6228 6.13558 27.403 6.28184 26.0949 7.1166Z" fill="#A0A4A6"/>
</svg>
