<svg width="48" height="48" viewBox="0 0 48 48" fill="none" xmlns="http://www.w3.org/2000/svg">
<path fill-rule="evenodd" clip-rule="evenodd" d="M24 16C19.5817 16 16 19.5817 16 24C16 28.4183 19.5817 32 24 32C28.4183 32 32 28.4183 32 24C32 22.8954 32.8954 22 34 22C35.1046 22 36 22.8954 36 24C36 30.6274 30.6274 36 24 36C17.3726 36 12 30.6274 12 24C12 17.3726 17.3726 12 24 12C25.1046 12 26 12.8954 26 14C26 15.1046 25.1046 16 24 16Z" fill="#A0A4A6"/>
<path fill-rule="evenodd" clip-rule="evenodd" d="M24 6C14.0589 6 6 14.0589 6 24C6 33.9411 14.0589 42 24 42C33.9411 42 42 33.9411 42 24C42 22.7645 41.8758 21.5601 41.6399 20.3979C41.4202 19.3154 42.1196 18.2597 43.2021 18.04C44.2846 17.8202 45.3402 18.5196 45.56 19.6021C45.8487 21.0248 46 22.4958 46 24C46 36.1503 36.1503 46 24 46C11.8497 46 2 36.1503 2 24C2 11.8497 11.8497 2 24 2C25.5042 2 26.9752 2.15126 28.3979 2.44005C29.4804 2.65978 30.1798 3.71544 29.96 4.79794C29.7403 5.88043 28.6846 6.57983 27.6021 6.3601C26.4399 6.12418 25.2355 6 24 6Z" fill="#A0A4A6"/>
<path d="M40.2843 4.15546C39.969 2.94721 38.9926 2.20542 37.9451 2.0381C36.9356 1.87684 35.9127 2.23528 35.1819 2.96615L32.8831 5.26492C30.3443 7.80374 30.1317 10.9324 30.9817 14.1901L22.5858 22.586C21.8047 23.3671 21.8047 24.6334 22.5858 25.4145C23.3668 26.1955 24.6332 26.1955 25.4142 25.4145L33.8102 17.0185C37.0679 17.8685 40.1965 17.656 42.7353 15.1172L45.0341 12.8184C45.765 12.0875 46.1234 11.0646 45.9622 10.0551C45.7948 9.00767 45.053 8.03124 43.8448 7.71599L41.021 6.97923L40.2843 4.15546Z" fill="#A0A4A6"/>
</svg>
